M48
; DRILL file {KiCad 8.0.8-8.0.8-0~ubuntu24.04.1} date 2025-05-21T16:54:04-0500
; FORMAT={-:-/ absolute / inch / decimal}
; #@! TF.CreationDate,2025-05-21T16:54:04-05:00
; #@! TF.GenerationSoftware,Kicad,Pcbnew,8.0.8-8.0.8-0~ubuntu24.04.1
; #@! TF.FileFunction,Plated,1,2,PTH
FMAT,2
INCH
; #@! TA.AperFunction,Plated,PTH,ComponentDrill
T1C0.0315
; #@! TA.AperFunction,Plated,PTH,ComponentDrill
T2C0.0374
%
G90
G05
T1
X4.9508Y-4.0217
X4.9508Y-4.1217
X4.9508Y-4.2217
X4.9508Y-4.3217
X4.9508Y-4.4217
X4.9508Y-4.5217
X4.9508Y-4.6217
X4.9508Y-4.7217
X5.4429Y-4.0217
X5.4429Y-4.1217
X5.4429Y-4.2217
X5.4429Y-4.3217
X5.4429Y-4.4217
X5.4429Y-4.5217
X5.4429Y-4.6217
X5.4429Y-4.7217
T2
X5.0Y-4.8819
X5.0591Y-3.8583
X5.0984Y-4.8819
X5.1575Y-3.8583
X5.1969Y-4.8819
X5.2559Y-3.8583
X5.2953Y-4.8819
X5.3543Y-3.8583
X5.3937Y-4.8819
M30
