%TF.GenerationSoftware,KiCad,Pcbnew,8.0.8-8.0.8-0~ubuntu24.04.1*%
%TF.CreationDate,2025-05-21T16:54:00-05:00*%
%TF.ProjectId,picowasabi,7069636f-7761-4736-9162-692e6b696361,rev?*%
%TF.SameCoordinates,Original*%
%TF.FileFunction,Copper,L2,Bot*%
%TF.FilePolarity,Positive*%
%FSLAX46Y46*%
G04 Gerber Fmt 4.6, Leading zero omitted, Abs format (unit mm)*
G04 Created by KiCad (PCBNEW 8.0.8-8.0.8-0~ubuntu24.04.1) date 2025-05-21 16:54:00*
%MOMM*%
%LPD*%
G01*
G04 APERTURE LIST*
G04 Aperture macros list*
%AMRoundRect*
0 Rectangle with rounded corners*
0 $1 Rounding radius*
0 $2 $3 $4 $5 $6 $7 $8 $9 X,Y pos of 4 corners*
0 Add a 4 corners polygon primitive as box body*
4,1,4,$2,$3,$4,$5,$6,$7,$8,$9,$2,$3,0*
0 Add four circle primitives for the rounded corners*
1,1,$1+$1,$2,$3*
1,1,$1+$1,$4,$5*
1,1,$1+$1,$6,$7*
1,1,$1+$1,$8,$9*
0 Add four rect primitives between the rounded corners*
20,1,$1+$1,$2,$3,$4,$5,0*
20,1,$1+$1,$4,$5,$6,$7,0*
20,1,$1+$1,$6,$7,$8,$9,0*
20,1,$1+$1,$8,$9,$2,$3,0*%
G04 Aperture macros list end*
%TA.AperFunction,ComponentPad*%
%ADD10RoundRect,0.250000X-0.600000X-0.725000X0.600000X-0.725000X0.600000X0.725000X-0.600000X0.725000X0*%
%TD*%
%TA.AperFunction,ComponentPad*%
%ADD11O,1.700000X1.950000*%
%TD*%
%TA.AperFunction,ComponentPad*%
%ADD12C,1.500000*%
%TD*%
%TA.AperFunction,ComponentPad*%
%ADD13RoundRect,0.250000X0.600000X0.725000X-0.600000X0.725000X-0.600000X-0.725000X0.600000X-0.725000X0*%
%TD*%
%TA.AperFunction,Conductor*%
%ADD14C,0.200000*%
%TD*%
G04 APERTURE END LIST*
D10*
%TO.P,J2,1,Pin_1*%
%TO.N,Net-(J2-Pin_1)*%
X128500000Y-98000000D03*
D11*
%TO.P,J2,2,Pin_2*%
%TO.N,Net-(J2-Pin_2)*%
X131000000Y-98000000D03*
%TO.P,J2,3,Pin_3*%
%TO.N,Net-(J2-Pin_3)*%
X133500000Y-98000000D03*
%TO.P,J2,4,Pin_4*%
%TO.N,Net-(J2-Pin_4)*%
X136000000Y-98000000D03*
%TD*%
D12*
%TO.P,mp6500stepper_driver1,1,vmot*%
%TO.N,Net-(J1-Pin_2)*%
X138250000Y-102150000D03*
%TO.P,mp6500stepper_driver1,2,GND*%
%TO.N,Net-(J1-Pin_1)*%
X138250000Y-104690000D03*
%TO.P,mp6500stepper_driver1,3,b2*%
%TO.N,Net-(J2-Pin_4)*%
X138250000Y-107230000D03*
%TO.P,mp6500stepper_driver1,4,b1*%
%TO.N,Net-(J2-Pin_3)*%
X138250000Y-109770000D03*
%TO.P,mp6500stepper_driver1,5,a1*%
%TO.N,Net-(J2-Pin_2)*%
X138250000Y-112310000D03*
%TO.P,mp6500stepper_driver1,6,a2*%
%TO.N,Net-(J2-Pin_1)*%
X138250000Y-114850000D03*
%TO.P,mp6500stepper_driver1,7,FLT*%
%TO.N,unconnected-(mp6500stepper_driver1-FLT-Pad7)*%
X138250000Y-117390000D03*
%TO.P,mp6500stepper_driver1,8,GND*%
%TO.N,Net-(J1-Pin_1)*%
X138250000Y-119930000D03*
%TO.P,mp6500stepper_driver1,9,EN*%
%TO.N,unconnected-(mp6500stepper_driver1-EN-Pad9)*%
X125750000Y-102150000D03*
%TO.P,mp6500stepper_driver1,10,ms1*%
%TO.N,unconnected-(mp6500stepper_driver1-ms1-Pad10)*%
X125750000Y-104690000D03*
%TO.P,mp6500stepper_driver1,11,ms2*%
%TO.N,unconnected-(mp6500stepper_driver1-ms2-Pad11)*%
X125750000Y-107230000D03*
%TO.P,mp6500stepper_driver1,12,I1*%
%TO.N,unconnected-(mp6500stepper_driver1-I1-Pad12)*%
X125750000Y-109770000D03*
%TO.P,mp6500stepper_driver1,13,I2*%
%TO.N,unconnected-(mp6500stepper_driver1-I2-Pad13)*%
X125750000Y-112310000D03*
%TO.P,mp6500stepper_driver1,14,SLP*%
%TO.N,Net-(J1-Pin_3)*%
X125750000Y-114850000D03*
%TO.P,mp6500stepper_driver1,15,STEP*%
%TO.N,Net-(J1-Pin_4)*%
X125750000Y-117390000D03*
%TO.P,mp6500stepper_driver1,16,DIR*%
%TO.N,Net-(J1-Pin_5)*%
X125750000Y-119930000D03*
%TD*%
D13*
%TO.P,J1,1,Pin_1*%
%TO.N,Net-(J1-Pin_1)*%
X137000000Y-124000000D03*
D11*
%TO.P,J1,2,Pin_2*%
%TO.N,Net-(J1-Pin_2)*%
X134500000Y-124000000D03*
%TO.P,J1,3,Pin_3*%
%TO.N,Net-(J1-Pin_3)*%
X132000000Y-124000000D03*
%TO.P,J1,4,Pin_4*%
%TO.N,Net-(J1-Pin_4)*%
X129500000Y-124000000D03*
%TO.P,J1,5,Pin_5*%
%TO.N,Net-(J1-Pin_5)*%
X127000000Y-124000000D03*
%TD*%
D14*
%TO.N,Net-(J2-Pin_4)*%
X138250000Y-107230000D02*
X136000000Y-104980000D01*
X136000000Y-104980000D02*
X136000000Y-98000000D01*
%TO.N,Net-(J2-Pin_1)*%
X128500000Y-98000000D02*
X128500000Y-105100000D01*
X128500000Y-105100000D02*
X138250000Y-114850000D01*
%TO.N,Net-(J2-Pin_3)*%
X133500000Y-105020000D02*
X138250000Y-109770000D01*
X133500000Y-98000000D02*
X133500000Y-105020000D01*
%TO.N,Net-(J2-Pin_2)*%
X138250000Y-112310000D02*
X131000000Y-105060000D01*
X131000000Y-105060000D02*
X131000000Y-98000000D01*
%TD*%
M02*
