%TF.GenerationSoftware,KiCad,Pcbnew,8.0.8-8.0.8-0~ubuntu24.04.1*%
%TF.CreationDate,2025-05-21T16:54:00-05:00*%
%TF.ProjectId,picowasabi,7069636f-7761-4736-9162-692e6b696361,rev?*%
%TF.SameCoordinates,Original*%
%TF.FileFunction,Legend,Top*%
%TF.FilePolarity,Positive*%
%FSLAX46Y46*%
G04 Gerber Fmt 4.6, Leading zero omitted, Abs format (unit mm)*
G04 Created by KiCad (PCBNEW 8.0.8-8.0.8-0~ubuntu24.04.1) date 2025-05-21 16:54:00*
%MOMM*%
%LPD*%
G01*
G04 APERTURE LIST*
%ADD10C,0.150000*%
%ADD11C,0.120000*%
G04 APERTURE END LIST*
D10*
X131916666Y-89554819D02*
X131916666Y-90269104D01*
X131916666Y-90269104D02*
X131869047Y-90411961D01*
X131869047Y-90411961D02*
X131773809Y-90507200D01*
X131773809Y-90507200D02*
X131630952Y-90554819D01*
X131630952Y-90554819D02*
X131535714Y-90554819D01*
X132345238Y-89650057D02*
X132392857Y-89602438D01*
X132392857Y-89602438D02*
X132488095Y-89554819D01*
X132488095Y-89554819D02*
X132726190Y-89554819D01*
X132726190Y-89554819D02*
X132821428Y-89602438D01*
X132821428Y-89602438D02*
X132869047Y-89650057D01*
X132869047Y-89650057D02*
X132916666Y-89745295D01*
X132916666Y-89745295D02*
X132916666Y-89840533D01*
X132916666Y-89840533D02*
X132869047Y-89983390D01*
X132869047Y-89983390D02*
X132297619Y-90554819D01*
X132297619Y-90554819D02*
X132916666Y-90554819D01*
X131666666Y-131354819D02*
X131666666Y-132069104D01*
X131666666Y-132069104D02*
X131619047Y-132211961D01*
X131619047Y-132211961D02*
X131523809Y-132307200D01*
X131523809Y-132307200D02*
X131380952Y-132354819D01*
X131380952Y-132354819D02*
X131285714Y-132354819D01*
X132666666Y-132354819D02*
X132095238Y-132354819D01*
X132380952Y-132354819D02*
X132380952Y-131354819D01*
X132380952Y-131354819D02*
X132285714Y-131497676D01*
X132285714Y-131497676D02*
X132190476Y-131592914D01*
X132190476Y-131592914D02*
X132095238Y-131640533D01*
D11*
%TO.C,J2*%
X125890000Y-91190000D02*
X138610000Y-91190000D01*
X125890000Y-92410000D02*
X127110000Y-92410000D01*
X125890000Y-99610000D02*
X125890000Y-91190000D01*
X127110000Y-92410000D02*
X127110000Y-97410000D01*
X127110000Y-96410000D02*
X137390000Y-96410000D01*
X127110000Y-97410000D02*
X125890000Y-97410000D01*
X127110000Y-97410000D02*
X127110000Y-99610000D01*
X127110000Y-99610000D02*
X125890000Y-99610000D01*
X128180000Y-92990000D02*
X128500000Y-92910000D01*
X128180000Y-96410000D02*
X128180000Y-92990000D01*
X128200000Y-100100000D02*
X128800000Y-100100000D01*
X128500000Y-92910000D02*
X128820000Y-92990000D01*
X128500000Y-96410000D02*
X128180000Y-96410000D01*
X128500000Y-99500000D02*
X128200000Y-100100000D01*
X128800000Y-100100000D02*
X128500000Y-99500000D01*
X128820000Y-92990000D02*
X128820000Y-96410000D01*
X128820000Y-96410000D02*
X128500000Y-96410000D01*
X129670000Y-97410000D02*
X129830000Y-97410000D01*
X130680000Y-92990000D02*
X131000000Y-92910000D01*
X130680000Y-96410000D02*
X130680000Y-92990000D01*
X131000000Y-92910000D02*
X131320000Y-92990000D01*
X131000000Y-96410000D02*
X130680000Y-96410000D01*
X131320000Y-92990000D02*
X131320000Y-96410000D01*
X131320000Y-96410000D02*
X131000000Y-96410000D01*
X132170000Y-97410000D02*
X132330000Y-97410000D01*
X133180000Y-92990000D02*
X133500000Y-92910000D01*
X133180000Y-96410000D02*
X133180000Y-92990000D01*
X133500000Y-92910000D02*
X133820000Y-92990000D01*
X133500000Y-96410000D02*
X133180000Y-96410000D01*
X133820000Y-92990000D02*
X133820000Y-96410000D01*
X133820000Y-96410000D02*
X133500000Y-96410000D01*
X134670000Y-97410000D02*
X134830000Y-97410000D01*
X135680000Y-92990000D02*
X136000000Y-92910000D01*
X135680000Y-96410000D02*
X135680000Y-92990000D01*
X136000000Y-92910000D02*
X136320000Y-92990000D01*
X136000000Y-96410000D02*
X135680000Y-96410000D01*
X136320000Y-92990000D02*
X136320000Y-96410000D01*
X136320000Y-96410000D02*
X136000000Y-96410000D01*
X137390000Y-92410000D02*
X137390000Y-97410000D01*
X137390000Y-97410000D02*
X138610000Y-97410000D01*
X137390000Y-99610000D02*
X137390000Y-97410000D01*
X138610000Y-91190000D02*
X138610000Y-99610000D01*
X138610000Y-92410000D02*
X137390000Y-92410000D01*
X138610000Y-99610000D02*
X137390000Y-99610000D01*
%TO.C,J1*%
X124390000Y-122390000D02*
X125610000Y-122390000D01*
X124390000Y-129590000D02*
X125610000Y-129590000D01*
X124390000Y-130810000D02*
X124390000Y-122390000D01*
X125610000Y-122390000D02*
X125610000Y-124590000D01*
X125610000Y-124590000D02*
X124390000Y-124590000D01*
X125610000Y-129590000D02*
X125610000Y-124590000D01*
X126680000Y-125590000D02*
X127000000Y-125590000D01*
X126680000Y-129010000D02*
X126680000Y-125590000D01*
X127000000Y-125590000D02*
X127320000Y-125590000D01*
X127000000Y-129090000D02*
X126680000Y-129010000D01*
X127320000Y-125590000D02*
X127320000Y-129010000D01*
X127320000Y-129010000D02*
X127000000Y-129090000D01*
X128330000Y-124590000D02*
X128170000Y-124590000D01*
X129180000Y-125590000D02*
X129500000Y-125590000D01*
X129180000Y-129010000D02*
X129180000Y-125590000D01*
X129500000Y-125590000D02*
X129820000Y-125590000D01*
X129500000Y-129090000D02*
X129180000Y-129010000D01*
X129820000Y-125590000D02*
X129820000Y-129010000D01*
X129820000Y-129010000D02*
X129500000Y-129090000D01*
X130830000Y-124590000D02*
X130670000Y-124590000D01*
X131680000Y-125590000D02*
X132000000Y-125590000D01*
X131680000Y-129010000D02*
X131680000Y-125590000D01*
X132000000Y-125590000D02*
X132320000Y-125590000D01*
X132000000Y-129090000D02*
X131680000Y-129010000D01*
X132320000Y-125590000D02*
X132320000Y-129010000D01*
X132320000Y-129010000D02*
X132000000Y-129090000D01*
X133330000Y-124590000D02*
X133170000Y-124590000D01*
X134180000Y-125590000D02*
X134500000Y-125590000D01*
X134180000Y-129010000D02*
X134180000Y-125590000D01*
X134500000Y-125590000D02*
X134820000Y-125590000D01*
X134500000Y-129090000D02*
X134180000Y-129010000D01*
X134820000Y-125590000D02*
X134820000Y-129010000D01*
X134820000Y-129010000D02*
X134500000Y-129090000D01*
X135830000Y-124590000D02*
X135670000Y-124590000D01*
X136680000Y-125590000D02*
X137000000Y-125590000D01*
X136680000Y-129010000D02*
X136680000Y-125590000D01*
X136700000Y-121900000D02*
X137000000Y-122500000D01*
X137000000Y-122500000D02*
X137300000Y-121900000D01*
X137000000Y-125590000D02*
X137320000Y-125590000D01*
X137000000Y-129090000D02*
X136680000Y-129010000D01*
X137300000Y-121900000D02*
X136700000Y-121900000D01*
X137320000Y-125590000D02*
X137320000Y-129010000D01*
X137320000Y-129010000D02*
X137000000Y-129090000D01*
X138390000Y-122390000D02*
X139610000Y-122390000D01*
X138390000Y-124590000D02*
X138390000Y-122390000D01*
X138390000Y-124590000D02*
X139610000Y-124590000D01*
X138390000Y-125590000D02*
X125610000Y-125590000D01*
X138390000Y-129590000D02*
X138390000Y-124590000D01*
X139610000Y-122390000D02*
X139610000Y-130810000D01*
X139610000Y-129590000D02*
X138390000Y-129590000D01*
X139610000Y-130810000D02*
X124390000Y-130810000D01*
%TD*%
M02*
