%TF.GenerationSoftware,KiCad,Pcbnew,10.0.3*%
%TF.CreationDate,2026-07-01T16:14:12-05:00*%
%TF.ProjectId,main_board_independent_pumps,6d61696e-5f62-46f6-9172-645f696e6465,rev?*%
%TF.SameCoordinates,Original*%
%TF.FileFunction,Soldermask,Top*%
%TF.FilePolarity,Negative*%
%FSLAX46Y46*%
G04 Gerber Fmt 4.6, Leading zero omitted, Abs format (unit mm)*
G04 Created by KiCad (PCBNEW 10.0.3) date 2026-07-01 16:14:12*
%MOMM*%
%LPD*%
G01*
G04 APERTURE LIST*
G04 Aperture macros list*
%AMRoundRect*
0 Rectangle with rounded corners*
0 $1 Rounding radius*
0 $2 $3 $4 $5 $6 $7 $8 $9 X,Y pos of 4 corners*
0 Add a 4 corners polygon primitive as box body*
4,1,4,$2,$3,$4,$5,$6,$7,$8,$9,$2,$3,0*
0 Add four circle primitives for the rounded corners*
1,1,$1+$1,$2,$3*
1,1,$1+$1,$4,$5*
1,1,$1+$1,$6,$7*
1,1,$1+$1,$8,$9*
0 Add four rect primitives between the rounded corners*
20,1,$1+$1,$2,$3,$4,$5,0*
20,1,$1+$1,$4,$5,$6,$7,0*
20,1,$1+$1,$6,$7,$8,$9,0*
20,1,$1+$1,$8,$9,$2,$3,0*%
%AMFreePoly0*
4,1,37,0.800000,0.796148,0.878414,0.796148,1.032228,0.765552,1.177117,0.705537,1.307515,0.618408,1.418408,0.507515,1.505537,0.377117,1.565552,0.232228,1.596148,0.078414,1.596148,-0.078414,1.565552,-0.232228,1.505537,-0.377117,1.418408,-0.507515,1.307515,-0.618408,1.177117,-0.705537,1.032228,-0.765552,0.878414,-0.796148,0.800000,-0.796148,0.800000,-0.800000,-1.400000,-0.800000,
-1.403843,-0.796157,-1.439018,-0.796157,-1.511114,-0.766294,-1.566294,-0.711114,-1.596157,-0.639018,-1.596157,-0.603843,-1.600000,-0.600000,-1.600000,0.600000,-1.596157,0.603843,-1.596157,0.639018,-1.566294,0.711114,-1.511114,0.766294,-1.439018,0.796157,-1.403843,0.796157,-1.400000,0.800000,0.800000,0.800000,0.800000,0.796148,0.800000,0.796148,$1*%
%AMFreePoly1*
4,1,37,1.403843,0.796157,1.439018,0.796157,1.511114,0.766294,1.566294,0.711114,1.596157,0.639018,1.596157,0.603843,1.600000,0.600000,1.600000,-0.600000,1.596157,-0.603843,1.596157,-0.639018,1.566294,-0.711114,1.511114,-0.766294,1.439018,-0.796157,1.403843,-0.796157,1.400000,-0.800000,-0.800000,-0.800000,-0.800000,-0.796148,-0.878414,-0.796148,-1.032228,-0.765552,-1.177117,-0.705537,
-1.307515,-0.618408,-1.418408,-0.507515,-1.505537,-0.377117,-1.565552,-0.232228,-1.596148,-0.078414,-1.596148,0.078414,-1.565552,0.232228,-1.505537,0.377117,-1.418408,0.507515,-1.307515,0.618408,-1.177117,0.705537,-1.032228,0.765552,-0.878414,0.796148,-0.800000,0.796148,-0.800000,0.800000,1.400000,0.800000,1.403843,0.796157,1.403843,0.796157,$1*%
%AMFreePoly2*
4,1,37,0.603843,0.796157,0.639018,0.796157,0.711114,0.766294,0.766294,0.711114,0.796157,0.639018,0.796157,0.603843,0.800000,0.600000,0.800000,-0.600000,0.796157,-0.603843,0.796157,-0.639018,0.766294,-0.711114,0.711114,-0.766294,0.639018,-0.796157,0.603843,-0.796157,0.600000,-0.800000,0.000000,-0.800000,0.000000,-0.796148,-0.078414,-0.796148,-0.232228,-0.765552,-0.377117,-0.705537,
-0.507515,-0.618408,-0.618408,-0.507515,-0.705537,-0.377117,-0.765552,-0.232228,-0.796148,-0.078414,-0.796148,0.078414,-0.765552,0.232228,-0.705537,0.377117,-0.618408,0.507515,-0.507515,0.618408,-0.377117,0.705537,-0.232228,0.765552,-0.078414,0.796148,0.000000,0.796148,0.000000,0.800000,0.600000,0.800000,0.603843,0.796157,0.603843,0.796157,$1*%
%AMFreePoly3*
4,1,37,0.000000,0.796148,0.078414,0.796148,0.232228,0.765552,0.377117,0.705537,0.507515,0.618408,0.618408,0.507515,0.705537,0.377117,0.765552,0.232228,0.796148,0.078414,0.796148,-0.078414,0.765552,-0.232228,0.705537,-0.377117,0.618408,-0.507515,0.507515,-0.618408,0.377117,-0.705537,0.232228,-0.765552,0.078414,-0.796148,0.000000,-0.796148,0.000000,-0.800000,-0.600000,-0.800000,
-0.603843,-0.796157,-0.639018,-0.796157,-0.711114,-0.766294,-0.766294,-0.711114,-0.796157,-0.639018,-0.796157,-0.603843,-0.800000,-0.600000,-0.800000,0.600000,-0.796157,0.603843,-0.796157,0.639018,-0.766294,0.711114,-0.711114,0.766294,-0.639018,0.796157,-0.603843,0.796157,-0.600000,0.800000,0.000000,0.800000,0.000000,0.796148,0.000000,0.796148,$1*%
G04 Aperture macros list end*
%ADD10RoundRect,0.250000X-0.350000X-0.625000X0.350000X-0.625000X0.350000X0.625000X-0.350000X0.625000X0*%
%ADD11O,1.200000X1.750000*%
%ADD12R,1.700000X1.700000*%
%ADD13C,1.700000*%
%ADD14C,1.800000*%
%ADD15RoundRect,0.250000X0.625000X-0.350000X0.625000X0.350000X-0.625000X0.350000X-0.625000X-0.350000X0*%
%ADD16O,1.750000X1.200000*%
%ADD17C,1.600000*%
%ADD18RoundRect,0.250000X0.350000X0.625000X-0.350000X0.625000X-0.350000X-0.625000X0.350000X-0.625000X0*%
%ADD19C,2.200000*%
%ADD20C,1.850000*%
%ADD21FreePoly0,180.000000*%
%ADD22RoundRect,0.200000X0.600000X0.600000X-0.600000X0.600000X-0.600000X-0.600000X0.600000X-0.600000X0*%
%ADD23RoundRect,0.800000X0.800000X0.000010X-0.800000X0.000010X-0.800000X-0.000010X0.800000X-0.000010X0*%
%ADD24FreePoly1,180.000000*%
%ADD25FreePoly2,180.000000*%
%ADD26FreePoly3,180.000000*%
%ADD27O,2.200000X3.500000*%
%ADD28R,1.500000X2.500000*%
%ADD29O,1.500000X2.500000*%
G04 APERTURE END LIST*
D10*
%TO.C,J13*%
X172360000Y-83983333D03*
D11*
X174360000Y-83983333D03*
X176360000Y-83983333D03*
X178360000Y-83983333D03*
%TD*%
D10*
%TO.C,J7*%
X172360000Y-66816667D03*
D11*
X174360000Y-66816667D03*
X176360000Y-66816667D03*
X178360000Y-66816667D03*
%TD*%
D12*
%TO.C,3b+header1*%
X106540000Y-59800000D03*
D13*
X104000000Y-59800000D03*
X106540000Y-62340000D03*
X104000000Y-62340000D03*
X106540000Y-64880000D03*
X104000000Y-64880000D03*
X106540000Y-67420000D03*
X104000000Y-67420000D03*
X106540000Y-69960000D03*
X104000000Y-69960000D03*
X106540000Y-72500000D03*
X104000000Y-72500000D03*
X106540000Y-75040000D03*
X104000000Y-75040000D03*
X106540000Y-77580000D03*
X104000000Y-77580000D03*
X106540000Y-80120000D03*
X104000000Y-80120000D03*
X106540000Y-82660000D03*
X104000000Y-82660000D03*
X106540000Y-85200000D03*
X104000000Y-85200000D03*
X106540000Y-87740000D03*
X104000000Y-87740000D03*
X106540000Y-90280000D03*
X104000000Y-90280000D03*
X106540000Y-92820000D03*
X104000000Y-92820000D03*
X106540000Y-95360000D03*
X104000000Y-95360000D03*
X106540000Y-97900000D03*
X104000000Y-97900000D03*
X106540000Y-100440000D03*
X104000000Y-100440000D03*
X106540000Y-102980000D03*
X104000000Y-102980000D03*
X106540000Y-105520000D03*
X104000000Y-105520000D03*
X106540000Y-108060000D03*
X104000000Y-108060000D03*
%TD*%
D10*
%TO.C,J9*%
X205860000Y-100983333D03*
D11*
X207860000Y-100983333D03*
X209860000Y-100983333D03*
X211860000Y-100983333D03*
%TD*%
D14*
%TO.C,pump2*%
X168390000Y-42150000D03*
X165850000Y-42150000D03*
X163310000Y-42150000D03*
X160770000Y-42150000D03*
X158230000Y-42150000D03*
X155690000Y-42150000D03*
X153150000Y-42150000D03*
X150610000Y-42150000D03*
X168390000Y-54850000D03*
X165850000Y-54850000D03*
X163310000Y-54850000D03*
X160770000Y-54850000D03*
X158230000Y-54850000D03*
X155690000Y-54850000D03*
X153150000Y-54850000D03*
X150610000Y-54850000D03*
%TD*%
D15*
%TO.C,J1*%
X142450000Y-101500000D03*
D16*
X142450000Y-99500000D03*
%TD*%
D17*
%TO.C,C7*%
X197750000Y-82900000D03*
X197750000Y-85400000D03*
%TD*%
D10*
%TO.C,J5*%
X205800000Y-66633333D03*
D11*
X207800000Y-66633333D03*
X209800000Y-66633333D03*
X211800000Y-66633333D03*
%TD*%
D10*
%TO.C,J6*%
X205860000Y-83816666D03*
D11*
X207860000Y-83816666D03*
X209860000Y-83816666D03*
X211860000Y-83816666D03*
%TD*%
D17*
%TO.C,C3*%
X165600000Y-47250000D03*
X165600000Y-49750000D03*
%TD*%
%TO.C,C2*%
X165860000Y-100150000D03*
X165860000Y-102650000D03*
%TD*%
D14*
%TO.C,z_mot1*%
X200640000Y-77250000D03*
X198100000Y-77250000D03*
X195560000Y-77250000D03*
X193020000Y-77250000D03*
X190480000Y-77250000D03*
X187940000Y-77250000D03*
X185400000Y-77250000D03*
X182860000Y-77250000D03*
X200640000Y-89950000D03*
X198100000Y-89950000D03*
X195560000Y-89950000D03*
X193020000Y-89950000D03*
X190480000Y-89950000D03*
X187940000Y-89950000D03*
X185400000Y-89950000D03*
X182860000Y-89950000D03*
%TD*%
%TO.C,B_mot1*%
X200580000Y-59300000D03*
X198040000Y-59300000D03*
X195500000Y-59300000D03*
X192960000Y-59300000D03*
X190420000Y-59300000D03*
X187880000Y-59300000D03*
X185340000Y-59300000D03*
X182800000Y-59300000D03*
X200580000Y-72000000D03*
X198040000Y-72000000D03*
X195500000Y-72000000D03*
X192960000Y-72000000D03*
X190420000Y-72000000D03*
X187880000Y-72000000D03*
X185340000Y-72000000D03*
X182800000Y-72000000D03*
%TD*%
D15*
%TO.C,J3*%
X142500000Y-82000000D03*
D16*
X142500000Y-80000000D03*
%TD*%
D17*
%TO.C,C6*%
X165860000Y-81650000D03*
X165860000Y-84150000D03*
%TD*%
%TO.C,C8*%
X197750000Y-64400000D03*
X197750000Y-66900000D03*
%TD*%
D10*
%TO.C,J8*%
X172360000Y-49650000D03*
D11*
X174360000Y-49650000D03*
X176360000Y-49650000D03*
X178360000Y-49650000D03*
%TD*%
D14*
%TO.C,pump1*%
X200640000Y-94800000D03*
X198100000Y-94800000D03*
X195560000Y-94800000D03*
X193020000Y-94800000D03*
X190480000Y-94800000D03*
X187940000Y-94800000D03*
X185400000Y-94800000D03*
X182860000Y-94800000D03*
X200640000Y-107500000D03*
X198100000Y-107500000D03*
X195560000Y-107500000D03*
X193020000Y-107500000D03*
X190480000Y-107500000D03*
X187940000Y-107500000D03*
X185400000Y-107500000D03*
X182860000Y-107500000D03*
%TD*%
D17*
%TO.C,C4*%
X197750000Y-99650000D03*
X197750000Y-102150000D03*
%TD*%
D18*
%TO.C,J11*%
X209500000Y-43050000D03*
D11*
X207500000Y-43050000D03*
%TD*%
D10*
%TO.C,J4*%
X205960000Y-48950000D03*
D11*
X207960000Y-48950000D03*
X209960000Y-48950000D03*
X211960000Y-48950000D03*
%TD*%
D17*
%TO.C,C5*%
X165560000Y-64400000D03*
X165560000Y-66900000D03*
%TD*%
D14*
%TO.C,A_mot1*%
X200740000Y-42000000D03*
X198200000Y-42000000D03*
X195660000Y-42000000D03*
X193120000Y-42000000D03*
X190580000Y-42000000D03*
X188040000Y-42000000D03*
X185500000Y-42000000D03*
X182960000Y-42000000D03*
X200740000Y-54700000D03*
X198200000Y-54700000D03*
X195660000Y-54700000D03*
X193120000Y-54700000D03*
X190580000Y-54700000D03*
X188040000Y-54700000D03*
X185500000Y-54700000D03*
X182960000Y-54700000D03*
%TD*%
D10*
%TO.C,J12*%
X172360000Y-101150000D03*
D11*
X174360000Y-101150000D03*
X176360000Y-101150000D03*
X178360000Y-101150000D03*
%TD*%
D15*
%TO.C,J2*%
X142450000Y-91500000D03*
D16*
X142450000Y-89500000D03*
%TD*%
D14*
%TO.C,pump3*%
X168250000Y-59300000D03*
X165710000Y-59300000D03*
X163170000Y-59300000D03*
X160630000Y-59300000D03*
X158090000Y-59300000D03*
X155550000Y-59300000D03*
X153010000Y-59300000D03*
X150470000Y-59300000D03*
X168250000Y-72000000D03*
X165710000Y-72000000D03*
X163170000Y-72000000D03*
X160630000Y-72000000D03*
X158090000Y-72000000D03*
X155550000Y-72000000D03*
X153010000Y-72000000D03*
X150470000Y-72000000D03*
%TD*%
D19*
%TO.C,A1*%
X127835000Y-107510000D03*
D20*
X127535000Y-104480000D03*
X122685000Y-104480000D03*
D19*
X122385000Y-107510000D03*
D21*
X134800000Y-107640000D03*
D22*
X134000000Y-107640000D03*
D23*
X134800000Y-105100000D03*
D17*
X134000000Y-105100000D03*
D24*
X134800000Y-102560000D03*
D25*
X134000000Y-102560000D03*
D23*
X134800000Y-100020000D03*
D17*
X134000000Y-100020000D03*
D23*
X134800000Y-97480000D03*
D17*
X134000000Y-97480000D03*
D23*
X134800000Y-94940000D03*
D17*
X134000000Y-94940000D03*
D23*
X134800000Y-92400000D03*
D17*
X134000000Y-92400000D03*
D24*
X134800000Y-89860000D03*
D25*
X134000000Y-89860000D03*
D23*
X134800000Y-87320000D03*
D17*
X134000000Y-87320000D03*
D23*
X134800000Y-84780000D03*
D17*
X134000000Y-84780000D03*
D23*
X134800000Y-82240000D03*
D17*
X134000000Y-82240000D03*
D23*
X134800000Y-79700000D03*
D17*
X134000000Y-79700000D03*
D24*
X134800000Y-77160000D03*
D25*
X134000000Y-77160000D03*
D23*
X134800000Y-74620000D03*
D17*
X134000000Y-74620000D03*
D23*
X134800000Y-72080000D03*
D17*
X134000000Y-72080000D03*
D23*
X134800000Y-69540000D03*
D17*
X134000000Y-69540000D03*
D23*
X134800000Y-67000000D03*
D17*
X134000000Y-67000000D03*
D24*
X134800000Y-64460000D03*
D25*
X134000000Y-64460000D03*
D23*
X134800000Y-61920000D03*
D17*
X134000000Y-61920000D03*
D23*
X134800000Y-59380000D03*
D17*
X134000000Y-59380000D03*
X116220000Y-59380000D03*
D23*
X115420000Y-59380000D03*
D17*
X116220000Y-61920000D03*
D23*
X115420000Y-61920000D03*
D26*
X116220000Y-64460000D03*
D21*
X115420000Y-64460000D03*
D17*
X116220000Y-67000000D03*
D23*
X115420000Y-67000000D03*
D17*
X116220000Y-69540000D03*
D23*
X115420000Y-69540000D03*
D17*
X116220000Y-72080000D03*
D23*
X115420000Y-72080000D03*
D17*
X116220000Y-74620000D03*
D23*
X115420000Y-74620000D03*
D26*
X116220000Y-77160000D03*
D21*
X115420000Y-77160000D03*
D17*
X116220000Y-79700000D03*
D23*
X115420000Y-79700000D03*
D17*
X116220000Y-82240000D03*
D23*
X115420000Y-82240000D03*
D17*
X116220000Y-84780000D03*
D23*
X115420000Y-84780000D03*
D17*
X116220000Y-87320000D03*
D23*
X115420000Y-87320000D03*
D26*
X116220000Y-89860000D03*
D21*
X115420000Y-89860000D03*
D17*
X116220000Y-92400000D03*
D23*
X115420000Y-92400000D03*
D17*
X116220000Y-94940000D03*
D23*
X115420000Y-94940000D03*
D17*
X116220000Y-97480000D03*
D23*
X115420000Y-97480000D03*
D17*
X116220000Y-100020000D03*
D23*
X115420000Y-100020000D03*
D26*
X116220000Y-102560000D03*
D21*
X115420000Y-102560000D03*
D17*
X116220000Y-105100000D03*
D23*
X115420000Y-105100000D03*
D17*
X116220000Y-107640000D03*
D23*
X115420000Y-107640000D03*
%TD*%
D14*
%TO.C,pump4*%
X168110000Y-94800000D03*
X165570000Y-94800000D03*
X163030000Y-94800000D03*
X160490000Y-94800000D03*
X157950000Y-94800000D03*
X155410000Y-94800000D03*
X152870000Y-94800000D03*
X150330000Y-94800000D03*
X168110000Y-107500000D03*
X165570000Y-107500000D03*
X163030000Y-107500000D03*
X160490000Y-107500000D03*
X157950000Y-107500000D03*
X155410000Y-107500000D03*
X152870000Y-107500000D03*
X150330000Y-107500000D03*
%TD*%
D18*
%TO.C,J10*%
X112500000Y-54000000D03*
D11*
X110500000Y-54000000D03*
%TD*%
D14*
%TO.C,pump5*%
X168530000Y-76650000D03*
X165990000Y-76650000D03*
X163450000Y-76650000D03*
X160910000Y-76650000D03*
X158370000Y-76650000D03*
X155830000Y-76650000D03*
X153290000Y-76650000D03*
X150750000Y-76650000D03*
X168530000Y-89350000D03*
X165990000Y-89350000D03*
X163450000Y-89350000D03*
X160910000Y-89350000D03*
X158370000Y-89350000D03*
X155830000Y-89350000D03*
X153290000Y-89350000D03*
X150750000Y-89350000D03*
%TD*%
D27*
%TO.C,SW1*%
X124600000Y-43702500D03*
X116400000Y-43702500D03*
D28*
X122500000Y-43702500D03*
D29*
X120500000Y-43702500D03*
X118500000Y-43702500D03*
%TD*%
D17*
%TO.C,C1*%
X197750000Y-47250000D03*
X197750000Y-49750000D03*
%TD*%
M02*
