%TF.GenerationSoftware,KiCad,Pcbnew,10.0.3*%
%TF.CreationDate,2026-07-01T16:14:12-05:00*%
%TF.ProjectId,main_board_independent_pumps,6d61696e-5f62-46f6-9172-645f696e6465,rev?*%
%TF.SameCoordinates,Original*%
%TF.FileFunction,Copper,L1,Top*%
%TF.FilePolarity,Positive*%
%FSLAX46Y46*%
G04 Gerber Fmt 4.6, Leading zero omitted, Abs format (unit mm)*
G04 Created by KiCad (PCBNEW 10.0.3) date 2026-07-01 16:14:12*
%MOMM*%
%LPD*%
G01*
G04 APERTURE LIST*
G04 Aperture macros list*
%AMRoundRect*
0 Rectangle with rounded corners*
0 $1 Rounding radius*
0 $2 $3 $4 $5 $6 $7 $8 $9 X,Y pos of 4 corners*
0 Add a 4 corners polygon primitive as box body*
4,1,4,$2,$3,$4,$5,$6,$7,$8,$9,$2,$3,0*
0 Add four circle primitives for the rounded corners*
1,1,$1+$1,$2,$3*
1,1,$1+$1,$4,$5*
1,1,$1+$1,$6,$7*
1,1,$1+$1,$8,$9*
0 Add four rect primitives between the rounded corners*
20,1,$1+$1,$2,$3,$4,$5,0*
20,1,$1+$1,$4,$5,$6,$7,0*
20,1,$1+$1,$6,$7,$8,$9,0*
20,1,$1+$1,$8,$9,$2,$3,0*%
%AMFreePoly0*
4,1,37,0.800000,0.796148,0.878414,0.796148,1.032228,0.765552,1.177117,0.705537,1.307515,0.618408,1.418408,0.507515,1.505537,0.377117,1.565552,0.232228,1.596148,0.078414,1.596148,-0.078414,1.565552,-0.232228,1.505537,-0.377117,1.418408,-0.507515,1.307515,-0.618408,1.177117,-0.705537,1.032228,-0.765552,0.878414,-0.796148,0.800000,-0.796148,0.800000,-0.800000,-1.400000,-0.800000,
-1.403843,-0.796157,-1.439018,-0.796157,-1.511114,-0.766294,-1.566294,-0.711114,-1.596157,-0.639018,-1.596157,-0.603843,-1.600000,-0.600000,-1.600000,0.600000,-1.596157,0.603843,-1.596157,0.639018,-1.566294,0.711114,-1.511114,0.766294,-1.439018,0.796157,-1.403843,0.796157,-1.400000,0.800000,0.800000,0.800000,0.800000,0.796148,0.800000,0.796148,$1*%
%AMFreePoly1*
4,1,37,1.403843,0.796157,1.439018,0.796157,1.511114,0.766294,1.566294,0.711114,1.596157,0.639018,1.596157,0.603843,1.600000,0.600000,1.600000,-0.600000,1.596157,-0.603843,1.596157,-0.639018,1.566294,-0.711114,1.511114,-0.766294,1.439018,-0.796157,1.403843,-0.796157,1.400000,-0.800000,-0.800000,-0.800000,-0.800000,-0.796148,-0.878414,-0.796148,-1.032228,-0.765552,-1.177117,-0.705537,
-1.307515,-0.618408,-1.418408,-0.507515,-1.505537,-0.377117,-1.565552,-0.232228,-1.596148,-0.078414,-1.596148,0.078414,-1.565552,0.232228,-1.505537,0.377117,-1.418408,0.507515,-1.307515,0.618408,-1.177117,0.705537,-1.032228,0.765552,-0.878414,0.796148,-0.800000,0.796148,-0.800000,0.800000,1.400000,0.800000,1.403843,0.796157,1.403843,0.796157,$1*%
%AMFreePoly2*
4,1,37,0.603843,0.796157,0.639018,0.796157,0.711114,0.766294,0.766294,0.711114,0.796157,0.639018,0.796157,0.603843,0.800000,0.600000,0.800000,-0.600000,0.796157,-0.603843,0.796157,-0.639018,0.766294,-0.711114,0.711114,-0.766294,0.639018,-0.796157,0.603843,-0.796157,0.600000,-0.800000,0.000000,-0.800000,0.000000,-0.796148,-0.078414,-0.796148,-0.232228,-0.765552,-0.377117,-0.705537,
-0.507515,-0.618408,-0.618408,-0.507515,-0.705537,-0.377117,-0.765552,-0.232228,-0.796148,-0.078414,-0.796148,0.078414,-0.765552,0.232228,-0.705537,0.377117,-0.618408,0.507515,-0.507515,0.618408,-0.377117,0.705537,-0.232228,0.765552,-0.078414,0.796148,0.000000,0.796148,0.000000,0.800000,0.600000,0.800000,0.603843,0.796157,0.603843,0.796157,$1*%
%AMFreePoly3*
4,1,37,0.000000,0.796148,0.078414,0.796148,0.232228,0.765552,0.377117,0.705537,0.507515,0.618408,0.618408,0.507515,0.705537,0.377117,0.765552,0.232228,0.796148,0.078414,0.796148,-0.078414,0.765552,-0.232228,0.705537,-0.377117,0.618408,-0.507515,0.507515,-0.618408,0.377117,-0.705537,0.232228,-0.765552,0.078414,-0.796148,0.000000,-0.796148,0.000000,-0.800000,-0.600000,-0.800000,
-0.603843,-0.796157,-0.639018,-0.796157,-0.711114,-0.766294,-0.766294,-0.711114,-0.796157,-0.639018,-0.796157,-0.603843,-0.800000,-0.600000,-0.800000,0.600000,-0.796157,0.603843,-0.796157,0.639018,-0.766294,0.711114,-0.711114,0.766294,-0.639018,0.796157,-0.603843,0.796157,-0.600000,0.800000,0.000000,0.800000,0.000000,0.796148,0.000000,0.796148,$1*%
G04 Aperture macros list end*
%TA.AperFunction,ComponentPad*%
%ADD10RoundRect,0.250000X-0.350000X-0.625000X0.350000X-0.625000X0.350000X0.625000X-0.350000X0.625000X0*%
%TD*%
%TA.AperFunction,ComponentPad*%
%ADD11O,1.200000X1.750000*%
%TD*%
%TA.AperFunction,ComponentPad*%
%ADD12R,1.700000X1.700000*%
%TD*%
%TA.AperFunction,ComponentPad*%
%ADD13C,1.700000*%
%TD*%
%TA.AperFunction,ComponentPad*%
%ADD14C,1.800000*%
%TD*%
%TA.AperFunction,ComponentPad*%
%ADD15RoundRect,0.250000X0.625000X-0.350000X0.625000X0.350000X-0.625000X0.350000X-0.625000X-0.350000X0*%
%TD*%
%TA.AperFunction,ComponentPad*%
%ADD16O,1.750000X1.200000*%
%TD*%
%TA.AperFunction,ComponentPad*%
%ADD17C,1.600000*%
%TD*%
%TA.AperFunction,ComponentPad*%
%ADD18RoundRect,0.250000X0.350000X0.625000X-0.350000X0.625000X-0.350000X-0.625000X0.350000X-0.625000X0*%
%TD*%
%TA.AperFunction,SMDPad,CuDef*%
%ADD19FreePoly0,180.000000*%
%TD*%
%TA.AperFunction,ComponentPad*%
%ADD20RoundRect,0.200000X0.600000X0.600000X-0.600000X0.600000X-0.600000X-0.600000X0.600000X-0.600000X0*%
%TD*%
%TA.AperFunction,SMDPad,CuDef*%
%ADD21RoundRect,0.800000X0.800000X0.000010X-0.800000X0.000010X-0.800000X-0.000010X0.800000X-0.000010X0*%
%TD*%
%TA.AperFunction,SMDPad,CuDef*%
%ADD22FreePoly1,180.000000*%
%TD*%
%TA.AperFunction,ComponentPad*%
%ADD23FreePoly2,180.000000*%
%TD*%
%TA.AperFunction,ComponentPad*%
%ADD24FreePoly3,180.000000*%
%TD*%
%TA.AperFunction,ComponentPad*%
%ADD25O,2.200000X3.500000*%
%TD*%
%TA.AperFunction,ComponentPad*%
%ADD26R,1.500000X2.500000*%
%TD*%
%TA.AperFunction,ComponentPad*%
%ADD27O,1.500000X2.500000*%
%TD*%
%TA.AperFunction,ViaPad*%
%ADD28C,0.600000*%
%TD*%
%TA.AperFunction,Conductor*%
%ADD29C,0.400000*%
%TD*%
%TA.AperFunction,Conductor*%
%ADD30C,0.200000*%
%TD*%
%TA.AperFunction,Conductor*%
%ADD31C,0.400050*%
%TD*%
%TA.AperFunction,Conductor*%
%ADD32C,0.600000*%
%TD*%
%TA.AperFunction,Conductor*%
%ADD33C,1.200000*%
%TD*%
G04 APERTURE END LIST*
D10*
%TO.P,J13,1,Pin_1_1*%
%TO.N,Net-(J13-Pin_1)*%
X172360000Y-83983333D03*
D11*
%TO.P,J13,2,Pin_2_2*%
%TO.N,Net-(J13-Pin_2)*%
X174360000Y-83983333D03*
%TO.P,J13,3,Pin_3_3*%
%TO.N,Net-(J13-Pin_3)*%
X176360000Y-83983333D03*
%TO.P,J13,4,Pin_4_4*%
%TO.N,Net-(J13-Pin_4)*%
X178360000Y-83983333D03*
%TD*%
D10*
%TO.P,J7,1,Pin_1_1*%
%TO.N,Net-(J7-Pin_1)*%
X172360000Y-66816667D03*
D11*
%TO.P,J7,2,Pin_2_2*%
%TO.N,Net-(J7-Pin_2)*%
X174360000Y-66816667D03*
%TO.P,J7,3,Pin_3_3*%
%TO.N,Net-(J7-Pin_3)*%
X176360000Y-66816667D03*
%TO.P,J7,4,Pin_4_4*%
%TO.N,Net-(J7-Pin_4)*%
X178360000Y-66816667D03*
%TD*%
D12*
%TO.P,3b+header1,1,5V_1*%
%TO.N,unconnected-(3b+header1-5V-Pad1)*%
X106540000Y-59800000D03*
D13*
%TO.P,3b+header1,2,3V3_2*%
%TO.N,unconnected-(3b+header1-3V3-Pad2)*%
X104000000Y-59800000D03*
%TO.P,3b+header1,3,5V_3*%
%TO.N,/logic_power*%
X106540000Y-62340000D03*
%TO.P,3b+header1,4,GPIO2_4*%
%TO.N,/enable*%
X104000000Y-62340000D03*
%TO.P,3b+header1,5,GND_5*%
%TO.N,GND*%
X106540000Y-64880000D03*
%TO.P,3b+header1,6,GPIO3_6*%
%TO.N,unconnected-(3b+header1-GPIO3-Pad6)*%
X104000000Y-64880000D03*
%TO.P,3b+header1,7,GPIO14_7*%
%TO.N,/uart_TX*%
X106540000Y-67420000D03*
%TO.P,3b+header1,8,GPIO4_8*%
%TO.N,unconnected-(3b+header1-GPIO4-Pad8)*%
X104000000Y-67420000D03*
%TO.P,3b+header1,9,GPIO15_9*%
%TO.N,/uart_RX*%
X106540000Y-69960000D03*
%TO.P,3b+header1,10,GND_10*%
%TO.N,GND*%
X104000000Y-69960000D03*
%TO.P,3b+header1,11,GPIO18_11*%
%TO.N,unconnected-(3b+header1-GPIO18-Pad11)*%
X106540000Y-72500000D03*
%TO.P,3b+header1,12,GPIO17_12*%
%TO.N,/Pico_reset*%
X104000000Y-72500000D03*
%TO.P,3b+header1,13,GND_13*%
%TO.N,GND*%
X106540000Y-75040000D03*
%TO.P,3b+header1,14,GPIO27_14*%
%TO.N,unconnected-(3b+header1-GPIO27-Pad14)*%
X104000000Y-75040000D03*
%TO.P,3b+header1,15,GPIO23_15*%
%TO.N,unconnected-(3b+header1-GPIO23-Pad15)*%
X106540000Y-77580000D03*
%TO.P,3b+header1,16,GPIO22_16*%
%TO.N,unconnected-(3b+header1-GPIO22-Pad16)*%
X104000000Y-77580000D03*
%TO.P,3b+header1,17,GPIO24_17*%
%TO.N,unconnected-(3b+header1-GPIO24-Pad17)*%
X106540000Y-80120000D03*
%TO.P,3b+header1,18,3V3_18*%
%TO.N,unconnected-(3b+header1-3V3-Pad18)*%
X104000000Y-80120000D03*
%TO.P,3b+header1,19,GND_19*%
%TO.N,GND*%
X106540000Y-82660000D03*
%TO.P,3b+header1,20,GPIO10_20*%
%TO.N,unconnected-(3b+header1-GPIO10-Pad20)*%
X104000000Y-82660000D03*
%TO.P,3b+header1,21,GPIO25_21*%
%TO.N,unconnected-(3b+header1-GPIO25-Pad21)*%
X106540000Y-85200000D03*
%TO.P,3b+header1,22,GPIO9_22*%
%TO.N,unconnected-(3b+header1-GPIO9-Pad22)*%
X104000000Y-85200000D03*
%TO.P,3b+header1,23,GPIO8_23*%
%TO.N,/P_ms1*%
X106540000Y-87740000D03*
%TO.P,3b+header1,24,GPIO11_24*%
%TO.N,unconnected-(3b+header1-GPIO11-Pad24)*%
X104000000Y-87740000D03*
%TO.P,3b+header1,25,GPIO7_25*%
%TO.N,/P_ms2*%
X106540000Y-90280000D03*
%TO.P,3b+header1,26,GND_26*%
%TO.N,GND*%
X104000000Y-90280000D03*
%TO.P,3b+header1,27,GPIO1_27*%
%TO.N,unconnected-(3b+header1-GPIO1-Pad27)*%
X106540000Y-92820000D03*
%TO.P,3b+header1,28,GPIO0_28*%
%TO.N,unconnected-(3b+header1-GPIO0-Pad28)*%
X104000000Y-92820000D03*
%TO.P,3b+header1,29,GND_29*%
%TO.N,unconnected-(3b+header1-GND-Pad29)*%
X106540000Y-95360000D03*
%TO.P,3b+header1,30,GPIO5_30*%
%TO.N,unconnected-(3b+header1-GPIO5-Pad30)*%
X104000000Y-95360000D03*
%TO.P,3b+header1,31,GPIO12_31*%
%TO.N,unconnected-(3b+header1-GPIO12-Pad31)*%
X106540000Y-97900000D03*
%TO.P,3b+header1,32,GPIO6_32*%
%TO.N,unconnected-(3b+header1-GPIO6-Pad32)*%
X104000000Y-97900000D03*
%TO.P,3b+header1,33,GND_33*%
%TO.N,GND*%
X106540000Y-100440000D03*
%TO.P,3b+header1,34,GPIO13_34*%
%TO.N,unconnected-(3b+header1-GPIO13-Pad34)*%
X104000000Y-100440000D03*
%TO.P,3b+header1,35,GPIO16_35*%
%TO.N,unconnected-(3b+header1-GPIO16-Pad35)*%
X106540000Y-102980000D03*
%TO.P,3b+header1,36,GPIO19_36*%
%TO.N,unconnected-(3b+header1-GPIO19-Pad36)*%
X104000000Y-102980000D03*
%TO.P,3b+header1,37,GPIO20_37*%
%TO.N,unconnected-(3b+header1-GPIO20-Pad37)*%
X106540000Y-105520000D03*
%TO.P,3b+header1,38,GPIO26_38*%
%TO.N,unconnected-(3b+header1-GPIO26-Pad38)*%
X104000000Y-105520000D03*
%TO.P,3b+header1,39,GPIO21_39*%
%TO.N,unconnected-(3b+header1-GPIO21-Pad39)*%
X106540000Y-108060000D03*
%TO.P,3b+header1,40,GND_40*%
%TO.N,GND*%
X104000000Y-108060000D03*
%TD*%
D10*
%TO.P,J9,1,Pin_1_1*%
%TO.N,Net-(J9-Pin_1)*%
X205860000Y-100983333D03*
D11*
%TO.P,J9,2,Pin_2_2*%
%TO.N,Net-(J9-Pin_2)*%
X207860000Y-100983333D03*
%TO.P,J9,3,Pin_3_3*%
%TO.N,Net-(J9-Pin_3)*%
X209860000Y-100983333D03*
%TO.P,J9,4,Pin_4_4*%
%TO.N,Net-(J9-Pin_4)*%
X211860000Y-100983333D03*
%TD*%
D14*
%TO.P,pump2,1,ENBL_1*%
%TO.N,unconnected-(pump2-ENBL-Pad1)*%
X168390000Y-42150000D03*
%TO.P,pump2,2,MS1_2*%
%TO.N,/P_ms1*%
X165850000Y-42150000D03*
%TO.P,pump2,3,MS2_3*%
%TO.N,/P_ms2*%
X163310000Y-42150000D03*
%TO.P,pump2,4,I1_4*%
%TO.N,unconnected-(pump2-I1-Pad4)*%
X160770000Y-42150000D03*
%TO.P,pump2,5,I2_5*%
%TO.N,unconnected-(pump2-I2-Pad5)*%
X158230000Y-42150000D03*
%TO.P,pump2,6,VLOG_6*%
%TO.N,+5V*%
X155690000Y-42150000D03*
%TO.P,pump2,7,STEP_7*%
%TO.N,/p2_step*%
X153150000Y-42150000D03*
%TO.P,pump2,8,DIR_8*%
%TO.N,/p2_dir*%
X150610000Y-42150000D03*
%TO.P,pump2,9,VMOT_9*%
%TO.N,+24V*%
X168390000Y-54850000D03*
%TO.P,pump2,10,GND_10*%
%TO.N,GND*%
X165850000Y-54850000D03*
%TO.P,pump2,11,B2_11*%
%TO.N,Net-(J8-Pin_1)*%
X163310000Y-54850000D03*
%TO.P,pump2,12,B1_12*%
%TO.N,Net-(J8-Pin_2)*%
X160770000Y-54850000D03*
%TO.P,pump2,13,A1_13*%
%TO.N,Net-(J8-Pin_3)*%
X158230000Y-54850000D03*
%TO.P,pump2,14,A2_14*%
%TO.N,Net-(J8-Pin_4)*%
X155690000Y-54850000D03*
%TO.P,pump2,15,FAULT_15*%
%TO.N,unconnected-(pump2-FAULT-Pad15)*%
X153150000Y-54850000D03*
%TO.P,pump2,16,LGND_16*%
%TO.N,GND*%
X150610000Y-54850000D03*
%TD*%
D15*
%TO.P,J1,1,Pin_1_1*%
%TO.N,Net-(A1-GPIO22)*%
X142450000Y-101500000D03*
D16*
%TO.P,J1,2,Pin_2_2*%
%TO.N,GND*%
X142450000Y-99500000D03*
%TD*%
D17*
%TO.P,C7,1*%
%TO.N,GND*%
X197750000Y-82900000D03*
%TO.P,C7,2*%
%TO.N,+24V*%
X197750000Y-85400000D03*
%TD*%
D10*
%TO.P,J5,1,Pin_1_1*%
%TO.N,Net-(B_mot1-B2)*%
X205800000Y-66633333D03*
D11*
%TO.P,J5,2,Pin_2_2*%
%TO.N,Net-(B_mot1-B1)*%
X207800000Y-66633333D03*
%TO.P,J5,3,Pin_3_3*%
%TO.N,Net-(B_mot1-A1)*%
X209800000Y-66633333D03*
%TO.P,J5,4,Pin_4_4*%
%TO.N,Net-(B_mot1-A2)*%
X211800000Y-66633333D03*
%TD*%
D10*
%TO.P,J6,1,Pin_1_1*%
%TO.N,Net-(J6-Pin_1)*%
X205860000Y-83816666D03*
D11*
%TO.P,J6,2,Pin_2_2*%
%TO.N,Net-(J6-Pin_2)*%
X207860000Y-83816666D03*
%TO.P,J6,3,Pin_3_3*%
%TO.N,Net-(J6-Pin_3)*%
X209860000Y-83816666D03*
%TO.P,J6,4,Pin_4_4*%
%TO.N,Net-(J6-Pin_4)*%
X211860000Y-83816666D03*
%TD*%
D17*
%TO.P,C3,1*%
%TO.N,GND*%
X165600000Y-47250000D03*
%TO.P,C3,2*%
%TO.N,+24V*%
X165600000Y-49750000D03*
%TD*%
%TO.P,C2,1*%
%TO.N,GND*%
X165860000Y-100150000D03*
%TO.P,C2,2*%
%TO.N,+24V*%
X165860000Y-102650000D03*
%TD*%
D14*
%TO.P,z_mot1,1,ENBL_1*%
%TO.N,unconnected-(z_mot1-ENBL-Pad1)*%
X200640000Y-77250000D03*
%TO.P,z_mot1,2,MS1_2*%
%TO.N,+5V*%
X198100000Y-77250000D03*
%TO.P,z_mot1,3,MS2_3*%
%TO.N,unconnected-(z_mot1-MS2-Pad3)*%
X195560000Y-77250000D03*
%TO.P,z_mot1,4,I1_4*%
%TO.N,unconnected-(z_mot1-I1-Pad4)*%
X193020000Y-77250000D03*
%TO.P,z_mot1,5,I2_5*%
%TO.N,unconnected-(z_mot1-I2-Pad5)*%
X190480000Y-77250000D03*
%TO.P,z_mot1,6,VLOG_6*%
%TO.N,/enable*%
X187940000Y-77250000D03*
%TO.P,z_mot1,7,STEP_7*%
%TO.N,/z_step*%
X185400000Y-77250000D03*
%TO.P,z_mot1,8,DIR_8*%
%TO.N,/z_dir*%
X182860000Y-77250000D03*
%TO.P,z_mot1,9,VMOT_9*%
%TO.N,+24V*%
X200640000Y-89950000D03*
%TO.P,z_mot1,10,GND_10*%
%TO.N,GND*%
X198100000Y-89950000D03*
%TO.P,z_mot1,11,B2_11*%
%TO.N,Net-(J6-Pin_1)*%
X195560000Y-89950000D03*
%TO.P,z_mot1,12,B1_12*%
%TO.N,Net-(J6-Pin_2)*%
X193020000Y-89950000D03*
%TO.P,z_mot1,13,A1_13*%
%TO.N,Net-(J6-Pin_3)*%
X190480000Y-89950000D03*
%TO.P,z_mot1,14,A2_14*%
%TO.N,Net-(J6-Pin_4)*%
X187940000Y-89950000D03*
%TO.P,z_mot1,15,FAULT_15*%
%TO.N,unconnected-(z_mot1-FAULT-Pad15)*%
X185400000Y-89950000D03*
%TO.P,z_mot1,16,LGND_16*%
%TO.N,GND*%
X182860000Y-89950000D03*
%TD*%
%TO.P,B_mot1,1,ENBL_1*%
%TO.N,unconnected-(B_mot1-ENBL-Pad1)*%
X200580000Y-59300000D03*
%TO.P,B_mot1,2,MS1_2*%
%TO.N,+5V*%
X198040000Y-59300000D03*
%TO.P,B_mot1,3,MS2_3*%
X195500000Y-59300000D03*
%TO.P,B_mot1,4,I1_4*%
%TO.N,unconnected-(B_mot1-I1-Pad4)*%
X192960000Y-59300000D03*
%TO.P,B_mot1,5,I2_5*%
%TO.N,unconnected-(B_mot1-I2-Pad5)*%
X190420000Y-59300000D03*
%TO.P,B_mot1,6,VLOG_6*%
%TO.N,/enable*%
X187880000Y-59300000D03*
%TO.P,B_mot1,7,STEP_7*%
%TO.N,/B_step*%
X185340000Y-59300000D03*
%TO.P,B_mot1,8,DIR_8*%
%TO.N,/B_dir*%
X182800000Y-59300000D03*
%TO.P,B_mot1,9,VMOT_9*%
%TO.N,+24V*%
X200580000Y-72000000D03*
%TO.P,B_mot1,10,GND_10*%
%TO.N,GND*%
X198040000Y-72000000D03*
%TO.P,B_mot1,11,B2_11*%
%TO.N,Net-(B_mot1-B2)*%
X195500000Y-72000000D03*
%TO.P,B_mot1,12,B1_12*%
%TO.N,Net-(B_mot1-B1)*%
X192960000Y-72000000D03*
%TO.P,B_mot1,13,A1_13*%
%TO.N,Net-(B_mot1-A1)*%
X190420000Y-72000000D03*
%TO.P,B_mot1,14,A2_14*%
%TO.N,Net-(B_mot1-A2)*%
X187880000Y-72000000D03*
%TO.P,B_mot1,15,FAULT_15*%
%TO.N,unconnected-(B_mot1-FAULT-Pad15)*%
X185340000Y-72000000D03*
%TO.P,B_mot1,16,LGND_16*%
%TO.N,GND*%
X182800000Y-72000000D03*
%TD*%
D15*
%TO.P,J3,1,Pin_1_1*%
%TO.N,Net-(A1-GPIO20)*%
X142500000Y-82000000D03*
D16*
%TO.P,J3,2,Pin_2_2*%
%TO.N,GND*%
X142500000Y-80000000D03*
%TD*%
D17*
%TO.P,C6,1*%
%TO.N,GND*%
X165860000Y-81650000D03*
%TO.P,C6,2*%
%TO.N,+24V*%
X165860000Y-84150000D03*
%TD*%
%TO.P,C8,1*%
%TO.N,GND*%
X197750000Y-64400000D03*
%TO.P,C8,2*%
%TO.N,+24V*%
X197750000Y-66900000D03*
%TD*%
D10*
%TO.P,J8,1,Pin_1_1*%
%TO.N,Net-(J8-Pin_1)*%
X172360000Y-49650000D03*
D11*
%TO.P,J8,2,Pin_2_2*%
%TO.N,Net-(J8-Pin_2)*%
X174360000Y-49650000D03*
%TO.P,J8,3,Pin_3_3*%
%TO.N,Net-(J8-Pin_3)*%
X176360000Y-49650000D03*
%TO.P,J8,4,Pin_4_4*%
%TO.N,Net-(J8-Pin_4)*%
X178360000Y-49650000D03*
%TD*%
D14*
%TO.P,pump1,1,ENBL_1*%
%TO.N,unconnected-(pump1-ENBL-Pad1)*%
X200640000Y-94800000D03*
%TO.P,pump1,2,MS1_2*%
%TO.N,/P_ms1*%
X198100000Y-94800000D03*
%TO.P,pump1,3,MS2_3*%
%TO.N,/P_ms2*%
X195560000Y-94800000D03*
%TO.P,pump1,4,I1_4*%
%TO.N,unconnected-(pump1-I1-Pad4)*%
X193020000Y-94800000D03*
%TO.P,pump1,5,I2_5*%
%TO.N,unconnected-(pump1-I2-Pad5)*%
X190480000Y-94800000D03*
%TO.P,pump1,6,VLOG_6*%
%TO.N,+5V*%
X187940000Y-94800000D03*
%TO.P,pump1,7,STEP_7*%
%TO.N,/p1_step*%
X185400000Y-94800000D03*
%TO.P,pump1,8,DIR_8*%
%TO.N,/p1_dir*%
X182860000Y-94800000D03*
%TO.P,pump1,9,VMOT_9*%
%TO.N,+24V*%
X200640000Y-107500000D03*
%TO.P,pump1,10,GND_10*%
%TO.N,GND*%
X198100000Y-107500000D03*
%TO.P,pump1,11,B2_11*%
%TO.N,Net-(J9-Pin_1)*%
X195560000Y-107500000D03*
%TO.P,pump1,12,B1_12*%
%TO.N,Net-(J9-Pin_2)*%
X193020000Y-107500000D03*
%TO.P,pump1,13,A1_13*%
%TO.N,Net-(J9-Pin_3)*%
X190480000Y-107500000D03*
%TO.P,pump1,14,A2_14*%
%TO.N,Net-(J9-Pin_4)*%
X187940000Y-107500000D03*
%TO.P,pump1,15,FAULT_15*%
%TO.N,unconnected-(pump1-FAULT-Pad15)*%
X185400000Y-107500000D03*
%TO.P,pump1,16,LGND_16*%
%TO.N,GND*%
X182860000Y-107500000D03*
%TD*%
D17*
%TO.P,C4,1*%
%TO.N,GND*%
X197750000Y-99650000D03*
%TO.P,C4,2*%
%TO.N,+24V*%
X197750000Y-102150000D03*
%TD*%
D18*
%TO.P,J11,1,Pin_1_1*%
%TO.N,+24V*%
X209500000Y-43050000D03*
D11*
%TO.P,J11,2,Pin_2_2*%
%TO.N,GND*%
X207500000Y-43050000D03*
%TD*%
D10*
%TO.P,J4,1,Pin_1_1*%
%TO.N,Net-(A_mot1-B2)*%
X205960000Y-48950000D03*
D11*
%TO.P,J4,2,Pin_2_2*%
%TO.N,Net-(A_mot1-B1)*%
X207960000Y-48950000D03*
%TO.P,J4,3,Pin_3_3*%
%TO.N,Net-(A_mot1-A1)*%
X209960000Y-48950000D03*
%TO.P,J4,4,Pin_4_4*%
%TO.N,Net-(A_mot1-A2)*%
X211960000Y-48950000D03*
%TD*%
D17*
%TO.P,C5,1*%
%TO.N,GND*%
X165560000Y-64400000D03*
%TO.P,C5,2*%
%TO.N,+24V*%
X165560000Y-66900000D03*
%TD*%
D14*
%TO.P,A_mot1,1,ENBL_1*%
%TO.N,unconnected-(A_mot1-ENBL-Pad1)*%
X200740000Y-42000000D03*
%TO.P,A_mot1,2,MS1_2*%
%TO.N,+5V*%
X198200000Y-42000000D03*
%TO.P,A_mot1,3,MS2_3*%
X195660000Y-42000000D03*
%TO.P,A_mot1,4,I1_4*%
%TO.N,unconnected-(A_mot1-I1-Pad4)*%
X193120000Y-42000000D03*
%TO.P,A_mot1,5,I2_5*%
%TO.N,unconnected-(A_mot1-I2-Pad5)*%
X190580000Y-42000000D03*
%TO.P,A_mot1,6,VLOG_6*%
%TO.N,/enable*%
X188040000Y-42000000D03*
%TO.P,A_mot1,7,STEP_7*%
%TO.N,/A_step*%
X185500000Y-42000000D03*
%TO.P,A_mot1,8,DIR_8*%
%TO.N,/A_dir*%
X182960000Y-42000000D03*
%TO.P,A_mot1,9,VMOT_9*%
%TO.N,+24V*%
X200740000Y-54700000D03*
%TO.P,A_mot1,10,GND_10*%
%TO.N,GND*%
X198200000Y-54700000D03*
%TO.P,A_mot1,11,B2_11*%
%TO.N,Net-(A_mot1-B2)*%
X195660000Y-54700000D03*
%TO.P,A_mot1,12,B1_12*%
%TO.N,Net-(A_mot1-B1)*%
X193120000Y-54700000D03*
%TO.P,A_mot1,13,A1_13*%
%TO.N,Net-(A_mot1-A1)*%
X190580000Y-54700000D03*
%TO.P,A_mot1,14,A2_14*%
%TO.N,Net-(A_mot1-A2)*%
X188040000Y-54700000D03*
%TO.P,A_mot1,15,FAULT_15*%
%TO.N,unconnected-(A_mot1-FAULT-Pad15)*%
X185500000Y-54700000D03*
%TO.P,A_mot1,16,LGND_16*%
%TO.N,GND*%
X182960000Y-54700000D03*
%TD*%
D10*
%TO.P,J12,1,Pin_1_1*%
%TO.N,Net-(J12-Pin_1)*%
X172360000Y-101150000D03*
D11*
%TO.P,J12,2,Pin_2_2*%
%TO.N,Net-(J12-Pin_2)*%
X174360000Y-101150000D03*
%TO.P,J12,3,Pin_3_3*%
%TO.N,Net-(J12-Pin_3)*%
X176360000Y-101150000D03*
%TO.P,J12,4,Pin_4_4*%
%TO.N,Net-(J12-Pin_4)*%
X178360000Y-101150000D03*
%TD*%
D15*
%TO.P,J2,1,Pin_1_1*%
%TO.N,Net-(A1-GPIO21)*%
X142450000Y-91500000D03*
D16*
%TO.P,J2,2,Pin_2_2*%
%TO.N,GND*%
X142450000Y-89500000D03*
%TD*%
D14*
%TO.P,pump3,1,ENBL_1*%
%TO.N,unconnected-(pump3-ENBL-Pad1)*%
X168250000Y-59300000D03*
%TO.P,pump3,2,MS1_2*%
%TO.N,/P_ms1*%
X165710000Y-59300000D03*
%TO.P,pump3,3,MS2_3*%
%TO.N,/P_ms2*%
X163170000Y-59300000D03*
%TO.P,pump3,4,I1_4*%
%TO.N,unconnected-(pump3-I1-Pad4)*%
X160630000Y-59300000D03*
%TO.P,pump3,5,I2_5*%
%TO.N,unconnected-(pump3-I2-Pad5)*%
X158090000Y-59300000D03*
%TO.P,pump3,6,VLOG_6*%
%TO.N,+5V*%
X155550000Y-59300000D03*
%TO.P,pump3,7,STEP_7*%
%TO.N,/p3_step*%
X153010000Y-59300000D03*
%TO.P,pump3,8,DIR_8*%
%TO.N,/p3_dir*%
X150470000Y-59300000D03*
%TO.P,pump3,9,VMOT_9*%
%TO.N,+24V*%
X168250000Y-72000000D03*
%TO.P,pump3,10,GND_10*%
%TO.N,GND*%
X165710000Y-72000000D03*
%TO.P,pump3,11,B2_11*%
%TO.N,Net-(J7-Pin_1)*%
X163170000Y-72000000D03*
%TO.P,pump3,12,B1_12*%
%TO.N,Net-(J7-Pin_2)*%
X160630000Y-72000000D03*
%TO.P,pump3,13,A1_13*%
%TO.N,Net-(J7-Pin_3)*%
X158090000Y-72000000D03*
%TO.P,pump3,14,A2_14*%
%TO.N,Net-(J7-Pin_4)*%
X155550000Y-72000000D03*
%TO.P,pump3,15,FAULT_15*%
%TO.N,unconnected-(pump3-FAULT-Pad15)*%
X153010000Y-72000000D03*
%TO.P,pump3,16,LGND_16*%
%TO.N,GND*%
X150470000Y-72000000D03*
%TD*%
D19*
%TO.P,A1,1,GPIO0_1*%
%TO.N,unconnected-(A1-GPIO0-Pad1)*%
X134800000Y-107640000D03*
D20*
X134000000Y-107640000D03*
D21*
%TO.P,A1,2,GPIO1_2*%
%TO.N,unconnected-(A1-GPIO1-Pad2)*%
X134800000Y-105100000D03*
D17*
X134000000Y-105100000D03*
D22*
%TO.P,A1,3,GND_3*%
%TO.N,GND*%
X134800000Y-102560000D03*
D23*
X134000000Y-102560000D03*
D21*
%TO.P,A1,4,GPIO2_4*%
%TO.N,/p4_step*%
X134800000Y-100020000D03*
D17*
X134000000Y-100020000D03*
D21*
%TO.P,A1,5,GPIO3_5*%
%TO.N,/p4_dir*%
X134800000Y-97480000D03*
D17*
X134000000Y-97480000D03*
D21*
%TO.P,A1,6,GPIO4_6*%
%TO.N,/p1_step*%
X134800000Y-94940000D03*
D17*
X134000000Y-94940000D03*
D21*
%TO.P,A1,7,GPIO5_7*%
%TO.N,/p1_dir*%
X134800000Y-92400000D03*
D17*
X134000000Y-92400000D03*
D22*
%TO.P,A1,8,GND_8*%
%TO.N,GND*%
X134800000Y-89860000D03*
D23*
X134000000Y-89860000D03*
D21*
%TO.P,A1,9,GPIO6_9*%
%TO.N,/z_step*%
X134800000Y-87320000D03*
D17*
X134000000Y-87320000D03*
D21*
%TO.P,A1,10,GPIO7_10*%
%TO.N,/z_dir*%
X134800000Y-84780000D03*
D17*
X134000000Y-84780000D03*
D21*
%TO.P,A1,11,GPIO8_11*%
%TO.N,/p5_step*%
X134800000Y-82240000D03*
D17*
X134000000Y-82240000D03*
D21*
%TO.P,A1,12,GPIO9_12*%
%TO.N,/p5_dir*%
X134800000Y-79700000D03*
D17*
X134000000Y-79700000D03*
D22*
%TO.P,A1,13,GND_13*%
%TO.N,GND*%
X134800000Y-77160000D03*
D23*
X134000000Y-77160000D03*
D21*
%TO.P,A1,14,GPIO10_14*%
%TO.N,/B_step*%
X134800000Y-74620000D03*
D17*
X134000000Y-74620000D03*
D21*
%TO.P,A1,15,GPIO11_15*%
%TO.N,/B_dir*%
X134800000Y-72080000D03*
D17*
X134000000Y-72080000D03*
D21*
%TO.P,A1,16,GPIO12_16*%
%TO.N,/p2_step*%
X134800000Y-69540000D03*
D17*
X134000000Y-69540000D03*
D21*
%TO.P,A1,17,GPIO13_17*%
%TO.N,/p2_dir*%
X134800000Y-67000000D03*
D17*
X134000000Y-67000000D03*
D22*
%TO.P,A1,18,GND_18*%
%TO.N,GND*%
X134800000Y-64460000D03*
D23*
X134000000Y-64460000D03*
D21*
%TO.P,A1,19,GPIO14_19*%
%TO.N,/A_step*%
X134800000Y-61920000D03*
D17*
X134000000Y-61920000D03*
D21*
%TO.P,A1,20,GPIO15_20*%
%TO.N,/A_dir*%
X134800000Y-59380000D03*
D17*
X134000000Y-59380000D03*
%TO.P,A1,21,GPIO16_21*%
%TO.N,/uart_RX*%
X116220000Y-59380000D03*
D21*
X115420000Y-59380000D03*
D17*
%TO.P,A1,22,GPIO17_22*%
%TO.N,/uart_TX*%
X116220000Y-61920000D03*
D21*
X115420000Y-61920000D03*
D24*
%TO.P,A1,23,GND_23*%
%TO.N,GND*%
X116220000Y-64460000D03*
D19*
X115420000Y-64460000D03*
D17*
%TO.P,A1,24,GPIO18_24*%
%TO.N,/p3_dir*%
X116220000Y-67000000D03*
D21*
X115420000Y-67000000D03*
D17*
%TO.P,A1,25,GPIO19_25*%
%TO.N,/p3_step*%
X116220000Y-69540000D03*
D21*
X115420000Y-69540000D03*
D17*
%TO.P,A1,26,GPIO20_26*%
%TO.N,Net-(A1-GPIO20)*%
X116220000Y-72080000D03*
D21*
X115420000Y-72080000D03*
D17*
%TO.P,A1,27,GPIO21_27*%
%TO.N,Net-(A1-GPIO21)*%
X116220000Y-74620000D03*
D21*
X115420000Y-74620000D03*
D24*
%TO.P,A1,28,GND_28*%
%TO.N,GND*%
X116220000Y-77160000D03*
D19*
X115420000Y-77160000D03*
D17*
%TO.P,A1,29,GPIO22_29*%
%TO.N,Net-(A1-GPIO22)*%
X116220000Y-79700000D03*
D21*
X115420000Y-79700000D03*
D17*
%TO.P,A1,30,RUN_30*%
%TO.N,/Pico_reset*%
X116220000Y-82240000D03*
D21*
X115420000Y-82240000D03*
D17*
%TO.P,A1,31,GPIO26_ADC0_31*%
%TO.N,unconnected-(A1-GPIO26_ADC0-Pad31)*%
X116220000Y-84780000D03*
D21*
X115420000Y-84780000D03*
D17*
%TO.P,A1,32,GPIO27_ADC1_32*%
%TO.N,unconnected-(A1-GPIO27_ADC1-Pad32)*%
X116220000Y-87320000D03*
D21*
X115420000Y-87320000D03*
D24*
%TO.P,A1,33,AGND_33*%
%TO.N,GND*%
X116220000Y-89860000D03*
D19*
X115420000Y-89860000D03*
D17*
%TO.P,A1,34,GPIO28_ADC2_34*%
%TO.N,unconnected-(A1-GPIO28_ADC2-Pad34)*%
X116220000Y-92400000D03*
D21*
X115420000Y-92400000D03*
D17*
%TO.P,A1,35,ADC_VREF_35*%
%TO.N,unconnected-(A1-ADC_VREF-Pad35)*%
X116220000Y-94940000D03*
D21*
X115420000Y-94940000D03*
D17*
%TO.P,A1,36,3V3_36*%
%TO.N,unconnected-(A1-3V3-Pad36)*%
X116220000Y-97480000D03*
D21*
X115420000Y-97480000D03*
D17*
%TO.P,A1,37,3V3_EN_37*%
%TO.N,unconnected-(A1-3V3_EN-Pad37)*%
X116220000Y-100020000D03*
D21*
X115420000Y-100020000D03*
D24*
%TO.P,A1,38,GND_38*%
%TO.N,GND*%
X116220000Y-102560000D03*
D19*
X115420000Y-102560000D03*
D17*
%TO.P,A1,39,VSYS_39*%
%TO.N,Net-(A1-VSYS)*%
X116220000Y-105100000D03*
D21*
X115420000Y-105100000D03*
D17*
%TO.P,A1,40,VBUS_40*%
%TO.N,unconnected-(A1-VBUS-Pad40)*%
X116220000Y-107640000D03*
D21*
X115420000Y-107640000D03*
%TD*%
D14*
%TO.P,pump4,1,ENBL_1*%
%TO.N,unconnected-(pump4-ENBL-Pad1)*%
X168110000Y-94800000D03*
%TO.P,pump4,2,MS1_2*%
%TO.N,/P_ms1*%
X165570000Y-94800000D03*
%TO.P,pump4,3,MS2_3*%
%TO.N,/P_ms2*%
X163030000Y-94800000D03*
%TO.P,pump4,4,I1_4*%
%TO.N,unconnected-(pump4-I1-Pad4)*%
X160490000Y-94800000D03*
%TO.P,pump4,5,I2_5*%
%TO.N,unconnected-(pump4-I2-Pad5)*%
X157950000Y-94800000D03*
%TO.P,pump4,6,VLOG_6*%
%TO.N,+5V*%
X155410000Y-94800000D03*
%TO.P,pump4,7,STEP_7*%
%TO.N,/p4_step*%
X152870000Y-94800000D03*
%TO.P,pump4,8,DIR_8*%
%TO.N,/p4_dir*%
X150330000Y-94800000D03*
%TO.P,pump4,9,VMOT_9*%
%TO.N,+24V*%
X168110000Y-107500000D03*
%TO.P,pump4,10,GND_10*%
%TO.N,GND*%
X165570000Y-107500000D03*
%TO.P,pump4,11,B2_11*%
%TO.N,Net-(J12-Pin_1)*%
X163030000Y-107500000D03*
%TO.P,pump4,12,B1_12*%
%TO.N,Net-(J12-Pin_2)*%
X160490000Y-107500000D03*
%TO.P,pump4,13,A1_13*%
%TO.N,Net-(J12-Pin_3)*%
X157950000Y-107500000D03*
%TO.P,pump4,14,A2_14*%
%TO.N,Net-(J12-Pin_4)*%
X155410000Y-107500000D03*
%TO.P,pump4,15,FAULT_15*%
%TO.N,unconnected-(pump4-FAULT-Pad15)*%
X152870000Y-107500000D03*
%TO.P,pump4,16,LGND_16*%
%TO.N,GND*%
X150330000Y-107500000D03*
%TD*%
D18*
%TO.P,J10,1,Pin_1_1*%
%TO.N,+5V*%
X112500000Y-54000000D03*
D11*
%TO.P,J10,2,Pin_2_2*%
%TO.N,GND*%
X110500000Y-54000000D03*
%TD*%
D14*
%TO.P,pump5,1,ENBL_1*%
%TO.N,unconnected-(pump5-ENBL-Pad1)*%
X168530000Y-76650000D03*
%TO.P,pump5,2,MS1_2*%
%TO.N,/P_ms1*%
X165990000Y-76650000D03*
%TO.P,pump5,3,MS2_3*%
%TO.N,/P_ms2*%
X163450000Y-76650000D03*
%TO.P,pump5,4,I1_4*%
%TO.N,unconnected-(pump5-I1-Pad4)*%
X160910000Y-76650000D03*
%TO.P,pump5,5,I2_5*%
%TO.N,unconnected-(pump5-I2-Pad5)*%
X158370000Y-76650000D03*
%TO.P,pump5,6,VLOG_6*%
%TO.N,+5V*%
X155830000Y-76650000D03*
%TO.P,pump5,7,STEP_7*%
%TO.N,/p5_step*%
X153290000Y-76650000D03*
%TO.P,pump5,8,DIR_8*%
%TO.N,/p5_dir*%
X150750000Y-76650000D03*
%TO.P,pump5,9,VMOT_9*%
%TO.N,+24V*%
X168530000Y-89350000D03*
%TO.P,pump5,10,GND_10*%
%TO.N,GND*%
X165990000Y-89350000D03*
%TO.P,pump5,11,B2_11*%
%TO.N,Net-(J13-Pin_1)*%
X163450000Y-89350000D03*
%TO.P,pump5,12,B1_12*%
%TO.N,Net-(J13-Pin_2)*%
X160910000Y-89350000D03*
%TO.P,pump5,13,A1_13*%
%TO.N,Net-(J13-Pin_3)*%
X158370000Y-89350000D03*
%TO.P,pump5,14,A2_14*%
%TO.N,Net-(J13-Pin_4)*%
X155830000Y-89350000D03*
%TO.P,pump5,15,FAULT_15*%
%TO.N,unconnected-(pump5-FAULT-Pad15)*%
X153290000Y-89350000D03*
%TO.P,pump5,16,LGND_16*%
%TO.N,GND*%
X150750000Y-89350000D03*
%TD*%
D25*
%TO.P,SW1,*%
%TO.N,*%
X124600000Y-43702500D03*
X116400000Y-43702500D03*
D26*
%TO.P,SW1,1,A_1*%
%TO.N,Net-(A1-VSYS)*%
X122500000Y-43702500D03*
D27*
%TO.P,SW1,2,B_2*%
%TO.N,+5V*%
X120500000Y-43702500D03*
%TO.P,SW1,3,C_3*%
%TO.N,unconnected-(SW1A-C-Pad3)*%
X118500000Y-43702500D03*
%TD*%
D17*
%TO.P,C1,1*%
%TO.N,GND*%
X197750000Y-47250000D03*
%TO.P,C1,2*%
%TO.N,+24V*%
X197750000Y-49750000D03*
%TD*%
D28*
%TO.N,/enable*%
X133000000Y-51500000D03*
X186500000Y-49500000D03*
X138500000Y-47500000D03*
X183000000Y-65500000D03*
%TO.N,/uart_RX*%
X108500000Y-66500000D03*
%TO.N,/P_ms1*%
X159500000Y-100000000D03*
X151000000Y-68500000D03*
X150500000Y-83000000D03*
%TO.N,/P_ms2*%
X161000000Y-97000000D03*
X148899950Y-81000000D03*
X192500000Y-97860000D03*
X149500000Y-64000000D03*
X144500000Y-108500000D03*
%TO.N,+5V*%
X153000000Y-98500000D03*
X148000000Y-63500000D03*
X170500000Y-44000000D03*
X183000000Y-50500000D03*
X185500000Y-46500000D03*
X147429975Y-79000000D03*
%TO.N,/p2_step*%
X142000000Y-51500000D03*
X145000000Y-48500000D03*
%TO.N,/p2_dir*%
X144000000Y-48000000D03*
X141000000Y-51000000D03*
%TO.N,+24V*%
X170500000Y-82000000D03*
X172500000Y-96500000D03*
X173000000Y-58000000D03*
%TO.N,/z_step*%
X145500000Y-85000000D03*
X157500000Y-84000000D03*
X173000000Y-79500000D03*
%TO.N,/z_dir*%
X172500000Y-78500000D03*
X156000000Y-83000000D03*
X146000000Y-84000000D03*
%TO.N,/B_step*%
X168000000Y-62300003D03*
X155000000Y-69000000D03*
%TO.N,/B_dir*%
X168000000Y-61500000D03*
X153000000Y-69500000D03*
%TO.N,/p1_step*%
X173500000Y-80500000D03*
X158000000Y-86500000D03*
X145500000Y-86500000D03*
%TO.N,/p1_dir*%
X175000000Y-81000000D03*
X144500000Y-86000000D03*
X160598529Y-85598529D03*
%TO.N,/A_step*%
X139500000Y-51500000D03*
X142000000Y-49000000D03*
%TO.N,/A_dir*%
X141000000Y-48500000D03*
X138500000Y-51000000D03*
X180000000Y-39500000D03*
%TO.N,/p4_step*%
X143000000Y-96000000D03*
%TO.N,/p4_dir*%
X144000000Y-94800000D03*
%TO.N,/p5_step*%
X144000000Y-77500000D03*
%TO.N,/p5_dir*%
X146500000Y-76500000D03*
%TO.N,Net-(A1-VSYS)*%
X128500000Y-81000000D03*
X125500000Y-53000000D03*
X130000000Y-79000000D03*
%TD*%
%TO.N,Net-(J13-Pin_1)*%
D29*
X169360000Y-90650000D02*
X172360000Y-87650000D01*
X163450000Y-89350000D02*
X164750000Y-90650000D01*
X164750000Y-90650000D02*
X169360000Y-90650000D01*
X172360000Y-87650000D02*
X172360000Y-83983333D01*
%TO.N,Net-(J13-Pin_2)*%
X162810000Y-91250000D02*
X169608528Y-91250000D01*
X160910000Y-89350000D02*
X162810000Y-91250000D01*
X169608528Y-91250000D02*
X174360000Y-86498528D01*
X174360000Y-86498528D02*
X174360000Y-83983333D01*
%TO.N,Net-(J13-Pin_3)*%
X160870000Y-91850000D02*
X169857056Y-91850000D01*
X158370000Y-89350000D02*
X160870000Y-91850000D01*
X176360000Y-85347056D02*
X176360000Y-83983333D01*
X169857056Y-91850000D02*
X176360000Y-85347056D01*
%TO.N,Net-(J13-Pin_4)*%
X155830000Y-89350000D02*
X158930000Y-92450000D01*
X170168333Y-92450000D02*
X178360000Y-84258333D01*
X158930000Y-92450000D02*
X170168333Y-92450000D01*
X178360000Y-84258333D02*
X178360000Y-83983333D01*
%TO.N,Net-(J7-Pin_1)*%
X172360000Y-66816667D02*
X172360000Y-69728478D01*
X168788478Y-73300000D02*
X164470000Y-73300000D01*
X164470000Y-73300000D02*
X163170000Y-72000000D01*
X172360000Y-69728478D02*
X168788478Y-73300000D01*
%TO.N,Net-(J7-Pin_2)*%
X169037006Y-73900000D02*
X174360000Y-68577006D01*
X162530000Y-73900000D02*
X169037006Y-73900000D01*
X160630000Y-72000000D02*
X162530000Y-73900000D01*
X174360000Y-68577006D02*
X174360000Y-66816667D01*
%TO.N,Net-(J7-Pin_3)*%
X169285534Y-74500000D02*
X160590000Y-74500000D01*
X176360000Y-66816667D02*
X176360000Y-67425534D01*
X176360000Y-67425534D02*
X169285534Y-74500000D01*
X160590000Y-74500000D02*
X158090000Y-72000000D01*
%TO.N,Net-(J7-Pin_4)*%
X155550000Y-72000000D02*
X158650000Y-75100000D01*
X158650000Y-75100000D02*
X170076667Y-75100000D01*
X170076667Y-75100000D02*
X178360000Y-66816667D01*
%TO.N,/enable*%
X138500000Y-47500000D02*
X147500000Y-38500000D01*
X120802944Y-51500000D02*
X111252944Y-61050000D01*
X186500000Y-49500000D02*
X186321522Y-49500000D01*
X184421522Y-58000000D02*
X186580000Y-58000000D01*
X133000000Y-51500000D02*
X120802944Y-51500000D01*
X186321522Y-49500000D02*
X181660000Y-54161522D01*
X181500000Y-67000000D02*
X181500000Y-72538478D01*
X184540000Y-38500000D02*
X188040000Y-42000000D01*
X147500000Y-38500000D02*
X184540000Y-38500000D01*
X181500000Y-72538478D02*
X184911522Y-75950000D01*
X186640000Y-75950000D02*
X187940000Y-77250000D01*
X105290000Y-61050000D02*
X104000000Y-62340000D01*
X181660000Y-55238478D02*
X184421522Y-58000000D01*
X181660000Y-54161522D02*
X181660000Y-55238478D01*
X183000000Y-65500000D02*
X181500000Y-67000000D01*
X186580000Y-58000000D02*
X187880000Y-59300000D01*
X111252944Y-61050000D02*
X105290000Y-61050000D01*
X184911522Y-75950000D02*
X186640000Y-75950000D01*
%TO.N,/uart_TX*%
X109920000Y-67420000D02*
X115420000Y-61920000D01*
X106540000Y-67420000D02*
X109920000Y-67420000D01*
%TO.N,/uart_RX*%
X108500000Y-66500000D02*
X108500000Y-66300000D01*
X108500000Y-66300000D02*
X115420000Y-59380000D01*
%TO.N,/Pico_reset*%
D30*
X104000000Y-72500000D02*
X105150000Y-73650000D01*
X115604364Y-82240000D02*
X116220000Y-82240000D01*
X107014364Y-73650000D02*
X115604364Y-82240000D01*
X105150000Y-73650000D02*
X107014364Y-73650000D01*
%TO.N,/P_ms1*%
D31*
X196799975Y-96100025D02*
X198100000Y-94800000D01*
X149169975Y-71461512D02*
X151000000Y-69631487D01*
X150500000Y-78238513D02*
X149449975Y-77188488D01*
X149309975Y-55388488D02*
X149309975Y-54311512D01*
X149500000Y-72868513D02*
X149169975Y-72538488D01*
X150500000Y-83000000D02*
X150500000Y-78238513D01*
X149500000Y-76061487D02*
X149500000Y-72868513D01*
D29*
X114060000Y-109060000D02*
X112500000Y-107500000D01*
D31*
X149750101Y-96200000D02*
X164170000Y-96200000D01*
X149500000Y-95949899D02*
X149750101Y-96200000D01*
X149500000Y-55578513D02*
X149309975Y-55388488D01*
X181100025Y-96100025D02*
X196799975Y-96100025D01*
X150500000Y-87761487D02*
X149449975Y-88811512D01*
D29*
X112500000Y-93700000D02*
X106540000Y-87740000D01*
D31*
X149169975Y-59838488D02*
X149169975Y-58761512D01*
X149029975Y-94261512D02*
X149029975Y-95338488D01*
X151000000Y-69631487D02*
X151000000Y-68500000D01*
X149500000Y-58431487D02*
X149500000Y-55578513D01*
D29*
X112500000Y-107500000D02*
X112500000Y-93700000D01*
D31*
X179500000Y-94500000D02*
X181100025Y-96100025D01*
D29*
X136440000Y-109060000D02*
X114060000Y-109060000D01*
D31*
X149500000Y-53980101D02*
X150030101Y-53450000D01*
D29*
X153300000Y-106200000D02*
X139300000Y-106200000D01*
D31*
X149449975Y-76111512D02*
X149500000Y-76061487D01*
X149500000Y-95808513D02*
X149500000Y-95949899D01*
X150500000Y-83000000D02*
X150500000Y-87761487D01*
X151000000Y-61668513D02*
X149169975Y-59838488D01*
X149309975Y-54311512D02*
X149500000Y-54121487D01*
X149500000Y-93791487D02*
X149029975Y-94261512D01*
X151000000Y-68500000D02*
X151000000Y-61668513D01*
X164170000Y-96200000D02*
X165570000Y-94800000D01*
X166870025Y-96100025D02*
X170399975Y-96100025D01*
X165570000Y-94800000D02*
X166870025Y-96100025D01*
D29*
X159500000Y-100000000D02*
X153300000Y-106200000D01*
D31*
X149449975Y-89888488D02*
X149500000Y-89938513D01*
X149169975Y-58761512D02*
X149500000Y-58431487D01*
X172000000Y-94500000D02*
X179500000Y-94500000D01*
X149449975Y-88811512D02*
X149449975Y-89888488D01*
X150030101Y-53450000D02*
X154550000Y-53450000D01*
D29*
X139300000Y-106200000D02*
X136440000Y-109060000D01*
D31*
X149500000Y-89938513D02*
X149500000Y-93791487D01*
X170399975Y-96100025D02*
X172000000Y-94500000D01*
X149449975Y-77188488D02*
X149449975Y-76111512D01*
X149500000Y-54121487D02*
X149500000Y-53980101D01*
X154550000Y-53450000D02*
X165850000Y-42150000D01*
X149029975Y-95338488D02*
X149500000Y-95808513D01*
X149169975Y-72538488D02*
X149169975Y-71461512D01*
%TO.N,/P_ms2*%
X148899950Y-88512938D02*
X148849925Y-88562964D01*
X148899950Y-55827062D02*
X148709925Y-55637036D01*
X148849925Y-88562964D02*
X148849925Y-90137036D01*
X148899950Y-77487061D02*
X148849925Y-77437036D01*
X148500000Y-95798498D02*
X148500000Y-96081270D01*
X149500000Y-70282889D02*
X149500000Y-64000000D01*
X148569925Y-60087036D02*
X148569925Y-58512964D01*
X148570693Y-95727805D02*
X148500000Y-95798498D01*
X192500000Y-97860000D02*
X181360000Y-97860000D01*
X148569925Y-71212964D02*
X149500000Y-70282889D01*
X181360000Y-97860000D02*
X178600050Y-95100050D01*
X148429925Y-95587036D02*
X148570693Y-95727805D01*
D29*
X111900000Y-107748528D02*
X113811472Y-109660000D01*
D31*
X148899950Y-90187061D02*
X148899950Y-93542939D01*
X165118573Y-96100025D02*
X164418548Y-96800050D01*
X148569925Y-58512964D02*
X148899950Y-58182939D01*
X149500000Y-64000000D02*
X149500000Y-61017111D01*
X148849925Y-75862964D02*
X148899950Y-75812939D01*
X164418548Y-96800050D02*
X161199950Y-96800050D01*
X149418730Y-97000000D02*
X161000000Y-97000000D01*
X170648523Y-96700075D02*
X166621477Y-96700075D01*
X148899950Y-73117061D02*
X148569925Y-72787036D01*
D29*
X143340000Y-109660000D02*
X144500000Y-108500000D01*
D31*
X148899950Y-58182939D02*
X148899950Y-55827062D01*
X148849925Y-77437036D02*
X148849925Y-75862964D01*
X161199950Y-96800050D02*
X161000000Y-97000000D01*
D29*
X111900000Y-95640000D02*
X111900000Y-107748528D01*
X106540000Y-90280000D02*
X111900000Y-95640000D01*
D31*
X148899950Y-93542939D02*
X148429925Y-94012964D01*
X149500000Y-61017111D02*
X148569925Y-60087036D01*
X148899950Y-75812939D02*
X148899950Y-73117061D01*
X148709925Y-55637036D02*
X148709925Y-54341427D01*
X148500000Y-96081270D02*
X149418730Y-97000000D01*
X148429925Y-94012964D02*
X148429925Y-95587036D01*
X148849925Y-90137036D02*
X148899950Y-90187061D01*
X148709925Y-54341427D02*
X148500000Y-54131502D01*
X152810000Y-52650000D02*
X163310000Y-42150000D01*
X149698730Y-52650000D02*
X152810000Y-52650000D01*
X148899950Y-81000000D02*
X148899950Y-88512938D01*
D29*
X113811472Y-109660000D02*
X143340000Y-109660000D01*
D31*
X166021427Y-96100025D02*
X165118573Y-96100025D01*
X166621477Y-96700075D02*
X166021427Y-96100025D01*
X148500000Y-53848730D02*
X149698730Y-52650000D01*
X148500000Y-54131502D02*
X148500000Y-53848730D01*
X172248548Y-95100050D02*
X170648523Y-96700075D01*
X148569925Y-72787036D02*
X148569925Y-71212964D01*
X148899950Y-81000000D02*
X148899950Y-77487061D01*
X178600050Y-95100050D02*
X172248548Y-95100050D01*
%TO.N,Net-(J9-Pin_1)*%
D29*
X196860000Y-108800000D02*
X195560000Y-107500000D01*
X205860000Y-100983333D02*
X205860000Y-104118478D01*
X205860000Y-104118478D02*
X201178478Y-108800000D01*
X201178478Y-108800000D02*
X196860000Y-108800000D01*
%TO.N,Net-(J9-Pin_2)*%
X207860000Y-102967006D02*
X201427006Y-109400000D01*
X207860000Y-100983333D02*
X207860000Y-102967006D01*
X201427006Y-109400000D02*
X194920000Y-109400000D01*
X194920000Y-109400000D02*
X193020000Y-107500000D01*
%TO.N,Net-(J9-Pin_3)*%
X209860000Y-100983333D02*
X209860000Y-101815534D01*
X192980000Y-110000000D02*
X190480000Y-107500000D01*
X209860000Y-101815534D02*
X201675534Y-110000000D01*
X201675534Y-110000000D02*
X192980000Y-110000000D01*
%TO.N,Net-(J9-Pin_4)*%
X211860000Y-100983333D02*
X202243333Y-110600000D01*
X191040000Y-110600000D02*
X187940000Y-107500000D01*
X202243333Y-110600000D02*
X191040000Y-110600000D01*
%TO.N,+5V*%
D32*
X145660000Y-49500000D02*
X142631371Y-49500000D01*
X148000000Y-70792905D02*
X148000000Y-63500000D01*
D29*
X178500000Y-91500000D02*
X178500000Y-89000000D01*
D32*
X120500000Y-46000000D02*
X120500000Y-43702500D01*
X147429975Y-79000000D02*
X147429975Y-78500000D01*
X147429975Y-78500000D02*
X148000000Y-77929975D01*
X179500000Y-59500000D02*
X182000000Y-62000000D01*
X179500000Y-55000000D02*
X179500000Y-59500000D01*
X148000000Y-73207096D02*
X147869900Y-73076995D01*
D29*
X176500000Y-93500000D02*
X156710000Y-93500000D01*
D32*
X179500000Y-78000000D02*
X184500000Y-83000000D01*
X147869900Y-70923005D02*
X148000000Y-70792905D01*
X123250000Y-48250000D02*
X118250000Y-48250000D01*
X148000000Y-77929975D02*
X148000000Y-73207096D01*
X195500000Y-59300000D02*
X198040000Y-59300000D01*
X142631371Y-49500000D02*
X142331371Y-49800000D01*
X182000000Y-62000000D02*
X192800000Y-62000000D01*
X146000000Y-49840000D02*
X148000000Y-49840000D01*
D29*
X198100000Y-77250000D02*
X192350000Y-83000000D01*
D32*
X146000000Y-49840000D02*
X145660000Y-49500000D01*
X118250000Y-48250000D02*
X112500000Y-54000000D01*
X142331371Y-49800000D02*
X141668629Y-49800000D01*
X147429975Y-79000000D02*
X147429975Y-96001230D01*
X188000000Y-44000000D02*
X193660000Y-44000000D01*
X170500000Y-44000000D02*
X188000000Y-44000000D01*
X193660000Y-44000000D02*
X195660000Y-42000000D01*
X149928745Y-98500000D02*
X153000000Y-98500000D01*
X148000000Y-63500000D02*
X147500000Y-63000000D01*
D29*
X187940000Y-94800000D02*
X186640000Y-93500000D01*
D32*
X141668629Y-49800000D02*
X141368629Y-49500000D01*
X183000000Y-50500000D02*
X183000000Y-51500000D01*
D29*
X192350000Y-83000000D02*
X184500000Y-83000000D01*
X156710000Y-93500000D02*
X155410000Y-94800000D01*
D32*
X192800000Y-62000000D02*
X195500000Y-59300000D01*
D29*
X186640000Y-93500000D02*
X176500000Y-93500000D01*
D32*
X147500000Y-63000000D02*
X147500000Y-51340000D01*
X183000000Y-51500000D02*
X179500000Y-55000000D01*
X147429975Y-96001230D02*
X149928745Y-98500000D01*
X147869900Y-73076995D02*
X147869900Y-70923005D01*
X148000000Y-49840000D02*
X155690000Y-42150000D01*
X118250000Y-48250000D02*
X120500000Y-46000000D01*
X141368629Y-49500000D02*
X124500000Y-49500000D01*
X179500000Y-59500000D02*
X179500000Y-78000000D01*
X195660000Y-42000000D02*
X198200000Y-42000000D01*
D29*
X178500000Y-89000000D02*
X184500000Y-83000000D01*
D32*
X188000000Y-44000000D02*
X185500000Y-46500000D01*
D29*
X176500000Y-93500000D02*
X178500000Y-91500000D01*
D32*
X124500000Y-49500000D02*
X123250000Y-48250000D01*
X147500000Y-51340000D02*
X146000000Y-49840000D01*
%TO.N,/p2_step*%
D30*
X142000000Y-65000000D02*
X137460000Y-69540000D01*
X142000000Y-51500000D02*
X142000000Y-65000000D01*
X137460000Y-69540000D02*
X134000000Y-69540000D01*
X153150000Y-42150000D02*
X147300000Y-48000000D01*
X147300000Y-48000000D02*
X145500000Y-48000000D01*
X145500000Y-48000000D02*
X145000000Y-48500000D01*
%TO.N,/p2_dir*%
X140000000Y-57000000D02*
X141000000Y-56000000D01*
X141500000Y-59500000D02*
X140000000Y-58000000D01*
X141000000Y-56000000D02*
X141000000Y-51000000D01*
X141500000Y-62000000D02*
X141500000Y-59500000D01*
X148500000Y-45500000D02*
X148500000Y-44260000D01*
X138500000Y-67000000D02*
X140000000Y-65500000D01*
X148500000Y-44260000D02*
X150610000Y-42150000D01*
X146500000Y-47500000D02*
X148500000Y-45500000D01*
X144500000Y-47500000D02*
X146500000Y-47500000D01*
X140000000Y-63500000D02*
X141500000Y-62000000D01*
X140000000Y-65500000D02*
X140000000Y-63500000D01*
X134800000Y-67000000D02*
X138500000Y-67000000D01*
X140000000Y-58000000D02*
X140000000Y-57000000D01*
X144000000Y-48000000D02*
X144500000Y-47500000D01*
%TO.N,+24V*%
D33*
X217000000Y-82900000D02*
X217000000Y-66150000D01*
X173000000Y-59460000D02*
X165560000Y-66900000D01*
X197750000Y-104610000D02*
X200640000Y-107500000D01*
X165860000Y-102650000D02*
X165860000Y-105250000D01*
X211450000Y-45000000D02*
X209500000Y-43050000D01*
X197750000Y-69170000D02*
X200580000Y-72000000D01*
X168530000Y-89350000D02*
X168530000Y-86820000D01*
X167375000Y-47975000D02*
X195975000Y-47975000D01*
X197750000Y-85400000D02*
X217000000Y-66150000D01*
X197750000Y-66900000D02*
X197750000Y-69170000D01*
X165860000Y-102650000D02*
X169000000Y-99510000D01*
X217000000Y-54000000D02*
X217000000Y-49500000D01*
X197750000Y-85400000D02*
X197750000Y-87060000D01*
X168530000Y-86820000D02*
X165860000Y-84150000D01*
X165560000Y-66900000D02*
X165560000Y-69310000D01*
X165860000Y-105250000D02*
X168110000Y-107500000D01*
X165560000Y-69310000D02*
X168250000Y-72000000D01*
X217000000Y-66150000D02*
X217000000Y-54000000D01*
X169000000Y-99500000D02*
X169500000Y-99500000D01*
X197750000Y-87060000D02*
X200640000Y-89950000D01*
X170500000Y-82000000D02*
X168530000Y-83970000D01*
X203150000Y-61500000D02*
X209500000Y-61500000D01*
X168530000Y-83970000D02*
X168530000Y-86820000D01*
X197750000Y-66900000D02*
X203150000Y-61500000D01*
X165600000Y-49750000D02*
X166750000Y-49750000D01*
X212500000Y-45000000D02*
X211450000Y-45000000D01*
X168390000Y-51390000D02*
X168390000Y-54850000D01*
X169000000Y-99510000D02*
X169000000Y-99500000D01*
X197750000Y-102150000D02*
X217000000Y-82900000D01*
X200740000Y-52740000D02*
X200740000Y-54700000D01*
X197750000Y-49750000D02*
X202500000Y-45000000D01*
X209500000Y-43925000D02*
X209500000Y-43050000D01*
X166750000Y-49750000D02*
X168390000Y-51390000D01*
X165600000Y-49750000D02*
X167375000Y-47975000D01*
X208425000Y-45000000D02*
X209500000Y-43925000D01*
X197750000Y-102150000D02*
X197750000Y-104610000D01*
X197750000Y-49750000D02*
X200740000Y-52740000D01*
X202500000Y-45000000D02*
X208425000Y-45000000D01*
X217000000Y-49500000D02*
X212500000Y-45000000D01*
X169500000Y-99500000D02*
X172500000Y-96500000D01*
X195975000Y-47975000D02*
X197750000Y-49750000D01*
X209500000Y-61500000D02*
X217000000Y-54000000D01*
X173000000Y-58000000D02*
X173000000Y-59460000D01*
%TO.N,Net-(J8-Pin_1)*%
D29*
X164610000Y-56150000D02*
X168928478Y-56150000D01*
X168928478Y-56150000D02*
X172360000Y-52718478D01*
X163310000Y-54850000D02*
X164610000Y-56150000D01*
X172360000Y-52718478D02*
X172360000Y-49650000D01*
%TO.N,Net-(J8-Pin_2)*%
X169177006Y-56750000D02*
X174360000Y-51567006D01*
X174360000Y-51567006D02*
X174360000Y-49650000D01*
X160770000Y-54850000D02*
X162670000Y-56750000D01*
X162670000Y-56750000D02*
X169177006Y-56750000D01*
%TO.N,Net-(J8-Pin_3)*%
X169425534Y-57350000D02*
X176360000Y-50415534D01*
X176360000Y-50415534D02*
X176360000Y-49650000D01*
X158230000Y-54850000D02*
X160730000Y-57350000D01*
X160730000Y-57350000D02*
X169425534Y-57350000D01*
%TO.N,Net-(J8-Pin_4)*%
X155690000Y-54850000D02*
X158790000Y-57950000D01*
X158790000Y-57950000D02*
X170060000Y-57950000D01*
X170060000Y-57950000D02*
X178360000Y-49650000D01*
%TO.N,Net-(B_mot1-B2)*%
X196860000Y-73700000D02*
X195560000Y-72400000D01*
X205860000Y-66650000D02*
X205860000Y-69018478D01*
X201178478Y-73700000D02*
X196860000Y-73700000D01*
X205860000Y-69018478D02*
X201178478Y-73700000D01*
%TO.N,Net-(B_mot1-B1)*%
X207860000Y-66650000D02*
X207860000Y-67867006D01*
X207860000Y-67867006D02*
X201427006Y-74300000D01*
X194920000Y-74300000D02*
X193020000Y-72400000D01*
X201427006Y-74300000D02*
X194920000Y-74300000D01*
%TO.N,Net-(B_mot1-A1)*%
X201675534Y-74900000D02*
X192980000Y-74900000D01*
X209860000Y-66650000D02*
X209860000Y-66715534D01*
X192980000Y-74900000D02*
X190480000Y-72400000D01*
X209860000Y-66715534D02*
X201675534Y-74900000D01*
%TO.N,Net-(B_mot1-A2)*%
X203010000Y-75500000D02*
X191040000Y-75500000D01*
X211860000Y-66650000D02*
X203010000Y-75500000D01*
X191040000Y-75500000D02*
X187940000Y-72400000D01*
%TO.N,Net-(J6-Pin_1)*%
X205860000Y-86568478D02*
X205860000Y-83816666D01*
X196860000Y-91250000D02*
X201178478Y-91250000D01*
X195560000Y-89950000D02*
X196860000Y-91250000D01*
X201178478Y-91250000D02*
X205860000Y-86568478D01*
%TO.N,Net-(J6-Pin_2)*%
X194920000Y-91850000D02*
X201427006Y-91850000D01*
X207860000Y-85417006D02*
X207860000Y-83816666D01*
X193020000Y-89950000D02*
X194920000Y-91850000D01*
X201427006Y-91850000D02*
X207860000Y-85417006D01*
%TO.N,Net-(J6-Pin_3)*%
X192980000Y-92450000D02*
X201675534Y-92450000D01*
X209860000Y-84265534D02*
X209860000Y-83816666D01*
X201675534Y-92450000D02*
X209860000Y-84265534D01*
X190480000Y-89950000D02*
X192980000Y-92450000D01*
%TO.N,Net-(J6-Pin_4)*%
X191040000Y-93050000D02*
X202626666Y-93050000D01*
X202626666Y-93050000D02*
X211860000Y-83816666D01*
X187940000Y-89950000D02*
X191040000Y-93050000D01*
%TO.N,/z_step*%
D30*
X137271370Y-85180000D02*
X135131370Y-87320000D01*
X135131370Y-87320000D02*
X134000000Y-87320000D01*
X145500000Y-85000000D02*
X145320000Y-85180000D01*
X165000000Y-79500000D02*
X173000000Y-79500000D01*
X157500000Y-84000000D02*
X160500000Y-84000000D01*
X160500000Y-84000000D02*
X165000000Y-79500000D01*
X145320000Y-85180000D02*
X137271370Y-85180000D01*
%TO.N,/z_dir*%
X144720000Y-84780000D02*
X134000000Y-84780000D01*
X146000000Y-84000000D02*
X145500000Y-84000000D01*
X160500000Y-83000000D02*
X165000000Y-78500000D01*
X145500000Y-84000000D02*
X144720000Y-84780000D01*
X156000000Y-83000000D02*
X160500000Y-83000000D01*
X165000000Y-78500000D02*
X172500000Y-78500000D01*
%TO.N,/B_step*%
X168000000Y-62300003D02*
X161699997Y-62300003D01*
X161699997Y-62300003D02*
X155000000Y-69000000D01*
%TO.N,/B_dir*%
X161000000Y-61500000D02*
X168000000Y-61500000D01*
X161000000Y-61500000D02*
X153000000Y-69500000D01*
%TO.N,Net-(A1-GPIO20)*%
X132052246Y-83340000D02*
X120792246Y-72080000D01*
X141160000Y-83340000D02*
X132052246Y-83340000D01*
X120792246Y-72080000D02*
X116220000Y-72080000D01*
X142500000Y-82000000D02*
X141160000Y-83340000D01*
%TO.N,/p1_step*%
X138500000Y-91055636D02*
X134615636Y-94940000D01*
X158000000Y-86500000D02*
X159000000Y-85500000D01*
X138500000Y-88000000D02*
X138500000Y-91055636D01*
X145000000Y-87000000D02*
X139500000Y-87000000D01*
X164848529Y-80500000D02*
X173500000Y-80500000D01*
X134615636Y-94940000D02*
X134000000Y-94940000D01*
X145500000Y-86500000D02*
X145000000Y-87000000D01*
X159000000Y-85500000D02*
X159848529Y-85500000D01*
X139500000Y-87000000D02*
X138500000Y-88000000D01*
X159848529Y-85500000D02*
X164848529Y-80500000D01*
%TO.N,/p1_dir*%
X136700000Y-87300000D02*
X136700000Y-87500000D01*
X163000000Y-83000000D02*
X166500000Y-83000000D01*
X160598529Y-85401471D02*
X163000000Y-83000000D01*
X174900000Y-81100000D02*
X175000000Y-81000000D01*
X134622708Y-92400000D02*
X134000000Y-92400000D01*
X136705000Y-87505000D02*
X136705000Y-90317708D01*
X136705000Y-90317708D02*
X134622708Y-92400000D01*
X144500000Y-86000000D02*
X138000000Y-86000000D01*
X166500000Y-83000000D02*
X168400000Y-81100000D01*
X138000000Y-86000000D02*
X136700000Y-87300000D01*
X160598529Y-85598529D02*
X160598529Y-85401471D01*
X136700000Y-87500000D02*
X136705000Y-87505000D01*
X168400000Y-81100000D02*
X174900000Y-81100000D01*
%TO.N,Net-(A_mot1-B2)*%
D29*
X205860000Y-51468478D02*
X205860000Y-49483333D01*
X196860000Y-56150000D02*
X201178478Y-56150000D01*
X195560000Y-54850000D02*
X196860000Y-56150000D01*
X201178478Y-56150000D02*
X205860000Y-51468478D01*
%TO.N,Net-(A_mot1-B1)*%
X207860000Y-50317006D02*
X207860000Y-49483333D01*
X193020000Y-54850000D02*
X194920000Y-56750000D01*
X201427006Y-56750000D02*
X207860000Y-50317006D01*
X194920000Y-56750000D02*
X201427006Y-56750000D01*
%TO.N,Net-(A_mot1-A1)*%
X190480000Y-54850000D02*
X192980000Y-57350000D01*
X201993333Y-57350000D02*
X209860000Y-49483333D01*
X192980000Y-57350000D02*
X201993333Y-57350000D01*
%TO.N,Net-(A_mot1-A2)*%
X191040000Y-57950000D02*
X203393333Y-57950000D01*
X187940000Y-54850000D02*
X191040000Y-57950000D01*
X203393333Y-57950000D02*
X211860000Y-49483333D01*
%TO.N,/A_step*%
D30*
X184300000Y-40800000D02*
X150200000Y-40800000D01*
X136080000Y-61920000D02*
X134800000Y-61920000D01*
X185500000Y-42000000D02*
X184300000Y-40800000D01*
X139500000Y-58500000D02*
X136080000Y-61920000D01*
X150200000Y-40800000D02*
X142000000Y-49000000D01*
X139500000Y-51500000D02*
X139500000Y-58500000D01*
%TO.N,/A_dir*%
X146500000Y-43500000D02*
X146500000Y-42000000D01*
X149900000Y-40400000D02*
X161600000Y-40400000D01*
X177500000Y-39000000D02*
X179500000Y-39000000D01*
X176500000Y-40000000D02*
X177500000Y-39000000D01*
X149500000Y-40000000D02*
X149900000Y-40400000D01*
X146500000Y-42000000D02*
X148500000Y-40000000D01*
X179500000Y-39000000D02*
X180000000Y-39500000D01*
X144500000Y-45500000D02*
X146500000Y-43500000D01*
X148500000Y-40000000D02*
X149500000Y-40000000D01*
X163000000Y-39000000D02*
X167000000Y-39000000D01*
X144000000Y-45500000D02*
X144500000Y-45500000D01*
X141000000Y-48500000D02*
X144000000Y-45500000D01*
X161600000Y-40400000D02*
X163000000Y-39000000D01*
X134800000Y-59380000D02*
X138500000Y-55680000D01*
X138500000Y-55680000D02*
X138500000Y-51000000D01*
X168000000Y-40000000D02*
X176500000Y-40000000D01*
X167000000Y-39000000D02*
X168000000Y-40000000D01*
%TO.N,Net-(J12-Pin_1)*%
D29*
X164330000Y-108800000D02*
X168648478Y-108800000D01*
X163030000Y-107500000D02*
X164330000Y-108800000D01*
X172360000Y-105088478D02*
X172360000Y-101150000D01*
X168648478Y-108800000D02*
X172360000Y-105088478D01*
%TO.N,Net-(J12-Pin_2)*%
X160490000Y-107500000D02*
X162390000Y-109400000D01*
X168897006Y-109400000D02*
X174360000Y-103937006D01*
X174360000Y-103937006D02*
X174360000Y-101150000D01*
X162390000Y-109400000D02*
X168897006Y-109400000D01*
%TO.N,Net-(J12-Pin_3)*%
X169145534Y-110000000D02*
X176360000Y-102785534D01*
X176360000Y-102785534D02*
X176360000Y-101150000D01*
X160450000Y-110000000D02*
X169145534Y-110000000D01*
X157950000Y-107500000D02*
X160450000Y-110000000D01*
%TO.N,Net-(J12-Pin_4)*%
X158510000Y-110600000D02*
X169394062Y-110600000D01*
X178360000Y-101634062D02*
X178360000Y-101150000D01*
X169394062Y-110600000D02*
X178360000Y-101634062D01*
X155410000Y-107500000D02*
X158510000Y-110600000D01*
%TO.N,/p4_step*%
D30*
X139000000Y-96000000D02*
X134980000Y-100020000D01*
X134980000Y-100020000D02*
X134000000Y-100020000D01*
X143000000Y-96000000D02*
X139000000Y-96000000D01*
%TO.N,/p4_dir*%
X134615636Y-97480000D02*
X134000000Y-97480000D01*
X144000000Y-94800000D02*
X137295636Y-94800000D01*
X137295636Y-94800000D02*
X134615636Y-97480000D01*
%TO.N,/p5_step*%
X139565686Y-77500000D02*
X134825686Y-82240000D01*
X134825686Y-82240000D02*
X134000000Y-82240000D01*
X144000000Y-77500000D02*
X139565686Y-77500000D01*
%TO.N,/p5_dir*%
X146500000Y-76500000D02*
X140000000Y-76500000D01*
X140000000Y-76500000D02*
X136800000Y-79700000D01*
X136800000Y-79700000D02*
X134000000Y-79700000D01*
%TO.N,Net-(A1-VSYS)*%
D29*
X128500000Y-81000000D02*
X125000000Y-84500000D01*
X125158388Y-89348538D02*
X125041232Y-89465694D01*
X125000000Y-95835600D02*
X115735600Y-105100000D01*
X125041232Y-89465694D02*
X125000000Y-89506926D01*
X125260000Y-87773074D02*
X125260000Y-88142844D01*
X125000000Y-87513074D02*
X125260000Y-87773074D01*
X125000000Y-84500000D02*
X125000000Y-87513074D01*
X125000000Y-89506926D02*
X125000000Y-95835600D01*
X132795000Y-60295000D02*
X125500000Y-53000000D01*
X115735600Y-105100000D02*
X115420000Y-105100000D01*
X125260000Y-88142844D02*
X125260000Y-89246926D01*
X132795000Y-76205000D02*
X132795000Y-60295000D01*
X130000000Y-79000000D02*
X132795000Y-76205000D01*
X125260000Y-89246926D02*
X125158388Y-89348538D01*
%TD*%
M02*
