M48
; DRILL file KiCad 10.0.3 date 2026-07-01T16:14:17
; FORMAT={-:-/ absolute / metric / decimal}
; #@! TF.CreationDate,2026-07-01T16:14:17-05:00
; #@! TF.GenerationSoftware,Kicad,Pcbnew,10.0.3
; #@! TF.FileFunction,Plated,1,2,PTH
FMAT,2
METRIC
; #@! TA.AperFunction,Plated,PTH,ViaDrill
T1C0.300
; #@! TA.AperFunction,Plated,PTH,ComponentDrill
T2C0.750
; #@! TA.AperFunction,Plated,PTH,ComponentDrill
T3C0.800
; #@! TA.AperFunction,Plated,PTH,ComponentDrill
T4C1.000
; #@! TA.AperFunction,Plated,PTH,ComponentDrill
T5C1.500
%
G90
G05
T1
X108.5Y-66.5
X125.5Y-53.0
X128.5Y-81.0
X130.0Y-79.0
X133.0Y-51.5
X138.5Y-47.5
X138.5Y-51.0
X139.5Y-51.5
X141.0Y-48.5
X141.0Y-51.0
X142.0Y-49.0
X142.0Y-51.5
X143.0Y-96.0
X144.0Y-48.0
X144.0Y-77.5
X144.0Y-94.8
X144.5Y-86.0
X144.5Y-108.5
X145.0Y-48.5
X145.5Y-85.0
X145.5Y-86.5
X146.0Y-84.0
X146.5Y-76.5
X147.43Y-79.0
X148.0Y-63.5
X148.9Y-81.0
X149.5Y-64.0
X150.5Y-83.0
X151.0Y-68.5
X153.0Y-69.5
X153.0Y-98.5
X155.0Y-69.0
X156.0Y-83.0
X157.5Y-84.0
X158.0Y-86.5
X159.5Y-100.0
X160.599Y-85.599
X161.0Y-97.0
X168.0Y-61.5
X168.0Y-62.3
X170.5Y-44.0
X170.5Y-82.0
X172.5Y-78.5
X172.5Y-96.5
X173.0Y-58.0
X173.0Y-79.5
X173.5Y-80.5
X175.0Y-81.0
X180.0Y-39.5
X183.0Y-50.5
X183.0Y-65.5
X185.5Y-46.5
X186.5Y-49.5
X192.5Y-97.86
T2
X110.5Y-54.0
X112.5Y-54.0
X142.45Y-89.5
X142.45Y-91.5
X142.45Y-99.5
X142.45Y-101.5
X142.5Y-80.0
X142.5Y-82.0
X172.36Y-49.65
X172.36Y-66.817
X172.36Y-83.983
X172.36Y-101.15
X174.36Y-49.65
X174.36Y-66.817
X174.36Y-83.983
X174.36Y-101.15
X176.36Y-49.65
X176.36Y-66.817
X176.36Y-83.983
X176.36Y-101.15
X178.36Y-49.65
X178.36Y-66.817
X178.36Y-83.983
X178.36Y-101.15
X205.8Y-66.633
X205.86Y-83.817
X205.86Y-100.983
X205.96Y-48.95
X207.5Y-43.05
X207.8Y-66.633
X207.86Y-83.817
X207.86Y-100.983
X207.96Y-48.95
X209.5Y-43.05
X209.8Y-66.633
X209.86Y-83.817
X209.86Y-100.983
X209.96Y-48.95
X211.8Y-66.633
X211.86Y-83.817
X211.86Y-100.983
X211.96Y-48.95
T3
X118.5Y-43.703
X120.5Y-43.703
X122.5Y-43.703
X150.33Y-94.8
X150.33Y-107.5
X150.47Y-59.3
X150.47Y-72.0
X150.61Y-42.15
X150.61Y-54.85
X150.75Y-76.65
X150.75Y-89.35
X152.87Y-94.8
X152.87Y-107.5
X153.01Y-59.3
X153.01Y-72.0
X153.15Y-42.15
X153.15Y-54.85
X153.29Y-76.65
X153.29Y-89.35
X155.41Y-94.8
X155.41Y-107.5
X155.55Y-59.3
X155.55Y-72.0
X155.69Y-42.15
X155.69Y-54.85
X155.83Y-76.65
X155.83Y-89.35
X157.95Y-94.8
X157.95Y-107.5
X158.09Y-59.3
X158.09Y-72.0
X158.23Y-42.15
X158.23Y-54.85
X158.37Y-76.65
X158.37Y-89.35
X160.49Y-94.8
X160.49Y-107.5
X160.63Y-59.3
X160.63Y-72.0
X160.77Y-42.15
X160.77Y-54.85
X160.91Y-76.65
X160.91Y-89.35
X163.03Y-94.8
X163.03Y-107.5
X163.17Y-59.3
X163.17Y-72.0
X163.31Y-42.15
X163.31Y-54.85
X163.45Y-76.65
X163.45Y-89.35
X165.56Y-64.4
X165.56Y-66.9
X165.57Y-94.8
X165.57Y-107.5
X165.6Y-47.25
X165.6Y-49.75
X165.71Y-59.3
X165.71Y-72.0
X165.85Y-42.15
X165.85Y-54.85
X165.86Y-81.65
X165.86Y-84.15
X165.86Y-100.15
X165.86Y-102.65
X165.99Y-76.65
X165.99Y-89.35
X168.11Y-94.8
X168.11Y-107.5
X168.25Y-59.3
X168.25Y-72.0
X168.39Y-42.15
X168.39Y-54.85
X168.53Y-76.65
X168.53Y-89.35
X182.8Y-59.3
X182.8Y-72.0
X182.86Y-77.25
X182.86Y-89.95
X182.86Y-94.8
X182.86Y-107.5
X182.96Y-42.0
X182.96Y-54.7
X185.34Y-59.3
X185.34Y-72.0
X185.4Y-77.25
X185.4Y-89.95
X185.4Y-94.8
X185.4Y-107.5
X185.5Y-42.0
X185.5Y-54.7
X187.88Y-59.3
X187.88Y-72.0
X187.94Y-77.25
X187.94Y-89.95
X187.94Y-94.8
X187.94Y-107.5
X188.04Y-42.0
X188.04Y-54.7
X190.42Y-59.3
X190.42Y-72.0
X190.48Y-77.25
X190.48Y-89.95
X190.48Y-94.8
X190.48Y-107.5
X190.58Y-42.0
X190.58Y-54.7
X192.96Y-59.3
X192.96Y-72.0
X193.02Y-77.25
X193.02Y-89.95
X193.02Y-94.8
X193.02Y-107.5
X193.12Y-42.0
X193.12Y-54.7
X195.5Y-59.3
X195.5Y-72.0
X195.56Y-77.25
X195.56Y-89.95
X195.56Y-94.8
X195.56Y-107.5
X195.66Y-42.0
X195.66Y-54.7
X197.75Y-47.25
X197.75Y-49.75
X197.75Y-64.4
X197.75Y-66.9
X197.75Y-82.9
X197.75Y-85.4
X197.75Y-99.65
X197.75Y-102.15
X198.04Y-59.3
X198.04Y-72.0
X198.1Y-77.25
X198.1Y-89.95
X198.1Y-94.8
X198.1Y-107.5
X198.2Y-42.0
X198.2Y-54.7
X200.58Y-59.3
X200.58Y-72.0
X200.64Y-77.25
X200.64Y-89.95
X200.64Y-94.8
X200.64Y-107.5
X200.74Y-42.0
X200.74Y-54.7
T4
X104.0Y-59.8
X104.0Y-62.34
X104.0Y-64.88
X104.0Y-67.42
X104.0Y-69.96
X104.0Y-72.5
X104.0Y-75.04
X104.0Y-77.58
X104.0Y-80.12
X104.0Y-82.66
X104.0Y-85.2
X104.0Y-87.74
X104.0Y-90.28
X104.0Y-92.82
X104.0Y-95.36
X104.0Y-97.9
X104.0Y-100.44
X104.0Y-102.98
X104.0Y-105.52
X104.0Y-108.06
X106.54Y-59.8
X106.54Y-62.34
X106.54Y-64.88
X106.54Y-67.42
X106.54Y-69.96
X106.54Y-72.5
X106.54Y-75.04
X106.54Y-77.58
X106.54Y-80.12
X106.54Y-82.66
X106.54Y-85.2
X106.54Y-87.74
X106.54Y-90.28
X106.54Y-92.82
X106.54Y-95.36
X106.54Y-97.9
X106.54Y-100.44
X106.54Y-102.98
X106.54Y-105.52
X106.54Y-108.06
X116.22Y-59.38
X116.22Y-61.92
X116.22Y-64.46
X116.22Y-67.0
X116.22Y-69.54
X116.22Y-72.08
X116.22Y-74.62
X116.22Y-77.16
X116.22Y-79.7
X116.22Y-82.24
X116.22Y-84.78
X116.22Y-87.32
X116.22Y-89.86
X116.22Y-92.4
X116.22Y-94.94
X116.22Y-97.48
X116.22Y-100.02
X116.22Y-102.56
X116.22Y-105.1
X116.22Y-107.64
X134.0Y-59.38
X134.0Y-61.92
X134.0Y-64.46
X134.0Y-67.0
X134.0Y-69.54
X134.0Y-72.08
X134.0Y-74.62
X134.0Y-77.16
X134.0Y-79.7
X134.0Y-82.24
X134.0Y-84.78
X134.0Y-87.32
X134.0Y-89.86
X134.0Y-92.4
X134.0Y-94.94
X134.0Y-97.48
X134.0Y-100.02
X134.0Y-102.56
X134.0Y-105.1
X134.0Y-107.64
T5
X116.4Y-43.703
X124.6Y-43.703
M30
