%TF.GenerationSoftware,KiCad,Pcbnew,10.0.3*%
%TF.CreationDate,2026-07-01T16:14:12-05:00*%
%TF.ProjectId,main_board_independent_pumps,6d61696e-5f62-46f6-9172-645f696e6465,rev?*%
%TF.SameCoordinates,Original*%
%TF.FileFunction,Legend,Top*%
%TF.FilePolarity,Positive*%
%FSLAX46Y46*%
G04 Gerber Fmt 4.6, Leading zero omitted, Abs format (unit mm)*
G04 Created by KiCad (PCBNEW 10.0.3) date 2026-07-01 16:14:12*
%MOMM*%
%LPD*%
G01*
G04 APERTURE LIST*
%ADD10C,0.150000*%
%ADD11C,0.120000*%
G04 APERTURE END LIST*
D10*
X117176667Y-47099700D02*
X117319524Y-47147319D01*
X117319524Y-47147319D02*
X117557619Y-47147319D01*
X117557619Y-47147319D02*
X117652857Y-47099700D01*
X117652857Y-47099700D02*
X117700476Y-47052080D01*
X117700476Y-47052080D02*
X117748095Y-46956842D01*
X117748095Y-46956842D02*
X117748095Y-46861604D01*
X117748095Y-46861604D02*
X117700476Y-46766366D01*
X117700476Y-46766366D02*
X117652857Y-46718747D01*
X117652857Y-46718747D02*
X117557619Y-46671128D01*
X117557619Y-46671128D02*
X117367143Y-46623509D01*
X117367143Y-46623509D02*
X117271905Y-46575890D01*
X117271905Y-46575890D02*
X117224286Y-46528271D01*
X117224286Y-46528271D02*
X117176667Y-46433033D01*
X117176667Y-46433033D02*
X117176667Y-46337795D01*
X117176667Y-46337795D02*
X117224286Y-46242557D01*
X117224286Y-46242557D02*
X117271905Y-46194938D01*
X117271905Y-46194938D02*
X117367143Y-46147319D01*
X117367143Y-46147319D02*
X117605238Y-46147319D01*
X117605238Y-46147319D02*
X117748095Y-46194938D01*
X118081429Y-46147319D02*
X118319524Y-47147319D01*
X118319524Y-47147319D02*
X118510000Y-46433033D01*
X118510000Y-46433033D02*
X118700476Y-47147319D01*
X118700476Y-47147319D02*
X118938572Y-46147319D01*
X119843333Y-47147319D02*
X119271905Y-47147319D01*
X119557619Y-47147319D02*
X119557619Y-46147319D01*
X119557619Y-46147319D02*
X119462381Y-46290176D01*
X119462381Y-46290176D02*
X119367143Y-46385414D01*
X119367143Y-46385414D02*
X119271905Y-46433033D01*
%TO.C,J13*%
D11*
X170000000Y-81873333D02*
X170000000Y-83123333D01*
X170300000Y-83483333D02*
X170910000Y-83483333D01*
X170300000Y-84783333D02*
X170910000Y-84783333D01*
X170910000Y-82783333D02*
X170910000Y-86283333D01*
X170910000Y-86283333D02*
X179810000Y-86283333D01*
X171250000Y-81873333D02*
X170000000Y-81873333D01*
X171760000Y-81973333D02*
X171760000Y-82173333D01*
X172060000Y-81973333D02*
X171760000Y-81973333D01*
X172060000Y-82073333D02*
X171760000Y-82073333D01*
X172060000Y-82173333D02*
X172060000Y-81973333D01*
X172860000Y-82173333D02*
X172860000Y-82783333D01*
X172860000Y-82783333D02*
X170910000Y-82783333D01*
X173260000Y-85783333D02*
X173460000Y-85783333D01*
X173260000Y-86283333D02*
X173260000Y-85783333D01*
X173360000Y-86283333D02*
X173360000Y-85783333D01*
X173460000Y-85783333D02*
X173460000Y-86283333D01*
X175260000Y-85783333D02*
X175460000Y-85783333D01*
X175260000Y-86283333D02*
X175260000Y-85783333D01*
X175360000Y-86283333D02*
X175360000Y-85783333D01*
X175460000Y-85783333D02*
X175460000Y-86283333D01*
X177260000Y-85783333D02*
X177460000Y-85783333D01*
X177260000Y-86283333D02*
X177260000Y-85783333D01*
X177360000Y-86283333D02*
X177360000Y-85783333D01*
X177460000Y-85783333D02*
X177460000Y-86283333D01*
X177860000Y-82783333D02*
X177860000Y-82173333D01*
X179810000Y-82783333D02*
X177860000Y-82783333D01*
X179810000Y-86283333D02*
X179810000Y-82783333D01*
X180420000Y-83483333D02*
X179810000Y-83483333D01*
X180420000Y-84783333D02*
X179810000Y-84783333D01*
X170300000Y-82173333D02*
X180420000Y-82173333D01*
X180420000Y-86893333D01*
X170300000Y-86893333D01*
X170300000Y-82173333D01*
%TO.C,J7*%
X170000000Y-64706667D02*
X170000000Y-65956667D01*
X170300000Y-66316667D02*
X170910000Y-66316667D01*
X170300000Y-67616667D02*
X170910000Y-67616667D01*
X170910000Y-65616667D02*
X170910000Y-69116667D01*
X170910000Y-69116667D02*
X179810000Y-69116667D01*
X171250000Y-64706667D02*
X170000000Y-64706667D01*
X171760000Y-64806667D02*
X171760000Y-65006667D01*
X172060000Y-64806667D02*
X171760000Y-64806667D01*
X172060000Y-64906667D02*
X171760000Y-64906667D01*
X172060000Y-65006667D02*
X172060000Y-64806667D01*
X172860000Y-65006667D02*
X172860000Y-65616667D01*
X172860000Y-65616667D02*
X170910000Y-65616667D01*
X173260000Y-68616667D02*
X173460000Y-68616667D01*
X173260000Y-69116667D02*
X173260000Y-68616667D01*
X173360000Y-69116667D02*
X173360000Y-68616667D01*
X173460000Y-68616667D02*
X173460000Y-69116667D01*
X175260000Y-68616667D02*
X175460000Y-68616667D01*
X175260000Y-69116667D02*
X175260000Y-68616667D01*
X175360000Y-69116667D02*
X175360000Y-68616667D01*
X175460000Y-68616667D02*
X175460000Y-69116667D01*
X177260000Y-68616667D02*
X177460000Y-68616667D01*
X177260000Y-69116667D02*
X177260000Y-68616667D01*
X177360000Y-69116667D02*
X177360000Y-68616667D01*
X177460000Y-68616667D02*
X177460000Y-69116667D01*
X177860000Y-65616667D02*
X177860000Y-65006667D01*
X179810000Y-65616667D02*
X177860000Y-65616667D01*
X179810000Y-69116667D02*
X179810000Y-65616667D01*
X180420000Y-66316667D02*
X179810000Y-66316667D01*
X180420000Y-67616667D02*
X179810000Y-67616667D01*
X170300000Y-65006667D02*
X180420000Y-65006667D01*
X180420000Y-69726667D01*
X170300000Y-69726667D01*
X170300000Y-65006667D01*
%TO.C,3b+header1*%
X93910000Y-58470000D02*
X93910000Y-109390000D01*
X93910000Y-58470000D02*
X102540000Y-58470000D01*
X93910000Y-58590000D02*
X102540000Y-58590000D01*
X93910000Y-58708095D02*
X102540000Y-58708095D01*
X93910000Y-58826190D02*
X102540000Y-58826190D01*
X93910000Y-58944286D02*
X102540000Y-58944286D01*
X93910000Y-59062381D02*
X102540000Y-59062381D01*
X93910000Y-59180476D02*
X102540000Y-59180476D01*
X93910000Y-59298571D02*
X102540000Y-59298571D01*
X93910000Y-59416667D02*
X102540000Y-59416667D01*
X93910000Y-59534762D02*
X102540000Y-59534762D01*
X93910000Y-59652857D02*
X102540000Y-59652857D01*
X93910000Y-59770952D02*
X102540000Y-59770952D01*
X93910000Y-59889048D02*
X102540000Y-59889048D01*
X93910000Y-60007143D02*
X102540000Y-60007143D01*
X93910000Y-60125238D02*
X102540000Y-60125238D01*
X93910000Y-60243333D02*
X102540000Y-60243333D01*
X93910000Y-60361429D02*
X102540000Y-60361429D01*
X93910000Y-60479524D02*
X102540000Y-60479524D01*
X93910000Y-60597619D02*
X102540000Y-60597619D01*
X93910000Y-60715714D02*
X102540000Y-60715714D01*
X93910000Y-60833810D02*
X102540000Y-60833810D01*
X93910000Y-60951905D02*
X102540000Y-60951905D01*
X93910000Y-61070000D02*
X102540000Y-61070000D01*
X93910000Y-63610000D02*
X102540000Y-63610000D01*
X93910000Y-66150000D02*
X102540000Y-66150000D01*
X93910000Y-68690000D02*
X102540000Y-68690000D01*
X93910000Y-71230000D02*
X102540000Y-71230000D01*
X93910000Y-73770000D02*
X102540000Y-73770000D01*
X93910000Y-76310000D02*
X102540000Y-76310000D01*
X93910000Y-78850000D02*
X102540000Y-78850000D01*
X93910000Y-81390000D02*
X102540000Y-81390000D01*
X93910000Y-83930000D02*
X102540000Y-83930000D01*
X93910000Y-86470000D02*
X102540000Y-86470000D01*
X93910000Y-89010000D02*
X102540000Y-89010000D01*
X93910000Y-91550000D02*
X102540000Y-91550000D01*
X93910000Y-94090000D02*
X102540000Y-94090000D01*
X93910000Y-96630000D02*
X102540000Y-96630000D01*
X93910000Y-99170000D02*
X102540000Y-99170000D01*
X93910000Y-101710000D02*
X102540000Y-101710000D01*
X93910000Y-104250000D02*
X102540000Y-104250000D01*
X93910000Y-106790000D02*
X102540000Y-106790000D01*
X93910000Y-109390000D02*
X102540000Y-109390000D01*
X102540000Y-58470000D02*
X102540000Y-109390000D01*
X102540000Y-59440000D02*
X102950000Y-59440000D01*
X102540000Y-60160000D02*
X102950000Y-60160000D01*
X102540000Y-61980000D02*
X102950000Y-61980000D01*
X102540000Y-62700000D02*
X102950000Y-62700000D01*
X102540000Y-64520000D02*
X102950000Y-64520000D01*
X102540000Y-65240000D02*
X102950000Y-65240000D01*
X102540000Y-67060000D02*
X102950000Y-67060000D01*
X102540000Y-67780000D02*
X102950000Y-67780000D01*
X102540000Y-69600000D02*
X102950000Y-69600000D01*
X102540000Y-70320000D02*
X102950000Y-70320000D01*
X102540000Y-72140000D02*
X102950000Y-72140000D01*
X102540000Y-72860000D02*
X102950000Y-72860000D01*
X102540000Y-74680000D02*
X102950000Y-74680000D01*
X102540000Y-75400000D02*
X102950000Y-75400000D01*
X102540000Y-77220000D02*
X102950000Y-77220000D01*
X102540000Y-77940000D02*
X102950000Y-77940000D01*
X102540000Y-79760000D02*
X102950000Y-79760000D01*
X102540000Y-80480000D02*
X102950000Y-80480000D01*
X102540000Y-82300000D02*
X102950000Y-82300000D01*
X102540000Y-83020000D02*
X102950000Y-83020000D01*
X102540000Y-84840000D02*
X102950000Y-84840000D01*
X102540000Y-85560000D02*
X102950000Y-85560000D01*
X102540000Y-87380000D02*
X102950000Y-87380000D01*
X102540000Y-88100000D02*
X102950000Y-88100000D01*
X102540000Y-89920000D02*
X102950000Y-89920000D01*
X102540000Y-90640000D02*
X102950000Y-90640000D01*
X102540000Y-92460000D02*
X102950000Y-92460000D01*
X102540000Y-93180000D02*
X102950000Y-93180000D01*
X102540000Y-95000000D02*
X102950000Y-95000000D01*
X102540000Y-95720000D02*
X102950000Y-95720000D01*
X102540000Y-97540000D02*
X102950000Y-97540000D01*
X102540000Y-98260000D02*
X102950000Y-98260000D01*
X102540000Y-100080000D02*
X102950000Y-100080000D01*
X102540000Y-100800000D02*
X102950000Y-100800000D01*
X102540000Y-102620000D02*
X102950000Y-102620000D01*
X102540000Y-103340000D02*
X102950000Y-103340000D01*
X102540000Y-105160000D02*
X102950000Y-105160000D01*
X102540000Y-105880000D02*
X102950000Y-105880000D01*
X102540000Y-107700000D02*
X102950000Y-107700000D01*
X102540000Y-108420000D02*
X102950000Y-108420000D01*
X105050000Y-59440000D02*
X105430000Y-59440000D01*
X105050000Y-60160000D02*
X105430000Y-60160000D01*
X105050000Y-61980000D02*
X105490000Y-61980000D01*
X105050000Y-62700000D02*
X105490000Y-62700000D01*
X105050000Y-64520000D02*
X105490000Y-64520000D01*
X105050000Y-65240000D02*
X105490000Y-65240000D01*
X105050000Y-67060000D02*
X105490000Y-67060000D01*
X105050000Y-67780000D02*
X105490000Y-67780000D01*
X105050000Y-69600000D02*
X105490000Y-69600000D01*
X105050000Y-70320000D02*
X105490000Y-70320000D01*
X105050000Y-72140000D02*
X105490000Y-72140000D01*
X105050000Y-72860000D02*
X105490000Y-72860000D01*
X105050000Y-74680000D02*
X105490000Y-74680000D01*
X105050000Y-75400000D02*
X105490000Y-75400000D01*
X105050000Y-77220000D02*
X105490000Y-77220000D01*
X105050000Y-77940000D02*
X105490000Y-77940000D01*
X105050000Y-79760000D02*
X105490000Y-79760000D01*
X105050000Y-80480000D02*
X105490000Y-80480000D01*
X105050000Y-82300000D02*
X105490000Y-82300000D01*
X105050000Y-83020000D02*
X105490000Y-83020000D01*
X105050000Y-84840000D02*
X105490000Y-84840000D01*
X105050000Y-85560000D02*
X105490000Y-85560000D01*
X105050000Y-87380000D02*
X105490000Y-87380000D01*
X105050000Y-88100000D02*
X105490000Y-88100000D01*
X105050000Y-89920000D02*
X105490000Y-89920000D01*
X105050000Y-90640000D02*
X105490000Y-90640000D01*
X105050000Y-92460000D02*
X105490000Y-92460000D01*
X105050000Y-93180000D02*
X105490000Y-93180000D01*
X105050000Y-95000000D02*
X105490000Y-95000000D01*
X105050000Y-95720000D02*
X105490000Y-95720000D01*
X105050000Y-97540000D02*
X105490000Y-97540000D01*
X105050000Y-98260000D02*
X105490000Y-98260000D01*
X105050000Y-100080000D02*
X105490000Y-100080000D01*
X105050000Y-100800000D02*
X105490000Y-100800000D01*
X105050000Y-102620000D02*
X105490000Y-102620000D01*
X105050000Y-103340000D02*
X105490000Y-103340000D01*
X105050000Y-105160000D02*
X105490000Y-105160000D01*
X105050000Y-105880000D02*
X105490000Y-105880000D01*
X105050000Y-107700000D02*
X105490000Y-107700000D01*
X105050000Y-108420000D02*
X105490000Y-108420000D01*
X106540000Y-58470000D02*
X107650000Y-58470000D01*
X107650000Y-58470000D02*
X107650000Y-59800000D01*
%TO.C,J9*%
X203500000Y-98873333D02*
X203500000Y-100123333D01*
X203800000Y-100483333D02*
X204410000Y-100483333D01*
X203800000Y-101783333D02*
X204410000Y-101783333D01*
X204410000Y-99783333D02*
X204410000Y-103283333D01*
X204410000Y-103283333D02*
X213310000Y-103283333D01*
X204750000Y-98873333D02*
X203500000Y-98873333D01*
X205260000Y-98973333D02*
X205260000Y-99173333D01*
X205560000Y-98973333D02*
X205260000Y-98973333D01*
X205560000Y-99073333D02*
X205260000Y-99073333D01*
X205560000Y-99173333D02*
X205560000Y-98973333D01*
X206360000Y-99173333D02*
X206360000Y-99783333D01*
X206360000Y-99783333D02*
X204410000Y-99783333D01*
X206760000Y-102783333D02*
X206960000Y-102783333D01*
X206760000Y-103283333D02*
X206760000Y-102783333D01*
X206860000Y-103283333D02*
X206860000Y-102783333D01*
X206960000Y-102783333D02*
X206960000Y-103283333D01*
X208760000Y-102783333D02*
X208960000Y-102783333D01*
X208760000Y-103283333D02*
X208760000Y-102783333D01*
X208860000Y-103283333D02*
X208860000Y-102783333D01*
X208960000Y-102783333D02*
X208960000Y-103283333D01*
X210760000Y-102783333D02*
X210960000Y-102783333D01*
X210760000Y-103283333D02*
X210760000Y-102783333D01*
X210860000Y-103283333D02*
X210860000Y-102783333D01*
X210960000Y-102783333D02*
X210960000Y-103283333D01*
X211360000Y-99783333D02*
X211360000Y-99173333D01*
X213310000Y-99783333D02*
X211360000Y-99783333D01*
X213310000Y-103283333D02*
X213310000Y-99783333D01*
X213920000Y-100483333D02*
X213310000Y-100483333D01*
X213920000Y-101783333D02*
X213310000Y-101783333D01*
X203800000Y-99173333D02*
X213920000Y-99173333D01*
X213920000Y-103893333D01*
X203800000Y-103893333D01*
X203800000Y-99173333D01*
%TO.C,J1*%
X140340000Y-102610000D02*
X140340000Y-103860000D01*
X140340000Y-103860000D02*
X141590000Y-103860000D01*
X140440000Y-101800000D02*
X140440000Y-102100000D01*
X140440000Y-102100000D02*
X140640000Y-102100000D01*
X140540000Y-101800000D02*
X140540000Y-102100000D01*
X140640000Y-101000000D02*
X141250000Y-101000000D01*
X140640000Y-101800000D02*
X140440000Y-101800000D01*
X141250000Y-98050000D02*
X141250000Y-100000000D01*
X141250000Y-100000000D02*
X140640000Y-100000000D01*
X141250000Y-101000000D02*
X141250000Y-102950000D01*
X141250000Y-102950000D02*
X144750000Y-102950000D01*
X141950000Y-97440000D02*
X141950000Y-98050000D01*
X141950000Y-103560000D02*
X141950000Y-102950000D01*
X143250000Y-97440000D02*
X143250000Y-98050000D01*
X143250000Y-103560000D02*
X143250000Y-102950000D01*
X144250000Y-100400000D02*
X144750000Y-100400000D01*
X144250000Y-100600000D02*
X144250000Y-100400000D01*
X144750000Y-98050000D02*
X141250000Y-98050000D01*
X144750000Y-100500000D02*
X144250000Y-100500000D01*
X144750000Y-100600000D02*
X144250000Y-100600000D01*
X144750000Y-102950000D02*
X144750000Y-98050000D01*
X140640000Y-97440000D02*
X145360000Y-97440000D01*
X145360000Y-103560000D01*
X140640000Y-103560000D01*
X140640000Y-97440000D01*
%TO.C,C7*%
X201020000Y-84150000D02*
G75*
G02*
X194480000Y-84150000I-3270000J0D01*
G01*
X194480000Y-84150000D02*
G75*
G02*
X201020000Y-84150000I3270000J0D01*
G01*
%TO.C,J5*%
X203440000Y-64523333D02*
X203440000Y-65773333D01*
X203740000Y-66133333D02*
X204350000Y-66133333D01*
X203740000Y-67433333D02*
X204350000Y-67433333D01*
X204350000Y-65433333D02*
X204350000Y-68933333D01*
X204350000Y-68933333D02*
X213250000Y-68933333D01*
X204690000Y-64523333D02*
X203440000Y-64523333D01*
X205200000Y-64623333D02*
X205200000Y-64823333D01*
X205500000Y-64623333D02*
X205200000Y-64623333D01*
X205500000Y-64723333D02*
X205200000Y-64723333D01*
X205500000Y-64823333D02*
X205500000Y-64623333D01*
X206300000Y-64823333D02*
X206300000Y-65433333D01*
X206300000Y-65433333D02*
X204350000Y-65433333D01*
X206700000Y-68433333D02*
X206900000Y-68433333D01*
X206700000Y-68933333D02*
X206700000Y-68433333D01*
X206800000Y-68933333D02*
X206800000Y-68433333D01*
X206900000Y-68433333D02*
X206900000Y-68933333D01*
X208700000Y-68433333D02*
X208900000Y-68433333D01*
X208700000Y-68933333D02*
X208700000Y-68433333D01*
X208800000Y-68933333D02*
X208800000Y-68433333D01*
X208900000Y-68433333D02*
X208900000Y-68933333D01*
X210700000Y-68433333D02*
X210900000Y-68433333D01*
X210700000Y-68933333D02*
X210700000Y-68433333D01*
X210800000Y-68933333D02*
X210800000Y-68433333D01*
X210900000Y-68433333D02*
X210900000Y-68933333D01*
X211300000Y-65433333D02*
X211300000Y-64823333D01*
X213250000Y-65433333D02*
X211300000Y-65433333D01*
X213250000Y-68933333D02*
X213250000Y-65433333D01*
X213860000Y-66133333D02*
X213250000Y-66133333D01*
X213860000Y-67433333D02*
X213250000Y-67433333D01*
X203740000Y-64823333D02*
X213860000Y-64823333D01*
X213860000Y-69543333D01*
X203740000Y-69543333D01*
X203740000Y-64823333D01*
%TO.C,J6*%
X203500000Y-81706666D02*
X203500000Y-82956666D01*
X203800000Y-83316666D02*
X204410000Y-83316666D01*
X203800000Y-84616666D02*
X204410000Y-84616666D01*
X204410000Y-82616666D02*
X204410000Y-86116666D01*
X204410000Y-86116666D02*
X213310000Y-86116666D01*
X204750000Y-81706666D02*
X203500000Y-81706666D01*
X205260000Y-81806666D02*
X205260000Y-82006666D01*
X205560000Y-81806666D02*
X205260000Y-81806666D01*
X205560000Y-81906666D02*
X205260000Y-81906666D01*
X205560000Y-82006666D02*
X205560000Y-81806666D01*
X206360000Y-82006666D02*
X206360000Y-82616666D01*
X206360000Y-82616666D02*
X204410000Y-82616666D01*
X206760000Y-85616666D02*
X206960000Y-85616666D01*
X206760000Y-86116666D02*
X206760000Y-85616666D01*
X206860000Y-86116666D02*
X206860000Y-85616666D01*
X206960000Y-85616666D02*
X206960000Y-86116666D01*
X208760000Y-85616666D02*
X208960000Y-85616666D01*
X208760000Y-86116666D02*
X208760000Y-85616666D01*
X208860000Y-86116666D02*
X208860000Y-85616666D01*
X208960000Y-85616666D02*
X208960000Y-86116666D01*
X210760000Y-85616666D02*
X210960000Y-85616666D01*
X210760000Y-86116666D02*
X210760000Y-85616666D01*
X210860000Y-86116666D02*
X210860000Y-85616666D01*
X210960000Y-85616666D02*
X210960000Y-86116666D01*
X211360000Y-82616666D02*
X211360000Y-82006666D01*
X213310000Y-82616666D02*
X211360000Y-82616666D01*
X213310000Y-86116666D02*
X213310000Y-82616666D01*
X213920000Y-83316666D02*
X213310000Y-83316666D01*
X213920000Y-84616666D02*
X213310000Y-84616666D01*
X203800000Y-82006666D02*
X213920000Y-82006666D01*
X213920000Y-86726666D01*
X203800000Y-86726666D01*
X203800000Y-82006666D01*
%TO.C,C3*%
X168870000Y-48500000D02*
G75*
G02*
X162330000Y-48500000I-3270000J0D01*
G01*
X162330000Y-48500000D02*
G75*
G02*
X168870000Y-48500000I3270000J0D01*
G01*
%TO.C,C2*%
X169130000Y-101400000D02*
G75*
G02*
X162590000Y-101400000I-3270000J0D01*
G01*
X162590000Y-101400000D02*
G75*
G02*
X169130000Y-101400000I3270000J0D01*
G01*
%TO.C,J3*%
X140390000Y-83110000D02*
X140390000Y-84360000D01*
X140390000Y-84360000D02*
X141640000Y-84360000D01*
X140490000Y-82300000D02*
X140490000Y-82600000D01*
X140490000Y-82600000D02*
X140690000Y-82600000D01*
X140590000Y-82300000D02*
X140590000Y-82600000D01*
X140690000Y-81500000D02*
X141300000Y-81500000D01*
X140690000Y-82300000D02*
X140490000Y-82300000D01*
X141300000Y-78550000D02*
X141300000Y-80500000D01*
X141300000Y-80500000D02*
X140690000Y-80500000D01*
X141300000Y-81500000D02*
X141300000Y-83450000D01*
X141300000Y-83450000D02*
X144800000Y-83450000D01*
X142000000Y-77940000D02*
X142000000Y-78550000D01*
X142000000Y-84060000D02*
X142000000Y-83450000D01*
X143300000Y-77940000D02*
X143300000Y-78550000D01*
X143300000Y-84060000D02*
X143300000Y-83450000D01*
X144300000Y-80900000D02*
X144800000Y-80900000D01*
X144300000Y-81100000D02*
X144300000Y-80900000D01*
X144800000Y-78550000D02*
X141300000Y-78550000D01*
X144800000Y-81000000D02*
X144300000Y-81000000D01*
X144800000Y-81100000D02*
X144300000Y-81100000D01*
X144800000Y-83450000D02*
X144800000Y-78550000D01*
X140690000Y-77940000D02*
X145410000Y-77940000D01*
X145410000Y-84060000D01*
X140690000Y-84060000D01*
X140690000Y-77940000D01*
%TO.C,C6*%
X169130000Y-82900000D02*
G75*
G02*
X162590000Y-82900000I-3270000J0D01*
G01*
X162590000Y-82900000D02*
G75*
G02*
X169130000Y-82900000I3270000J0D01*
G01*
%TO.C,C8*%
X201020000Y-65650000D02*
G75*
G02*
X194480000Y-65650000I-3270000J0D01*
G01*
X194480000Y-65650000D02*
G75*
G02*
X201020000Y-65650000I3270000J0D01*
G01*
%TO.C,J8*%
X170000000Y-47540000D02*
X170000000Y-48790000D01*
X170300000Y-49150000D02*
X170910000Y-49150000D01*
X170300000Y-50450000D02*
X170910000Y-50450000D01*
X170910000Y-48450000D02*
X170910000Y-51950000D01*
X170910000Y-51950000D02*
X179810000Y-51950000D01*
X171250000Y-47540000D02*
X170000000Y-47540000D01*
X171760000Y-47640000D02*
X171760000Y-47840000D01*
X172060000Y-47640000D02*
X171760000Y-47640000D01*
X172060000Y-47740000D02*
X171760000Y-47740000D01*
X172060000Y-47840000D02*
X172060000Y-47640000D01*
X172860000Y-47840000D02*
X172860000Y-48450000D01*
X172860000Y-48450000D02*
X170910000Y-48450000D01*
X173260000Y-51450000D02*
X173460000Y-51450000D01*
X173260000Y-51950000D02*
X173260000Y-51450000D01*
X173360000Y-51950000D02*
X173360000Y-51450000D01*
X173460000Y-51450000D02*
X173460000Y-51950000D01*
X175260000Y-51450000D02*
X175460000Y-51450000D01*
X175260000Y-51950000D02*
X175260000Y-51450000D01*
X175360000Y-51950000D02*
X175360000Y-51450000D01*
X175460000Y-51450000D02*
X175460000Y-51950000D01*
X177260000Y-51450000D02*
X177460000Y-51450000D01*
X177260000Y-51950000D02*
X177260000Y-51450000D01*
X177360000Y-51950000D02*
X177360000Y-51450000D01*
X177460000Y-51450000D02*
X177460000Y-51950000D01*
X177860000Y-48450000D02*
X177860000Y-47840000D01*
X179810000Y-48450000D02*
X177860000Y-48450000D01*
X179810000Y-51950000D02*
X179810000Y-48450000D01*
X180420000Y-49150000D02*
X179810000Y-49150000D01*
X180420000Y-50450000D02*
X179810000Y-50450000D01*
X170300000Y-47840000D02*
X180420000Y-47840000D01*
X180420000Y-52560000D01*
X170300000Y-52560000D01*
X170300000Y-47840000D01*
%TO.C,C4*%
X201020000Y-100900000D02*
G75*
G02*
X194480000Y-100900000I-3270000J0D01*
G01*
X194480000Y-100900000D02*
G75*
G02*
X201020000Y-100900000I3270000J0D01*
G01*
%TO.C,J11*%
X205440000Y-42250000D02*
X206050000Y-42250000D01*
X205440000Y-43550000D02*
X206050000Y-43550000D01*
X206050000Y-40750000D02*
X206050000Y-44250000D01*
X206050000Y-44250000D02*
X208000000Y-44250000D01*
X208000000Y-44250000D02*
X208000000Y-44860000D01*
X208400000Y-41250000D02*
X208400000Y-40750000D01*
X208500000Y-40750000D02*
X208500000Y-41250000D01*
X208600000Y-40750000D02*
X208600000Y-41250000D01*
X208600000Y-41250000D02*
X208400000Y-41250000D01*
X209000000Y-44250000D02*
X210950000Y-44250000D01*
X209000000Y-44860000D02*
X209000000Y-44250000D01*
X209800000Y-44860000D02*
X209800000Y-45060000D01*
X209800000Y-44960000D02*
X210100000Y-44960000D01*
X209800000Y-45060000D02*
X210100000Y-45060000D01*
X210100000Y-45060000D02*
X210100000Y-44860000D01*
X210610000Y-45160000D02*
X211860000Y-45160000D01*
X210950000Y-40750000D02*
X206050000Y-40750000D01*
X210950000Y-44250000D02*
X210950000Y-40750000D01*
X211560000Y-42250000D02*
X210950000Y-42250000D01*
X211560000Y-43550000D02*
X210950000Y-43550000D01*
X211860000Y-45160000D02*
X211860000Y-43910000D01*
X205440000Y-40140000D02*
X211560000Y-40140000D01*
X211560000Y-44860000D01*
X205440000Y-44860000D01*
X205440000Y-40140000D01*
%TO.C,J4*%
X203600000Y-46840000D02*
X203600000Y-48090000D01*
X203900000Y-48450000D02*
X204510000Y-48450000D01*
X203900000Y-49750000D02*
X204510000Y-49750000D01*
X204510000Y-47750000D02*
X204510000Y-51250000D01*
X204510000Y-51250000D02*
X213410000Y-51250000D01*
X204850000Y-46840000D02*
X203600000Y-46840000D01*
X205360000Y-46940000D02*
X205360000Y-47140000D01*
X205660000Y-46940000D02*
X205360000Y-46940000D01*
X205660000Y-47040000D02*
X205360000Y-47040000D01*
X205660000Y-47140000D02*
X205660000Y-46940000D01*
X206460000Y-47140000D02*
X206460000Y-47750000D01*
X206460000Y-47750000D02*
X204510000Y-47750000D01*
X206860000Y-50750000D02*
X207060000Y-50750000D01*
X206860000Y-51250000D02*
X206860000Y-50750000D01*
X206960000Y-51250000D02*
X206960000Y-50750000D01*
X207060000Y-50750000D02*
X207060000Y-51250000D01*
X208860000Y-50750000D02*
X209060000Y-50750000D01*
X208860000Y-51250000D02*
X208860000Y-50750000D01*
X208960000Y-51250000D02*
X208960000Y-50750000D01*
X209060000Y-50750000D02*
X209060000Y-51250000D01*
X210860000Y-50750000D02*
X211060000Y-50750000D01*
X210860000Y-51250000D02*
X210860000Y-50750000D01*
X210960000Y-51250000D02*
X210960000Y-50750000D01*
X211060000Y-50750000D02*
X211060000Y-51250000D01*
X211460000Y-47750000D02*
X211460000Y-47140000D01*
X213410000Y-47750000D02*
X211460000Y-47750000D01*
X213410000Y-51250000D02*
X213410000Y-47750000D01*
X214020000Y-48450000D02*
X213410000Y-48450000D01*
X214020000Y-49750000D02*
X213410000Y-49750000D01*
X203900000Y-47140000D02*
X214020000Y-47140000D01*
X214020000Y-51860000D01*
X203900000Y-51860000D01*
X203900000Y-47140000D01*
%TO.C,C5*%
X168830000Y-65650000D02*
G75*
G02*
X162290000Y-65650000I-3270000J0D01*
G01*
X162290000Y-65650000D02*
G75*
G02*
X168830000Y-65650000I3270000J0D01*
G01*
%TO.C,J12*%
X170000000Y-99040000D02*
X170000000Y-100290000D01*
X170300000Y-100650000D02*
X170910000Y-100650000D01*
X170300000Y-101950000D02*
X170910000Y-101950000D01*
X170910000Y-99950000D02*
X170910000Y-103450000D01*
X170910000Y-103450000D02*
X179810000Y-103450000D01*
X171250000Y-99040000D02*
X170000000Y-99040000D01*
X171760000Y-99140000D02*
X171760000Y-99340000D01*
X172060000Y-99140000D02*
X171760000Y-99140000D01*
X172060000Y-99240000D02*
X171760000Y-99240000D01*
X172060000Y-99340000D02*
X172060000Y-99140000D01*
X172860000Y-99340000D02*
X172860000Y-99950000D01*
X172860000Y-99950000D02*
X170910000Y-99950000D01*
X173260000Y-102950000D02*
X173460000Y-102950000D01*
X173260000Y-103450000D02*
X173260000Y-102950000D01*
X173360000Y-103450000D02*
X173360000Y-102950000D01*
X173460000Y-102950000D02*
X173460000Y-103450000D01*
X175260000Y-102950000D02*
X175460000Y-102950000D01*
X175260000Y-103450000D02*
X175260000Y-102950000D01*
X175360000Y-103450000D02*
X175360000Y-102950000D01*
X175460000Y-102950000D02*
X175460000Y-103450000D01*
X177260000Y-102950000D02*
X177460000Y-102950000D01*
X177260000Y-103450000D02*
X177260000Y-102950000D01*
X177360000Y-103450000D02*
X177360000Y-102950000D01*
X177460000Y-102950000D02*
X177460000Y-103450000D01*
X177860000Y-99950000D02*
X177860000Y-99340000D01*
X179810000Y-99950000D02*
X177860000Y-99950000D01*
X179810000Y-103450000D02*
X179810000Y-99950000D01*
X180420000Y-100650000D02*
X179810000Y-100650000D01*
X180420000Y-101950000D02*
X179810000Y-101950000D01*
X170300000Y-99340000D02*
X180420000Y-99340000D01*
X180420000Y-104060000D01*
X170300000Y-104060000D01*
X170300000Y-99340000D01*
%TO.C,J2*%
X140340000Y-92610000D02*
X140340000Y-93860000D01*
X140340000Y-93860000D02*
X141590000Y-93860000D01*
X140440000Y-91800000D02*
X140440000Y-92100000D01*
X140440000Y-92100000D02*
X140640000Y-92100000D01*
X140540000Y-91800000D02*
X140540000Y-92100000D01*
X140640000Y-91000000D02*
X141250000Y-91000000D01*
X140640000Y-91800000D02*
X140440000Y-91800000D01*
X141250000Y-88050000D02*
X141250000Y-90000000D01*
X141250000Y-90000000D02*
X140640000Y-90000000D01*
X141250000Y-91000000D02*
X141250000Y-92950000D01*
X141250000Y-92950000D02*
X144750000Y-92950000D01*
X141950000Y-87440000D02*
X141950000Y-88050000D01*
X141950000Y-93560000D02*
X141950000Y-92950000D01*
X143250000Y-87440000D02*
X143250000Y-88050000D01*
X143250000Y-93560000D02*
X143250000Y-92950000D01*
X144250000Y-90400000D02*
X144750000Y-90400000D01*
X144250000Y-90600000D02*
X144250000Y-90400000D01*
X144750000Y-88050000D02*
X141250000Y-88050000D01*
X144750000Y-90500000D02*
X144250000Y-90500000D01*
X144750000Y-90600000D02*
X144250000Y-90600000D01*
X144750000Y-92950000D02*
X144750000Y-88050000D01*
X140640000Y-87440000D02*
X145360000Y-87440000D01*
X145360000Y-93560000D01*
X140640000Y-93560000D01*
X140640000Y-87440000D01*
%TO.C,A1*%
X114500000Y-60860000D02*
X114500000Y-60440000D01*
X114500000Y-63400000D02*
X114500000Y-62980000D01*
X114500000Y-65940000D02*
X114500000Y-65520000D01*
X114500000Y-68480000D02*
X114500000Y-68060000D01*
X114500000Y-71020000D02*
X114500000Y-70600000D01*
X114500000Y-73560000D02*
X114500000Y-73140000D01*
X114500000Y-76100000D02*
X114500000Y-75680000D01*
X114500000Y-78640000D02*
X114500000Y-78220000D01*
X114500000Y-81180000D02*
X114500000Y-80760000D01*
X114500000Y-83720000D02*
X114500000Y-83300000D01*
X114500000Y-86260000D02*
X114500000Y-85840000D01*
X114500000Y-88800000D02*
X114500000Y-88380000D01*
X114500000Y-91340000D02*
X114500000Y-90920000D01*
X114500000Y-93880000D02*
X114500000Y-93460000D01*
X114500000Y-96420000D02*
X114500000Y-96000000D01*
X114500000Y-98960000D02*
X114500000Y-98540000D01*
X114500000Y-101500000D02*
X114500000Y-101080000D01*
X114500000Y-104040000D02*
X114500000Y-103620000D01*
X114500000Y-106580000D02*
X114500000Y-106160000D01*
X114840000Y-58320063D02*
X114840000Y-57963000D01*
X114840000Y-60860000D02*
X114840000Y-60440000D01*
X114840000Y-63400000D02*
X114840000Y-62980000D01*
X114840000Y-65940000D02*
X114840000Y-65520000D01*
X114840000Y-68480000D02*
X114840000Y-68060000D01*
X114840000Y-71020000D02*
X114840000Y-70600000D01*
X114840000Y-73560000D02*
X114840000Y-73140000D01*
X114840000Y-76100000D02*
X114840000Y-75680000D01*
X114840000Y-78640000D02*
X114840000Y-78220000D01*
X114840000Y-81180000D02*
X114840000Y-80760000D01*
X114840000Y-83720000D02*
X114840000Y-83300000D01*
X114840000Y-86260000D02*
X114840000Y-85840000D01*
X114840000Y-88800000D02*
X114840000Y-88380000D01*
X114840000Y-91340000D02*
X114840000Y-90920000D01*
X114840000Y-93880000D02*
X114840000Y-93460000D01*
X114840000Y-96420000D02*
X114840000Y-96000000D01*
X114840000Y-98960000D02*
X114840000Y-98540000D01*
X114840000Y-101500000D02*
X114840000Y-101080000D01*
X114840000Y-104040000D02*
X114840000Y-103620000D01*
X114840000Y-106580000D02*
X114840000Y-106160000D01*
X114840000Y-108699937D02*
X114840000Y-109057000D01*
X115110000Y-109120000D02*
X117600000Y-109120000D01*
X117600000Y-58813520D02*
X117600000Y-57900000D01*
X117600000Y-105813520D02*
X117600000Y-61206480D01*
X117600000Y-109120000D02*
X117600000Y-108206480D01*
X118947939Y-57900000D02*
X115110000Y-57900000D01*
X118947939Y-109120000D02*
X117600000Y-109120000D01*
X119872061Y-57900000D02*
X121510000Y-57900000D01*
X120875000Y-109120000D02*
X119872061Y-109120000D01*
X121210000Y-105816000D02*
X121210000Y-104600000D01*
X121210000Y-109120000D02*
X121210000Y-108204000D01*
X121506090Y-104600000D02*
X121210000Y-104600000D01*
X121510000Y-57900000D02*
X128710000Y-57900000D01*
X126356090Y-104600000D02*
X123863910Y-104600000D01*
X128710000Y-57900000D02*
X130347939Y-57900000D01*
X129010000Y-104600000D02*
X128713910Y-104600000D01*
X129010000Y-105816000D02*
X129010000Y-104600000D01*
X129010000Y-109120000D02*
X129010000Y-108204000D01*
X129345000Y-109120000D02*
X120875000Y-109120000D01*
X130347939Y-109120000D02*
X129345000Y-109120000D01*
X132620000Y-58813520D02*
X132620000Y-57900000D01*
X132620000Y-105813520D02*
X132620000Y-61206480D01*
X132620000Y-109120000D02*
X131272060Y-109120000D01*
X132620000Y-109120000D02*
X132620000Y-108206480D01*
X135110000Y-57900000D02*
X131272061Y-57900000D01*
X135110000Y-109120000D02*
X132620000Y-109120000D01*
X135380000Y-58320063D02*
X135380000Y-57963000D01*
X135380000Y-60860000D02*
X135380000Y-60440000D01*
X135380000Y-63400000D02*
X135380000Y-62980000D01*
X135380000Y-65940000D02*
X135380000Y-65520000D01*
X135380000Y-68480000D02*
X135380000Y-68060000D01*
X135380000Y-71020000D02*
X135380000Y-70600000D01*
X135380000Y-73560000D02*
X135380000Y-73140000D01*
X135380000Y-76100000D02*
X135380000Y-75680000D01*
X135380000Y-78640000D02*
X135380000Y-78220000D01*
X135380000Y-81180000D02*
X135380000Y-80760000D01*
X135380000Y-83720000D02*
X135380000Y-83300000D01*
X135380000Y-86260000D02*
X135380000Y-85840000D01*
X135380000Y-88800000D02*
X135380000Y-88380000D01*
X135380000Y-91340000D02*
X135380000Y-90920000D01*
X135380000Y-93880000D02*
X135380000Y-93460000D01*
X135380000Y-96420000D02*
X135380000Y-96000000D01*
X135380000Y-98960000D02*
X135380000Y-98540000D01*
X135380000Y-101500000D02*
X135380000Y-101080000D01*
X135380000Y-104040000D02*
X135380000Y-103620000D01*
X135380000Y-106580000D02*
X135380000Y-106160000D01*
X135380000Y-108699937D02*
X135380000Y-109057000D01*
X135689676Y-108700000D02*
X136200000Y-108700000D01*
X135720000Y-60860000D02*
X135720000Y-60440000D01*
X135720000Y-63400000D02*
X135720000Y-62980000D01*
X135720000Y-65940000D02*
X135720000Y-65520000D01*
X135720000Y-68480000D02*
X135720000Y-68060000D01*
X135720000Y-71020000D02*
X135720000Y-70600000D01*
X135720000Y-73560000D02*
X135720000Y-73140000D01*
X135720000Y-76100000D02*
X135720000Y-75680000D01*
X135720000Y-78640000D02*
X135720000Y-78220000D01*
X135720000Y-81180000D02*
X135720000Y-80760000D01*
X135720000Y-83720000D02*
X135720000Y-83300000D01*
X135720000Y-86260000D02*
X135720000Y-85840000D01*
X135720000Y-88800000D02*
X135720000Y-88380000D01*
X135720000Y-91340000D02*
X135720000Y-90920000D01*
X135720000Y-93880000D02*
X135720000Y-93460000D01*
X135720000Y-96420000D02*
X135720000Y-96000000D01*
X135720000Y-98960000D02*
X135720000Y-98540000D01*
X135720000Y-101500000D02*
X135720000Y-101080000D01*
X135720000Y-104040000D02*
X135720000Y-103620000D01*
X135720000Y-106580000D02*
X135720000Y-106160000D01*
X135720000Y-106580000D02*
X136200000Y-106580000D01*
X114530324Y-58320063D02*
G75*
G02*
X115110000Y-57899931I579676J-189837D01*
G01*
X115110000Y-109120000D02*
G75*
G02*
X114530324Y-108699937I0J610000D01*
G01*
X135110000Y-57900000D02*
G75*
G02*
X135689676Y-58320063I-1J-610002D01*
G01*
X135689676Y-108700000D02*
G75*
G02*
X135110000Y-109120000I-579692J190051D01*
G01*
%TO.C,J10*%
X108440000Y-53200000D02*
X109050000Y-53200000D01*
X108440000Y-54500000D02*
X109050000Y-54500000D01*
X109050000Y-51700000D02*
X109050000Y-55200000D01*
X109050000Y-55200000D02*
X111000000Y-55200000D01*
X111000000Y-55200000D02*
X111000000Y-55810000D01*
X111400000Y-52200000D02*
X111400000Y-51700000D01*
X111500000Y-51700000D02*
X111500000Y-52200000D01*
X111600000Y-51700000D02*
X111600000Y-52200000D01*
X111600000Y-52200000D02*
X111400000Y-52200000D01*
X112000000Y-55200000D02*
X113950000Y-55200000D01*
X112000000Y-55810000D02*
X112000000Y-55200000D01*
X112800000Y-55810000D02*
X112800000Y-56010000D01*
X112800000Y-55910000D02*
X113100000Y-55910000D01*
X112800000Y-56010000D02*
X113100000Y-56010000D01*
X113100000Y-56010000D02*
X113100000Y-55810000D01*
X113610000Y-56110000D02*
X114860000Y-56110000D01*
X113950000Y-51700000D02*
X109050000Y-51700000D01*
X113950000Y-55200000D02*
X113950000Y-51700000D01*
X114560000Y-53200000D02*
X113950000Y-53200000D01*
X114560000Y-54500000D02*
X113950000Y-54500000D01*
X114860000Y-56110000D02*
X114860000Y-54860000D01*
X108440000Y-51090000D02*
X114560000Y-51090000D01*
X114560000Y-55810000D01*
X108440000Y-55810000D01*
X108440000Y-51090000D01*
%TO.C,SW1*%
X116090000Y-41442500D02*
X116090000Y-41752500D01*
X116090000Y-41442500D02*
X124910000Y-41442500D01*
X116090000Y-45962500D02*
X116090000Y-45652500D01*
X122000000Y-46662500D02*
X123000000Y-46662500D01*
X122500000Y-46162500D02*
X122000000Y-46662500D01*
X123000000Y-46662500D02*
X122500000Y-46162500D01*
X124910000Y-41442500D02*
X124910000Y-41752500D01*
X124910000Y-45652500D02*
X124910000Y-45962500D01*
X124910000Y-45962500D02*
X116090000Y-45962500D01*
%TO.C,C1*%
X201020000Y-48500000D02*
G75*
G02*
X194480000Y-48500000I-3270000J0D01*
G01*
X194480000Y-48500000D02*
G75*
G02*
X201020000Y-48500000I3270000J0D01*
G01*
%TD*%
M02*
