%TF.GenerationSoftware,KiCad,Pcbnew,8.0.8-8.0.8-0~ubuntu24.04.1*%
%TF.CreationDate,2025-06-26T13:06:13-05:00*%
%TF.ProjectId,wasabi,77617361-6269-42e6-9b69-6361645f7063,rev?*%
%TF.SameCoordinates,Original*%
%TF.FileFunction,Copper,L1,Top*%
%TF.FilePolarity,Positive*%
%FSLAX46Y46*%
G04 Gerber Fmt 4.6, Leading zero omitted, Abs format (unit mm)*
G04 Created by KiCad (PCBNEW 8.0.8-8.0.8-0~ubuntu24.04.1) date 2025-06-26 13:06:13*
%MOMM*%
%LPD*%
G01*
G04 APERTURE LIST*
G04 Aperture macros list*
%AMRoundRect*
0 Rectangle with rounded corners*
0 $1 Rounding radius*
0 $2 $3 $4 $5 $6 $7 $8 $9 X,Y pos of 4 corners*
0 Add a 4 corners polygon primitive as box body*
4,1,4,$2,$3,$4,$5,$6,$7,$8,$9,$2,$3,0*
0 Add four circle primitives for the rounded corners*
1,1,$1+$1,$2,$3*
1,1,$1+$1,$4,$5*
1,1,$1+$1,$6,$7*
1,1,$1+$1,$8,$9*
0 Add four rect primitives between the rounded corners*
20,1,$1+$1,$2,$3,$4,$5,0*
20,1,$1+$1,$4,$5,$6,$7,0*
20,1,$1+$1,$6,$7,$8,$9,0*
20,1,$1+$1,$8,$9,$2,$3,0*%
G04 Aperture macros list end*
%TA.AperFunction,ComponentPad*%
%ADD10C,1.500000*%
%TD*%
%TA.AperFunction,ComponentPad*%
%ADD11RoundRect,0.250000X-0.750000X0.600000X-0.750000X-0.600000X0.750000X-0.600000X0.750000X0.600000X0*%
%TD*%
%TA.AperFunction,ComponentPad*%
%ADD12O,2.000000X1.700000*%
%TD*%
%TA.AperFunction,ComponentPad*%
%ADD13C,1.600000*%
%TD*%
%TA.AperFunction,ComponentPad*%
%ADD14RoundRect,0.250000X0.600000X0.725000X-0.600000X0.725000X-0.600000X-0.725000X0.600000X-0.725000X0*%
%TD*%
%TA.AperFunction,ComponentPad*%
%ADD15O,1.700000X1.950000*%
%TD*%
%TA.AperFunction,ComponentPad*%
%ADD16RoundRect,0.250000X-0.600000X-0.725000X0.600000X-0.725000X0.600000X0.725000X-0.600000X0.725000X0*%
%TD*%
%TA.AperFunction,SMDPad,CuDef*%
%ADD17RoundRect,0.250000X1.750000X2.500000X-1.750000X2.500000X-1.750000X-2.500000X1.750000X-2.500000X0*%
%TD*%
%TA.AperFunction,ComponentPad*%
%ADD18O,1.700000X1.700000*%
%TD*%
%TA.AperFunction,SMDPad,CuDef*%
%ADD19R,3.500000X1.700000*%
%TD*%
%TA.AperFunction,ComponentPad*%
%ADD20R,1.700000X1.700000*%
%TD*%
%TA.AperFunction,SMDPad,CuDef*%
%ADD21R,1.700000X3.500000*%
%TD*%
%TA.AperFunction,ComponentPad*%
%ADD22R,3.200000X3.200000*%
%TD*%
%TA.AperFunction,ComponentPad*%
%ADD23O,3.200000X3.200000*%
%TD*%
%TA.AperFunction,ComponentPad*%
%ADD24R,1.800000X1.800000*%
%TD*%
%TA.AperFunction,ComponentPad*%
%ADD25O,1.800000X1.800000*%
%TD*%
%TA.AperFunction,ComponentPad*%
%ADD26RoundRect,0.250000X0.750000X-0.600000X0.750000X0.600000X-0.750000X0.600000X-0.750000X-0.600000X0*%
%TD*%
%TA.AperFunction,ComponentPad*%
%ADD27R,1.600000X1.600000*%
%TD*%
%TA.AperFunction,ComponentPad*%
%ADD28R,1.905000X2.000000*%
%TD*%
%TA.AperFunction,ComponentPad*%
%ADD29O,1.905000X2.000000*%
%TD*%
%TA.AperFunction,Conductor*%
%ADD30C,0.200000*%
%TD*%
%TA.AperFunction,Conductor*%
%ADD31C,0.500000*%
%TD*%
G04 APERTURE END LIST*
D10*
%TO.P,mp6500stepper_driver3,1,vmot*%
%TO.N,+24V*%
X111000000Y-113750000D03*
%TO.P,mp6500stepper_driver3,2,GND*%
%TO.N,GND*%
X113540000Y-113750000D03*
%TO.P,mp6500stepper_driver3,3,b2*%
%TO.N,Net-(J5-Pin_1)*%
X116080000Y-113750000D03*
%TO.P,mp6500stepper_driver3,4,b1*%
%TO.N,Net-(J5-Pin_2)*%
X118620000Y-113750000D03*
%TO.P,mp6500stepper_driver3,5,a1*%
%TO.N,Net-(J5-Pin_3)*%
X121160000Y-113750000D03*
%TO.P,mp6500stepper_driver3,6,a2*%
%TO.N,Net-(J5-Pin_4)*%
X123700000Y-113750000D03*
%TO.P,mp6500stepper_driver3,7,FLT*%
%TO.N,unconnected-(mp6500stepper_driver3-FLT-Pad7)*%
X126240000Y-113750000D03*
%TO.P,mp6500stepper_driver3,8,GND*%
%TO.N,GND*%
X128780000Y-113750000D03*
%TO.P,mp6500stepper_driver3,9,EN*%
%TO.N,Net-(Q1-S)*%
X111000000Y-126250000D03*
%TO.P,mp6500stepper_driver3,10,ms1*%
X113540000Y-126250000D03*
%TO.P,mp6500stepper_driver3,11,ms2*%
X116080000Y-126250000D03*
%TO.P,mp6500stepper_driver3,12,I1*%
%TO.N,unconnected-(mp6500stepper_driver3-I1-Pad12)*%
X118620000Y-126250000D03*
%TO.P,mp6500stepper_driver3,13,I2*%
%TO.N,unconnected-(mp6500stepper_driver3-I2-Pad13)*%
X121160000Y-126250000D03*
%TO.P,mp6500stepper_driver3,14,SLP*%
%TO.N,unconnected-(mp6500stepper_driver3-SLP-Pad14)*%
X123700000Y-126250000D03*
%TO.P,mp6500stepper_driver3,15,STEP*%
%TO.N,Net-(U2-GPIO22)*%
X126240000Y-126250000D03*
%TO.P,mp6500stepper_driver3,16,DIR*%
%TO.N,Net-(U2-GPIO21)*%
X128780000Y-126250000D03*
%TD*%
D11*
%TO.P,J1,1,Pin_1*%
%TO.N,GND*%
X185900000Y-122700000D03*
D12*
%TO.P,J1,2,Pin_2*%
%TO.N,+24V*%
X185900000Y-125200000D03*
%TD*%
D13*
%TO.P,C1,1*%
%TO.N,+24V*%
X184400000Y-132200000D03*
%TO.P,C1,2*%
%TO.N,GND*%
X184400000Y-137200000D03*
%TD*%
D14*
%TO.P,J3,1,Pin_1*%
%TO.N,Net-(J3-Pin_1)*%
X143000000Y-134000000D03*
D15*
%TO.P,J3,2,Pin_2*%
%TO.N,Net-(J3-Pin_2)*%
X140500000Y-134000000D03*
%TO.P,J3,3,Pin_3*%
%TO.N,Net-(J3-Pin_3)*%
X138000000Y-134000000D03*
%TO.P,J3,4,Pin_4*%
%TO.N,Net-(J3-Pin_4)*%
X135500000Y-134000000D03*
%TD*%
D10*
%TO.P,mp6500stepper_driver7,1,vmot*%
%TO.N,+24V*%
X131000000Y-90750000D03*
%TO.P,mp6500stepper_driver7,2,GND*%
%TO.N,GND*%
X133540000Y-90750000D03*
%TO.P,mp6500stepper_driver7,3,b2*%
%TO.N,Net-(J9-Pin_1)*%
X136080000Y-90750000D03*
%TO.P,mp6500stepper_driver7,4,b1*%
%TO.N,Net-(J9-Pin_2)*%
X138620000Y-90750000D03*
%TO.P,mp6500stepper_driver7,5,a1*%
%TO.N,Net-(J9-Pin_3)*%
X141160000Y-90750000D03*
%TO.P,mp6500stepper_driver7,6,a2*%
%TO.N,Net-(J9-Pin_4)*%
X143700000Y-90750000D03*
%TO.P,mp6500stepper_driver7,7,FLT*%
%TO.N,unconnected-(mp6500stepper_driver7-FLT-Pad7)*%
X146240000Y-90750000D03*
%TO.P,mp6500stepper_driver7,8,GND*%
%TO.N,GND*%
X148780000Y-90750000D03*
%TO.P,mp6500stepper_driver7,9,EN*%
%TO.N,+5V*%
X131000000Y-103250000D03*
%TO.P,mp6500stepper_driver7,10,ms1*%
X133540000Y-103250000D03*
%TO.P,mp6500stepper_driver7,11,ms2*%
X136080000Y-103250000D03*
%TO.P,mp6500stepper_driver7,12,I1*%
%TO.N,unconnected-(mp6500stepper_driver7-I1-Pad12)*%
X138620000Y-103250000D03*
%TO.P,mp6500stepper_driver7,13,I2*%
%TO.N,unconnected-(mp6500stepper_driver7-I2-Pad13)*%
X141160000Y-103250000D03*
%TO.P,mp6500stepper_driver7,14,SLP*%
%TO.N,unconnected-(mp6500stepper_driver7-SLP-Pad14)*%
X143700000Y-103250000D03*
%TO.P,mp6500stepper_driver7,15,STEP*%
%TO.N,Net-(U2-GPIO14)*%
X146240000Y-103250000D03*
%TO.P,mp6500stepper_driver7,16,DIR*%
%TO.N,Net-(U2-GPIO13)*%
X148780000Y-103250000D03*
%TD*%
D16*
%TO.P,J7,1,Pin_1*%
%TO.N,Net-(J7-Pin_1)*%
X86000000Y-83000000D03*
D15*
%TO.P,J7,2,Pin_2*%
%TO.N,Net-(J7-Pin_2)*%
X88500000Y-83000000D03*
%TO.P,J7,3,Pin_3*%
%TO.N,Net-(J7-Pin_3)*%
X91000000Y-83000000D03*
%TO.P,J7,4,Pin_4*%
%TO.N,Net-(J7-Pin_4)*%
X93500000Y-83000000D03*
%TD*%
D14*
%TO.P,J5,1,Pin_1*%
%TO.N,Net-(J5-Pin_1)*%
X143000000Y-116000000D03*
D15*
%TO.P,J5,2,Pin_2*%
%TO.N,Net-(J5-Pin_2)*%
X140500000Y-116000000D03*
%TO.P,J5,3,Pin_3*%
%TO.N,Net-(J5-Pin_3)*%
X138000000Y-116000000D03*
%TO.P,J5,4,Pin_4*%
%TO.N,Net-(J5-Pin_4)*%
X135500000Y-116000000D03*
%TD*%
D16*
%TO.P,J10,1,Pin_1*%
%TO.N,Net-(J10-Pin_1)*%
X161000000Y-83000000D03*
D15*
%TO.P,J10,2,Pin_2*%
%TO.N,Net-(J10-Pin_2)*%
X163500000Y-83000000D03*
%TO.P,J10,3,Pin_3*%
%TO.N,Net-(J10-Pin_3)*%
X166000000Y-83000000D03*
%TO.P,J10,4,Pin_4*%
%TO.N,Net-(J10-Pin_4)*%
X168500000Y-83000000D03*
%TD*%
D10*
%TO.P,mp6500stepper_driver4,1,vmot*%
%TO.N,+24V*%
X99000000Y-67250000D03*
%TO.P,mp6500stepper_driver4,2,GND*%
%TO.N,GND*%
X96460000Y-67250000D03*
%TO.P,mp6500stepper_driver4,3,b2*%
%TO.N,Net-(J6-Pin_1)*%
X93920000Y-67250000D03*
%TO.P,mp6500stepper_driver4,4,b1*%
%TO.N,Net-(J6-Pin_2)*%
X91380000Y-67250000D03*
%TO.P,mp6500stepper_driver4,5,a1*%
%TO.N,Net-(J6-Pin_3)*%
X88840000Y-67250000D03*
%TO.P,mp6500stepper_driver4,6,a2*%
%TO.N,Net-(J6-Pin_4)*%
X86300000Y-67250000D03*
%TO.P,mp6500stepper_driver4,7,FLT*%
%TO.N,unconnected-(mp6500stepper_driver4-FLT-Pad7)*%
X83760000Y-67250000D03*
%TO.P,mp6500stepper_driver4,8,GND*%
%TO.N,GND*%
X81220000Y-67250000D03*
%TO.P,mp6500stepper_driver4,9,EN*%
%TO.N,+5V*%
X99000000Y-54750000D03*
%TO.P,mp6500stepper_driver4,10,ms1*%
X96460000Y-54750000D03*
%TO.P,mp6500stepper_driver4,11,ms2*%
X93920000Y-54750000D03*
%TO.P,mp6500stepper_driver4,12,I1*%
%TO.N,unconnected-(mp6500stepper_driver4-I1-Pad12)*%
X91380000Y-54750000D03*
%TO.P,mp6500stepper_driver4,13,I2*%
%TO.N,unconnected-(mp6500stepper_driver4-I2-Pad13)*%
X88840000Y-54750000D03*
%TO.P,mp6500stepper_driver4,14,SLP*%
%TO.N,unconnected-(mp6500stepper_driver4-SLP-Pad14)*%
X86300000Y-54750000D03*
%TO.P,mp6500stepper_driver4,15,STEP*%
%TO.N,Net-(U2-GPIO27_ADC1)*%
X83760000Y-54750000D03*
%TO.P,mp6500stepper_driver4,16,DIR*%
%TO.N,Net-(U2-GPIO26_ADC0)*%
X81220000Y-54750000D03*
%TD*%
D14*
%TO.P,J15,1,Pin_1*%
%TO.N,Net-(J15-Pin_1)*%
X118500000Y-75000000D03*
D15*
%TO.P,J15,2,Pin_2*%
%TO.N,Net-(J15-Pin_2)*%
X116000000Y-75000000D03*
%TO.P,J15,3,Pin_3*%
%TO.N,Net-(J15-Pin_3)*%
X113500000Y-75000000D03*
%TO.P,J15,4,Pin_4*%
%TO.N,Net-(J15-Pin_4)*%
X111000000Y-75000000D03*
%TD*%
D16*
%TO.P,J8,1,Pin_1*%
%TO.N,Net-(J8-Pin_1)*%
X111000000Y-83000000D03*
D15*
%TO.P,J8,2,Pin_2*%
%TO.N,Net-(J8-Pin_2)*%
X113500000Y-83000000D03*
%TO.P,J8,3,Pin_3*%
%TO.N,Net-(J8-Pin_3)*%
X116000000Y-83000000D03*
%TO.P,J8,4,Pin_4*%
%TO.N,Net-(J8-Pin_4)*%
X118500000Y-83000000D03*
%TD*%
D17*
%TO.P,L1,1,1*%
%TO.N,Net-(D1-K)*%
X169150000Y-127200000D03*
%TO.P,L1,2,2*%
%TO.N,+5V*%
X160650000Y-127200000D03*
%TD*%
D10*
%TO.P,mp6500stepper_driver1,1,vmot*%
%TO.N,+24V*%
X111000000Y-131750000D03*
%TO.P,mp6500stepper_driver1,2,GND*%
%TO.N,GND*%
X113540000Y-131750000D03*
%TO.P,mp6500stepper_driver1,3,b2*%
%TO.N,Net-(J3-Pin_1)*%
X116080000Y-131750000D03*
%TO.P,mp6500stepper_driver1,4,b1*%
%TO.N,Net-(J3-Pin_2)*%
X118620000Y-131750000D03*
%TO.P,mp6500stepper_driver1,5,a1*%
%TO.N,Net-(J3-Pin_3)*%
X121160000Y-131750000D03*
%TO.P,mp6500stepper_driver1,6,a2*%
%TO.N,Net-(J3-Pin_4)*%
X123700000Y-131750000D03*
%TO.P,mp6500stepper_driver1,7,FLT*%
%TO.N,unconnected-(mp6500stepper_driver1-FLT-Pad7)*%
X126240000Y-131750000D03*
%TO.P,mp6500stepper_driver1,8,GND*%
%TO.N,GND*%
X128780000Y-131750000D03*
%TO.P,mp6500stepper_driver1,9,EN*%
%TO.N,Net-(Q1-S)*%
X111000000Y-144250000D03*
%TO.P,mp6500stepper_driver1,10,ms1*%
X113540000Y-144250000D03*
%TO.P,mp6500stepper_driver1,11,ms2*%
X116080000Y-144250000D03*
%TO.P,mp6500stepper_driver1,12,I1*%
%TO.N,unconnected-(mp6500stepper_driver1-I1-Pad12)*%
X118620000Y-144250000D03*
%TO.P,mp6500stepper_driver1,13,I2*%
%TO.N,unconnected-(mp6500stepper_driver1-I2-Pad13)*%
X121160000Y-144250000D03*
%TO.P,mp6500stepper_driver1,14,SLP*%
%TO.N,unconnected-(mp6500stepper_driver1-SLP-Pad14)*%
X123700000Y-144250000D03*
%TO.P,mp6500stepper_driver1,15,STEP*%
%TO.N,Net-(U2-GPIO20)*%
X126240000Y-144250000D03*
%TO.P,mp6500stepper_driver1,16,DIR*%
%TO.N,Net-(U2-GPIO19)*%
X128780000Y-144250000D03*
%TD*%
D18*
%TO.P,U2,1,GPIO0*%
%TO.N,Net-(J2-GPIO14)*%
X102280000Y-160020000D03*
D19*
X103180000Y-160020000D03*
D18*
%TO.P,U2,2,GPIO1*%
%TO.N,Net-(J2-GPIO15)*%
X102280000Y-157480000D03*
D19*
X103180000Y-157480000D03*
D20*
%TO.P,U2,3,GND*%
%TO.N,Net-(J2-GND-Pad6)*%
X102280000Y-154940000D03*
D19*
X103180000Y-154940000D03*
D18*
%TO.P,U2,4,GPIO2*%
%TO.N,Net-(J2-GPIO18)*%
X102280000Y-152400000D03*
D19*
X103180000Y-152400000D03*
D18*
%TO.P,U2,5,GPIO3*%
%TO.N,Net-(U2-GPIO3)*%
X102280000Y-149860000D03*
D19*
X103180000Y-149860000D03*
D18*
%TO.P,U2,6,GPIO4*%
%TO.N,Net-(U2-GPIO4)*%
X102280000Y-147320000D03*
D19*
X103180000Y-147320000D03*
D18*
%TO.P,U2,7,GPIO5*%
%TO.N,Net-(U2-GPIO5)*%
X102280000Y-144780000D03*
D19*
X103180000Y-144780000D03*
D20*
%TO.P,U2,8,GND*%
%TO.N,GND*%
X102280000Y-142240000D03*
D19*
X103180000Y-142240000D03*
D18*
%TO.P,U2,9,GPIO6*%
%TO.N,Net-(U2-GPIO6)*%
X102280000Y-139700000D03*
D19*
X103180000Y-139700000D03*
D18*
%TO.P,U2,10,GPIO7*%
%TO.N,Net-(U2-GPIO7)*%
X102280000Y-137160000D03*
D19*
X103180000Y-137160000D03*
D18*
%TO.P,U2,11,GPIO8*%
%TO.N,Net-(U2-GPIO8)*%
X102280000Y-134620000D03*
D19*
X103180000Y-134620000D03*
D18*
%TO.P,U2,12,GPIO9*%
%TO.N,Net-(U2-GPIO9)*%
X102280000Y-132080000D03*
D19*
X103180000Y-132080000D03*
D20*
%TO.P,U2,13,GND*%
%TO.N,GND*%
X102280000Y-129540000D03*
D19*
X103180000Y-129540000D03*
D18*
%TO.P,U2,14,GPIO10*%
%TO.N,Net-(U2-GPIO10)*%
X102280000Y-127000000D03*
D19*
X103180000Y-127000000D03*
D18*
%TO.P,U2,15,GPIO11*%
%TO.N,Net-(U2-GPIO11)*%
X102280000Y-124460000D03*
D19*
X103180000Y-124460000D03*
D18*
%TO.P,U2,16,GPIO12*%
%TO.N,Net-(U2-GPIO12)*%
X102280000Y-121920000D03*
D19*
X103180000Y-121920000D03*
D18*
%TO.P,U2,17,GPIO13*%
%TO.N,Net-(U2-GPIO13)*%
X102280000Y-119380000D03*
D19*
X103180000Y-119380000D03*
D20*
%TO.P,U2,18,GND*%
%TO.N,GND*%
X102280000Y-116840000D03*
D19*
X103180000Y-116840000D03*
D18*
%TO.P,U2,19,GPIO14*%
%TO.N,Net-(U2-GPIO14)*%
X102280000Y-114300000D03*
D19*
X103180000Y-114300000D03*
D18*
%TO.P,U2,20,GPIO15*%
%TO.N,Net-(U2-GPIO15)*%
X102280000Y-111760000D03*
D19*
X103180000Y-111760000D03*
D18*
%TO.P,U2,21,GPIO16*%
%TO.N,Net-(Q1-G)*%
X84500000Y-111760000D03*
D19*
X83600000Y-111760000D03*
D18*
%TO.P,U2,22,GPIO17*%
%TO.N,Net-(U2-GPIO17)*%
X84500000Y-114300000D03*
D19*
X83600000Y-114300000D03*
D20*
%TO.P,U2,23,GND*%
%TO.N,GND*%
X84500000Y-116840000D03*
D19*
X83600000Y-116840000D03*
D18*
%TO.P,U2,24,GPIO18*%
%TO.N,Net-(U2-GPIO18)*%
X84500000Y-119380000D03*
D19*
X83600000Y-119380000D03*
D18*
%TO.P,U2,25,GPIO19*%
%TO.N,Net-(U2-GPIO19)*%
X84500000Y-121920000D03*
D19*
X83600000Y-121920000D03*
D18*
%TO.P,U2,26,GPIO20*%
%TO.N,Net-(U2-GPIO20)*%
X84500000Y-124460000D03*
D19*
X83600000Y-124460000D03*
D18*
%TO.P,U2,27,GPIO21*%
%TO.N,Net-(U2-GPIO21)*%
X84500000Y-127000000D03*
D19*
X83600000Y-127000000D03*
D20*
%TO.P,U2,28,GND*%
%TO.N,GND*%
X84500000Y-129540000D03*
D19*
X83600000Y-129540000D03*
D18*
%TO.P,U2,29,GPIO22*%
%TO.N,Net-(U2-GPIO22)*%
X84500000Y-132080000D03*
D19*
X83600000Y-132080000D03*
D18*
%TO.P,U2,30,RUN*%
%TO.N,unconnected-(U2-RUN-Pad30)*%
X84500000Y-134620000D03*
D19*
X83600000Y-134620000D03*
D18*
%TO.P,U2,31,GPIO26_ADC0*%
%TO.N,Net-(U2-GPIO26_ADC0)*%
X84500000Y-137160000D03*
D19*
X83600000Y-137160000D03*
D18*
%TO.P,U2,32,GPIO27_ADC1*%
%TO.N,Net-(U2-GPIO27_ADC1)*%
X84500000Y-139700000D03*
D19*
X83600000Y-139700000D03*
D20*
%TO.P,U2,33,AGND*%
%TO.N,unconnected-(U2-AGND-Pad33)*%
X84500000Y-142240000D03*
D19*
X83600000Y-142240000D03*
D18*
%TO.P,U2,34,GPIO28_ADC2*%
%TO.N,Net-(U2-GPIO28_ADC2)*%
X84500000Y-144780000D03*
D19*
X83600000Y-144780000D03*
D18*
%TO.P,U2,35,ADC_VREF*%
%TO.N,unconnected-(U2-ADC_VREF-Pad35)*%
X84500000Y-147320000D03*
D19*
X83600000Y-147320000D03*
D18*
%TO.P,U2,36,3V3*%
%TO.N,unconnected-(U2-3V3-Pad36)*%
X84500000Y-149860000D03*
D19*
X83600000Y-149860000D03*
D18*
%TO.P,U2,37,3V3_EN*%
%TO.N,unconnected-(U2-3V3_EN-Pad37)*%
X84500000Y-152400000D03*
D19*
X83600000Y-152400000D03*
D20*
%TO.P,U2,38,GND*%
%TO.N,GND*%
X84500000Y-154940000D03*
D19*
X83600000Y-154940000D03*
D18*
%TO.P,U2,39,VSYS*%
%TO.N,+5V*%
X84500000Y-157480000D03*
D19*
X83600000Y-157480000D03*
D18*
%TO.P,U2,40,VBUS*%
%TO.N,unconnected-(U2-VBUS-Pad40)*%
X84500000Y-160020000D03*
D19*
X83600000Y-160020000D03*
D18*
%TO.P,U2,41,SWCLK*%
%TO.N,unconnected-(U2-SWCLK-Pad41)*%
X95930000Y-111990000D03*
D21*
X95930000Y-111090000D03*
D20*
%TO.P,U2,42,GND*%
%TO.N,unconnected-(U2-GND-Pad42)*%
X93390000Y-111990000D03*
D21*
X93390000Y-111090000D03*
D18*
%TO.P,U2,43,SWDIO*%
%TO.N,unconnected-(U2-SWDIO-Pad43)*%
X90850000Y-111990000D03*
D21*
X90850000Y-111090000D03*
%TD*%
D22*
%TO.P,D1,1,K*%
%TO.N,Net-(D1-K)*%
X175400000Y-127080000D03*
D23*
%TO.P,D1,2,A*%
%TO.N,GND*%
X175400000Y-142320000D03*
%TD*%
D24*
%TO.P,U1,1,VIN*%
%TO.N,+24V*%
X167000000Y-135500000D03*
D25*
%TO.P,U1,2,OUT*%
%TO.N,Net-(D1-K)*%
X165300000Y-139200000D03*
%TO.P,U1,3,GND*%
%TO.N,GND*%
X163600000Y-135500000D03*
%TO.P,U1,4,FB*%
%TO.N,+5V*%
X161900000Y-139200000D03*
%TO.P,U1,5,~{ON}/OFF*%
%TO.N,GND*%
X160200000Y-135500000D03*
%TD*%
D14*
%TO.P,J6,1,Pin_1*%
%TO.N,Net-(J6-Pin_1)*%
X93500000Y-75000000D03*
D15*
%TO.P,J6,2,Pin_2*%
%TO.N,Net-(J6-Pin_2)*%
X91000000Y-75000000D03*
%TO.P,J6,3,Pin_3*%
%TO.N,Net-(J6-Pin_3)*%
X88500000Y-75000000D03*
%TO.P,J6,4,Pin_4*%
%TO.N,Net-(J6-Pin_4)*%
X86000000Y-75000000D03*
%TD*%
D10*
%TO.P,mp6500stepper_driver5,1,vmot*%
%TO.N,+24V*%
X81000000Y-90750000D03*
%TO.P,mp6500stepper_driver5,2,GND*%
%TO.N,GND*%
X83540000Y-90750000D03*
%TO.P,mp6500stepper_driver5,3,b2*%
%TO.N,Net-(J7-Pin_1)*%
X86080000Y-90750000D03*
%TO.P,mp6500stepper_driver5,4,b1*%
%TO.N,Net-(J7-Pin_2)*%
X88620000Y-90750000D03*
%TO.P,mp6500stepper_driver5,5,a1*%
%TO.N,Net-(J7-Pin_3)*%
X91160000Y-90750000D03*
%TO.P,mp6500stepper_driver5,6,a2*%
%TO.N,Net-(J7-Pin_4)*%
X93700000Y-90750000D03*
%TO.P,mp6500stepper_driver5,7,FLT*%
%TO.N,unconnected-(mp6500stepper_driver5-FLT-Pad7)*%
X96240000Y-90750000D03*
%TO.P,mp6500stepper_driver5,8,GND*%
%TO.N,GND*%
X98780000Y-90750000D03*
%TO.P,mp6500stepper_driver5,9,EN*%
%TO.N,+5V*%
X81000000Y-103250000D03*
%TO.P,mp6500stepper_driver5,10,ms1*%
X83540000Y-103250000D03*
%TO.P,mp6500stepper_driver5,11,ms2*%
X86080000Y-103250000D03*
%TO.P,mp6500stepper_driver5,12,I1*%
%TO.N,unconnected-(mp6500stepper_driver5-I1-Pad12)*%
X88620000Y-103250000D03*
%TO.P,mp6500stepper_driver5,13,I2*%
%TO.N,unconnected-(mp6500stepper_driver5-I2-Pad13)*%
X91160000Y-103250000D03*
%TO.P,mp6500stepper_driver5,14,SLP*%
%TO.N,unconnected-(mp6500stepper_driver5-SLP-Pad14)*%
X93700000Y-103250000D03*
%TO.P,mp6500stepper_driver5,15,STEP*%
%TO.N,Net-(U2-GPIO10)*%
X96240000Y-103250000D03*
%TO.P,mp6500stepper_driver5,16,DIR*%
%TO.N,Net-(U2-GPIO9)*%
X98780000Y-103250000D03*
%TD*%
D26*
%TO.P,J11,1,Pin_1*%
%TO.N,+5V*%
X152500000Y-117500000D03*
D12*
%TO.P,J11,2,Pin_2*%
%TO.N,Net-(J11-Pin_2)*%
X152500000Y-115000000D03*
%TD*%
D26*
%TO.P,J12,1,Pin_1*%
%TO.N,+5V*%
X151500000Y-135500000D03*
D12*
%TO.P,J12,2,Pin_2*%
%TO.N,Net-(J12-Pin_2)*%
X151500000Y-133000000D03*
%TD*%
D14*
%TO.P,J13,1,Pin_1*%
%TO.N,Net-(J13-Pin_1)*%
X143500000Y-75000000D03*
D15*
%TO.P,J13,2,Pin_2*%
%TO.N,Net-(J13-Pin_2)*%
X141000000Y-75000000D03*
%TO.P,J13,3,Pin_3*%
%TO.N,Net-(J13-Pin_3)*%
X138500000Y-75000000D03*
%TO.P,J13,4,Pin_4*%
%TO.N,Net-(J13-Pin_4)*%
X136000000Y-75000000D03*
%TD*%
D10*
%TO.P,mp6500stepper_driver6,1,vmot*%
%TO.N,+24V*%
X106000000Y-90750000D03*
%TO.P,mp6500stepper_driver6,2,GND*%
%TO.N,GND*%
X108540000Y-90750000D03*
%TO.P,mp6500stepper_driver6,3,b2*%
%TO.N,Net-(J8-Pin_1)*%
X111080000Y-90750000D03*
%TO.P,mp6500stepper_driver6,4,b1*%
%TO.N,Net-(J8-Pin_2)*%
X113620000Y-90750000D03*
%TO.P,mp6500stepper_driver6,5,a1*%
%TO.N,Net-(J8-Pin_3)*%
X116160000Y-90750000D03*
%TO.P,mp6500stepper_driver6,6,a2*%
%TO.N,Net-(J8-Pin_4)*%
X118700000Y-90750000D03*
%TO.P,mp6500stepper_driver6,7,FLT*%
%TO.N,unconnected-(mp6500stepper_driver6-FLT-Pad7)*%
X121240000Y-90750000D03*
%TO.P,mp6500stepper_driver6,8,GND*%
%TO.N,GND*%
X123780000Y-90750000D03*
%TO.P,mp6500stepper_driver6,9,EN*%
%TO.N,+5V*%
X106000000Y-103250000D03*
%TO.P,mp6500stepper_driver6,10,ms1*%
X108540000Y-103250000D03*
%TO.P,mp6500stepper_driver6,11,ms2*%
X111080000Y-103250000D03*
%TO.P,mp6500stepper_driver6,12,I1*%
%TO.N,unconnected-(mp6500stepper_driver6-I1-Pad12)*%
X113620000Y-103250000D03*
%TO.P,mp6500stepper_driver6,13,I2*%
%TO.N,unconnected-(mp6500stepper_driver6-I2-Pad13)*%
X116160000Y-103250000D03*
%TO.P,mp6500stepper_driver6,14,SLP*%
%TO.N,unconnected-(mp6500stepper_driver6-SLP-Pad14)*%
X118700000Y-103250000D03*
%TO.P,mp6500stepper_driver6,15,STEP*%
%TO.N,Net-(U2-GPIO12)*%
X121240000Y-103250000D03*
%TO.P,mp6500stepper_driver6,16,DIR*%
%TO.N,Net-(U2-GPIO11)*%
X123780000Y-103250000D03*
%TD*%
D16*
%TO.P,J9,1,Pin_1*%
%TO.N,Net-(J9-Pin_1)*%
X136000000Y-83000000D03*
D15*
%TO.P,J9,2,Pin_2*%
%TO.N,Net-(J9-Pin_2)*%
X138500000Y-83000000D03*
%TO.P,J9,3,Pin_3*%
%TO.N,Net-(J9-Pin_3)*%
X141000000Y-83000000D03*
%TO.P,J9,4,Pin_4*%
%TO.N,Net-(J9-Pin_4)*%
X143500000Y-83000000D03*
%TD*%
D10*
%TO.P,mp6500stepper_driver9,1,vmot*%
%TO.N,+24V*%
X124000000Y-67250000D03*
%TO.P,mp6500stepper_driver9,2,GND*%
%TO.N,GND*%
X121460000Y-67250000D03*
%TO.P,mp6500stepper_driver9,3,b2*%
%TO.N,Net-(J15-Pin_1)*%
X118920000Y-67250000D03*
%TO.P,mp6500stepper_driver9,4,b1*%
%TO.N,Net-(J15-Pin_2)*%
X116380000Y-67250000D03*
%TO.P,mp6500stepper_driver9,5,a1*%
%TO.N,Net-(J15-Pin_3)*%
X113840000Y-67250000D03*
%TO.P,mp6500stepper_driver9,6,a2*%
%TO.N,Net-(J15-Pin_4)*%
X111300000Y-67250000D03*
%TO.P,mp6500stepper_driver9,7,FLT*%
%TO.N,unconnected-(mp6500stepper_driver9-FLT-Pad7)*%
X108760000Y-67250000D03*
%TO.P,mp6500stepper_driver9,8,GND*%
%TO.N,GND*%
X106220000Y-67250000D03*
%TO.P,mp6500stepper_driver9,9,EN*%
%TO.N,+5V*%
X124000000Y-54750000D03*
%TO.P,mp6500stepper_driver9,10,ms1*%
X121460000Y-54750000D03*
%TO.P,mp6500stepper_driver9,11,ms2*%
X118920000Y-54750000D03*
%TO.P,mp6500stepper_driver9,12,I1*%
%TO.N,unconnected-(mp6500stepper_driver9-I1-Pad12)*%
X116380000Y-54750000D03*
%TO.P,mp6500stepper_driver9,13,I2*%
%TO.N,unconnected-(mp6500stepper_driver9-I2-Pad13)*%
X113840000Y-54750000D03*
%TO.P,mp6500stepper_driver9,14,SLP*%
%TO.N,unconnected-(mp6500stepper_driver9-SLP-Pad14)*%
X111300000Y-54750000D03*
%TO.P,mp6500stepper_driver9,15,STEP*%
%TO.N,Net-(U2-GPIO4)*%
X108760000Y-54750000D03*
%TO.P,mp6500stepper_driver9,16,DIR*%
%TO.N,Net-(U2-GPIO3)*%
X106220000Y-54750000D03*
%TD*%
%TO.P,mp6500stepper_driver8,1,vmot*%
%TO.N,+24V*%
X156000000Y-90750000D03*
%TO.P,mp6500stepper_driver8,2,GND*%
%TO.N,GND*%
X158540000Y-90750000D03*
%TO.P,mp6500stepper_driver8,3,b2*%
%TO.N,Net-(J10-Pin_1)*%
X161080000Y-90750000D03*
%TO.P,mp6500stepper_driver8,4,b1*%
%TO.N,Net-(J10-Pin_2)*%
X163620000Y-90750000D03*
%TO.P,mp6500stepper_driver8,5,a1*%
%TO.N,Net-(J10-Pin_3)*%
X166160000Y-90750000D03*
%TO.P,mp6500stepper_driver8,6,a2*%
%TO.N,Net-(J10-Pin_4)*%
X168700000Y-90750000D03*
%TO.P,mp6500stepper_driver8,7,FLT*%
%TO.N,unconnected-(mp6500stepper_driver8-FLT-Pad7)*%
X171240000Y-90750000D03*
%TO.P,mp6500stepper_driver8,8,GND*%
%TO.N,GND*%
X173780000Y-90750000D03*
%TO.P,mp6500stepper_driver8,9,EN*%
%TO.N,+5V*%
X156000000Y-103250000D03*
%TO.P,mp6500stepper_driver8,10,ms1*%
X158540000Y-103250000D03*
%TO.P,mp6500stepper_driver8,11,ms2*%
X161080000Y-103250000D03*
%TO.P,mp6500stepper_driver8,12,I1*%
%TO.N,unconnected-(mp6500stepper_driver8-I1-Pad12)*%
X163620000Y-103250000D03*
%TO.P,mp6500stepper_driver8,13,I2*%
%TO.N,unconnected-(mp6500stepper_driver8-I2-Pad13)*%
X166160000Y-103250000D03*
%TO.P,mp6500stepper_driver8,14,SLP*%
%TO.N,unconnected-(mp6500stepper_driver8-SLP-Pad14)*%
X168700000Y-103250000D03*
%TO.P,mp6500stepper_driver8,15,STEP*%
%TO.N,Net-(U2-GPIO28_ADC2)*%
X171240000Y-103250000D03*
%TO.P,mp6500stepper_driver8,16,DIR*%
%TO.N,Net-(U2-GPIO15)*%
X173780000Y-103250000D03*
%TD*%
%TO.P,mp6500stepper_driver2,1,vmot*%
%TO.N,+24V*%
X111000000Y-149750000D03*
%TO.P,mp6500stepper_driver2,2,GND*%
%TO.N,GND*%
X113540000Y-149750000D03*
%TO.P,mp6500stepper_driver2,3,b2*%
%TO.N,Net-(J4-Pin_1)*%
X116080000Y-149750000D03*
%TO.P,mp6500stepper_driver2,4,b1*%
%TO.N,Net-(J4-Pin_2)*%
X118620000Y-149750000D03*
%TO.P,mp6500stepper_driver2,5,a1*%
%TO.N,Net-(J4-Pin_3)*%
X121160000Y-149750000D03*
%TO.P,mp6500stepper_driver2,6,a2*%
%TO.N,Net-(J4-Pin_4)*%
X123700000Y-149750000D03*
%TO.P,mp6500stepper_driver2,7,FLT*%
%TO.N,unconnected-(mp6500stepper_driver2-FLT-Pad7)*%
X126240000Y-149750000D03*
%TO.P,mp6500stepper_driver2,8,GND*%
%TO.N,GND*%
X128780000Y-149750000D03*
%TO.P,mp6500stepper_driver2,9,EN*%
%TO.N,Net-(Q1-S)*%
X111000000Y-162250000D03*
%TO.P,mp6500stepper_driver2,10,ms1*%
X113540000Y-162250000D03*
%TO.P,mp6500stepper_driver2,11,ms2*%
X116080000Y-162250000D03*
%TO.P,mp6500stepper_driver2,12,I1*%
%TO.N,unconnected-(mp6500stepper_driver2-I1-Pad12)*%
X118620000Y-162250000D03*
%TO.P,mp6500stepper_driver2,13,I2*%
%TO.N,unconnected-(mp6500stepper_driver2-I2-Pad13)*%
X121160000Y-162250000D03*
%TO.P,mp6500stepper_driver2,14,SLP*%
%TO.N,unconnected-(mp6500stepper_driver2-SLP-Pad14)*%
X123700000Y-162250000D03*
%TO.P,mp6500stepper_driver2,15,STEP*%
%TO.N,Net-(U2-GPIO18)*%
X126240000Y-162250000D03*
%TO.P,mp6500stepper_driver2,16,DIR*%
%TO.N,Net-(U2-GPIO17)*%
X128780000Y-162250000D03*
%TD*%
D14*
%TO.P,J14,1,Pin_1*%
%TO.N,Net-(J14-Pin_1)*%
X168500000Y-75000000D03*
D15*
%TO.P,J14,2,Pin_2*%
%TO.N,Net-(J14-Pin_2)*%
X166000000Y-75000000D03*
%TO.P,J14,3,Pin_3*%
%TO.N,Net-(J14-Pin_3)*%
X163500000Y-75000000D03*
%TO.P,J14,4,Pin_4*%
%TO.N,Net-(J14-Pin_4)*%
X161000000Y-75000000D03*
%TD*%
D10*
%TO.P,mp6500stepper_driver12,1,vmot*%
%TO.N,+24V*%
X174000000Y-67250000D03*
%TO.P,mp6500stepper_driver12,2,GND*%
%TO.N,GND*%
X171460000Y-67250000D03*
%TO.P,mp6500stepper_driver12,3,b2*%
%TO.N,Net-(J14-Pin_1)*%
X168920000Y-67250000D03*
%TO.P,mp6500stepper_driver12,4,b1*%
%TO.N,Net-(J14-Pin_2)*%
X166380000Y-67250000D03*
%TO.P,mp6500stepper_driver12,5,a1*%
%TO.N,Net-(J14-Pin_3)*%
X163840000Y-67250000D03*
%TO.P,mp6500stepper_driver12,6,a2*%
%TO.N,Net-(J14-Pin_4)*%
X161300000Y-67250000D03*
%TO.P,mp6500stepper_driver12,7,FLT*%
%TO.N,unconnected-(mp6500stepper_driver12-FLT-Pad7)*%
X158760000Y-67250000D03*
%TO.P,mp6500stepper_driver12,8,GND*%
%TO.N,GND*%
X156220000Y-67250000D03*
%TO.P,mp6500stepper_driver12,9,EN*%
%TO.N,+5V*%
X174000000Y-54750000D03*
%TO.P,mp6500stepper_driver12,10,ms1*%
X171460000Y-54750000D03*
%TO.P,mp6500stepper_driver12,11,ms2*%
X168920000Y-54750000D03*
%TO.P,mp6500stepper_driver12,12,I1*%
%TO.N,unconnected-(mp6500stepper_driver12-I1-Pad12)*%
X166380000Y-54750000D03*
%TO.P,mp6500stepper_driver12,13,I2*%
%TO.N,unconnected-(mp6500stepper_driver12-I2-Pad13)*%
X163840000Y-54750000D03*
%TO.P,mp6500stepper_driver12,14,SLP*%
%TO.N,unconnected-(mp6500stepper_driver12-SLP-Pad14)*%
X161300000Y-54750000D03*
%TO.P,mp6500stepper_driver12,15,STEP*%
%TO.N,Net-(U2-GPIO8)*%
X158760000Y-54750000D03*
%TO.P,mp6500stepper_driver12,16,DIR*%
%TO.N,Net-(U2-GPIO7)*%
X156220000Y-54750000D03*
%TD*%
%TO.P,mp6500stepper_driver11,1,vmot*%
%TO.N,+24V*%
X149000000Y-67250000D03*
%TO.P,mp6500stepper_driver11,2,GND*%
%TO.N,GND*%
X146460000Y-67250000D03*
%TO.P,mp6500stepper_driver11,3,b2*%
%TO.N,Net-(J13-Pin_1)*%
X143920000Y-67250000D03*
%TO.P,mp6500stepper_driver11,4,b1*%
%TO.N,Net-(J13-Pin_2)*%
X141380000Y-67250000D03*
%TO.P,mp6500stepper_driver11,5,a1*%
%TO.N,Net-(J13-Pin_3)*%
X138840000Y-67250000D03*
%TO.P,mp6500stepper_driver11,6,a2*%
%TO.N,Net-(J13-Pin_4)*%
X136300000Y-67250000D03*
%TO.P,mp6500stepper_driver11,7,FLT*%
%TO.N,unconnected-(mp6500stepper_driver11-FLT-Pad7)*%
X133760000Y-67250000D03*
%TO.P,mp6500stepper_driver11,8,GND*%
%TO.N,GND*%
X131220000Y-67250000D03*
%TO.P,mp6500stepper_driver11,9,EN*%
%TO.N,+5V*%
X149000000Y-54750000D03*
%TO.P,mp6500stepper_driver11,10,ms1*%
X146460000Y-54750000D03*
%TO.P,mp6500stepper_driver11,11,ms2*%
X143920000Y-54750000D03*
%TO.P,mp6500stepper_driver11,12,I1*%
%TO.N,unconnected-(mp6500stepper_driver11-I1-Pad12)*%
X141380000Y-54750000D03*
%TO.P,mp6500stepper_driver11,13,I2*%
%TO.N,unconnected-(mp6500stepper_driver11-I2-Pad13)*%
X138840000Y-54750000D03*
%TO.P,mp6500stepper_driver11,14,SLP*%
%TO.N,unconnected-(mp6500stepper_driver11-SLP-Pad14)*%
X136300000Y-54750000D03*
%TO.P,mp6500stepper_driver11,15,STEP*%
%TO.N,Net-(U2-GPIO6)*%
X133760000Y-54750000D03*
%TO.P,mp6500stepper_driver11,16,DIR*%
%TO.N,Net-(U2-GPIO5)*%
X131220000Y-54750000D03*
%TD*%
D27*
%TO.P,C2,1*%
%TO.N,+5V*%
X175900000Y-118200000D03*
D13*
%TO.P,C2,2*%
%TO.N,GND*%
X175900000Y-121700000D03*
%TD*%
D20*
%TO.P,J2,1,3.3V*%
%TO.N,unconnected-(J2-3.3V-Pad1)*%
X77540000Y-111380000D03*
D18*
%TO.P,J2,2,5V*%
%TO.N,+5V*%
X75000000Y-111380000D03*
%TO.P,J2,3,GPIO2*%
%TO.N,unconnected-(J2-GPIO2-Pad3)*%
X77540000Y-113920000D03*
%TO.P,J2,4,5V*%
%TO.N,unconnected-(J2-5V-Pad4)*%
X75000000Y-113920000D03*
%TO.P,J2,5,GPIO3*%
%TO.N,unconnected-(J2-GPIO3-Pad5)*%
X77540000Y-116460000D03*
%TO.P,J2,6,GND*%
%TO.N,Net-(J2-GND-Pad6)*%
X75000000Y-116460000D03*
%TO.P,J2,7,GPIO4*%
%TO.N,unconnected-(J2-GPIO4-Pad7)*%
X77540000Y-119000000D03*
%TO.P,J2,8,GPIO14*%
%TO.N,Net-(J2-GPIO14)*%
X75000000Y-119000000D03*
%TO.P,J2,9,GND*%
%TO.N,GND*%
X77540000Y-121540000D03*
%TO.P,J2,10,GPIO15*%
%TO.N,Net-(J2-GPIO15)*%
X75000000Y-121540000D03*
%TO.P,J2,11,GPIO17*%
%TO.N,unconnected-(J2-GPIO17-Pad11)*%
X77540000Y-124080000D03*
%TO.P,J2,12,GPIO18*%
%TO.N,Net-(J2-GPIO18)*%
X75000000Y-124080000D03*
%TO.P,J2,13,GPIO27*%
%TO.N,unconnected-(J2-GPIO27-Pad13)*%
X77540000Y-126620000D03*
%TO.P,J2,14,GND*%
%TO.N,GND*%
X75000000Y-126620000D03*
%TO.P,J2,15,GPIO22*%
%TO.N,unconnected-(J2-GPIO22-Pad15)*%
X77540000Y-129160000D03*
%TO.P,J2,16,GPIO23*%
%TO.N,Net-(J16-Pin_2)*%
X75000000Y-129160000D03*
%TO.P,J2,17,3.3V*%
%TO.N,unconnected-(J2-3.3V-Pad17)*%
X77540000Y-131700000D03*
%TO.P,J2,18,GPIO24*%
%TO.N,Net-(J12-Pin_2)*%
X75000000Y-131700000D03*
%TO.P,J2,19,GPIO10*%
%TO.N,unconnected-(J2-GPIO10-Pad19)*%
X77540000Y-134240000D03*
%TO.P,J2,20,GND*%
%TO.N,GND*%
X75000000Y-134240000D03*
%TO.P,J2,21,GPIO9*%
%TO.N,unconnected-(J2-GPIO9-Pad21)*%
X77540000Y-136780000D03*
%TO.P,J2,22,GPIO25*%
%TO.N,Net-(J11-Pin_2)*%
X75000000Y-136780000D03*
%TO.P,J2,23,GPIO11*%
%TO.N,unconnected-(J2-GPIO11-Pad23)*%
X77540000Y-139320000D03*
%TO.P,J2,24,GPIO8*%
%TO.N,unconnected-(J2-GPIO8-Pad24)*%
X75000000Y-139320000D03*
%TO.P,J2,25,GND*%
%TO.N,GND*%
X77540000Y-141860000D03*
%TO.P,J2,26,GPIO7*%
%TO.N,unconnected-(J2-GPIO7-Pad26)*%
X75000000Y-141860000D03*
%TO.P,J2,27,ID_SD*%
%TO.N,unconnected-(J2-ID_SD-Pad27)*%
X77540000Y-144400000D03*
%TO.P,J2,28,ID_SC*%
%TO.N,unconnected-(J2-ID_SC-Pad28)*%
X75000000Y-144400000D03*
%TO.P,J2,29,GPIO5*%
%TO.N,unconnected-(J2-GPIO5-Pad29)*%
X77540000Y-146940000D03*
%TO.P,J2,30,GND*%
%TO.N,unconnected-(J2-GND-Pad30)*%
X75000000Y-146940000D03*
%TO.P,J2,31,GPIO6*%
%TO.N,unconnected-(J2-GPIO6-Pad31)*%
X77540000Y-149480000D03*
%TO.P,J2,32,GPIO12*%
%TO.N,unconnected-(J2-GPIO12-Pad32)*%
X75000000Y-149480000D03*
%TO.P,J2,33,GPIO13*%
%TO.N,unconnected-(J2-GPIO13-Pad33)*%
X77540000Y-152020000D03*
%TO.P,J2,34,GND*%
%TO.N,GND*%
X75000000Y-152020000D03*
%TO.P,J2,35,GPIO19*%
%TO.N,unconnected-(J2-GPIO19-Pad35)*%
X77540000Y-154560000D03*
%TO.P,J2,36,GPIO16*%
%TO.N,unconnected-(J2-GPIO16-Pad36)*%
X75000000Y-154560000D03*
%TO.P,J2,37,GPIO26*%
%TO.N,unconnected-(J2-GPIO26-Pad37)*%
X77540000Y-157100000D03*
%TO.P,J2,38,GPIO20*%
%TO.N,unconnected-(J2-GPIO20-Pad38)*%
X75000000Y-157100000D03*
%TO.P,J2,39,GND*%
%TO.N,GND*%
X77540000Y-159640000D03*
%TO.P,J2,40,GPIO21*%
%TO.N,unconnected-(J2-GPIO21-Pad40)*%
X75000000Y-159640000D03*
%TD*%
D14*
%TO.P,J4,1,Pin_1*%
%TO.N,Net-(J4-Pin_1)*%
X143000000Y-152000000D03*
D15*
%TO.P,J4,2,Pin_2*%
%TO.N,Net-(J4-Pin_2)*%
X140500000Y-152000000D03*
%TO.P,J4,3,Pin_3*%
%TO.N,Net-(J4-Pin_3)*%
X138000000Y-152000000D03*
%TO.P,J4,4,Pin_4*%
%TO.N,Net-(J4-Pin_4)*%
X135500000Y-152000000D03*
%TD*%
D28*
%TO.P,Q1,1,G*%
%TO.N,Net-(Q1-G)*%
X161460000Y-118945000D03*
D29*
%TO.P,Q1,2,D*%
%TO.N,+5V*%
X164000000Y-118945000D03*
%TO.P,Q1,3,S*%
%TO.N,Net-(Q1-S)*%
X166540000Y-118945000D03*
%TD*%
D26*
%TO.P,J16,1,Pin_1*%
%TO.N,+5V*%
X151500000Y-153500000D03*
D12*
%TO.P,J16,2,Pin_2*%
%TO.N,Net-(J16-Pin_2)*%
X151500000Y-151000000D03*
%TD*%
D30*
%TO.N,GND*%
X168615256Y-122700000D02*
X180000000Y-122700000D01*
X180000000Y-122700000D02*
X185900000Y-122700000D01*
X179000000Y-121700000D02*
X180000000Y-122700000D01*
X175900000Y-121700000D02*
X179000000Y-121700000D01*
X163600000Y-135500000D02*
X163600000Y-127715256D01*
X163600000Y-127715256D02*
X168615256Y-122700000D01*
D31*
%TO.N,+24V*%
X82200000Y-91950000D02*
X81000000Y-90750000D01*
X112200000Y-148550000D02*
X114177057Y-148550000D01*
X114177057Y-148550000D02*
X114880000Y-149252943D01*
X114880000Y-149252943D02*
X114880000Y-150247057D01*
X104800000Y-91950000D02*
X82200000Y-91950000D01*
X121632943Y-157000000D02*
X157820862Y-157000000D01*
X106000000Y-90750000D02*
X104800000Y-91950000D01*
X111000000Y-149750000D02*
X112200000Y-148550000D01*
X114880000Y-150247057D02*
X121632943Y-157000000D01*
X185900000Y-128920862D02*
X185900000Y-125200000D01*
X157820862Y-157000000D02*
X185900000Y-128920862D01*
D30*
%TO.N,GND*%
X78690000Y-144876346D02*
X78016346Y-145550000D01*
X75476346Y-155950000D02*
X76150000Y-156623654D01*
X73850000Y-133090000D02*
X75000000Y-134240000D01*
X76390000Y-140710000D02*
X77540000Y-141860000D01*
X73850000Y-123603654D02*
X74523654Y-122930000D01*
X75000000Y-126620000D02*
X73850000Y-125470000D01*
X77063654Y-145550000D02*
X76150000Y-146463654D01*
X76150000Y-146463654D02*
X76150000Y-150870000D01*
D31*
X185900000Y-122700000D02*
X185900000Y-120900000D01*
D30*
X73850000Y-125470000D02*
X73850000Y-123603654D01*
X74763654Y-155950000D02*
X75476346Y-155950000D01*
X78690000Y-143010000D02*
X78690000Y-144876346D01*
X73850000Y-139850000D02*
X74710000Y-140710000D01*
X76150000Y-122930000D02*
X77540000Y-121540000D01*
D31*
X185900000Y-120900000D02*
X177000000Y-112000000D01*
D30*
X73850000Y-135390000D02*
X73850000Y-139850000D01*
X77540000Y-141860000D02*
X78690000Y-143010000D01*
D31*
X118500000Y-158500000D02*
X113540000Y-153540000D01*
D30*
X76150000Y-156623654D02*
X76150000Y-158250000D01*
X76150000Y-158250000D02*
X77540000Y-159640000D01*
X75000000Y-152020000D02*
X73850000Y-153170000D01*
D31*
X175400000Y-142320000D02*
X159220000Y-158500000D01*
D30*
X78016346Y-145550000D02*
X77063654Y-145550000D01*
D31*
X113540000Y-153540000D02*
X113540000Y-149750000D01*
D30*
X75000000Y-126620000D02*
X73850000Y-127770000D01*
X74710000Y-140710000D02*
X76390000Y-140710000D01*
X75000000Y-134240000D02*
X73850000Y-135390000D01*
X73850000Y-153170000D02*
X73850000Y-155036346D01*
D31*
X177000000Y-93970000D02*
X173780000Y-90750000D01*
D30*
X74523654Y-122930000D02*
X76150000Y-122930000D01*
X73850000Y-127770000D02*
X73850000Y-133090000D01*
X73850000Y-155036346D02*
X74763654Y-155950000D01*
D31*
X177000000Y-112000000D02*
X177000000Y-93970000D01*
X159220000Y-158500000D02*
X118500000Y-158500000D01*
D30*
X76150000Y-150870000D02*
X75000000Y-152020000D01*
%TO.N,+5V*%
X161900000Y-143100000D02*
X161900000Y-139200000D01*
X158200000Y-135500000D02*
X161900000Y-139200000D01*
X75000000Y-111380000D02*
X75000000Y-59485075D01*
X81185075Y-53300000D02*
X92470000Y-53300000D01*
X165300000Y-117645000D02*
X164000000Y-118945000D01*
X75000000Y-59485075D02*
X81185075Y-53300000D01*
X151500000Y-153500000D02*
X161900000Y-143100000D01*
X151500000Y-135500000D02*
X158200000Y-135500000D01*
X160650000Y-127200000D02*
X161900000Y-128450000D01*
X169650000Y-118200000D02*
X175900000Y-118200000D01*
X161900000Y-128450000D02*
X161900000Y-139200000D01*
X175900000Y-118200000D02*
X175345000Y-117645000D01*
X160650000Y-127200000D02*
X169650000Y-118200000D01*
X92470000Y-53300000D02*
X93920000Y-54750000D01*
X175345000Y-117645000D02*
X165300000Y-117645000D01*
%TO.N,Net-(D1-K)*%
X169270000Y-127080000D02*
X169150000Y-127200000D01*
X165700000Y-139200000D02*
X165300000Y-139200000D01*
X175400000Y-127080000D02*
X169270000Y-127080000D01*
X169150000Y-135750000D02*
X165700000Y-139200000D01*
X169150000Y-127200000D02*
X169150000Y-135750000D01*
%TO.N,Net-(J14-Pin_4)*%
X161300000Y-74700000D02*
X161000000Y-75000000D01*
X161300000Y-67250000D02*
X161300000Y-74700000D01*
%TO.N,Net-(J10-Pin_4)*%
X168700000Y-90750000D02*
X168700000Y-83200000D01*
X168700000Y-83200000D02*
X168500000Y-83000000D01*
%TO.N,Net-(J13-Pin_4)*%
X136300000Y-74700000D02*
X136000000Y-75000000D01*
X136300000Y-67250000D02*
X136300000Y-74700000D01*
%TO.N,Net-(J3-Pin_4)*%
X125950000Y-134000000D02*
X123700000Y-131750000D01*
X135500000Y-134000000D02*
X125950000Y-134000000D01*
%TO.N,Net-(J4-Pin_4)*%
X135500000Y-152000000D02*
X125950000Y-152000000D01*
X125950000Y-152000000D02*
X123700000Y-149750000D01*
%TO.N,Net-(J5-Pin_4)*%
X125950000Y-116000000D02*
X123700000Y-113750000D01*
X135500000Y-116000000D02*
X125950000Y-116000000D01*
%TO.N,Net-(J6-Pin_4)*%
X86300000Y-67250000D02*
X86300000Y-74700000D01*
X86300000Y-74700000D02*
X86000000Y-75000000D01*
%TO.N,Net-(J7-Pin_4)*%
X93500000Y-83000000D02*
X93500000Y-90550000D01*
X93500000Y-90550000D02*
X93700000Y-90750000D01*
%TO.N,Net-(J8-Pin_4)*%
X118500000Y-83000000D02*
X118500000Y-90550000D01*
X118500000Y-90550000D02*
X118700000Y-90750000D01*
%TO.N,Net-(J9-Pin_4)*%
X143500000Y-90550000D02*
X143700000Y-90750000D01*
X143500000Y-83000000D02*
X143500000Y-90550000D01*
%TO.N,Net-(J3-Pin_3)*%
X129775000Y-135275000D02*
X129500000Y-135000000D01*
X138000000Y-134000000D02*
X136725000Y-135275000D01*
X129500000Y-135000000D02*
X124410000Y-135000000D01*
X136725000Y-135275000D02*
X129775000Y-135275000D01*
X124410000Y-135000000D02*
X121160000Y-131750000D01*
%TO.N,Net-(J3-Pin_2)*%
X138000000Y-136500000D02*
X123370000Y-136500000D01*
X123370000Y-136500000D02*
X118620000Y-131750000D01*
X140500000Y-134000000D02*
X138000000Y-136500000D01*
%TO.N,Net-(J3-Pin_1)*%
X139500000Y-137500000D02*
X121830000Y-137500000D01*
X143000000Y-134000000D02*
X139500000Y-137500000D01*
X121830000Y-137500000D02*
X116080000Y-131750000D01*
%TO.N,Net-(J4-Pin_3)*%
X136725000Y-153275000D02*
X138000000Y-152000000D01*
X124685000Y-153275000D02*
X136725000Y-153275000D01*
X121160000Y-149750000D02*
X124685000Y-153275000D01*
%TO.N,Net-(J4-Pin_1)*%
X120405000Y-154075000D02*
X116080000Y-149750000D01*
X143000000Y-152000000D02*
X140925000Y-154075000D01*
X140925000Y-154075000D02*
X120405000Y-154075000D01*
%TO.N,Net-(J4-Pin_2)*%
X122545000Y-153675000D02*
X118620000Y-149750000D01*
X140500000Y-152000000D02*
X138825000Y-153675000D01*
X138825000Y-153675000D02*
X122545000Y-153675000D01*
%TO.N,Net-(J5-Pin_2)*%
X140500000Y-116000000D02*
X137500000Y-119000000D01*
X123870000Y-119000000D02*
X118620000Y-113750000D01*
X137500000Y-119000000D02*
X123870000Y-119000000D01*
%TO.N,Net-(J5-Pin_1)*%
X139000000Y-120000000D02*
X122330000Y-120000000D01*
X143000000Y-116000000D02*
X139000000Y-120000000D01*
X122330000Y-120000000D02*
X116080000Y-113750000D01*
%TO.N,Net-(J5-Pin_3)*%
X136500000Y-117500000D02*
X138000000Y-116000000D01*
X124910000Y-117500000D02*
X136500000Y-117500000D01*
X121160000Y-113750000D02*
X124910000Y-117500000D01*
%TO.N,Net-(J6-Pin_3)*%
X88500000Y-67590000D02*
X88840000Y-67250000D01*
X88500000Y-75000000D02*
X88500000Y-67590000D01*
%TO.N,Net-(J6-Pin_2)*%
X91380000Y-67250000D02*
X91380000Y-74620000D01*
X91380000Y-74620000D02*
X91000000Y-75000000D01*
%TO.N,Net-(J6-Pin_1)*%
X93500000Y-67670000D02*
X93920000Y-67250000D01*
X93500000Y-75000000D02*
X93500000Y-67670000D01*
%TO.N,Net-(J7-Pin_1)*%
X86000000Y-90670000D02*
X86080000Y-90750000D01*
X86000000Y-83000000D02*
X86000000Y-90670000D01*
%TO.N,Net-(J7-Pin_3)*%
X91160000Y-83660000D02*
X91160000Y-90750000D01*
X91000000Y-83500000D02*
X91160000Y-83660000D01*
X91000000Y-83000000D02*
X91000000Y-83500000D01*
%TO.N,Net-(J7-Pin_2)*%
X88620000Y-90750000D02*
X88620000Y-83120000D01*
X88620000Y-83120000D02*
X88500000Y-83000000D01*
%TO.N,Net-(J8-Pin_1)*%
X111000000Y-83000000D02*
X111000000Y-90670000D01*
X111000000Y-90670000D02*
X111080000Y-90750000D01*
%TO.N,Net-(J8-Pin_2)*%
X113620000Y-83120000D02*
X113500000Y-83000000D01*
X113620000Y-90750000D02*
X113620000Y-83120000D01*
%TO.N,Net-(J8-Pin_3)*%
X116000000Y-83000000D02*
X116000000Y-90590000D01*
X116000000Y-90590000D02*
X116160000Y-90750000D01*
%TO.N,Net-(J9-Pin_3)*%
X141160000Y-83160000D02*
X141000000Y-83000000D01*
X141160000Y-90750000D02*
X141160000Y-83160000D01*
%TO.N,Net-(J9-Pin_2)*%
X138500000Y-90630000D02*
X138620000Y-90750000D01*
X138500000Y-83000000D02*
X138500000Y-90630000D01*
%TO.N,Net-(J9-Pin_1)*%
X136080000Y-90750000D02*
X136080000Y-83080000D01*
X136080000Y-83080000D02*
X136000000Y-83000000D01*
%TO.N,Net-(J10-Pin_3)*%
X166000000Y-90590000D02*
X166160000Y-90750000D01*
X166000000Y-83000000D02*
X166000000Y-90590000D01*
%TO.N,Net-(J10-Pin_2)*%
X163620000Y-83120000D02*
X163500000Y-83000000D01*
X163620000Y-90750000D02*
X163620000Y-83120000D01*
%TO.N,Net-(J10-Pin_1)*%
X161000000Y-83000000D02*
X161000000Y-90670000D01*
X161000000Y-90670000D02*
X161080000Y-90750000D01*
%TO.N,Net-(J13-Pin_3)*%
X138840000Y-74660000D02*
X138500000Y-75000000D01*
X138840000Y-67250000D02*
X138840000Y-74660000D01*
%TO.N,Net-(J13-Pin_1)*%
X143920000Y-67250000D02*
X143920000Y-74580000D01*
X143920000Y-74580000D02*
X143500000Y-75000000D01*
%TO.N,Net-(J13-Pin_2)*%
X141000000Y-67630000D02*
X141380000Y-67250000D01*
X141000000Y-75000000D02*
X141000000Y-67630000D01*
%TO.N,Net-(J14-Pin_3)*%
X163500000Y-74500000D02*
X163840000Y-74160000D01*
X163840000Y-74160000D02*
X163840000Y-67250000D01*
X163500000Y-75000000D02*
X163500000Y-74500000D01*
%TO.N,Net-(J14-Pin_1)*%
X168500000Y-67670000D02*
X168920000Y-67250000D01*
X168500000Y-75000000D02*
X168500000Y-67670000D01*
%TO.N,Net-(J14-Pin_2)*%
X166380000Y-74620000D02*
X166000000Y-75000000D01*
X166380000Y-67250000D02*
X166380000Y-74620000D01*
%TO.N,Net-(J15-Pin_1)*%
X118500000Y-67670000D02*
X118920000Y-67250000D01*
X118500000Y-75000000D02*
X118500000Y-67670000D01*
%TO.N,Net-(J15-Pin_4)*%
X111300000Y-74700000D02*
X111000000Y-75000000D01*
X111300000Y-67250000D02*
X111300000Y-74700000D01*
%TO.N,Net-(J15-Pin_2)*%
X116380000Y-74620000D02*
X116000000Y-75000000D01*
X116380000Y-67250000D02*
X116380000Y-74620000D01*
%TO.N,Net-(J15-Pin_3)*%
X113500000Y-75000000D02*
X113500000Y-67590000D01*
X113500000Y-67590000D02*
X113840000Y-67250000D01*
%TO.N,Net-(Q1-S)*%
X166540000Y-118945000D02*
X164985000Y-120500000D01*
X164985000Y-120500000D02*
X152000000Y-120500000D01*
X144500000Y-138500000D02*
X119290000Y-138500000D01*
X116080000Y-144250000D02*
X113540000Y-144250000D01*
X113540000Y-162250000D02*
X111000000Y-162250000D01*
X147000000Y-136000000D02*
X144500000Y-138500000D01*
X152000000Y-120500000D02*
X147000000Y-125500000D01*
X147000000Y-125500000D02*
X147000000Y-135500000D01*
X111000000Y-126250000D02*
X113540000Y-126250000D01*
X116080000Y-126250000D02*
X113540000Y-126250000D01*
X147000000Y-135500000D02*
X147000000Y-136000000D01*
X119290000Y-138500000D02*
X113540000Y-144250000D01*
X113540000Y-162250000D02*
X116080000Y-162250000D01*
X111000000Y-144250000D02*
X113540000Y-144250000D01*
%TO.N,Net-(U2-GPIO19)*%
X81717256Y-163600000D02*
X79950000Y-161832744D01*
X82580000Y-121920000D02*
X84500000Y-121920000D01*
X107100000Y-161562744D02*
X105062744Y-163600000D01*
X79950000Y-124550000D02*
X82580000Y-121920000D01*
X127030000Y-146000000D02*
X108565686Y-146000000D01*
X108565686Y-146000000D02*
X107100000Y-147465686D01*
X107100000Y-147465686D02*
X107100000Y-161562744D01*
X79950000Y-161832744D02*
X79950000Y-124550000D01*
X128780000Y-144250000D02*
X127030000Y-146000000D01*
X105062744Y-163600000D02*
X81717256Y-163600000D01*
%TO.N,Net-(U2-GPIO20)*%
X124990000Y-145500000D02*
X108500000Y-145500000D01*
X104897058Y-163200000D02*
X81882942Y-163200000D01*
X106700000Y-161397058D02*
X104897058Y-163200000D01*
X126240000Y-144250000D02*
X124990000Y-145500000D01*
X80350000Y-127050000D02*
X82940000Y-124460000D01*
X80350000Y-161667058D02*
X80350000Y-127050000D01*
X82940000Y-124460000D02*
X84500000Y-124460000D01*
X108500000Y-145500000D02*
X106700000Y-147300000D01*
X106700000Y-147300000D02*
X106700000Y-161397058D01*
X81882942Y-163200000D02*
X80350000Y-161667058D01*
%TO.N,Net-(U2-GPIO17)*%
X82940000Y-114300000D02*
X84500000Y-114300000D01*
X111100000Y-164400000D02*
X81385884Y-164400000D01*
X127030000Y-164000000D02*
X111500000Y-164000000D01*
X79150000Y-118090000D02*
X82940000Y-114300000D01*
X79150000Y-162164116D02*
X79150000Y-118090000D01*
X81385884Y-164400000D02*
X79150000Y-162164116D01*
X128780000Y-162250000D02*
X127030000Y-164000000D01*
X111500000Y-164000000D02*
X111100000Y-164400000D01*
%TO.N,Net-(U2-GPIO18)*%
X79550000Y-122770000D02*
X82940000Y-119380000D01*
X82940000Y-119380000D02*
X84500000Y-119380000D01*
X126240000Y-162250000D02*
X125190000Y-163300000D01*
X108300000Y-163300000D02*
X107600000Y-164000000D01*
X107600000Y-164000000D02*
X81551570Y-164000000D01*
X79550000Y-161998430D02*
X79550000Y-122770000D01*
X125190000Y-163300000D02*
X108300000Y-163300000D01*
X81551570Y-164000000D02*
X79550000Y-161998430D01*
%TO.N,Net-(U2-GPIO21)*%
X108065686Y-128500000D02*
X106300000Y-130265686D01*
X82048628Y-162800000D02*
X80750000Y-161501372D01*
X106300000Y-130265686D02*
X106300000Y-161231372D01*
X80750000Y-161501372D02*
X80750000Y-129190000D01*
X126530000Y-128500000D02*
X108065686Y-128500000D01*
X80750000Y-129190000D02*
X82940000Y-127000000D01*
X82940000Y-127000000D02*
X84500000Y-127000000D01*
X104731372Y-162800000D02*
X82048628Y-162800000D01*
X106300000Y-161231372D02*
X104731372Y-162800000D01*
X128780000Y-126250000D02*
X126530000Y-128500000D01*
%TO.N,Net-(U2-GPIO22)*%
X105900000Y-161065686D02*
X104565686Y-162400000D01*
X81150000Y-161335686D02*
X81150000Y-133870000D01*
X82214314Y-162400000D02*
X81150000Y-161335686D01*
X108000000Y-128000000D02*
X105900000Y-130100000D01*
X105900000Y-130100000D02*
X105900000Y-161065686D01*
X81150000Y-133870000D02*
X82940000Y-132080000D01*
X104565686Y-162400000D02*
X82214314Y-162400000D01*
X82940000Y-132080000D02*
X84500000Y-132080000D01*
X124490000Y-128000000D02*
X108000000Y-128000000D01*
X126240000Y-126250000D02*
X124490000Y-128000000D01*
%TO.N,Net-(U2-GPIO26_ADC0)*%
X84810000Y-54315075D02*
X84810000Y-58780959D01*
X79971570Y-107800000D02*
X85668628Y-107800000D01*
X86000000Y-135660000D02*
X84500000Y-137160000D01*
X85668628Y-107800000D02*
X86000000Y-108131372D01*
X82270000Y-53700000D02*
X84194925Y-53700000D01*
X83325075Y-53700000D02*
X77150000Y-59875075D01*
X84194925Y-53700000D02*
X84810000Y-54315075D01*
X84194925Y-53700000D02*
X83325075Y-53700000D01*
X77150000Y-104978430D02*
X79971570Y-107800000D01*
X86000000Y-108131372D02*
X86000000Y-135660000D01*
X84810000Y-58780959D02*
X77950000Y-65640959D01*
X77150000Y-59875075D02*
X77150000Y-104978430D01*
X81220000Y-54750000D02*
X82270000Y-53700000D01*
%TO.N,Net-(U2-GPIO27_ADC1)*%
X83760000Y-54750000D02*
X77550000Y-60960000D01*
X80137256Y-107400000D02*
X85834314Y-107400000D01*
X77550000Y-104812744D02*
X80137256Y-107400000D01*
X86400000Y-107965686D02*
X86400000Y-137800000D01*
X77550000Y-60960000D02*
X77550000Y-104812744D01*
X86400000Y-137800000D02*
X84500000Y-139700000D01*
X85834314Y-107400000D02*
X86400000Y-107965686D01*
%TO.N,Net-(U2-GPIO9)*%
X98780000Y-103250000D02*
X97730000Y-102200000D01*
X97730000Y-102200000D02*
X95805075Y-102200000D01*
X95805075Y-102200000D02*
X95190000Y-102815075D01*
X97500000Y-108000000D02*
X97500000Y-127060000D01*
X95190000Y-102815075D02*
X95190000Y-105690000D01*
X102280000Y-131840000D02*
X102280000Y-132080000D01*
X97500000Y-127060000D02*
X102280000Y-131840000D01*
X95190000Y-105690000D02*
X97500000Y-108000000D01*
%TO.N,Net-(U2-GPIO11)*%
X99700000Y-121880000D02*
X102280000Y-124460000D01*
X121530000Y-101000000D02*
X105500000Y-101000000D01*
X105500000Y-101000000D02*
X99700000Y-106800000D01*
X123780000Y-103250000D02*
X121530000Y-101000000D01*
X99700000Y-106800000D02*
X99700000Y-121880000D01*
%TO.N,Net-(U2-GPIO10)*%
X99300000Y-106310000D02*
X99300000Y-124020000D01*
X96240000Y-103250000D02*
X99300000Y-106310000D01*
X99300000Y-124020000D02*
X102280000Y-127000000D01*
%TO.N,Net-(U2-GPIO13)*%
X100500000Y-117600000D02*
X102280000Y-119380000D01*
X148780000Y-100780000D02*
X147000000Y-99000000D01*
X132500000Y-99000000D02*
X122800000Y-108700000D01*
X122800000Y-108700000D02*
X102474314Y-108700000D01*
X100500000Y-110674314D02*
X100500000Y-117600000D01*
X102474314Y-108700000D02*
X100500000Y-110674314D01*
X148780000Y-103250000D02*
X148780000Y-100780000D01*
X147000000Y-99000000D02*
X132500000Y-99000000D01*
%TO.N,Net-(U2-GPIO12)*%
X102308628Y-108300000D02*
X100100000Y-110508628D01*
X121240000Y-103250000D02*
X116190000Y-108300000D01*
X100100000Y-110508628D02*
X100100000Y-119740000D01*
X116190000Y-108300000D02*
X102308628Y-108300000D01*
X100100000Y-119740000D02*
X102280000Y-121920000D01*
%TO.N,Net-(U2-GPIO14)*%
X101130000Y-113150000D02*
X102280000Y-114300000D01*
X146240000Y-103250000D02*
X140390000Y-109100000D01*
X140390000Y-109100000D02*
X102640000Y-109100000D01*
X101130000Y-110610000D02*
X101130000Y-113150000D01*
X102640000Y-109100000D02*
X101130000Y-110610000D01*
%TO.N,Net-(U2-GPIO15)*%
X104540000Y-109500000D02*
X102280000Y-111760000D01*
X173780000Y-103250000D02*
X167530000Y-109500000D01*
X167530000Y-109500000D02*
X104540000Y-109500000D01*
%TO.N,Net-(U2-GPIO4)*%
X87200000Y-107462744D02*
X87200000Y-126200000D01*
X96000000Y-135000000D02*
X96000000Y-141040000D01*
X96000000Y-141040000D02*
X102280000Y-147320000D01*
X108000000Y-63000000D02*
X106800000Y-64200000D01*
X80468628Y-106600000D02*
X86337256Y-106600000D01*
X78350000Y-104481372D02*
X80468628Y-106600000D01*
X78350000Y-66372331D02*
X78350000Y-104481372D01*
X108760000Y-54750000D02*
X108000000Y-55510000D01*
X80522331Y-64200000D02*
X78350000Y-66372331D01*
X87200000Y-126200000D02*
X96000000Y-135000000D01*
X106800000Y-64200000D02*
X80522331Y-64200000D01*
X86337256Y-106600000D02*
X87200000Y-107462744D01*
X108000000Y-55510000D02*
X108000000Y-63000000D01*
%TO.N,Net-(U2-GPIO3)*%
X80302942Y-107000000D02*
X86000000Y-107000000D01*
X97170000Y-63800000D02*
X80356645Y-63800000D01*
X86000000Y-107000000D02*
X86800000Y-107800000D01*
X77950000Y-104647058D02*
X80302942Y-107000000D01*
X95000000Y-134565686D02*
X95000000Y-142580000D01*
X86800000Y-107800000D02*
X86800000Y-126365686D01*
X106220000Y-54750000D02*
X97170000Y-63800000D01*
X77950000Y-66206645D02*
X77950000Y-104647058D01*
X95000000Y-142580000D02*
X102280000Y-149860000D01*
X86800000Y-126365686D02*
X95000000Y-134565686D01*
X80356645Y-63800000D02*
X77950000Y-66206645D01*
%TO.N,Net-(U2-GPIO5)*%
X80688017Y-64600000D02*
X122900000Y-64600000D01*
X97757157Y-135742843D02*
X87600000Y-125585686D01*
X78750000Y-104315686D02*
X78750000Y-66538017D01*
X86502942Y-106200000D02*
X80634314Y-106200000D01*
X87600000Y-125585686D02*
X87600000Y-107297058D01*
X87600000Y-107297058D02*
X86502942Y-106200000D01*
X102280000Y-144780000D02*
X97757157Y-140257157D01*
X97757157Y-140257157D02*
X97757157Y-135742843D01*
X122900000Y-64600000D02*
X131220000Y-56280000D01*
X80634314Y-106200000D02*
X78750000Y-104315686D01*
X131220000Y-56280000D02*
X131220000Y-54750000D01*
X78750000Y-66538017D02*
X80688017Y-64600000D01*
%TO.N,Net-(U2-GPIO6)*%
X80800000Y-105800000D02*
X86668628Y-105800000D01*
X133760000Y-54750000D02*
X123510000Y-65000000D01*
X88000000Y-125420000D02*
X102280000Y-139700000D01*
X79150000Y-66703703D02*
X79150000Y-104150000D01*
X80853703Y-65000000D02*
X79150000Y-66703703D01*
X88000000Y-107131372D02*
X88000000Y-125420000D01*
X79150000Y-104150000D02*
X80800000Y-105800000D01*
X86668628Y-105800000D02*
X88000000Y-107131372D01*
X123510000Y-65000000D02*
X80853703Y-65000000D01*
%TO.N,Net-(U2-GPIO8)*%
X79950000Y-103684925D02*
X81265075Y-105000000D01*
X158760000Y-54750000D02*
X147510000Y-66000000D01*
X89000000Y-121340000D02*
X102280000Y-134620000D01*
X89000000Y-107000000D02*
X89000000Y-121340000D01*
X79950000Y-67035075D02*
X79950000Y-103684925D01*
X87000000Y-105000000D02*
X89000000Y-107000000D01*
X80985075Y-66000000D02*
X79950000Y-67035075D01*
X147510000Y-66000000D02*
X80985075Y-66000000D01*
X81265075Y-105000000D02*
X87000000Y-105000000D01*
%TO.N,Net-(U2-GPIO7)*%
X88500000Y-123140000D02*
X88500000Y-107065686D01*
X86834314Y-105400000D02*
X81099389Y-105400000D01*
X80919389Y-65500000D02*
X146500000Y-65500000D01*
X79550000Y-66869389D02*
X80919389Y-65500000D01*
X79550000Y-103850611D02*
X79550000Y-66869389D01*
X81099389Y-105400000D02*
X79550000Y-103850611D01*
X146500000Y-65500000D02*
X156220000Y-55780000D01*
X102280000Y-136920000D02*
X88500000Y-123140000D01*
X88500000Y-107065686D02*
X86834314Y-105400000D01*
X102280000Y-137160000D02*
X102280000Y-136920000D01*
X156220000Y-55780000D02*
X156220000Y-54750000D01*
%TO.N,Net-(U2-GPIO28_ADC2)*%
X81550000Y-161170000D02*
X81550000Y-146170000D01*
X174700000Y-102200000D02*
X174830000Y-102330000D01*
X105500000Y-160900000D02*
X104400000Y-162000000D01*
X109600000Y-109900000D02*
X105500000Y-114000000D01*
X104400000Y-162000000D02*
X82380000Y-162000000D01*
X168000000Y-110000000D02*
X158500000Y-110000000D01*
X82380000Y-162000000D02*
X81550000Y-161170000D01*
X81550000Y-146170000D02*
X82940000Y-144780000D01*
X158500000Y-110000000D02*
X158400000Y-109900000D01*
X172290000Y-102200000D02*
X174700000Y-102200000D01*
X171000000Y-107000000D02*
X168000000Y-110000000D01*
X105500000Y-114000000D02*
X105500000Y-160900000D01*
X172000000Y-107000000D02*
X171000000Y-107000000D01*
X171240000Y-103250000D02*
X172290000Y-102200000D01*
X174830000Y-104170000D02*
X172000000Y-107000000D01*
X158400000Y-109900000D02*
X109600000Y-109900000D01*
X174830000Y-102330000D02*
X174830000Y-104170000D01*
X82940000Y-144780000D02*
X84500000Y-144780000D01*
%TD*%
M02*
