M48
; DRILL file {KiCad 8.0.8-8.0.8-0~ubuntu24.04.1} date 2025-05-21T16:36:32-0500
; FORMAT={-:-/ absolute / inch / decimal}
; #@! TF.CreationDate,2025-05-21T16:36:32-05:00
; #@! TF.GenerationSoftware,Kicad,Pcbnew,8.0.8-8.0.8-0~ubuntu24.04.1
; #@! TF.FileFunction,Plated,1,2,PTH
FMAT,2
INCH
; #@! TA.AperFunction,Plated,PTH,ComponentDrill
T1C0.0315
; #@! TA.AperFunction,Plated,PTH,ComponentDrill
T2C0.0374
; #@! TA.AperFunction,Plated,PTH,ComponentDrill
T3C0.0394
; #@! TA.AperFunction,Plated,PTH,ComponentDrill
T4C0.0402
; #@! TA.AperFunction,Plated,PTH,ComponentDrill
T5C0.0433
; #@! TA.AperFunction,Plated,PTH,ComponentDrill
T6C0.0630
%
G90
G05
T1
X6.6929Y-2.9035
X6.6929Y-3.1004
X7.8425Y-2.935
X7.9803Y-2.935
T2
X3.5433Y-3.5236
X3.5433Y-3.622
X3.5433Y-3.7205
X3.5433Y-3.8189
X3.5433Y-3.9173
X3.5433Y-4.8622
X3.5433Y-4.9606
X3.5433Y-5.0591
X3.5433Y-5.1575
X3.5433Y-5.2559
X4.1339Y-3.5236
X4.1339Y-3.622
X4.1339Y-3.7205
X4.1339Y-3.8189
X4.1339Y-3.9173
X4.1339Y-4.8622
X4.1339Y-4.9606
X4.1339Y-5.0591
X4.1339Y-5.1575
X4.1339Y-5.2559
X4.7244Y-3.5236
X4.7244Y-3.622
X4.7244Y-3.7205
X4.7244Y-3.8189
X4.7244Y-3.9173
X4.7244Y-4.8622
X4.7244Y-4.9606
X4.7244Y-5.0591
X4.7244Y-5.1575
X4.7244Y-5.2559
X5.315Y-3.5236
X5.315Y-3.622
X5.315Y-3.7205
X5.315Y-3.8189
X5.315Y-3.9173
X5.315Y-4.8622
X5.315Y-4.9606
X5.315Y-5.0591
X5.315Y-5.1575
X5.315Y-5.2559
X5.9055Y-3.5236
X5.9055Y-3.622
X5.9055Y-3.7205
X5.9055Y-3.8189
X5.9055Y-3.9173
X5.9055Y-4.8425
X5.9055Y-4.9409
X5.9055Y-5.0394
X5.9055Y-5.1378
X5.9055Y-5.2362
X6.4961Y-3.5236
X6.4961Y-3.622
X6.4961Y-3.7205
X6.4961Y-3.8189
X6.4961Y-3.9173
X6.4961Y-4.8425
X6.4961Y-4.9409
X6.4961Y-5.0394
X6.4961Y-5.1378
X6.4961Y-5.2362
T3
X6.6732Y-2.5295
X6.6732Y-2.628
X8.3843Y-3.5921
X8.3843Y-3.6921
X8.3843Y-3.7921
X8.3843Y-3.8921
X8.3843Y-3.9921
X8.3843Y-4.0921
X8.3843Y-4.1921
X8.3843Y-4.2921
X8.3843Y-4.3921
X8.3843Y-4.4921
X8.3843Y-4.5921
X8.3843Y-4.6921
X8.3843Y-4.7921
X8.3843Y-4.8921
X8.3843Y-4.9921
X8.3843Y-5.0921
X8.3843Y-5.1921
X8.3843Y-5.2921
X8.3843Y-5.3921
X8.3843Y-5.4921
X8.4843Y-3.5921
X8.4843Y-3.6921
X8.4843Y-3.7921
X8.4843Y-3.8921
X8.4843Y-3.9921
X8.4843Y-4.0921
X8.4843Y-4.1921
X8.4843Y-4.2921
X8.4843Y-4.3921
X8.4843Y-4.4921
X8.4843Y-4.5921
X8.4843Y-4.6921
X8.4843Y-4.7921
X8.4843Y-4.8921
X8.4843Y-4.9921
X8.4843Y-5.0921
X8.4843Y-5.1921
X8.4843Y-5.2921
X8.4843Y-5.3921
X8.4843Y-5.4921
T4
X7.0319Y-3.4988
X7.0319Y-3.5988
X7.0319Y-3.6988
X7.0319Y-3.7988
X7.0319Y-3.8988
X7.0319Y-3.9988
X7.0319Y-4.0988
X7.0319Y-4.1988
X7.0319Y-4.2988
X7.0319Y-4.3988
X7.0319Y-4.4988
X7.0319Y-4.5988
X7.0319Y-4.6988
X7.0319Y-4.7988
X7.0319Y-4.8988
X7.0319Y-4.9988
X7.0319Y-5.0988
X7.0319Y-5.1988
X7.0319Y-5.2988
X7.0319Y-5.3988
X7.2819Y-5.3898
X7.3819Y-5.3898
X7.4819Y-5.3898
X7.7319Y-3.4988
X7.7319Y-3.5988
X7.7319Y-3.6988
X7.7319Y-3.7988
X7.7319Y-3.8988
X7.7319Y-3.9988
X7.7319Y-4.0988
X7.7319Y-4.1988
X7.7319Y-4.2988
X7.7319Y-4.3988
X7.7319Y-4.4988
X7.7319Y-4.5988
X7.7319Y-4.6988
X7.7319Y-4.7988
X7.7319Y-4.8988
X7.7319Y-4.9988
X7.7319Y-5.0988
X7.7319Y-5.1988
X7.7319Y-5.2988
X7.7319Y-5.3988
T5
X6.878Y-2.6594
X6.9449Y-2.5138
X7.0118Y-2.6594
X7.0787Y-2.5138
X7.1457Y-2.6594
T6
X7.0063Y-2.935
X7.6063Y-2.935
M30
