%TF.GenerationSoftware,KiCad,Pcbnew,8.0.8-8.0.8-0~ubuntu24.04.1*%
%TF.CreationDate,2025-06-26T13:06:31-05:00*%
%TF.ProjectId,wasabi,77617361-6269-42e6-9b69-6361645f7063,rev?*%
%TF.SameCoordinates,Original*%
%TF.FileFunction,Soldermask,Bot*%
%TF.FilePolarity,Negative*%
%FSLAX46Y46*%
G04 Gerber Fmt 4.6, Leading zero omitted, Abs format (unit mm)*
G04 Created by KiCad (PCBNEW 8.0.8-8.0.8-0~ubuntu24.04.1) date 2025-06-26 13:06:31*
%MOMM*%
%LPD*%
G01*
G04 APERTURE LIST*
G04 Aperture macros list*
%AMRoundRect*
0 Rectangle with rounded corners*
0 $1 Rounding radius*
0 $2 $3 $4 $5 $6 $7 $8 $9 X,Y pos of 4 corners*
0 Add a 4 corners polygon primitive as box body*
4,1,4,$2,$3,$4,$5,$6,$7,$8,$9,$2,$3,0*
0 Add four circle primitives for the rounded corners*
1,1,$1+$1,$2,$3*
1,1,$1+$1,$4,$5*
1,1,$1+$1,$6,$7*
1,1,$1+$1,$8,$9*
0 Add four rect primitives between the rounded corners*
20,1,$1+$1,$2,$3,$4,$5,0*
20,1,$1+$1,$4,$5,$6,$7,0*
20,1,$1+$1,$6,$7,$8,$9,0*
20,1,$1+$1,$8,$9,$2,$3,0*%
G04 Aperture macros list end*
%ADD10C,1.500000*%
%ADD11RoundRect,0.250000X-0.750000X0.600000X-0.750000X-0.600000X0.750000X-0.600000X0.750000X0.600000X0*%
%ADD12O,2.000000X1.700000*%
%ADD13C,1.600000*%
%ADD14C,1.200000*%
%ADD15RoundRect,0.250000X0.600000X0.725000X-0.600000X0.725000X-0.600000X-0.725000X0.600000X-0.725000X0*%
%ADD16O,1.700000X1.950000*%
%ADD17RoundRect,0.250000X-0.600000X-0.725000X0.600000X-0.725000X0.600000X0.725000X-0.600000X0.725000X0*%
%ADD18O,1.800000X1.800000*%
%ADD19O,1.500000X1.500000*%
%ADD20O,1.700000X1.700000*%
%ADD21R,1.700000X1.700000*%
%ADD22R,3.200000X3.200000*%
%ADD23O,3.200000X3.200000*%
%ADD24R,1.800000X1.800000*%
%ADD25RoundRect,0.250000X0.750000X-0.600000X0.750000X0.600000X-0.750000X0.600000X-0.750000X-0.600000X0*%
%ADD26R,1.600000X1.600000*%
%ADD27R,1.905000X2.000000*%
%ADD28O,1.905000X2.000000*%
G04 APERTURE END LIST*
D10*
%TO.C,mp6500stepper_driver3*%
X111000000Y-113750000D03*
X113540000Y-113750000D03*
X116080000Y-113750000D03*
X118620000Y-113750000D03*
X121160000Y-113750000D03*
X123700000Y-113750000D03*
X126240000Y-113750000D03*
X128780000Y-113750000D03*
X111000000Y-126250000D03*
X113540000Y-126250000D03*
X116080000Y-126250000D03*
X118620000Y-126250000D03*
X121160000Y-126250000D03*
X123700000Y-126250000D03*
X126240000Y-126250000D03*
X128780000Y-126250000D03*
%TD*%
D11*
%TO.C,J1*%
X185900000Y-122700000D03*
D12*
X185900000Y-125200000D03*
%TD*%
D13*
%TO.C,C1*%
X184400000Y-132200000D03*
X184400000Y-137200000D03*
%TD*%
D14*
%TO.C,J3*%
X144600000Y-132000000D03*
D15*
X143000000Y-134000000D03*
D16*
X140500000Y-134000000D03*
X138000000Y-134000000D03*
X135500000Y-134000000D03*
%TD*%
D10*
%TO.C,mp6500stepper_driver7*%
X131000000Y-90750000D03*
X133540000Y-90750000D03*
X136080000Y-90750000D03*
X138620000Y-90750000D03*
X141160000Y-90750000D03*
X143700000Y-90750000D03*
X146240000Y-90750000D03*
X148780000Y-90750000D03*
X131000000Y-103250000D03*
X133540000Y-103250000D03*
X136080000Y-103250000D03*
X138620000Y-103250000D03*
X141160000Y-103250000D03*
X143700000Y-103250000D03*
X146240000Y-103250000D03*
X148780000Y-103250000D03*
%TD*%
D14*
%TO.C,J7*%
X84400000Y-85000000D03*
D17*
X86000000Y-83000000D03*
D16*
X88500000Y-83000000D03*
X91000000Y-83000000D03*
X93500000Y-83000000D03*
%TD*%
D14*
%TO.C,J5*%
X144600000Y-114000000D03*
D15*
X143000000Y-116000000D03*
D16*
X140500000Y-116000000D03*
X138000000Y-116000000D03*
X135500000Y-116000000D03*
%TD*%
D14*
%TO.C,J10*%
X159400000Y-85000000D03*
D17*
X161000000Y-83000000D03*
D16*
X163500000Y-83000000D03*
X166000000Y-83000000D03*
X168500000Y-83000000D03*
%TD*%
D10*
%TO.C,mp6500stepper_driver4*%
X99000000Y-67250000D03*
X96460000Y-67250000D03*
X93920000Y-67250000D03*
X91380000Y-67250000D03*
X88840000Y-67250000D03*
X86300000Y-67250000D03*
X83760000Y-67250000D03*
X81220000Y-67250000D03*
X99000000Y-54750000D03*
X96460000Y-54750000D03*
X93920000Y-54750000D03*
X91380000Y-54750000D03*
X88840000Y-54750000D03*
X86300000Y-54750000D03*
X83760000Y-54750000D03*
X81220000Y-54750000D03*
%TD*%
D14*
%TO.C,J15*%
X120100000Y-73000000D03*
D15*
X118500000Y-75000000D03*
D16*
X116000000Y-75000000D03*
X113500000Y-75000000D03*
X111000000Y-75000000D03*
%TD*%
D14*
%TO.C,J8*%
X109400000Y-85000000D03*
D17*
X111000000Y-83000000D03*
D16*
X113500000Y-83000000D03*
X116000000Y-83000000D03*
X118500000Y-83000000D03*
%TD*%
D10*
%TO.C,mp6500stepper_driver1*%
X111000000Y-131750000D03*
X113540000Y-131750000D03*
X116080000Y-131750000D03*
X118620000Y-131750000D03*
X121160000Y-131750000D03*
X123700000Y-131750000D03*
X126240000Y-131750000D03*
X128780000Y-131750000D03*
X111000000Y-144250000D03*
X113540000Y-144250000D03*
X116080000Y-144250000D03*
X118620000Y-144250000D03*
X121160000Y-144250000D03*
X123700000Y-144250000D03*
X126240000Y-144250000D03*
X128780000Y-144250000D03*
%TD*%
D18*
%TO.C,U2*%
X96115000Y-159890000D03*
D19*
X95815000Y-156860000D03*
X90965000Y-156860000D03*
D18*
X90665000Y-159890000D03*
D20*
X102280000Y-160020000D03*
X102280000Y-157480000D03*
D21*
X102280000Y-154940000D03*
D20*
X102280000Y-152400000D03*
X102280000Y-149860000D03*
X102280000Y-147320000D03*
X102280000Y-144780000D03*
D21*
X102280000Y-142240000D03*
D20*
X102280000Y-139700000D03*
X102280000Y-137160000D03*
X102280000Y-134620000D03*
X102280000Y-132080000D03*
D21*
X102280000Y-129540000D03*
D20*
X102280000Y-127000000D03*
X102280000Y-124460000D03*
X102280000Y-121920000D03*
X102280000Y-119380000D03*
D21*
X102280000Y-116840000D03*
D20*
X102280000Y-114300000D03*
X102280000Y-111760000D03*
X84500000Y-111760000D03*
X84500000Y-114300000D03*
D21*
X84500000Y-116840000D03*
D20*
X84500000Y-119380000D03*
X84500000Y-121920000D03*
X84500000Y-124460000D03*
X84500000Y-127000000D03*
D21*
X84500000Y-129540000D03*
D20*
X84500000Y-132080000D03*
X84500000Y-134620000D03*
X84500000Y-137160000D03*
X84500000Y-139700000D03*
D21*
X84500000Y-142240000D03*
D20*
X84500000Y-144780000D03*
X84500000Y-147320000D03*
X84500000Y-149860000D03*
X84500000Y-152400000D03*
D21*
X84500000Y-154940000D03*
D20*
X84500000Y-157480000D03*
X84500000Y-160020000D03*
X95930000Y-111990000D03*
D21*
X93390000Y-111990000D03*
D20*
X90850000Y-111990000D03*
%TD*%
D22*
%TO.C,D1*%
X175400000Y-127080000D03*
D23*
X175400000Y-142320000D03*
%TD*%
D24*
%TO.C,U1*%
X167000000Y-135500000D03*
D18*
X165300000Y-139200000D03*
X163600000Y-135500000D03*
X161900000Y-139200000D03*
X160200000Y-135500000D03*
%TD*%
D14*
%TO.C,J6*%
X95100000Y-73000000D03*
D15*
X93500000Y-75000000D03*
D16*
X91000000Y-75000000D03*
X88500000Y-75000000D03*
X86000000Y-75000000D03*
%TD*%
D10*
%TO.C,mp6500stepper_driver5*%
X81000000Y-90750000D03*
X83540000Y-90750000D03*
X86080000Y-90750000D03*
X88620000Y-90750000D03*
X91160000Y-90750000D03*
X93700000Y-90750000D03*
X96240000Y-90750000D03*
X98780000Y-90750000D03*
X81000000Y-103250000D03*
X83540000Y-103250000D03*
X86080000Y-103250000D03*
X88620000Y-103250000D03*
X91160000Y-103250000D03*
X93700000Y-103250000D03*
X96240000Y-103250000D03*
X98780000Y-103250000D03*
%TD*%
D14*
%TO.C,J11*%
X154500000Y-119100000D03*
D25*
X152500000Y-117500000D03*
D12*
X152500000Y-115000000D03*
%TD*%
D14*
%TO.C,J12*%
X153500000Y-137100000D03*
D25*
X151500000Y-135500000D03*
D12*
X151500000Y-133000000D03*
%TD*%
D14*
%TO.C,J13*%
X145100000Y-73000000D03*
D15*
X143500000Y-75000000D03*
D16*
X141000000Y-75000000D03*
X138500000Y-75000000D03*
X136000000Y-75000000D03*
%TD*%
D10*
%TO.C,mp6500stepper_driver6*%
X106000000Y-90750000D03*
X108540000Y-90750000D03*
X111080000Y-90750000D03*
X113620000Y-90750000D03*
X116160000Y-90750000D03*
X118700000Y-90750000D03*
X121240000Y-90750000D03*
X123780000Y-90750000D03*
X106000000Y-103250000D03*
X108540000Y-103250000D03*
X111080000Y-103250000D03*
X113620000Y-103250000D03*
X116160000Y-103250000D03*
X118700000Y-103250000D03*
X121240000Y-103250000D03*
X123780000Y-103250000D03*
%TD*%
D14*
%TO.C,J9*%
X134400000Y-85000000D03*
D17*
X136000000Y-83000000D03*
D16*
X138500000Y-83000000D03*
X141000000Y-83000000D03*
X143500000Y-83000000D03*
%TD*%
D10*
%TO.C,mp6500stepper_driver9*%
X124000000Y-67250000D03*
X121460000Y-67250000D03*
X118920000Y-67250000D03*
X116380000Y-67250000D03*
X113840000Y-67250000D03*
X111300000Y-67250000D03*
X108760000Y-67250000D03*
X106220000Y-67250000D03*
X124000000Y-54750000D03*
X121460000Y-54750000D03*
X118920000Y-54750000D03*
X116380000Y-54750000D03*
X113840000Y-54750000D03*
X111300000Y-54750000D03*
X108760000Y-54750000D03*
X106220000Y-54750000D03*
%TD*%
%TO.C,mp6500stepper_driver8*%
X156000000Y-90750000D03*
X158540000Y-90750000D03*
X161080000Y-90750000D03*
X163620000Y-90750000D03*
X166160000Y-90750000D03*
X168700000Y-90750000D03*
X171240000Y-90750000D03*
X173780000Y-90750000D03*
X156000000Y-103250000D03*
X158540000Y-103250000D03*
X161080000Y-103250000D03*
X163620000Y-103250000D03*
X166160000Y-103250000D03*
X168700000Y-103250000D03*
X171240000Y-103250000D03*
X173780000Y-103250000D03*
%TD*%
%TO.C,mp6500stepper_driver2*%
X111000000Y-149750000D03*
X113540000Y-149750000D03*
X116080000Y-149750000D03*
X118620000Y-149750000D03*
X121160000Y-149750000D03*
X123700000Y-149750000D03*
X126240000Y-149750000D03*
X128780000Y-149750000D03*
X111000000Y-162250000D03*
X113540000Y-162250000D03*
X116080000Y-162250000D03*
X118620000Y-162250000D03*
X121160000Y-162250000D03*
X123700000Y-162250000D03*
X126240000Y-162250000D03*
X128780000Y-162250000D03*
%TD*%
D14*
%TO.C,J14*%
X170100000Y-73000000D03*
D15*
X168500000Y-75000000D03*
D16*
X166000000Y-75000000D03*
X163500000Y-75000000D03*
X161000000Y-75000000D03*
%TD*%
D10*
%TO.C,mp6500stepper_driver12*%
X174000000Y-67250000D03*
X171460000Y-67250000D03*
X168920000Y-67250000D03*
X166380000Y-67250000D03*
X163840000Y-67250000D03*
X161300000Y-67250000D03*
X158760000Y-67250000D03*
X156220000Y-67250000D03*
X174000000Y-54750000D03*
X171460000Y-54750000D03*
X168920000Y-54750000D03*
X166380000Y-54750000D03*
X163840000Y-54750000D03*
X161300000Y-54750000D03*
X158760000Y-54750000D03*
X156220000Y-54750000D03*
%TD*%
%TO.C,mp6500stepper_driver11*%
X149000000Y-67250000D03*
X146460000Y-67250000D03*
X143920000Y-67250000D03*
X141380000Y-67250000D03*
X138840000Y-67250000D03*
X136300000Y-67250000D03*
X133760000Y-67250000D03*
X131220000Y-67250000D03*
X149000000Y-54750000D03*
X146460000Y-54750000D03*
X143920000Y-54750000D03*
X141380000Y-54750000D03*
X138840000Y-54750000D03*
X136300000Y-54750000D03*
X133760000Y-54750000D03*
X131220000Y-54750000D03*
%TD*%
D26*
%TO.C,C2*%
X175900000Y-118200000D03*
D13*
X175900000Y-121700000D03*
%TD*%
D21*
%TO.C,J2*%
X77540000Y-111380000D03*
D20*
X75000000Y-111380000D03*
X77540000Y-113920000D03*
X75000000Y-113920000D03*
X77540000Y-116460000D03*
X75000000Y-116460000D03*
X77540000Y-119000000D03*
X75000000Y-119000000D03*
X77540000Y-121540000D03*
X75000000Y-121540000D03*
X77540000Y-124080000D03*
X75000000Y-124080000D03*
X77540000Y-126620000D03*
X75000000Y-126620000D03*
X77540000Y-129160000D03*
X75000000Y-129160000D03*
X77540000Y-131700000D03*
X75000000Y-131700000D03*
X77540000Y-134240000D03*
X75000000Y-134240000D03*
X77540000Y-136780000D03*
X75000000Y-136780000D03*
X77540000Y-139320000D03*
X75000000Y-139320000D03*
X77540000Y-141860000D03*
X75000000Y-141860000D03*
X77540000Y-144400000D03*
X75000000Y-144400000D03*
X77540000Y-146940000D03*
X75000000Y-146940000D03*
X77540000Y-149480000D03*
X75000000Y-149480000D03*
X77540000Y-152020000D03*
X75000000Y-152020000D03*
X77540000Y-154560000D03*
X75000000Y-154560000D03*
X77540000Y-157100000D03*
X75000000Y-157100000D03*
X77540000Y-159640000D03*
X75000000Y-159640000D03*
%TD*%
D14*
%TO.C,J4*%
X144600000Y-150000000D03*
D15*
X143000000Y-152000000D03*
D16*
X140500000Y-152000000D03*
X138000000Y-152000000D03*
X135500000Y-152000000D03*
%TD*%
D27*
%TO.C,Q1*%
X161460000Y-118945000D03*
D28*
X164000000Y-118945000D03*
X166540000Y-118945000D03*
%TD*%
D14*
%TO.C,J16*%
X153500000Y-155100000D03*
D25*
X151500000Y-153500000D03*
D12*
X151500000Y-151000000D03*
%TD*%
M02*
