%TF.GenerationSoftware,KiCad,Pcbnew,8.0.8-8.0.8-0~ubuntu24.04.1*%
%TF.CreationDate,2025-05-21T16:34:59-05:00*%
%TF.ProjectId,wasabi,77617361-6269-42e6-9b69-6361645f7063,rev?*%
%TF.SameCoordinates,Original*%
%TF.FileFunction,Profile,NP*%
%FSLAX46Y46*%
G04 Gerber Fmt 4.6, Leading zero omitted, Abs format (unit mm)*
G04 Created by KiCad (PCBNEW 8.0.8-8.0.8-0~ubuntu24.04.1) date 2025-05-21 16:34:59*
%MOMM*%
%LPD*%
G01*
G04 APERTURE LIST*
%TA.AperFunction,Profile*%
%ADD10C,0.050000*%
%TD*%
G04 APERTURE END LIST*
D10*
X84000000Y-144500000D02*
X102000000Y-144500000D01*
X84000000Y-85500000D02*
X84000000Y-144500000D01*
X102000000Y-85500000D02*
X84000000Y-85500000D01*
X163000000Y-57000000D02*
X163000000Y-77000000D01*
X182000000Y-57000000D02*
X163000000Y-57000000D01*
X184000000Y-55000000D02*
X182000000Y-57000000D01*
X199000000Y-55000000D02*
X184000000Y-55000000D01*
X199000000Y-65500000D02*
X202500000Y-69000000D01*
X199000000Y-55000000D02*
X199000000Y-65500000D01*
X206500000Y-69000000D02*
X202500000Y-69000000D01*
X212500000Y-75000000D02*
X206500000Y-69000000D01*
X212500000Y-75000000D02*
X217500000Y-75000000D01*
X217500000Y-75000000D02*
X220500000Y-78000000D01*
X125500000Y-147000000D02*
X204500000Y-147000000D01*
X217500000Y-155000000D02*
X212500000Y-155000000D01*
X217500000Y-155000000D02*
X220500000Y-152000000D01*
X220500000Y-78000000D02*
X220500000Y-152000000D01*
X212500000Y-155000000D02*
X204500000Y-147000000D01*
X117500000Y-155000000D02*
X112500000Y-155000000D01*
X117500000Y-155000000D02*
X125500000Y-147000000D01*
X112500000Y-155000000D02*
X102000000Y-144500000D01*
X112500000Y-75000000D02*
X102000000Y-85500000D01*
X117500000Y-75000000D02*
X112500000Y-75000000D01*
X217500000Y-150000000D02*
G75*
G02*
X212500000Y-150000000I-2500000J0D01*
G01*
X212500000Y-150000000D02*
G75*
G02*
X217500000Y-150000000I2500000J0D01*
G01*
X117500000Y-150000000D02*
G75*
G02*
X112500000Y-150000000I-2500000J0D01*
G01*
X112500000Y-150000000D02*
G75*
G02*
X117500000Y-150000000I2500000J0D01*
G01*
X117500000Y-80000000D02*
G75*
G02*
X112500000Y-80000000I-2500000J0D01*
G01*
X112500000Y-80000000D02*
G75*
G02*
X117500000Y-80000000I2500000J0D01*
G01*
X217500000Y-80000000D02*
G75*
G02*
X212500000Y-80000000I-2500000J0D01*
G01*
X212500000Y-80000000D02*
G75*
G02*
X217500000Y-80000000I2500000J0D01*
G01*
X117500000Y-75000000D02*
X128000000Y-85500000D01*
X163000000Y-77000000D02*
X157000000Y-85500000D01*
X157000000Y-85500000D02*
X128000000Y-85500000D01*
M02*
