%TF.GenerationSoftware,KiCad,Pcbnew,8.0.8-8.0.8-0~ubuntu24.04.1*%
%TF.CreationDate,2025-05-21T16:34:56-05:00*%
%TF.ProjectId,wasabi,77617361-6269-42e6-9b69-6361645f7063,rev?*%
%TF.SameCoordinates,Original*%
%TF.FileFunction,Soldermask,Bot*%
%TF.FilePolarity,Negative*%
%FSLAX46Y46*%
G04 Gerber Fmt 4.6, Leading zero omitted, Abs format (unit mm)*
G04 Created by KiCad (PCBNEW 8.0.8-8.0.8-0~ubuntu24.04.1) date 2025-05-21 16:34:56*
%MOMM*%
%LPD*%
G01*
G04 APERTURE LIST*
G04 Aperture macros list*
%AMRoundRect*
0 Rectangle with rounded corners*
0 $1 Rounding radius*
0 $2 $3 $4 $5 $6 $7 $8 $9 X,Y pos of 4 corners*
0 Add a 4 corners polygon primitive as box body*
4,1,4,$2,$3,$4,$5,$6,$7,$8,$9,$2,$3,0*
0 Add four circle primitives for the rounded corners*
1,1,$1+$1,$2,$3*
1,1,$1+$1,$4,$5*
1,1,$1+$1,$6,$7*
1,1,$1+$1,$8,$9*
0 Add four rect primitives between the rounded corners*
20,1,$1+$1,$2,$3,$4,$5,0*
20,1,$1+$1,$4,$5,$6,$7,0*
20,1,$1+$1,$6,$7,$8,$9,0*
20,1,$1+$1,$8,$9,$2,$3,0*%
G04 Aperture macros list end*
%ADD10R,1.700000X1.700000*%
%ADD11O,1.700000X1.700000*%
%ADD12RoundRect,0.250000X-0.725000X0.600000X-0.725000X-0.600000X0.725000X-0.600000X0.725000X0.600000X0*%
%ADD13O,1.950000X1.700000*%
%ADD14O,1.800000X1.800000*%
%ADD15O,1.500000X1.500000*%
%ADD16R,1.600000X1.600000*%
%ADD17C,1.600000*%
%ADD18R,1.800000X1.800000*%
%ADD19R,3.200000X3.200000*%
%ADD20O,3.200000X3.200000*%
%ADD21RoundRect,0.250000X-0.750000X0.600000X-0.750000X-0.600000X0.750000X-0.600000X0.750000X0.600000X0*%
%ADD22O,2.000000X1.700000*%
G04 APERTURE END LIST*
D10*
%TO.C,J2*%
X212960000Y-139500000D03*
D11*
X215500000Y-139500000D03*
X212960000Y-136960000D03*
X215500000Y-136960000D03*
X212960000Y-134420000D03*
X215500000Y-134420000D03*
X212960000Y-131880000D03*
X215500000Y-131880000D03*
X212960000Y-129340000D03*
X215500000Y-129340000D03*
X212960000Y-126800000D03*
X215500000Y-126800000D03*
X212960000Y-124260000D03*
X215500000Y-124260000D03*
X212960000Y-121720000D03*
X215500000Y-121720000D03*
X212960000Y-119180000D03*
X215500000Y-119180000D03*
X212960000Y-116640000D03*
X215500000Y-116640000D03*
X212960000Y-114100000D03*
X215500000Y-114100000D03*
X212960000Y-111560000D03*
X215500000Y-111560000D03*
X212960000Y-109020000D03*
X215500000Y-109020000D03*
X212960000Y-106480000D03*
X215500000Y-106480000D03*
X212960000Y-103940000D03*
X215500000Y-103940000D03*
X212960000Y-101400000D03*
X215500000Y-101400000D03*
X212960000Y-98860000D03*
X215500000Y-98860000D03*
X212960000Y-96320000D03*
X215500000Y-96320000D03*
X212960000Y-93780000D03*
X215500000Y-93780000D03*
X212960000Y-91240000D03*
X215500000Y-91240000D03*
%TD*%
D12*
%TO.C,J12*%
X135000000Y-123500000D03*
D13*
X135000000Y-126000000D03*
X135000000Y-128500000D03*
X135000000Y-131000000D03*
X135000000Y-133500000D03*
%TD*%
D12*
%TO.C,J5*%
X135000000Y-89500000D03*
D13*
X135000000Y-92000000D03*
X135000000Y-94500000D03*
X135000000Y-97000000D03*
X135000000Y-99500000D03*
%TD*%
D14*
%TO.C,U2*%
X184775000Y-89000000D03*
D15*
X185075000Y-92030000D03*
X189925000Y-92030000D03*
D14*
X190225000Y-89000000D03*
D11*
X178610000Y-88870000D03*
X178610000Y-91410000D03*
D10*
X178610000Y-93950000D03*
D11*
X178610000Y-96490000D03*
X178610000Y-99030000D03*
X178610000Y-101570000D03*
X178610000Y-104110000D03*
D10*
X178610000Y-106650000D03*
D11*
X178610000Y-109190000D03*
X178610000Y-111730000D03*
X178610000Y-114270000D03*
X178610000Y-116810000D03*
D10*
X178610000Y-119350000D03*
D11*
X178610000Y-121890000D03*
X178610000Y-124430000D03*
X178610000Y-126970000D03*
X178610000Y-129510000D03*
D10*
X178610000Y-132050000D03*
D11*
X178610000Y-134590000D03*
X178610000Y-137130000D03*
X196390000Y-137130000D03*
X196390000Y-134590000D03*
D10*
X196390000Y-132050000D03*
D11*
X196390000Y-129510000D03*
X196390000Y-126970000D03*
X196390000Y-124430000D03*
X196390000Y-121890000D03*
D10*
X196390000Y-119350000D03*
D11*
X196390000Y-116810000D03*
X196390000Y-114270000D03*
X196390000Y-111730000D03*
X196390000Y-109190000D03*
D10*
X196390000Y-106650000D03*
D11*
X196390000Y-104110000D03*
X196390000Y-101570000D03*
X196390000Y-99030000D03*
X196390000Y-96490000D03*
D10*
X196390000Y-93950000D03*
D11*
X196390000Y-91410000D03*
X196390000Y-88870000D03*
X184960000Y-136900000D03*
D10*
X187500000Y-136900000D03*
D11*
X190040000Y-136900000D03*
%TD*%
D16*
%TO.C,C2*%
X202700000Y-74550000D03*
D17*
X199200000Y-74550000D03*
%TD*%
D12*
%TO.C,J13*%
X150000000Y-123000000D03*
D13*
X150000000Y-125500000D03*
X150000000Y-128000000D03*
X150000000Y-130500000D03*
X150000000Y-133000000D03*
%TD*%
D17*
%TO.C,C1*%
X170000000Y-73750000D03*
X170000000Y-78750000D03*
%TD*%
D12*
%TO.C,J3*%
X150000000Y-89500000D03*
D13*
X150000000Y-92000000D03*
X150000000Y-94500000D03*
X150000000Y-97000000D03*
X150000000Y-99500000D03*
%TD*%
D12*
%TO.C,J8*%
X90000000Y-89500000D03*
D13*
X90000000Y-92000000D03*
X90000000Y-94500000D03*
X90000000Y-97000000D03*
X90000000Y-99500000D03*
%TD*%
D18*
%TO.C,U1*%
X174700000Y-67550000D03*
D14*
X176400000Y-63850000D03*
X178100000Y-67550000D03*
X179800000Y-63850000D03*
X181500000Y-67550000D03*
%TD*%
D12*
%TO.C,J11*%
X120000000Y-123500000D03*
D13*
X120000000Y-126000000D03*
X120000000Y-128500000D03*
X120000000Y-131000000D03*
X120000000Y-133500000D03*
%TD*%
D12*
%TO.C,J4*%
X165000000Y-89500000D03*
D13*
X165000000Y-92000000D03*
X165000000Y-94500000D03*
X165000000Y-97000000D03*
X165000000Y-99500000D03*
%TD*%
D19*
%TO.C,D1*%
X177960000Y-74550000D03*
D20*
X193200000Y-74550000D03*
%TD*%
D12*
%TO.C,J6*%
X120000000Y-89500000D03*
D13*
X120000000Y-92000000D03*
X120000000Y-94500000D03*
X120000000Y-97000000D03*
X120000000Y-99500000D03*
%TD*%
D12*
%TO.C,J9*%
X90000000Y-123500000D03*
D13*
X90000000Y-126000000D03*
X90000000Y-128500000D03*
X90000000Y-131000000D03*
X90000000Y-133500000D03*
%TD*%
D12*
%TO.C,J10*%
X105000000Y-123500000D03*
D13*
X105000000Y-126000000D03*
X105000000Y-128500000D03*
X105000000Y-131000000D03*
X105000000Y-133500000D03*
%TD*%
D21*
%TO.C,J1*%
X169500000Y-64250000D03*
D22*
X169500000Y-66750000D03*
%TD*%
D12*
%TO.C,J7*%
X105000000Y-89500000D03*
D13*
X105000000Y-92000000D03*
X105000000Y-94500000D03*
X105000000Y-97000000D03*
X105000000Y-99500000D03*
%TD*%
D12*
%TO.C,J14*%
X165000000Y-123000000D03*
D13*
X165000000Y-125500000D03*
X165000000Y-128000000D03*
X165000000Y-130500000D03*
X165000000Y-133000000D03*
%TD*%
M02*
