%TF.GenerationSoftware,KiCad,Pcbnew,8.0.8-8.0.8-0~ubuntu24.04.1*%
%TF.CreationDate,2025-05-21T16:34:38-05:00*%
%TF.ProjectId,wasabi,77617361-6269-42e6-9b69-6361645f7063,rev?*%
%TF.SameCoordinates,Original*%
%TF.FileFunction,Copper,L1,Top*%
%TF.FilePolarity,Positive*%
%FSLAX46Y46*%
G04 Gerber Fmt 4.6, Leading zero omitted, Abs format (unit mm)*
G04 Created by KiCad (PCBNEW 8.0.8-8.0.8-0~ubuntu24.04.1) date 2025-05-21 16:34:38*
%MOMM*%
%LPD*%
G01*
G04 APERTURE LIST*
G04 Aperture macros list*
%AMRoundRect*
0 Rectangle with rounded corners*
0 $1 Rounding radius*
0 $2 $3 $4 $5 $6 $7 $8 $9 X,Y pos of 4 corners*
0 Add a 4 corners polygon primitive as box body*
4,1,4,$2,$3,$4,$5,$6,$7,$8,$9,$2,$3,0*
0 Add four circle primitives for the rounded corners*
1,1,$1+$1,$2,$3*
1,1,$1+$1,$4,$5*
1,1,$1+$1,$6,$7*
1,1,$1+$1,$8,$9*
0 Add four rect primitives between the rounded corners*
20,1,$1+$1,$2,$3,$4,$5,0*
20,1,$1+$1,$4,$5,$6,$7,0*
20,1,$1+$1,$6,$7,$8,$9,0*
20,1,$1+$1,$8,$9,$2,$3,0*%
G04 Aperture macros list end*
%TA.AperFunction,ComponentPad*%
%ADD10R,1.700000X1.700000*%
%TD*%
%TA.AperFunction,ComponentPad*%
%ADD11O,1.700000X1.700000*%
%TD*%
%TA.AperFunction,ComponentPad*%
%ADD12RoundRect,0.250000X-0.725000X0.600000X-0.725000X-0.600000X0.725000X-0.600000X0.725000X0.600000X0*%
%TD*%
%TA.AperFunction,ComponentPad*%
%ADD13O,1.950000X1.700000*%
%TD*%
%TA.AperFunction,SMDPad,CuDef*%
%ADD14R,3.500000X1.700000*%
%TD*%
%TA.AperFunction,SMDPad,CuDef*%
%ADD15R,1.700000X3.500000*%
%TD*%
%TA.AperFunction,ComponentPad*%
%ADD16R,1.600000X1.600000*%
%TD*%
%TA.AperFunction,ComponentPad*%
%ADD17C,1.600000*%
%TD*%
%TA.AperFunction,ComponentPad*%
%ADD18R,1.800000X1.800000*%
%TD*%
%TA.AperFunction,ComponentPad*%
%ADD19O,1.800000X1.800000*%
%TD*%
%TA.AperFunction,SMDPad,CuDef*%
%ADD20RoundRect,0.250000X2.500000X-1.750000X2.500000X1.750000X-2.500000X1.750000X-2.500000X-1.750000X0*%
%TD*%
%TA.AperFunction,ComponentPad*%
%ADD21R,3.200000X3.200000*%
%TD*%
%TA.AperFunction,ComponentPad*%
%ADD22O,3.200000X3.200000*%
%TD*%
%TA.AperFunction,ComponentPad*%
%ADD23RoundRect,0.250000X-0.750000X0.600000X-0.750000X-0.600000X0.750000X-0.600000X0.750000X0.600000X0*%
%TD*%
%TA.AperFunction,ComponentPad*%
%ADD24O,2.000000X1.700000*%
%TD*%
%TA.AperFunction,Conductor*%
%ADD25C,0.200000*%
%TD*%
G04 APERTURE END LIST*
D10*
%TO.P,J2,1,3.3V*%
%TO.N,unconnected-(J2-3.3V-Pad1)*%
X212960000Y-139500000D03*
D11*
%TO.P,J2,2,5V*%
%TO.N,unconnected-(J2-5V-Pad2)*%
X215500000Y-139500000D03*
%TO.P,J2,3,GPIO2*%
%TO.N,unconnected-(J2-GPIO2-Pad3)*%
X212960000Y-136960000D03*
%TO.P,J2,4,5V*%
%TO.N,+5V*%
X215500000Y-136960000D03*
%TO.P,J2,5,GPIO3*%
%TO.N,unconnected-(J2-GPIO3-Pad5)*%
X212960000Y-134420000D03*
%TO.P,J2,6,GND*%
%TO.N,GND*%
X215500000Y-134420000D03*
%TO.P,J2,7,GPIO4*%
%TO.N,unconnected-(J2-GPIO4-Pad7)*%
X212960000Y-131880000D03*
%TO.P,J2,8,GPIO14*%
%TO.N,Net-(J2-GPIO14)*%
X215500000Y-131880000D03*
%TO.P,J2,9,GND*%
%TO.N,unconnected-(J2-GND-Pad9)*%
X212960000Y-129340000D03*
%TO.P,J2,10,GPIO15*%
%TO.N,Net-(J2-GPIO15)*%
X215500000Y-129340000D03*
%TO.P,J2,11,GPIO17*%
%TO.N,unconnected-(J2-GPIO17-Pad11)*%
X212960000Y-126800000D03*
%TO.P,J2,12,GPIO18*%
%TO.N,unconnected-(J2-GPIO18-Pad12)*%
X215500000Y-126800000D03*
%TO.P,J2,13,GPIO27*%
%TO.N,unconnected-(J2-GPIO27-Pad13)*%
X212960000Y-124260000D03*
%TO.P,J2,14,GND*%
%TO.N,unconnected-(J2-GND-Pad14)*%
X215500000Y-124260000D03*
%TO.P,J2,15,GPIO22*%
%TO.N,unconnected-(J2-GPIO22-Pad15)*%
X212960000Y-121720000D03*
%TO.P,J2,16,GPIO23*%
%TO.N,unconnected-(J2-GPIO23-Pad16)*%
X215500000Y-121720000D03*
%TO.P,J2,17,3.3V*%
%TO.N,unconnected-(J2-3.3V-Pad17)*%
X212960000Y-119180000D03*
%TO.P,J2,18,GPIO24*%
%TO.N,unconnected-(J2-GPIO24-Pad18)*%
X215500000Y-119180000D03*
%TO.P,J2,19,GPIO10*%
%TO.N,unconnected-(J2-GPIO10-Pad19)*%
X212960000Y-116640000D03*
%TO.P,J2,20,GND*%
%TO.N,unconnected-(J2-GND-Pad20)*%
X215500000Y-116640000D03*
%TO.P,J2,21,GPIO9*%
%TO.N,unconnected-(J2-GPIO9-Pad21)*%
X212960000Y-114100000D03*
%TO.P,J2,22,GPIO25*%
%TO.N,unconnected-(J2-GPIO25-Pad22)*%
X215500000Y-114100000D03*
%TO.P,J2,23,GPIO11*%
%TO.N,unconnected-(J2-GPIO11-Pad23)*%
X212960000Y-111560000D03*
%TO.P,J2,24,GPIO8*%
%TO.N,unconnected-(J2-GPIO8-Pad24)*%
X215500000Y-111560000D03*
%TO.P,J2,25,GND*%
%TO.N,unconnected-(J2-GND-Pad25)*%
X212960000Y-109020000D03*
%TO.P,J2,26,GPIO7*%
%TO.N,unconnected-(J2-GPIO7-Pad26)*%
X215500000Y-109020000D03*
%TO.P,J2,27,ID_SD*%
%TO.N,unconnected-(J2-ID_SD-Pad27)*%
X212960000Y-106480000D03*
%TO.P,J2,28,ID_SC*%
%TO.N,unconnected-(J2-ID_SC-Pad28)*%
X215500000Y-106480000D03*
%TO.P,J2,29,GPIO5*%
%TO.N,unconnected-(J2-GPIO5-Pad29)*%
X212960000Y-103940000D03*
%TO.P,J2,30,GND*%
%TO.N,unconnected-(J2-GND-Pad30)*%
X215500000Y-103940000D03*
%TO.P,J2,31,GPIO6*%
%TO.N,unconnected-(J2-GPIO6-Pad31)*%
X212960000Y-101400000D03*
%TO.P,J2,32,GPIO12*%
%TO.N,unconnected-(J2-GPIO12-Pad32)*%
X215500000Y-101400000D03*
%TO.P,J2,33,GPIO13*%
%TO.N,unconnected-(J2-GPIO13-Pad33)*%
X212960000Y-98860000D03*
%TO.P,J2,34,GND*%
%TO.N,unconnected-(J2-GND-Pad34)*%
X215500000Y-98860000D03*
%TO.P,J2,35,GPIO19*%
%TO.N,unconnected-(J2-GPIO19-Pad35)*%
X212960000Y-96320000D03*
%TO.P,J2,36,GPIO16*%
%TO.N,unconnected-(J2-GPIO16-Pad36)*%
X215500000Y-96320000D03*
%TO.P,J2,37,GPIO26*%
%TO.N,unconnected-(J2-GPIO26-Pad37)*%
X212960000Y-93780000D03*
%TO.P,J2,38,GPIO20*%
%TO.N,unconnected-(J2-GPIO20-Pad38)*%
X215500000Y-93780000D03*
%TO.P,J2,39,GND*%
%TO.N,unconnected-(J2-GND-Pad39)*%
X212960000Y-91240000D03*
%TO.P,J2,40,GPIO21*%
%TO.N,unconnected-(J2-GPIO21-Pad40)*%
X215500000Y-91240000D03*
%TD*%
D12*
%TO.P,J12,1,Pin_1*%
%TO.N,GND*%
X135000000Y-123500000D03*
D13*
%TO.P,J12,2,Pin_2*%
%TO.N,+24V*%
X135000000Y-126000000D03*
%TO.P,J12,3,Pin_3*%
%TO.N,+5V*%
X135000000Y-128500000D03*
%TO.P,J12,4,Pin_4*%
%TO.N,Net-(J12-Pin_4)*%
X135000000Y-131000000D03*
%TO.P,J12,5,Pin_5*%
%TO.N,Net-(J12-Pin_5)*%
X135000000Y-133500000D03*
%TD*%
D12*
%TO.P,J5,1,Pin_1*%
%TO.N,GND*%
X135000000Y-89500000D03*
D13*
%TO.P,J5,2,Pin_2*%
%TO.N,+24V*%
X135000000Y-92000000D03*
%TO.P,J5,3,Pin_3*%
%TO.N,+5V*%
X135000000Y-94500000D03*
%TO.P,J5,4,Pin_4*%
%TO.N,Net-(J5-Pin_4)*%
X135000000Y-97000000D03*
%TO.P,J5,5,Pin_5*%
%TO.N,Net-(J5-Pin_5)*%
X135000000Y-99500000D03*
%TD*%
D11*
%TO.P,U2,1,GPIO0*%
%TO.N,Net-(J4-Pin_4)*%
X178610000Y-88870000D03*
D14*
X177710000Y-88870000D03*
D11*
%TO.P,U2,2,GPIO1*%
%TO.N,Net-(J4-Pin_5)*%
X178610000Y-91410000D03*
D14*
X177710000Y-91410000D03*
D10*
%TO.P,U2,3,GND*%
%TO.N,unconnected-(U2-GND-Pad3)*%
X178610000Y-93950000D03*
D14*
X177710000Y-93950000D03*
D11*
%TO.P,U2,4,GPIO2*%
%TO.N,Net-(J3-Pin_4)*%
X178610000Y-96490000D03*
D14*
X177710000Y-96490000D03*
D11*
%TO.P,U2,5,GPIO3*%
%TO.N,Net-(J3-Pin_5)*%
X178610000Y-99030000D03*
D14*
X177710000Y-99030000D03*
D11*
%TO.P,U2,6,GPIO4*%
%TO.N,Net-(J5-Pin_4)*%
X178610000Y-101570000D03*
D14*
X177710000Y-101570000D03*
D11*
%TO.P,U2,7,GPIO5*%
%TO.N,Net-(J5-Pin_5)*%
X178610000Y-104110000D03*
D14*
X177710000Y-104110000D03*
D10*
%TO.P,U2,8,GND*%
%TO.N,unconnected-(U2-GND-Pad8)*%
X178610000Y-106650000D03*
D14*
X177710000Y-106650000D03*
D11*
%TO.P,U2,9,GPIO6*%
%TO.N,Net-(J6-Pin_4)*%
X178610000Y-109190000D03*
D14*
X177710000Y-109190000D03*
D11*
%TO.P,U2,10,GPIO7*%
%TO.N,Net-(J6-Pin_5)*%
X178610000Y-111730000D03*
D14*
X177710000Y-111730000D03*
D11*
%TO.P,U2,11,GPIO8*%
%TO.N,Net-(J7-Pin_4)*%
X178610000Y-114270000D03*
D14*
X177710000Y-114270000D03*
D11*
%TO.P,U2,12,GPIO9*%
%TO.N,Net-(J7-Pin_5)*%
X178610000Y-116810000D03*
D14*
X177710000Y-116810000D03*
D10*
%TO.P,U2,13,GND*%
%TO.N,unconnected-(U2-GND-Pad13)*%
X178610000Y-119350000D03*
D14*
X177710000Y-119350000D03*
D11*
%TO.P,U2,14,GPIO10*%
%TO.N,Net-(J8-Pin_4)*%
X178610000Y-121890000D03*
D14*
X177710000Y-121890000D03*
D11*
%TO.P,U2,15,GPIO11*%
%TO.N,Net-(J8-Pin_5)*%
X178610000Y-124430000D03*
D14*
X177710000Y-124430000D03*
D11*
%TO.P,U2,16,GPIO12*%
%TO.N,Net-(J14-Pin_4)*%
X178610000Y-126970000D03*
D14*
X177710000Y-126970000D03*
D11*
%TO.P,U2,17,GPIO13*%
%TO.N,Net-(J14-Pin_5)*%
X178610000Y-129510000D03*
D14*
X177710000Y-129510000D03*
D10*
%TO.P,U2,18,GND*%
%TO.N,unconnected-(U2-GND-Pad18)*%
X178610000Y-132050000D03*
D14*
X177710000Y-132050000D03*
D11*
%TO.P,U2,19,GPIO14*%
%TO.N,Net-(J13-Pin_4)*%
X178610000Y-134590000D03*
D14*
X177710000Y-134590000D03*
D11*
%TO.P,U2,20,GPIO15*%
%TO.N,Net-(J13-Pin_5)*%
X178610000Y-137130000D03*
D14*
X177710000Y-137130000D03*
D11*
%TO.P,U2,21,GPIO16*%
%TO.N,Net-(J2-GPIO15)*%
X196390000Y-137130000D03*
D14*
X197290000Y-137130000D03*
D11*
%TO.P,U2,22,GPIO17*%
%TO.N,Net-(J2-GPIO14)*%
X196390000Y-134590000D03*
D14*
X197290000Y-134590000D03*
D10*
%TO.P,U2,23,GND*%
%TO.N,unconnected-(U2-GND-Pad23)*%
X196390000Y-132050000D03*
D14*
X197290000Y-132050000D03*
D11*
%TO.P,U2,24,GPIO18*%
%TO.N,Net-(J12-Pin_4)*%
X196390000Y-129510000D03*
D14*
X197290000Y-129510000D03*
D11*
%TO.P,U2,25,GPIO19*%
%TO.N,Net-(J12-Pin_5)*%
X196390000Y-126970000D03*
D14*
X197290000Y-126970000D03*
D11*
%TO.P,U2,26,GPIO20*%
%TO.N,Net-(J11-Pin_4)*%
X196390000Y-124430000D03*
D14*
X197290000Y-124430000D03*
D11*
%TO.P,U2,27,GPIO21*%
%TO.N,Net-(J11-Pin_5)*%
X196390000Y-121890000D03*
D14*
X197290000Y-121890000D03*
D10*
%TO.P,U2,28,GND*%
%TO.N,unconnected-(U2-GND-Pad28)*%
X196390000Y-119350000D03*
D14*
X197290000Y-119350000D03*
D11*
%TO.P,U2,29,GPIO22*%
%TO.N,Net-(J10-Pin_4)*%
X196390000Y-116810000D03*
D14*
X197290000Y-116810000D03*
D11*
%TO.P,U2,30,RUN*%
%TO.N,unconnected-(U2-RUN-Pad30)*%
X196390000Y-114270000D03*
D14*
X197290000Y-114270000D03*
D11*
%TO.P,U2,31,GPIO26_ADC0*%
%TO.N,Net-(J10-Pin_5)*%
X196390000Y-111730000D03*
D14*
X197290000Y-111730000D03*
D11*
%TO.P,U2,32,GPIO27_ADC1*%
%TO.N,Net-(J9-Pin_4)*%
X196390000Y-109190000D03*
D14*
X197290000Y-109190000D03*
D10*
%TO.P,U2,33,AGND*%
%TO.N,unconnected-(U2-AGND-Pad33)*%
X196390000Y-106650000D03*
D14*
X197290000Y-106650000D03*
D11*
%TO.P,U2,34,GPIO28_ADC2*%
%TO.N,Net-(J9-Pin_5)*%
X196390000Y-104110000D03*
D14*
X197290000Y-104110000D03*
D11*
%TO.P,U2,35,ADC_VREF*%
%TO.N,unconnected-(U2-ADC_VREF-Pad35)*%
X196390000Y-101570000D03*
D14*
X197290000Y-101570000D03*
D11*
%TO.P,U2,36,3V3*%
%TO.N,unconnected-(U2-3V3-Pad36)*%
X196390000Y-99030000D03*
D14*
X197290000Y-99030000D03*
D11*
%TO.P,U2,37,3V3_EN*%
%TO.N,unconnected-(U2-3V3_EN-Pad37)*%
X196390000Y-96490000D03*
D14*
X197290000Y-96490000D03*
D10*
%TO.P,U2,38,GND*%
%TO.N,GND*%
X196390000Y-93950000D03*
D14*
X197290000Y-93950000D03*
D11*
%TO.P,U2,39,VSYS*%
%TO.N,+5V*%
X196390000Y-91410000D03*
D14*
X197290000Y-91410000D03*
D11*
%TO.P,U2,40,VBUS*%
%TO.N,unconnected-(U2-VBUS-Pad40)*%
X196390000Y-88870000D03*
D14*
X197290000Y-88870000D03*
D11*
%TO.P,U2,41,SWCLK*%
%TO.N,unconnected-(U2-SWCLK-Pad41)*%
X184960000Y-136900000D03*
D15*
X184960000Y-137800000D03*
D10*
%TO.P,U2,42,GND*%
%TO.N,unconnected-(U2-GND-Pad42)*%
X187500000Y-136900000D03*
D15*
X187500000Y-137800000D03*
D11*
%TO.P,U2,43,SWDIO*%
%TO.N,unconnected-(U2-SWDIO-Pad43)*%
X190040000Y-136900000D03*
D15*
X190040000Y-137800000D03*
%TD*%
D16*
%TO.P,C2,1*%
%TO.N,+5V*%
X202700000Y-74550000D03*
D17*
%TO.P,C2,2*%
%TO.N,GND*%
X199200000Y-74550000D03*
%TD*%
D12*
%TO.P,J13,1,Pin_1*%
%TO.N,GND*%
X150000000Y-123000000D03*
D13*
%TO.P,J13,2,Pin_2*%
%TO.N,+24V*%
X150000000Y-125500000D03*
%TO.P,J13,3,Pin_3*%
%TO.N,+5V*%
X150000000Y-128000000D03*
%TO.P,J13,4,Pin_4*%
%TO.N,Net-(J13-Pin_4)*%
X150000000Y-130500000D03*
%TO.P,J13,5,Pin_5*%
%TO.N,Net-(J13-Pin_5)*%
X150000000Y-133000000D03*
%TD*%
D17*
%TO.P,C1,1*%
%TO.N,+24V*%
X170000000Y-73750000D03*
%TO.P,C1,2*%
%TO.N,GND*%
X170000000Y-78750000D03*
%TD*%
D12*
%TO.P,J3,1,Pin_1*%
%TO.N,GND*%
X150000000Y-89500000D03*
D13*
%TO.P,J3,2,Pin_2*%
%TO.N,+24V*%
X150000000Y-92000000D03*
%TO.P,J3,3,Pin_3*%
%TO.N,+5V*%
X150000000Y-94500000D03*
%TO.P,J3,4,Pin_4*%
%TO.N,Net-(J3-Pin_4)*%
X150000000Y-97000000D03*
%TO.P,J3,5,Pin_5*%
%TO.N,Net-(J3-Pin_5)*%
X150000000Y-99500000D03*
%TD*%
D12*
%TO.P,J8,1,Pin_1*%
%TO.N,GND*%
X90000000Y-89500000D03*
D13*
%TO.P,J8,2,Pin_2*%
%TO.N,+24V*%
X90000000Y-92000000D03*
%TO.P,J8,3,Pin_3*%
%TO.N,+5V*%
X90000000Y-94500000D03*
%TO.P,J8,4,Pin_4*%
%TO.N,Net-(J8-Pin_4)*%
X90000000Y-97000000D03*
%TO.P,J8,5,Pin_5*%
%TO.N,Net-(J8-Pin_5)*%
X90000000Y-99500000D03*
%TD*%
D18*
%TO.P,U1,1,VIN*%
%TO.N,+24V*%
X174700000Y-67550000D03*
D19*
%TO.P,U1,2,OUT*%
%TO.N,Net-(D1-K)*%
X176400000Y-63850000D03*
%TO.P,U1,3,GND*%
%TO.N,GND*%
X178100000Y-67550000D03*
%TO.P,U1,4,FB*%
%TO.N,+5V*%
X179800000Y-63850000D03*
%TO.P,U1,5,~{ON}/OFF*%
%TO.N,GND*%
X181500000Y-67550000D03*
%TD*%
D12*
%TO.P,J11,1,Pin_1*%
%TO.N,GND*%
X120000000Y-123500000D03*
D13*
%TO.P,J11,2,Pin_2*%
%TO.N,+24V*%
X120000000Y-126000000D03*
%TO.P,J11,3,Pin_3*%
%TO.N,+5V*%
X120000000Y-128500000D03*
%TO.P,J11,4,Pin_4*%
%TO.N,Net-(J11-Pin_4)*%
X120000000Y-131000000D03*
%TO.P,J11,5,Pin_5*%
%TO.N,Net-(J11-Pin_5)*%
X120000000Y-133500000D03*
%TD*%
D12*
%TO.P,J4,1,Pin_1*%
%TO.N,GND*%
X165000000Y-89500000D03*
D13*
%TO.P,J4,2,Pin_2*%
%TO.N,+24V*%
X165000000Y-92000000D03*
%TO.P,J4,3,Pin_3*%
%TO.N,+5V*%
X165000000Y-94500000D03*
%TO.P,J4,4,Pin_4*%
%TO.N,Net-(J4-Pin_4)*%
X165000000Y-97000000D03*
%TO.P,J4,5,Pin_5*%
%TO.N,Net-(J4-Pin_5)*%
X165000000Y-99500000D03*
%TD*%
D20*
%TO.P,L1,1,1*%
%TO.N,Net-(D1-K)*%
X190500000Y-67500000D03*
%TO.P,L1,2,2*%
%TO.N,+5V*%
X190500000Y-59000000D03*
%TD*%
D21*
%TO.P,D1,1,K*%
%TO.N,Net-(D1-K)*%
X177960000Y-74550000D03*
D22*
%TO.P,D1,2,A*%
%TO.N,GND*%
X193200000Y-74550000D03*
%TD*%
D12*
%TO.P,J6,1,Pin_1*%
%TO.N,GND*%
X120000000Y-89500000D03*
D13*
%TO.P,J6,2,Pin_2*%
%TO.N,+24V*%
X120000000Y-92000000D03*
%TO.P,J6,3,Pin_3*%
%TO.N,+5V*%
X120000000Y-94500000D03*
%TO.P,J6,4,Pin_4*%
%TO.N,Net-(J6-Pin_4)*%
X120000000Y-97000000D03*
%TO.P,J6,5,Pin_5*%
%TO.N,Net-(J6-Pin_5)*%
X120000000Y-99500000D03*
%TD*%
D12*
%TO.P,J9,1,Pin_1*%
%TO.N,GND*%
X90000000Y-123500000D03*
D13*
%TO.P,J9,2,Pin_2*%
%TO.N,+24V*%
X90000000Y-126000000D03*
%TO.P,J9,3,Pin_3*%
%TO.N,+5V*%
X90000000Y-128500000D03*
%TO.P,J9,4,Pin_4*%
%TO.N,Net-(J9-Pin_4)*%
X90000000Y-131000000D03*
%TO.P,J9,5,Pin_5*%
%TO.N,Net-(J9-Pin_5)*%
X90000000Y-133500000D03*
%TD*%
D12*
%TO.P,J10,1,Pin_1*%
%TO.N,GND*%
X105000000Y-123500000D03*
D13*
%TO.P,J10,2,Pin_2*%
%TO.N,+24V*%
X105000000Y-126000000D03*
%TO.P,J10,3,Pin_3*%
%TO.N,+5V*%
X105000000Y-128500000D03*
%TO.P,J10,4,Pin_4*%
%TO.N,Net-(J10-Pin_4)*%
X105000000Y-131000000D03*
%TO.P,J10,5,Pin_5*%
%TO.N,Net-(J10-Pin_5)*%
X105000000Y-133500000D03*
%TD*%
D23*
%TO.P,J1,1,Pin_1*%
%TO.N,GND*%
X169500000Y-64250000D03*
D24*
%TO.P,J1,2,Pin_2*%
%TO.N,+24V*%
X169500000Y-66750000D03*
%TD*%
D12*
%TO.P,J7,1,Pin_1*%
%TO.N,GND*%
X105000000Y-89500000D03*
D13*
%TO.P,J7,2,Pin_2*%
%TO.N,+24V*%
X105000000Y-92000000D03*
%TO.P,J7,3,Pin_3*%
%TO.N,+5V*%
X105000000Y-94500000D03*
%TO.P,J7,4,Pin_4*%
%TO.N,Net-(J7-Pin_4)*%
X105000000Y-97000000D03*
%TO.P,J7,5,Pin_5*%
%TO.N,Net-(J7-Pin_5)*%
X105000000Y-99500000D03*
%TD*%
D12*
%TO.P,J14,1,Pin_1*%
%TO.N,GND*%
X165000000Y-123000000D03*
D13*
%TO.P,J14,2,Pin_2*%
%TO.N,+24V*%
X165000000Y-125500000D03*
%TO.P,J14,3,Pin_3*%
%TO.N,+5V*%
X165000000Y-128000000D03*
%TO.P,J14,4,Pin_4*%
%TO.N,Net-(J14-Pin_4)*%
X165000000Y-130500000D03*
%TO.P,J14,5,Pin_5*%
%TO.N,Net-(J14-Pin_5)*%
X165000000Y-133000000D03*
%TD*%
D25*
%TO.N,+5V*%
X202700000Y-74550000D02*
X202700000Y-73200000D01*
X202700000Y-73200000D02*
X190500000Y-61000000D01*
X190500000Y-61000000D02*
X190500000Y-59000000D01*
%TO.N,*%
X242500000Y-33500000D02*
X243000000Y-33500000D01*
%TO.N,+24V*%
X169500000Y-73250000D02*
X170000000Y-73750000D01*
X90500000Y-125500000D02*
X90000000Y-126000000D01*
X90000000Y-92000000D02*
X165000000Y-92000000D01*
X170300000Y-67550000D02*
X169500000Y-66750000D01*
X165000000Y-125500000D02*
X90500000Y-125500000D01*
X90000000Y-126000000D02*
X86000000Y-122000000D01*
X86000000Y-96000000D02*
X90000000Y-92000000D01*
X174700000Y-67550000D02*
X170300000Y-67550000D01*
X169500000Y-66750000D02*
X169500000Y-73250000D01*
X86000000Y-122000000D02*
X86000000Y-96000000D01*
%TO.N,+5V*%
X171780000Y-87720000D02*
X165000000Y-94500000D01*
X196390000Y-91410000D02*
X197670000Y-90130000D01*
X202000000Y-90130000D02*
X214390000Y-90130000D01*
X192700000Y-87720000D02*
X171780000Y-87720000D01*
X90000000Y-128500000D02*
X164500000Y-128500000D01*
X196390000Y-91410000D02*
X192700000Y-87720000D01*
X165000000Y-94500000D02*
X90000000Y-94500000D01*
X185650000Y-63850000D02*
X190500000Y-59000000D01*
X164500000Y-128500000D02*
X165000000Y-128000000D01*
X179800000Y-63850000D02*
X185650000Y-63850000D01*
X197670000Y-90130000D02*
X202000000Y-90130000D01*
X202700000Y-74550000D02*
X202700000Y-89430000D01*
X214390000Y-90130000D02*
X215540000Y-91280000D01*
X202700000Y-89430000D02*
X202000000Y-90130000D01*
%TO.N,Net-(D1-K)*%
X183450000Y-74550000D02*
X190500000Y-67500000D01*
X176400000Y-63850000D02*
X176400000Y-72990000D01*
X177960000Y-74550000D02*
X183450000Y-74550000D01*
X176400000Y-72990000D02*
X177960000Y-74550000D01*
%TO.N,Net-(J14-Pin_5)*%
X168490000Y-129510000D02*
X178610000Y-129510000D01*
X165000000Y-133000000D02*
X168490000Y-129510000D01*
%TO.N,Net-(J14-Pin_4)*%
X168530000Y-126970000D02*
X165000000Y-130500000D01*
X178610000Y-126970000D02*
X168530000Y-126970000D01*
%TO.N,Net-(J12-Pin_5)*%
X163000000Y-140500000D02*
X161000000Y-138500000D01*
X140000000Y-138500000D02*
X135000000Y-133500000D01*
X202000000Y-138500000D02*
X200000000Y-140500000D01*
X200000000Y-140500000D02*
X163000000Y-140500000D01*
X202000000Y-131020000D02*
X202000000Y-138500000D01*
X197950000Y-126970000D02*
X202000000Y-131020000D01*
X161000000Y-138500000D02*
X140000000Y-138500000D01*
X196390000Y-126970000D02*
X197950000Y-126970000D01*
%TO.N,Net-(J11-Pin_5)*%
X202800000Y-126740000D02*
X202800000Y-139200000D01*
X197950000Y-121890000D02*
X202800000Y-126740000D01*
X202800000Y-139200000D02*
X200500000Y-141500000D01*
X127500000Y-133500000D02*
X120000000Y-133500000D01*
X134000000Y-140000000D02*
X127500000Y-133500000D01*
X157500000Y-140000000D02*
X134000000Y-140000000D01*
X196390000Y-121890000D02*
X197950000Y-121890000D01*
X200500000Y-141500000D02*
X159000000Y-141500000D01*
X159000000Y-141500000D02*
X157500000Y-140000000D01*
%TO.N,Net-(J10-Pin_4)*%
X156900000Y-141900000D02*
X200665686Y-141900000D01*
X105000000Y-131000000D02*
X110000000Y-136000000D01*
X197950000Y-116810000D02*
X196390000Y-116810000D01*
X203200000Y-139365686D02*
X203200000Y-122060000D01*
X156000000Y-141000000D02*
X156900000Y-141900000D01*
X203200000Y-122060000D02*
X197950000Y-116810000D01*
X110000000Y-136000000D02*
X125000000Y-136000000D01*
X130000000Y-141000000D02*
X156000000Y-141000000D01*
X125000000Y-136000000D02*
X130000000Y-141000000D01*
X200665686Y-141900000D02*
X203200000Y-139365686D01*
%TO.N,Net-(J12-Pin_4)*%
X201500000Y-137000000D02*
X201500000Y-133060000D01*
X198650000Y-139850000D02*
X201500000Y-137000000D01*
X197950000Y-129510000D02*
X196390000Y-129510000D01*
X135000000Y-131000000D02*
X142000000Y-138000000D01*
X142000000Y-138000000D02*
X161500000Y-138000000D01*
X201500000Y-133060000D02*
X197950000Y-129510000D01*
X163350000Y-139850000D02*
X198650000Y-139850000D01*
X161500000Y-138000000D02*
X163350000Y-139850000D01*
%TO.N,Net-(J13-Pin_4)*%
X150000000Y-130500000D02*
X154090000Y-134590000D01*
X154090000Y-134590000D02*
X178610000Y-134590000D01*
%TO.N,Net-(J10-Pin_5)*%
X153500000Y-142000000D02*
X154500000Y-143000000D01*
X105000000Y-133500000D02*
X108500000Y-137000000D01*
X200131372Y-143000000D02*
X203600000Y-139531372D01*
X123000000Y-137000000D02*
X128000000Y-142000000D01*
X108500000Y-137000000D02*
X123000000Y-137000000D01*
X154500000Y-143000000D02*
X200131372Y-143000000D01*
X203600000Y-139531372D02*
X203600000Y-116100000D01*
X203600000Y-116100000D02*
X199230000Y-111730000D01*
X128000000Y-142000000D02*
X153500000Y-142000000D01*
X199230000Y-111730000D02*
X196390000Y-111730000D01*
%TO.N,Net-(J13-Pin_5)*%
X150000000Y-133000000D02*
X154130000Y-137130000D01*
X154130000Y-137130000D02*
X178610000Y-137130000D01*
%TO.N,Net-(J11-Pin_4)*%
X160500000Y-141000000D02*
X200065686Y-141000000D01*
X136000000Y-139500000D02*
X159000000Y-139500000D01*
X159000000Y-139500000D02*
X160500000Y-141000000D01*
X120000000Y-131000000D02*
X127500000Y-131000000D01*
X202400000Y-138665686D02*
X202400000Y-127900000D01*
X200065686Y-141000000D02*
X202400000Y-138665686D01*
X202400000Y-127900000D02*
X198930000Y-124430000D01*
X198930000Y-124430000D02*
X196390000Y-124430000D01*
X127500000Y-131000000D02*
X136000000Y-139500000D01*
%TO.N,Net-(J3-Pin_5)*%
X173535686Y-99030000D02*
X178610000Y-99030000D01*
X151550000Y-101050000D02*
X171515686Y-101050000D01*
X150000000Y-99500000D02*
X151550000Y-101050000D01*
X171515686Y-101050000D02*
X173535686Y-99030000D01*
%TO.N,Net-(J3-Pin_4)*%
X153650000Y-100650000D02*
X171350000Y-100650000D01*
X175510000Y-96490000D02*
X178610000Y-96490000D01*
X150000000Y-97000000D02*
X153650000Y-100650000D01*
X171350000Y-100650000D02*
X175510000Y-96490000D01*
%TO.N,Net-(J4-Pin_4)*%
X176130000Y-88870000D02*
X168000000Y-97000000D01*
X168000000Y-97000000D02*
X165000000Y-97000000D01*
X178610000Y-88870000D02*
X176130000Y-88870000D01*
%TO.N,Net-(J4-Pin_5)*%
X165000000Y-99500000D02*
X168000000Y-99500000D01*
X176090000Y-91410000D02*
X178610000Y-91410000D01*
X168000000Y-99500000D02*
X176090000Y-91410000D01*
%TO.N,Net-(J5-Pin_5)*%
X170610000Y-104110000D02*
X178610000Y-104110000D01*
X169000000Y-102500000D02*
X170610000Y-104110000D01*
X135000000Y-99500000D02*
X138000000Y-102500000D01*
X138000000Y-102500000D02*
X169000000Y-102500000D01*
%TO.N,Net-(J5-Pin_4)*%
X139570000Y-101570000D02*
X178610000Y-101570000D01*
X135000000Y-97000000D02*
X139570000Y-101570000D01*
%TO.N,Net-(J6-Pin_4)*%
X125900000Y-102900000D02*
X120000000Y-97000000D01*
X168400000Y-102900000D02*
X125900000Y-102900000D01*
X178610000Y-109190000D02*
X174690000Y-109190000D01*
X174690000Y-109190000D02*
X168400000Y-102900000D01*
%TO.N,Net-(J6-Pin_5)*%
X120000000Y-99500000D02*
X124000000Y-103500000D01*
X124000000Y-103500000D02*
X166500000Y-103500000D01*
X174730000Y-111730000D02*
X178610000Y-111730000D01*
X166500000Y-103500000D02*
X174730000Y-111730000D01*
%TO.N,Net-(J7-Pin_4)*%
X115000000Y-97000000D02*
X122000000Y-104000000D01*
X105000000Y-97000000D02*
X115000000Y-97000000D01*
X122000000Y-104000000D02*
X166000000Y-104000000D01*
X166000000Y-104000000D02*
X176270000Y-114270000D01*
X176270000Y-114270000D02*
X178610000Y-114270000D01*
%TO.N,Net-(J7-Pin_5)*%
X121000000Y-104500000D02*
X164740000Y-104500000D01*
X177050000Y-116810000D02*
X178610000Y-116810000D01*
X116000000Y-99500000D02*
X121000000Y-104500000D01*
X164740000Y-104500000D02*
X177050000Y-116810000D01*
X105000000Y-99500000D02*
X116000000Y-99500000D01*
%TO.N,Net-(J8-Pin_4)*%
X163000000Y-105000000D02*
X175500000Y-117500000D01*
X175500000Y-120340000D02*
X177050000Y-121890000D01*
X175500000Y-117500000D02*
X175500000Y-120340000D01*
X177050000Y-121890000D02*
X178610000Y-121890000D01*
X90000000Y-97000000D02*
X98000000Y-105000000D01*
X98000000Y-105000000D02*
X163000000Y-105000000D01*
%TO.N,Net-(J8-Pin_5)*%
X90000000Y-99500000D02*
X96500000Y-106000000D01*
X158620000Y-106000000D02*
X177050000Y-124430000D01*
X96500000Y-106000000D02*
X158620000Y-106000000D01*
X177050000Y-124430000D02*
X178610000Y-124430000D01*
%TO.N,Net-(J9-Pin_4)*%
X199690000Y-109190000D02*
X196390000Y-109190000D01*
X204000000Y-113500000D02*
X199690000Y-109190000D01*
X204000000Y-139697058D02*
X204000000Y-113500000D01*
X127500000Y-143500000D02*
X200197058Y-143500000D01*
X97500000Y-138500000D02*
X122500000Y-138500000D01*
X200197058Y-143500000D02*
X204000000Y-139697058D01*
X122500000Y-138500000D02*
X127500000Y-143500000D01*
X90000000Y-131000000D02*
X97500000Y-138500000D01*
%TO.N,Net-(J9-Pin_5)*%
X121500000Y-139500000D02*
X126500000Y-144500000D01*
X90000000Y-133500000D02*
X96000000Y-139500000D01*
X126500000Y-144500000D02*
X203000000Y-144500000D01*
X96000000Y-139500000D02*
X121500000Y-139500000D01*
X204400000Y-109400000D02*
X199110000Y-104110000D01*
X204400000Y-143100000D02*
X204400000Y-109400000D01*
X203000000Y-144500000D02*
X204400000Y-143100000D01*
X199110000Y-104110000D02*
X196390000Y-104110000D01*
%TD*%
M02*
