M48
; DRILL file {KiCad 8.0.8-8.0.8-0~ubuntu24.04.1} date 2025-06-26T13:06:55-0500
; FORMAT={-:-/ absolute / inch / decimal}
; #@! TF.CreationDate,2025-06-26T13:06:55-05:00
; #@! TF.GenerationSoftware,Kicad,Pcbnew,8.0.8-8.0.8-0~ubuntu24.04.1
; #@! TF.FileFunction,Plated,1,2,PTH
FMAT,2
INCH
; #@! TA.AperFunction,Plated,PTH,ComponentDrill
T1C0.0315
; #@! TA.AperFunction,Plated,PTH,ComponentDrill
T2C0.0374
; #@! TA.AperFunction,Plated,PTH,ComponentDrill
T3C0.0394
; #@! TA.AperFunction,Plated,PTH,ComponentDrill
T4C0.0402
; #@! TA.AperFunction,Plated,PTH,ComponentDrill
T5C0.0433
; #@! TA.AperFunction,Plated,PTH,ComponentDrill
T6C0.0630
%
G90
G05
T1
X3.189Y-3.5728
X3.189Y-4.065
X3.1976Y-2.1555
X3.1976Y-2.6476
X3.289Y-3.5728
X3.289Y-4.065
X3.2976Y-2.1555
X3.2976Y-2.6476
X3.389Y-3.5728
X3.389Y-4.065
X3.3976Y-2.1555
X3.3976Y-2.6476
X3.489Y-3.5728
X3.489Y-4.065
X3.4976Y-2.1555
X3.4976Y-2.6476
X3.589Y-3.5728
X3.589Y-4.065
X3.5976Y-2.1555
X3.5976Y-2.6476
X3.689Y-3.5728
X3.689Y-4.065
X3.6976Y-2.1555
X3.6976Y-2.6476
X3.789Y-3.5728
X3.789Y-4.065
X3.7976Y-2.1555
X3.7976Y-2.6476
X3.889Y-3.5728
X3.889Y-4.065
X3.8976Y-2.1555
X3.8976Y-2.6476
X4.1732Y-3.5728
X4.1732Y-4.065
X4.1819Y-2.1555
X4.1819Y-2.6476
X4.2732Y-3.5728
X4.2732Y-4.065
X4.2819Y-2.1555
X4.2819Y-2.6476
X4.3701Y-4.4783
X4.3701Y-4.9705
X4.3701Y-5.187
X4.3701Y-5.6791
X4.3701Y-5.8957
X4.3701Y-6.3878
X4.3732Y-3.5728
X4.3732Y-4.065
X4.3819Y-2.1555
X4.3819Y-2.6476
X4.4701Y-4.4783
X4.4701Y-4.9705
X4.4701Y-5.187
X4.4701Y-5.6791
X4.4701Y-5.8957
X4.4701Y-6.3878
X4.4732Y-3.5728
X4.4732Y-4.065
X4.4819Y-2.1555
X4.4819Y-2.6476
X4.5701Y-4.4783
X4.5701Y-4.9705
X4.5701Y-5.187
X4.5701Y-5.6791
X4.5701Y-5.8957
X4.5701Y-6.3878
X4.5732Y-3.5728
X4.5732Y-4.065
X4.5819Y-2.1555
X4.5819Y-2.6476
X4.6701Y-4.4783
X4.6701Y-4.9705
X4.6701Y-5.187
X4.6701Y-5.6791
X4.6701Y-5.8957
X4.6701Y-6.3878
X4.6732Y-3.5728
X4.6732Y-4.065
X4.6819Y-2.1555
X4.6819Y-2.6476
X4.7701Y-4.4783
X4.7701Y-4.9705
X4.7701Y-5.187
X4.7701Y-5.6791
X4.7701Y-5.8957
X4.7701Y-6.3878
X4.7732Y-3.5728
X4.7732Y-4.065
X4.7819Y-2.1555
X4.7819Y-2.6476
X4.8701Y-4.4783
X4.8701Y-4.9705
X4.8701Y-5.187
X4.8701Y-5.6791
X4.8701Y-5.8957
X4.8701Y-6.3878
X4.8732Y-3.5728
X4.8732Y-4.065
X4.8819Y-2.1555
X4.8819Y-2.6476
X4.9701Y-4.4783
X4.9701Y-4.9705
X4.9701Y-5.187
X4.9701Y-5.6791
X4.9701Y-5.8957
X4.9701Y-6.3878
X5.0701Y-4.4783
X5.0701Y-4.9705
X5.0701Y-5.187
X5.0701Y-5.6791
X5.0701Y-5.8957
X5.0701Y-6.3878
X5.1575Y-3.5728
X5.1575Y-4.065
X5.1661Y-2.1555
X5.1661Y-2.6476
X5.2575Y-3.5728
X5.2575Y-4.065
X5.2661Y-2.1555
X5.2661Y-2.6476
X5.3575Y-3.5728
X5.3575Y-4.065
X5.3661Y-2.1555
X5.3661Y-2.6476
X5.4575Y-3.5728
X5.4575Y-4.065
X5.4661Y-2.1555
X5.4661Y-2.6476
X5.5575Y-3.5728
X5.5575Y-4.065
X5.5661Y-2.1555
X5.5661Y-2.6476
X5.6575Y-3.5728
X5.6575Y-4.065
X5.6661Y-2.1555
X5.6661Y-2.6476
X5.7575Y-3.5728
X5.7575Y-4.065
X5.7661Y-2.1555
X5.7661Y-2.6476
X5.8575Y-3.5728
X5.8575Y-4.065
X5.8661Y-2.1555
X5.8661Y-2.6476
X6.1417Y-3.5728
X6.1417Y-4.065
X6.1504Y-2.1555
X6.1504Y-2.6476
X6.2417Y-3.5728
X6.2417Y-4.065
X6.2504Y-2.1555
X6.2504Y-2.6476
X6.3417Y-3.5728
X6.3417Y-4.065
X6.3504Y-2.1555
X6.3504Y-2.6476
X6.4417Y-3.5728
X6.4417Y-4.065
X6.4504Y-2.1555
X6.4504Y-2.6476
X6.5417Y-3.5728
X6.5417Y-4.065
X6.5504Y-2.1555
X6.5504Y-2.6476
X6.6417Y-3.5728
X6.6417Y-4.065
X6.6504Y-2.1555
X6.6504Y-2.6476
X6.7417Y-3.5728
X6.7417Y-4.065
X6.7504Y-2.1555
X6.7504Y-2.6476
X6.8417Y-3.5728
X6.8417Y-4.065
X6.8504Y-2.1555
X6.8504Y-2.6476
X6.9252Y-4.6535
X6.9252Y-4.7913
X7.2598Y-5.2047
X7.2598Y-5.4016
T2
X3.3858Y-2.9528
X3.3858Y-3.2677
X3.4843Y-2.9528
X3.4843Y-3.2677
X3.5827Y-2.9528
X3.5827Y-3.2677
X3.6811Y-2.9528
X3.6811Y-3.2677
X4.3701Y-2.9528
X4.3701Y-3.2677
X4.4685Y-2.9528
X4.4685Y-3.2677
X4.5669Y-2.9528
X4.5669Y-3.2677
X4.6654Y-2.9528
X4.6654Y-3.2677
X5.3346Y-4.5669
X5.3346Y-5.2756
X5.3346Y-5.9843
X5.3543Y-2.9528
X5.3543Y-3.2677
X5.4331Y-4.5669
X5.4331Y-5.2756
X5.4331Y-5.9843
X5.4528Y-2.9528
X5.4528Y-3.2677
X5.5315Y-4.5669
X5.5315Y-5.2756
X5.5315Y-5.9843
X5.5512Y-2.9528
X5.5512Y-3.2677
X5.6299Y-4.5669
X5.6299Y-5.2756
X5.6299Y-5.9843
X5.6496Y-2.9528
X5.6496Y-3.2677
X6.3386Y-2.9528
X6.3386Y-3.2677
X6.437Y-2.9528
X6.437Y-3.2677
X6.5354Y-2.9528
X6.5354Y-3.2677
X6.6339Y-2.9528
X6.6339Y-3.2677
T3
X2.9528Y-4.385
X2.9528Y-4.485
X2.9528Y-4.585
X2.9528Y-4.685
X2.9528Y-4.785
X2.9528Y-4.885
X2.9528Y-4.985
X2.9528Y-5.085
X2.9528Y-5.185
X2.9528Y-5.285
X2.9528Y-5.385
X2.9528Y-5.485
X2.9528Y-5.585
X2.9528Y-5.685
X2.9528Y-5.785
X2.9528Y-5.885
X2.9528Y-5.985
X2.9528Y-6.085
X2.9528Y-6.185
X2.9528Y-6.285
X3.0528Y-4.385
X3.0528Y-4.485
X3.0528Y-4.585
X3.0528Y-4.685
X3.0528Y-4.785
X3.0528Y-4.885
X3.0528Y-4.985
X3.0528Y-5.085
X3.0528Y-5.185
X3.0528Y-5.285
X3.0528Y-5.385
X3.0528Y-5.485
X3.0528Y-5.585
X3.0528Y-5.685
X3.0528Y-5.785
X3.0528Y-5.885
X3.0528Y-5.985
X3.0528Y-6.085
X3.0528Y-6.185
X3.0528Y-6.285
X5.9646Y-5.2362
X5.9646Y-5.3346
X5.9646Y-5.9449
X5.9646Y-6.0433
X6.0039Y-4.5276
X6.0039Y-4.626
X7.3189Y-4.8307
X7.3189Y-4.9291
T4
X3.3268Y-4.4
X3.3268Y-4.5
X3.3268Y-4.6
X3.3268Y-4.7
X3.3268Y-4.8
X3.3268Y-4.9
X3.3268Y-5.0
X3.3268Y-5.1
X3.3268Y-5.2
X3.3268Y-5.3
X3.3268Y-5.4
X3.3268Y-5.5
X3.3268Y-5.6
X3.3268Y-5.7
X3.3268Y-5.8
X3.3268Y-5.9
X3.3268Y-6.0
X3.3268Y-6.1
X3.3268Y-6.2
X3.3268Y-6.3
X3.5768Y-4.4091
X3.6768Y-4.4091
X3.7768Y-4.4091
X4.0268Y-4.4
X4.0268Y-4.5
X4.0268Y-4.6
X4.0268Y-4.7
X4.0268Y-4.8
X4.0268Y-4.9
X4.0268Y-5.0
X4.0268Y-5.1
X4.0268Y-5.2
X4.0268Y-5.3
X4.0268Y-5.4
X4.0268Y-5.5
X4.0268Y-5.6
X4.0268Y-5.7
X4.0268Y-5.8
X4.0268Y-5.9
X4.0268Y-6.0
X4.0268Y-6.1
X4.0268Y-6.2
X4.0268Y-6.3
T5
X6.3071Y-5.3346
X6.3567Y-4.6829
X6.374Y-5.4803
X6.4409Y-5.3346
X6.4567Y-4.6829
X6.5079Y-5.4803
X6.5567Y-4.6829
X6.5748Y-5.3346
T6
X6.9055Y-5.0031
X6.9055Y-5.6031
M30
