%TF.GenerationSoftware,KiCad,Pcbnew,8.0.8-8.0.8-0~ubuntu24.04.1*%
%TF.CreationDate,2025-05-21T16:34:47-05:00*%
%TF.ProjectId,wasabi,77617361-6269-42e6-9b69-6361645f7063,rev?*%
%TF.SameCoordinates,Original*%
%TF.FileFunction,Legend,Top*%
%TF.FilePolarity,Positive*%
%FSLAX46Y46*%
G04 Gerber Fmt 4.6, Leading zero omitted, Abs format (unit mm)*
G04 Created by KiCad (PCBNEW 8.0.8-8.0.8-0~ubuntu24.04.1) date 2025-05-21 16:34:47*
%MOMM*%
%LPD*%
G01*
G04 APERTURE LIST*
%ADD10C,0.150000*%
%ADD11C,0.120000*%
G04 APERTURE END LIST*
D10*
X218276666Y-141724819D02*
X218276666Y-142439104D01*
X218276666Y-142439104D02*
X218229047Y-142581961D01*
X218229047Y-142581961D02*
X218133809Y-142677200D01*
X218133809Y-142677200D02*
X217990952Y-142724819D01*
X217990952Y-142724819D02*
X217895714Y-142724819D01*
X218705238Y-141820057D02*
X218752857Y-141772438D01*
X218752857Y-141772438D02*
X218848095Y-141724819D01*
X218848095Y-141724819D02*
X219086190Y-141724819D01*
X219086190Y-141724819D02*
X219181428Y-141772438D01*
X219181428Y-141772438D02*
X219229047Y-141820057D01*
X219229047Y-141820057D02*
X219276666Y-141915295D01*
X219276666Y-141915295D02*
X219276666Y-142010533D01*
X219276666Y-142010533D02*
X219229047Y-142153390D01*
X219229047Y-142153390D02*
X218657619Y-142724819D01*
X218657619Y-142724819D02*
X219276666Y-142724819D01*
X138004819Y-129309523D02*
X138719104Y-129309523D01*
X138719104Y-129309523D02*
X138861961Y-129357142D01*
X138861961Y-129357142D02*
X138957200Y-129452380D01*
X138957200Y-129452380D02*
X139004819Y-129595237D01*
X139004819Y-129595237D02*
X139004819Y-129690475D01*
X139004819Y-128309523D02*
X139004819Y-128880951D01*
X139004819Y-128595237D02*
X138004819Y-128595237D01*
X138004819Y-128595237D02*
X138147676Y-128690475D01*
X138147676Y-128690475D02*
X138242914Y-128785713D01*
X138242914Y-128785713D02*
X138290533Y-128880951D01*
X138100057Y-127928570D02*
X138052438Y-127880951D01*
X138052438Y-127880951D02*
X138004819Y-127785713D01*
X138004819Y-127785713D02*
X138004819Y-127547618D01*
X138004819Y-127547618D02*
X138052438Y-127452380D01*
X138052438Y-127452380D02*
X138100057Y-127404761D01*
X138100057Y-127404761D02*
X138195295Y-127357142D01*
X138195295Y-127357142D02*
X138290533Y-127357142D01*
X138290533Y-127357142D02*
X138433390Y-127404761D01*
X138433390Y-127404761D02*
X139004819Y-127976189D01*
X139004819Y-127976189D02*
X139004819Y-127357142D01*
X138004819Y-94833333D02*
X138719104Y-94833333D01*
X138719104Y-94833333D02*
X138861961Y-94880952D01*
X138861961Y-94880952D02*
X138957200Y-94976190D01*
X138957200Y-94976190D02*
X139004819Y-95119047D01*
X139004819Y-95119047D02*
X139004819Y-95214285D01*
X138004819Y-93880952D02*
X138004819Y-94357142D01*
X138004819Y-94357142D02*
X138481009Y-94404761D01*
X138481009Y-94404761D02*
X138433390Y-94357142D01*
X138433390Y-94357142D02*
X138385771Y-94261904D01*
X138385771Y-94261904D02*
X138385771Y-94023809D01*
X138385771Y-94023809D02*
X138433390Y-93928571D01*
X138433390Y-93928571D02*
X138481009Y-93880952D01*
X138481009Y-93880952D02*
X138576247Y-93833333D01*
X138576247Y-93833333D02*
X138814342Y-93833333D01*
X138814342Y-93833333D02*
X138909580Y-93880952D01*
X138909580Y-93880952D02*
X138957200Y-93928571D01*
X138957200Y-93928571D02*
X139004819Y-94023809D01*
X139004819Y-94023809D02*
X139004819Y-94261904D01*
X139004819Y-94261904D02*
X138957200Y-94357142D01*
X138957200Y-94357142D02*
X138909580Y-94404761D01*
X186738095Y-112454819D02*
X186738095Y-113264342D01*
X186738095Y-113264342D02*
X186785714Y-113359580D01*
X186785714Y-113359580D02*
X186833333Y-113407200D01*
X186833333Y-113407200D02*
X186928571Y-113454819D01*
X186928571Y-113454819D02*
X187119047Y-113454819D01*
X187119047Y-113454819D02*
X187214285Y-113407200D01*
X187214285Y-113407200D02*
X187261904Y-113359580D01*
X187261904Y-113359580D02*
X187309523Y-113264342D01*
X187309523Y-113264342D02*
X187309523Y-112454819D01*
X187738095Y-112550057D02*
X187785714Y-112502438D01*
X187785714Y-112502438D02*
X187880952Y-112454819D01*
X187880952Y-112454819D02*
X188119047Y-112454819D01*
X188119047Y-112454819D02*
X188214285Y-112502438D01*
X188214285Y-112502438D02*
X188261904Y-112550057D01*
X188261904Y-112550057D02*
X188309523Y-112645295D01*
X188309523Y-112645295D02*
X188309523Y-112740533D01*
X188309523Y-112740533D02*
X188261904Y-112883390D01*
X188261904Y-112883390D02*
X187690476Y-113454819D01*
X187690476Y-113454819D02*
X188309523Y-113454819D01*
X199597998Y-127360868D02*
X199517185Y-127387805D01*
X199517185Y-127387805D02*
X199436373Y-127468618D01*
X199436373Y-127468618D02*
X199382498Y-127576367D01*
X199382498Y-127576367D02*
X199382498Y-127684117D01*
X199382498Y-127684117D02*
X199409436Y-127764929D01*
X199409436Y-127764929D02*
X199490248Y-127899616D01*
X199490248Y-127899616D02*
X199571060Y-127980428D01*
X199571060Y-127980428D02*
X199705747Y-128061241D01*
X199705747Y-128061241D02*
X199786560Y-128088178D01*
X199786560Y-128088178D02*
X199894309Y-128088178D01*
X199894309Y-128088178D02*
X200002059Y-128034303D01*
X200002059Y-128034303D02*
X200055934Y-127980428D01*
X200055934Y-127980428D02*
X200109808Y-127872679D01*
X200109808Y-127872679D02*
X200109808Y-127818804D01*
X200109808Y-127818804D02*
X199921247Y-127630242D01*
X199921247Y-127630242D02*
X199813497Y-127737992D01*
X200406120Y-127630242D02*
X199840434Y-127064557D01*
X199840434Y-127064557D02*
X200055934Y-126849057D01*
X200055934Y-126849057D02*
X200136746Y-126822120D01*
X200136746Y-126822120D02*
X200190621Y-126822120D01*
X200190621Y-126822120D02*
X200271433Y-126849057D01*
X200271433Y-126849057D02*
X200352245Y-126929870D01*
X200352245Y-126929870D02*
X200379182Y-127010682D01*
X200379182Y-127010682D02*
X200379182Y-127064557D01*
X200379182Y-127064557D02*
X200352245Y-127145369D01*
X200352245Y-127145369D02*
X200136746Y-127360868D01*
X201268117Y-126768245D02*
X200944868Y-127091494D01*
X201106492Y-126929870D02*
X200540807Y-126364184D01*
X200540807Y-126364184D02*
X200567744Y-126498871D01*
X200567744Y-126498871D02*
X200567744Y-126606621D01*
X200567744Y-126606621D02*
X200540807Y-126687433D01*
X201537491Y-126498871D02*
X201645240Y-126391121D01*
X201645240Y-126391121D02*
X201672178Y-126310309D01*
X201672178Y-126310309D02*
X201672178Y-126256434D01*
X201672178Y-126256434D02*
X201645240Y-126121747D01*
X201645240Y-126121747D02*
X201564428Y-125987060D01*
X201564428Y-125987060D02*
X201348929Y-125771561D01*
X201348929Y-125771561D02*
X201268117Y-125744624D01*
X201268117Y-125744624D02*
X201214242Y-125744624D01*
X201214242Y-125744624D02*
X201133430Y-125771561D01*
X201133430Y-125771561D02*
X201025680Y-125879311D01*
X201025680Y-125879311D02*
X200998743Y-125960123D01*
X200998743Y-125960123D02*
X200998743Y-126013998D01*
X200998743Y-126013998D02*
X201025680Y-126094810D01*
X201025680Y-126094810D02*
X201160367Y-126229497D01*
X201160367Y-126229497D02*
X201241179Y-126256434D01*
X201241179Y-126256434D02*
X201295054Y-126256434D01*
X201295054Y-126256434D02*
X201375866Y-126229497D01*
X201375866Y-126229497D02*
X201483616Y-126121747D01*
X201483616Y-126121747D02*
X201510553Y-126040935D01*
X201510553Y-126040935D02*
X201510553Y-125987060D01*
X201510553Y-125987060D02*
X201483616Y-125906248D01*
X199651873Y-107741240D02*
X199921247Y-107471866D01*
X199759623Y-107956739D02*
X199382499Y-107202492D01*
X199382499Y-107202492D02*
X200136746Y-107579615D01*
X200082871Y-106555994D02*
X200002059Y-106582932D01*
X200002059Y-106582932D02*
X199921247Y-106663744D01*
X199921247Y-106663744D02*
X199867372Y-106771494D01*
X199867372Y-106771494D02*
X199867372Y-106879243D01*
X199867372Y-106879243D02*
X199894310Y-106960055D01*
X199894310Y-106960055D02*
X199975122Y-107094742D01*
X199975122Y-107094742D02*
X200055934Y-107175555D01*
X200055934Y-107175555D02*
X200190621Y-107256367D01*
X200190621Y-107256367D02*
X200271433Y-107283304D01*
X200271433Y-107283304D02*
X200379183Y-107283304D01*
X200379183Y-107283304D02*
X200486932Y-107229429D01*
X200486932Y-107229429D02*
X200540807Y-107175555D01*
X200540807Y-107175555D02*
X200594682Y-107067805D01*
X200594682Y-107067805D02*
X200594682Y-107013930D01*
X200594682Y-107013930D02*
X200406120Y-106825368D01*
X200406120Y-106825368D02*
X200298371Y-106933118D01*
X200890993Y-106825368D02*
X200325308Y-106259683D01*
X200325308Y-106259683D02*
X201214242Y-106502120D01*
X201214242Y-106502120D02*
X200648557Y-105936434D01*
X201483616Y-106232746D02*
X200917931Y-105667060D01*
X200917931Y-105667060D02*
X201052618Y-105532373D01*
X201052618Y-105532373D02*
X201160367Y-105478498D01*
X201160367Y-105478498D02*
X201268117Y-105478498D01*
X201268117Y-105478498D02*
X201348929Y-105505436D01*
X201348929Y-105505436D02*
X201483616Y-105586248D01*
X201483616Y-105586248D02*
X201564428Y-105667060D01*
X201564428Y-105667060D02*
X201645241Y-105801747D01*
X201645241Y-105801747D02*
X201672178Y-105882560D01*
X201672178Y-105882560D02*
X201672178Y-105990309D01*
X201672178Y-105990309D02*
X201618303Y-106098059D01*
X201618303Y-106098059D02*
X201483616Y-106232746D01*
X174113372Y-111821494D02*
X174032560Y-111848431D01*
X174032560Y-111848431D02*
X173951748Y-111929243D01*
X173951748Y-111929243D02*
X173897873Y-112036993D01*
X173897873Y-112036993D02*
X173897873Y-112144742D01*
X173897873Y-112144742D02*
X173924810Y-112225555D01*
X173924810Y-112225555D02*
X174005623Y-112360242D01*
X174005623Y-112360242D02*
X174086435Y-112441054D01*
X174086435Y-112441054D02*
X174221122Y-112521866D01*
X174221122Y-112521866D02*
X174301934Y-112548803D01*
X174301934Y-112548803D02*
X174409684Y-112548803D01*
X174409684Y-112548803D02*
X174517433Y-112494929D01*
X174517433Y-112494929D02*
X174571308Y-112441054D01*
X174571308Y-112441054D02*
X174625183Y-112333304D01*
X174625183Y-112333304D02*
X174625183Y-112279429D01*
X174625183Y-112279429D02*
X174436621Y-112090868D01*
X174436621Y-112090868D02*
X174328871Y-112198617D01*
X174921494Y-112090868D02*
X174355809Y-111525182D01*
X174355809Y-111525182D02*
X174571308Y-111309683D01*
X174571308Y-111309683D02*
X174652120Y-111282746D01*
X174652120Y-111282746D02*
X174705995Y-111282746D01*
X174705995Y-111282746D02*
X174786807Y-111309683D01*
X174786807Y-111309683D02*
X174867619Y-111390495D01*
X174867619Y-111390495D02*
X174894557Y-111471307D01*
X174894557Y-111471307D02*
X174894557Y-111525182D01*
X174894557Y-111525182D02*
X174867619Y-111605994D01*
X174867619Y-111605994D02*
X174652120Y-111821494D01*
X174867619Y-111013372D02*
X175244743Y-110636248D01*
X175244743Y-110636248D02*
X175567992Y-111444370D01*
X199390123Y-99490868D02*
X199740309Y-99140682D01*
X199740309Y-99140682D02*
X199767247Y-99544743D01*
X199767247Y-99544743D02*
X199848059Y-99463931D01*
X199848059Y-99463931D02*
X199928871Y-99436993D01*
X199928871Y-99436993D02*
X199982746Y-99436993D01*
X199982746Y-99436993D02*
X200063558Y-99463931D01*
X200063558Y-99463931D02*
X200198245Y-99598618D01*
X200198245Y-99598618D02*
X200225182Y-99679430D01*
X200225182Y-99679430D02*
X200225182Y-99733305D01*
X200225182Y-99733305D02*
X200198245Y-99814117D01*
X200198245Y-99814117D02*
X200036621Y-99975741D01*
X200036621Y-99975741D02*
X199955808Y-100002679D01*
X199955808Y-100002679D02*
X199901934Y-100002679D01*
X199901934Y-98979057D02*
X200656181Y-99356181D01*
X200656181Y-99356181D02*
X200279057Y-98601934D01*
X200413744Y-98467247D02*
X200763930Y-98117061D01*
X200763930Y-98117061D02*
X200790868Y-98521122D01*
X200790868Y-98521122D02*
X200871680Y-98440309D01*
X200871680Y-98440309D02*
X200952492Y-98413372D01*
X200952492Y-98413372D02*
X201006367Y-98413372D01*
X201006367Y-98413372D02*
X201087179Y-98440309D01*
X201087179Y-98440309D02*
X201221866Y-98574996D01*
X201221866Y-98574996D02*
X201248804Y-98655809D01*
X201248804Y-98655809D02*
X201248804Y-98709683D01*
X201248804Y-98709683D02*
X201221866Y-98790496D01*
X201221866Y-98790496D02*
X201060242Y-98952120D01*
X201060242Y-98952120D02*
X200979430Y-98979057D01*
X200979430Y-98979057D02*
X200925555Y-98979057D01*
X173913372Y-91521494D02*
X173832560Y-91548431D01*
X173832560Y-91548431D02*
X173751748Y-91629243D01*
X173751748Y-91629243D02*
X173697873Y-91736993D01*
X173697873Y-91736993D02*
X173697873Y-91844742D01*
X173697873Y-91844742D02*
X173724810Y-91925555D01*
X173724810Y-91925555D02*
X173805623Y-92060242D01*
X173805623Y-92060242D02*
X173886435Y-92141054D01*
X173886435Y-92141054D02*
X174021122Y-92221866D01*
X174021122Y-92221866D02*
X174101934Y-92248803D01*
X174101934Y-92248803D02*
X174209684Y-92248803D01*
X174209684Y-92248803D02*
X174317433Y-92194929D01*
X174317433Y-92194929D02*
X174371308Y-92141054D01*
X174371308Y-92141054D02*
X174425183Y-92033304D01*
X174425183Y-92033304D02*
X174425183Y-91979429D01*
X174425183Y-91979429D02*
X174236621Y-91790868D01*
X174236621Y-91790868D02*
X174128871Y-91898617D01*
X174721494Y-91790868D02*
X174155809Y-91225182D01*
X174155809Y-91225182D02*
X174371308Y-91009683D01*
X174371308Y-91009683D02*
X174452120Y-90982746D01*
X174452120Y-90982746D02*
X174505995Y-90982746D01*
X174505995Y-90982746D02*
X174586807Y-91009683D01*
X174586807Y-91009683D02*
X174667619Y-91090495D01*
X174667619Y-91090495D02*
X174694557Y-91171307D01*
X174694557Y-91171307D02*
X174694557Y-91225182D01*
X174694557Y-91225182D02*
X174667619Y-91305994D01*
X174667619Y-91305994D02*
X174452120Y-91521494D01*
X175583491Y-90928871D02*
X175260242Y-91252120D01*
X175421867Y-91090495D02*
X174856181Y-90524810D01*
X174856181Y-90524810D02*
X174883119Y-90659497D01*
X174883119Y-90659497D02*
X174883119Y-90767246D01*
X174883119Y-90767246D02*
X174856181Y-90848059D01*
X173343998Y-127360868D02*
X173263185Y-127387805D01*
X173263185Y-127387805D02*
X173182373Y-127468618D01*
X173182373Y-127468618D02*
X173128498Y-127576367D01*
X173128498Y-127576367D02*
X173128498Y-127684117D01*
X173128498Y-127684117D02*
X173155436Y-127764929D01*
X173155436Y-127764929D02*
X173236248Y-127899616D01*
X173236248Y-127899616D02*
X173317060Y-127980428D01*
X173317060Y-127980428D02*
X173451747Y-128061241D01*
X173451747Y-128061241D02*
X173532560Y-128088178D01*
X173532560Y-128088178D02*
X173640309Y-128088178D01*
X173640309Y-128088178D02*
X173748059Y-128034303D01*
X173748059Y-128034303D02*
X173801934Y-127980428D01*
X173801934Y-127980428D02*
X173855808Y-127872679D01*
X173855808Y-127872679D02*
X173855808Y-127818804D01*
X173855808Y-127818804D02*
X173667247Y-127630242D01*
X173667247Y-127630242D02*
X173559497Y-127737992D01*
X174152120Y-127630242D02*
X173586434Y-127064557D01*
X173586434Y-127064557D02*
X173801934Y-126849057D01*
X173801934Y-126849057D02*
X173882746Y-126822120D01*
X173882746Y-126822120D02*
X173936621Y-126822120D01*
X173936621Y-126822120D02*
X174017433Y-126849057D01*
X174017433Y-126849057D02*
X174098245Y-126929870D01*
X174098245Y-126929870D02*
X174125182Y-127010682D01*
X174125182Y-127010682D02*
X174125182Y-127064557D01*
X174125182Y-127064557D02*
X174098245Y-127145369D01*
X174098245Y-127145369D02*
X173882746Y-127360868D01*
X175014117Y-126768245D02*
X174690868Y-127091494D01*
X174852492Y-126929870D02*
X174286807Y-126364184D01*
X174286807Y-126364184D02*
X174313744Y-126498871D01*
X174313744Y-126498871D02*
X174313744Y-126606621D01*
X174313744Y-126606621D02*
X174286807Y-126687433D01*
X174717805Y-126040935D02*
X174717805Y-125987060D01*
X174717805Y-125987060D02*
X174744743Y-125906248D01*
X174744743Y-125906248D02*
X174879430Y-125771561D01*
X174879430Y-125771561D02*
X174960242Y-125744624D01*
X174960242Y-125744624D02*
X175014117Y-125744624D01*
X175014117Y-125744624D02*
X175094929Y-125771561D01*
X175094929Y-125771561D02*
X175148804Y-125825436D01*
X175148804Y-125825436D02*
X175202679Y-125933186D01*
X175202679Y-125933186D02*
X175202679Y-126579683D01*
X175202679Y-126579683D02*
X175552865Y-126229497D01*
X199422407Y-96958584D02*
X199772593Y-96608398D01*
X199772593Y-96608398D02*
X199799531Y-97012459D01*
X199799531Y-97012459D02*
X199880343Y-96931646D01*
X199880343Y-96931646D02*
X199961155Y-96904709D01*
X199961155Y-96904709D02*
X200015030Y-96904709D01*
X200015030Y-96904709D02*
X200095842Y-96931646D01*
X200095842Y-96931646D02*
X200230529Y-97066333D01*
X200230529Y-97066333D02*
X200257467Y-97147146D01*
X200257467Y-97147146D02*
X200257467Y-97201020D01*
X200257467Y-97201020D02*
X200230529Y-97281833D01*
X200230529Y-97281833D02*
X200068905Y-97443457D01*
X200068905Y-97443457D02*
X199988093Y-97470394D01*
X199988093Y-97470394D02*
X199934218Y-97470394D01*
X199934218Y-96446773D02*
X200688465Y-96823897D01*
X200688465Y-96823897D02*
X200311342Y-96069649D01*
X200446028Y-95934963D02*
X200796215Y-95584776D01*
X200796215Y-95584776D02*
X200823152Y-95988837D01*
X200823152Y-95988837D02*
X200903964Y-95908025D01*
X200903964Y-95908025D02*
X200984776Y-95881088D01*
X200984776Y-95881088D02*
X201038651Y-95881088D01*
X201038651Y-95881088D02*
X201119464Y-95908025D01*
X201119464Y-95908025D02*
X201254151Y-96042712D01*
X201254151Y-96042712D02*
X201281088Y-96123524D01*
X201281088Y-96123524D02*
X201281088Y-96177399D01*
X201281088Y-96177399D02*
X201254151Y-96258211D01*
X201254151Y-96258211D02*
X201092526Y-96419836D01*
X201092526Y-96419836D02*
X201011714Y-96446773D01*
X201011714Y-96446773D02*
X200957839Y-96446773D01*
X201523525Y-96096587D02*
X201954523Y-95665588D01*
X201739024Y-95180715D02*
X201927586Y-94992153D01*
X202304709Y-95207652D02*
X202035335Y-95477026D01*
X202035335Y-95477026D02*
X201469650Y-94911341D01*
X201469650Y-94911341D02*
X201739024Y-94641967D01*
X202547146Y-94965215D02*
X201981461Y-94399530D01*
X201981461Y-94399530D02*
X202870395Y-94641967D01*
X202870395Y-94641967D02*
X202304710Y-94076281D01*
X173443998Y-134980868D02*
X173363185Y-135007805D01*
X173363185Y-135007805D02*
X173282373Y-135088618D01*
X173282373Y-135088618D02*
X173228498Y-135196367D01*
X173228498Y-135196367D02*
X173228498Y-135304117D01*
X173228498Y-135304117D02*
X173255436Y-135384929D01*
X173255436Y-135384929D02*
X173336248Y-135519616D01*
X173336248Y-135519616D02*
X173417060Y-135600428D01*
X173417060Y-135600428D02*
X173551747Y-135681241D01*
X173551747Y-135681241D02*
X173632560Y-135708178D01*
X173632560Y-135708178D02*
X173740309Y-135708178D01*
X173740309Y-135708178D02*
X173848059Y-135654303D01*
X173848059Y-135654303D02*
X173901934Y-135600428D01*
X173901934Y-135600428D02*
X173955808Y-135492679D01*
X173955808Y-135492679D02*
X173955808Y-135438804D01*
X173955808Y-135438804D02*
X173767247Y-135250242D01*
X173767247Y-135250242D02*
X173659497Y-135357992D01*
X174252120Y-135250242D02*
X173686434Y-134684557D01*
X173686434Y-134684557D02*
X173901934Y-134469057D01*
X173901934Y-134469057D02*
X173982746Y-134442120D01*
X173982746Y-134442120D02*
X174036621Y-134442120D01*
X174036621Y-134442120D02*
X174117433Y-134469057D01*
X174117433Y-134469057D02*
X174198245Y-134549870D01*
X174198245Y-134549870D02*
X174225182Y-134630682D01*
X174225182Y-134630682D02*
X174225182Y-134684557D01*
X174225182Y-134684557D02*
X174198245Y-134765369D01*
X174198245Y-134765369D02*
X173982746Y-134980868D01*
X175114117Y-134388245D02*
X174790868Y-134711494D01*
X174952492Y-134549870D02*
X174386807Y-133984184D01*
X174386807Y-133984184D02*
X174413744Y-134118871D01*
X174413744Y-134118871D02*
X174413744Y-134226621D01*
X174413744Y-134226621D02*
X174386807Y-134307433D01*
X175221866Y-133526248D02*
X175598990Y-133903372D01*
X174871680Y-133445436D02*
X175141054Y-133984184D01*
X175141054Y-133984184D02*
X175491240Y-133633998D01*
X174013372Y-101691494D02*
X173932560Y-101718431D01*
X173932560Y-101718431D02*
X173851748Y-101799243D01*
X173851748Y-101799243D02*
X173797873Y-101906993D01*
X173797873Y-101906993D02*
X173797873Y-102014742D01*
X173797873Y-102014742D02*
X173824810Y-102095555D01*
X173824810Y-102095555D02*
X173905623Y-102230242D01*
X173905623Y-102230242D02*
X173986435Y-102311054D01*
X173986435Y-102311054D02*
X174121122Y-102391866D01*
X174121122Y-102391866D02*
X174201934Y-102418803D01*
X174201934Y-102418803D02*
X174309684Y-102418803D01*
X174309684Y-102418803D02*
X174417433Y-102364929D01*
X174417433Y-102364929D02*
X174471308Y-102311054D01*
X174471308Y-102311054D02*
X174525183Y-102203304D01*
X174525183Y-102203304D02*
X174525183Y-102149429D01*
X174525183Y-102149429D02*
X174336621Y-101960868D01*
X174336621Y-101960868D02*
X174228871Y-102068617D01*
X174821494Y-101960868D02*
X174255809Y-101395182D01*
X174255809Y-101395182D02*
X174471308Y-101179683D01*
X174471308Y-101179683D02*
X174552120Y-101152746D01*
X174552120Y-101152746D02*
X174605995Y-101152746D01*
X174605995Y-101152746D02*
X174686807Y-101179683D01*
X174686807Y-101179683D02*
X174767619Y-101260495D01*
X174767619Y-101260495D02*
X174794557Y-101341307D01*
X174794557Y-101341307D02*
X174794557Y-101395182D01*
X174794557Y-101395182D02*
X174767619Y-101475994D01*
X174767619Y-101475994D02*
X174552120Y-101691494D01*
X175252493Y-100775622D02*
X175629616Y-101152746D01*
X174902306Y-100694810D02*
X175171680Y-101233558D01*
X175171680Y-101233558D02*
X175521867Y-100883372D01*
X199597998Y-134980868D02*
X199517185Y-135007805D01*
X199517185Y-135007805D02*
X199436373Y-135088618D01*
X199436373Y-135088618D02*
X199382498Y-135196367D01*
X199382498Y-135196367D02*
X199382498Y-135304117D01*
X199382498Y-135304117D02*
X199409436Y-135384929D01*
X199409436Y-135384929D02*
X199490248Y-135519616D01*
X199490248Y-135519616D02*
X199571060Y-135600428D01*
X199571060Y-135600428D02*
X199705747Y-135681241D01*
X199705747Y-135681241D02*
X199786560Y-135708178D01*
X199786560Y-135708178D02*
X199894309Y-135708178D01*
X199894309Y-135708178D02*
X200002059Y-135654303D01*
X200002059Y-135654303D02*
X200055934Y-135600428D01*
X200055934Y-135600428D02*
X200109808Y-135492679D01*
X200109808Y-135492679D02*
X200109808Y-135438804D01*
X200109808Y-135438804D02*
X199921247Y-135250242D01*
X199921247Y-135250242D02*
X199813497Y-135357992D01*
X200406120Y-135250242D02*
X199840434Y-134684557D01*
X199840434Y-134684557D02*
X200055934Y-134469057D01*
X200055934Y-134469057D02*
X200136746Y-134442120D01*
X200136746Y-134442120D02*
X200190621Y-134442120D01*
X200190621Y-134442120D02*
X200271433Y-134469057D01*
X200271433Y-134469057D02*
X200352245Y-134549870D01*
X200352245Y-134549870D02*
X200379182Y-134630682D01*
X200379182Y-134630682D02*
X200379182Y-134684557D01*
X200379182Y-134684557D02*
X200352245Y-134765369D01*
X200352245Y-134765369D02*
X200136746Y-134980868D01*
X201268117Y-134388245D02*
X200944868Y-134711494D01*
X201106492Y-134549870D02*
X200540807Y-133984184D01*
X200540807Y-133984184D02*
X200567744Y-134118871D01*
X200567744Y-134118871D02*
X200567744Y-134226621D01*
X200567744Y-134226621D02*
X200540807Y-134307433D01*
X200890993Y-133633998D02*
X201268117Y-133256874D01*
X201268117Y-133256874D02*
X201591366Y-134064996D01*
X173489998Y-129900868D02*
X173409185Y-129927805D01*
X173409185Y-129927805D02*
X173328373Y-130008618D01*
X173328373Y-130008618D02*
X173274498Y-130116367D01*
X173274498Y-130116367D02*
X173274498Y-130224117D01*
X173274498Y-130224117D02*
X173301436Y-130304929D01*
X173301436Y-130304929D02*
X173382248Y-130439616D01*
X173382248Y-130439616D02*
X173463060Y-130520428D01*
X173463060Y-130520428D02*
X173597747Y-130601241D01*
X173597747Y-130601241D02*
X173678560Y-130628178D01*
X173678560Y-130628178D02*
X173786309Y-130628178D01*
X173786309Y-130628178D02*
X173894059Y-130574303D01*
X173894059Y-130574303D02*
X173947934Y-130520428D01*
X173947934Y-130520428D02*
X174001808Y-130412679D01*
X174001808Y-130412679D02*
X174001808Y-130358804D01*
X174001808Y-130358804D02*
X173813247Y-130170242D01*
X173813247Y-130170242D02*
X173705497Y-130277992D01*
X174298120Y-130170242D02*
X173732434Y-129604557D01*
X173732434Y-129604557D02*
X173947934Y-129389057D01*
X173947934Y-129389057D02*
X174028746Y-129362120D01*
X174028746Y-129362120D02*
X174082621Y-129362120D01*
X174082621Y-129362120D02*
X174163433Y-129389057D01*
X174163433Y-129389057D02*
X174244245Y-129469870D01*
X174244245Y-129469870D02*
X174271182Y-129550682D01*
X174271182Y-129550682D02*
X174271182Y-129604557D01*
X174271182Y-129604557D02*
X174244245Y-129685369D01*
X174244245Y-129685369D02*
X174028746Y-129900868D01*
X175160117Y-129308245D02*
X174836868Y-129631494D01*
X174998492Y-129469870D02*
X174432807Y-128904184D01*
X174432807Y-128904184D02*
X174459744Y-129038871D01*
X174459744Y-129038871D02*
X174459744Y-129146621D01*
X174459744Y-129146621D02*
X174432807Y-129227433D01*
X174782993Y-128553998D02*
X175133179Y-128203812D01*
X175133179Y-128203812D02*
X175160117Y-128607873D01*
X175160117Y-128607873D02*
X175240929Y-128527060D01*
X175240929Y-128527060D02*
X175321741Y-128500123D01*
X175321741Y-128500123D02*
X175375616Y-128500123D01*
X175375616Y-128500123D02*
X175456428Y-128527060D01*
X175456428Y-128527060D02*
X175591115Y-128661747D01*
X175591115Y-128661747D02*
X175618053Y-128742560D01*
X175618053Y-128742560D02*
X175618053Y-128796434D01*
X175618053Y-128796434D02*
X175591115Y-128877247D01*
X175591115Y-128877247D02*
X175429491Y-129038871D01*
X175429491Y-129038871D02*
X175348679Y-129065808D01*
X175348679Y-129065808D02*
X175294804Y-129065808D01*
X199453406Y-89527585D02*
X200207653Y-89904709D01*
X200207653Y-89904709D02*
X199830529Y-89150462D01*
X200477027Y-89042712D02*
X200584776Y-88988838D01*
X200584776Y-88988838D02*
X200638651Y-88988838D01*
X200638651Y-88988838D02*
X200719463Y-89015775D01*
X200719463Y-89015775D02*
X200800276Y-89096587D01*
X200800276Y-89096587D02*
X200827213Y-89177399D01*
X200827213Y-89177399D02*
X200827213Y-89231274D01*
X200827213Y-89231274D02*
X200800276Y-89312086D01*
X200800276Y-89312086D02*
X200584776Y-89527586D01*
X200584776Y-89527586D02*
X200019091Y-88961900D01*
X200019091Y-88961900D02*
X200207653Y-88773338D01*
X200207653Y-88773338D02*
X200288465Y-88746401D01*
X200288465Y-88746401D02*
X200342340Y-88746401D01*
X200342340Y-88746401D02*
X200423152Y-88773338D01*
X200423152Y-88773338D02*
X200477027Y-88827213D01*
X200477027Y-88827213D02*
X200503964Y-88908025D01*
X200503964Y-88908025D02*
X200503964Y-88961900D01*
X200503964Y-88961900D02*
X200477027Y-89042712D01*
X200477027Y-89042712D02*
X200288465Y-89231274D01*
X200584776Y-88396215D02*
X201042712Y-88854151D01*
X201042712Y-88854151D02*
X201123524Y-88881088D01*
X201123524Y-88881088D02*
X201177399Y-88881088D01*
X201177399Y-88881088D02*
X201258211Y-88854151D01*
X201258211Y-88854151D02*
X201365961Y-88746401D01*
X201365961Y-88746401D02*
X201392898Y-88665589D01*
X201392898Y-88665589D02*
X201392898Y-88611714D01*
X201392898Y-88611714D02*
X201365961Y-88530902D01*
X201365961Y-88530902D02*
X200908025Y-88072966D01*
X201689210Y-88369277D02*
X201796959Y-88315403D01*
X201796959Y-88315403D02*
X201931646Y-88180716D01*
X201931646Y-88180716D02*
X201958584Y-88099903D01*
X201958584Y-88099903D02*
X201958584Y-88046029D01*
X201958584Y-88046029D02*
X201931646Y-87965216D01*
X201931646Y-87965216D02*
X201877771Y-87911342D01*
X201877771Y-87911342D02*
X201796959Y-87884404D01*
X201796959Y-87884404D02*
X201743084Y-87884404D01*
X201743084Y-87884404D02*
X201662272Y-87911342D01*
X201662272Y-87911342D02*
X201527585Y-87992154D01*
X201527585Y-87992154D02*
X201446773Y-88019091D01*
X201446773Y-88019091D02*
X201392898Y-88019091D01*
X201392898Y-88019091D02*
X201312086Y-87992154D01*
X201312086Y-87992154D02*
X201258211Y-87938279D01*
X201258211Y-87938279D02*
X201231274Y-87857467D01*
X201231274Y-87857467D02*
X201231274Y-87803592D01*
X201231274Y-87803592D02*
X201258211Y-87722780D01*
X201258211Y-87722780D02*
X201392898Y-87588093D01*
X201392898Y-87588093D02*
X201500648Y-87534218D01*
X173489998Y-122280868D02*
X173409185Y-122307805D01*
X173409185Y-122307805D02*
X173328373Y-122388618D01*
X173328373Y-122388618D02*
X173274498Y-122496367D01*
X173274498Y-122496367D02*
X173274498Y-122604117D01*
X173274498Y-122604117D02*
X173301436Y-122684929D01*
X173301436Y-122684929D02*
X173382248Y-122819616D01*
X173382248Y-122819616D02*
X173463060Y-122900428D01*
X173463060Y-122900428D02*
X173597747Y-122981241D01*
X173597747Y-122981241D02*
X173678560Y-123008178D01*
X173678560Y-123008178D02*
X173786309Y-123008178D01*
X173786309Y-123008178D02*
X173894059Y-122954303D01*
X173894059Y-122954303D02*
X173947934Y-122900428D01*
X173947934Y-122900428D02*
X174001808Y-122792679D01*
X174001808Y-122792679D02*
X174001808Y-122738804D01*
X174001808Y-122738804D02*
X173813247Y-122550242D01*
X173813247Y-122550242D02*
X173705497Y-122657992D01*
X174298120Y-122550242D02*
X173732434Y-121984557D01*
X173732434Y-121984557D02*
X173947934Y-121769057D01*
X173947934Y-121769057D02*
X174028746Y-121742120D01*
X174028746Y-121742120D02*
X174082621Y-121742120D01*
X174082621Y-121742120D02*
X174163433Y-121769057D01*
X174163433Y-121769057D02*
X174244245Y-121849870D01*
X174244245Y-121849870D02*
X174271182Y-121930682D01*
X174271182Y-121930682D02*
X174271182Y-121984557D01*
X174271182Y-121984557D02*
X174244245Y-122065369D01*
X174244245Y-122065369D02*
X174028746Y-122280868D01*
X175160117Y-121688245D02*
X174836868Y-122011494D01*
X174998492Y-121849870D02*
X174432807Y-121284184D01*
X174432807Y-121284184D02*
X174459744Y-121418871D01*
X174459744Y-121418871D02*
X174459744Y-121526621D01*
X174459744Y-121526621D02*
X174432807Y-121607433D01*
X174944618Y-120772373D02*
X174998492Y-120718499D01*
X174998492Y-120718499D02*
X175079305Y-120691561D01*
X175079305Y-120691561D02*
X175133179Y-120691561D01*
X175133179Y-120691561D02*
X175213992Y-120718499D01*
X175213992Y-120718499D02*
X175348679Y-120799311D01*
X175348679Y-120799311D02*
X175483366Y-120933998D01*
X175483366Y-120933998D02*
X175564178Y-121068685D01*
X175564178Y-121068685D02*
X175591115Y-121149497D01*
X175591115Y-121149497D02*
X175591115Y-121203372D01*
X175591115Y-121203372D02*
X175564178Y-121284184D01*
X175564178Y-121284184D02*
X175510303Y-121338059D01*
X175510303Y-121338059D02*
X175429491Y-121364996D01*
X175429491Y-121364996D02*
X175375616Y-121364996D01*
X175375616Y-121364996D02*
X175294804Y-121338059D01*
X175294804Y-121338059D02*
X175160117Y-121257247D01*
X175160117Y-121257247D02*
X175025430Y-121122560D01*
X175025430Y-121122560D02*
X174944618Y-120987873D01*
X174944618Y-120987873D02*
X174917680Y-120907060D01*
X174917680Y-120907060D02*
X174917680Y-120853186D01*
X174917680Y-120853186D02*
X174944618Y-120772373D01*
X191404761Y-139524200D02*
X191519047Y-139562295D01*
X191519047Y-139562295D02*
X191709523Y-139562295D01*
X191709523Y-139562295D02*
X191785714Y-139524200D01*
X191785714Y-139524200D02*
X191823809Y-139486104D01*
X191823809Y-139486104D02*
X191861904Y-139409914D01*
X191861904Y-139409914D02*
X191861904Y-139333723D01*
X191861904Y-139333723D02*
X191823809Y-139257533D01*
X191823809Y-139257533D02*
X191785714Y-139219438D01*
X191785714Y-139219438D02*
X191709523Y-139181342D01*
X191709523Y-139181342D02*
X191557142Y-139143247D01*
X191557142Y-139143247D02*
X191480952Y-139105152D01*
X191480952Y-139105152D02*
X191442857Y-139067057D01*
X191442857Y-139067057D02*
X191404761Y-138990866D01*
X191404761Y-138990866D02*
X191404761Y-138914676D01*
X191404761Y-138914676D02*
X191442857Y-138838485D01*
X191442857Y-138838485D02*
X191480952Y-138800390D01*
X191480952Y-138800390D02*
X191557142Y-138762295D01*
X191557142Y-138762295D02*
X191747619Y-138762295D01*
X191747619Y-138762295D02*
X191861904Y-138800390D01*
X192128571Y-138762295D02*
X192319047Y-139562295D01*
X192319047Y-139562295D02*
X192471428Y-138990866D01*
X192471428Y-138990866D02*
X192623809Y-139562295D01*
X192623809Y-139562295D02*
X192814286Y-138762295D01*
X193119048Y-139562295D02*
X193119048Y-138762295D01*
X193119048Y-138762295D02*
X193309524Y-138762295D01*
X193309524Y-138762295D02*
X193423810Y-138800390D01*
X193423810Y-138800390D02*
X193500000Y-138876580D01*
X193500000Y-138876580D02*
X193538095Y-138952771D01*
X193538095Y-138952771D02*
X193576191Y-139105152D01*
X193576191Y-139105152D02*
X193576191Y-139219438D01*
X193576191Y-139219438D02*
X193538095Y-139371819D01*
X193538095Y-139371819D02*
X193500000Y-139448009D01*
X193500000Y-139448009D02*
X193423810Y-139524200D01*
X193423810Y-139524200D02*
X193309524Y-139562295D01*
X193309524Y-139562295D02*
X193119048Y-139562295D01*
X193919048Y-139562295D02*
X193919048Y-138762295D01*
X194452381Y-138762295D02*
X194604762Y-138762295D01*
X194604762Y-138762295D02*
X194680952Y-138800390D01*
X194680952Y-138800390D02*
X194757143Y-138876580D01*
X194757143Y-138876580D02*
X194795238Y-139028961D01*
X194795238Y-139028961D02*
X194795238Y-139295628D01*
X194795238Y-139295628D02*
X194757143Y-139448009D01*
X194757143Y-139448009D02*
X194680952Y-139524200D01*
X194680952Y-139524200D02*
X194604762Y-139562295D01*
X194604762Y-139562295D02*
X194452381Y-139562295D01*
X194452381Y-139562295D02*
X194376190Y-139524200D01*
X194376190Y-139524200D02*
X194300000Y-139448009D01*
X194300000Y-139448009D02*
X194261904Y-139295628D01*
X194261904Y-139295628D02*
X194261904Y-139028961D01*
X194261904Y-139028961D02*
X194300000Y-138876580D01*
X194300000Y-138876580D02*
X194376190Y-138800390D01*
X194376190Y-138800390D02*
X194452381Y-138762295D01*
X173913372Y-96611494D02*
X173832560Y-96638431D01*
X173832560Y-96638431D02*
X173751748Y-96719243D01*
X173751748Y-96719243D02*
X173697873Y-96826993D01*
X173697873Y-96826993D02*
X173697873Y-96934742D01*
X173697873Y-96934742D02*
X173724810Y-97015555D01*
X173724810Y-97015555D02*
X173805623Y-97150242D01*
X173805623Y-97150242D02*
X173886435Y-97231054D01*
X173886435Y-97231054D02*
X174021122Y-97311866D01*
X174021122Y-97311866D02*
X174101934Y-97338803D01*
X174101934Y-97338803D02*
X174209684Y-97338803D01*
X174209684Y-97338803D02*
X174317433Y-97284929D01*
X174317433Y-97284929D02*
X174371308Y-97231054D01*
X174371308Y-97231054D02*
X174425183Y-97123304D01*
X174425183Y-97123304D02*
X174425183Y-97069429D01*
X174425183Y-97069429D02*
X174236621Y-96880868D01*
X174236621Y-96880868D02*
X174128871Y-96988617D01*
X174721494Y-96880868D02*
X174155809Y-96315182D01*
X174155809Y-96315182D02*
X174371308Y-96099683D01*
X174371308Y-96099683D02*
X174452120Y-96072746D01*
X174452120Y-96072746D02*
X174505995Y-96072746D01*
X174505995Y-96072746D02*
X174586807Y-96099683D01*
X174586807Y-96099683D02*
X174667619Y-96180495D01*
X174667619Y-96180495D02*
X174694557Y-96261307D01*
X174694557Y-96261307D02*
X174694557Y-96315182D01*
X174694557Y-96315182D02*
X174667619Y-96395994D01*
X174667619Y-96395994D02*
X174452120Y-96611494D01*
X174748432Y-95830309D02*
X174748432Y-95776434D01*
X174748432Y-95776434D02*
X174775369Y-95695622D01*
X174775369Y-95695622D02*
X174910056Y-95560935D01*
X174910056Y-95560935D02*
X174990868Y-95533998D01*
X174990868Y-95533998D02*
X175044743Y-95533998D01*
X175044743Y-95533998D02*
X175125555Y-95560935D01*
X175125555Y-95560935D02*
X175179430Y-95614810D01*
X175179430Y-95614810D02*
X175233305Y-95722559D01*
X175233305Y-95722559D02*
X175233305Y-96369057D01*
X175233305Y-96369057D02*
X175583491Y-96018871D01*
X174013372Y-114391494D02*
X173932560Y-114418431D01*
X173932560Y-114418431D02*
X173851748Y-114499243D01*
X173851748Y-114499243D02*
X173797873Y-114606993D01*
X173797873Y-114606993D02*
X173797873Y-114714742D01*
X173797873Y-114714742D02*
X173824810Y-114795555D01*
X173824810Y-114795555D02*
X173905623Y-114930242D01*
X173905623Y-114930242D02*
X173986435Y-115011054D01*
X173986435Y-115011054D02*
X174121122Y-115091866D01*
X174121122Y-115091866D02*
X174201934Y-115118803D01*
X174201934Y-115118803D02*
X174309684Y-115118803D01*
X174309684Y-115118803D02*
X174417433Y-115064929D01*
X174417433Y-115064929D02*
X174471308Y-115011054D01*
X174471308Y-115011054D02*
X174525183Y-114903304D01*
X174525183Y-114903304D02*
X174525183Y-114849429D01*
X174525183Y-114849429D02*
X174336621Y-114660868D01*
X174336621Y-114660868D02*
X174228871Y-114768617D01*
X174821494Y-114660868D02*
X174255809Y-114095182D01*
X174255809Y-114095182D02*
X174471308Y-113879683D01*
X174471308Y-113879683D02*
X174552120Y-113852746D01*
X174552120Y-113852746D02*
X174605995Y-113852746D01*
X174605995Y-113852746D02*
X174686807Y-113879683D01*
X174686807Y-113879683D02*
X174767619Y-113960495D01*
X174767619Y-113960495D02*
X174794557Y-114041307D01*
X174794557Y-114041307D02*
X174794557Y-114095182D01*
X174794557Y-114095182D02*
X174767619Y-114175994D01*
X174767619Y-114175994D02*
X174552120Y-114391494D01*
X175144743Y-113691121D02*
X175063931Y-113718059D01*
X175063931Y-113718059D02*
X175010056Y-113718059D01*
X175010056Y-113718059D02*
X174929244Y-113691121D01*
X174929244Y-113691121D02*
X174902306Y-113664184D01*
X174902306Y-113664184D02*
X174875369Y-113583372D01*
X174875369Y-113583372D02*
X174875369Y-113529497D01*
X174875369Y-113529497D02*
X174902306Y-113448685D01*
X174902306Y-113448685D02*
X175010056Y-113340935D01*
X175010056Y-113340935D02*
X175090868Y-113313998D01*
X175090868Y-113313998D02*
X175144743Y-113313998D01*
X175144743Y-113313998D02*
X175225555Y-113340935D01*
X175225555Y-113340935D02*
X175252493Y-113367872D01*
X175252493Y-113367872D02*
X175279430Y-113448685D01*
X175279430Y-113448685D02*
X175279430Y-113502559D01*
X175279430Y-113502559D02*
X175252493Y-113583372D01*
X175252493Y-113583372D02*
X175144743Y-113691121D01*
X175144743Y-113691121D02*
X175117806Y-113771933D01*
X175117806Y-113771933D02*
X175117806Y-113825808D01*
X175117806Y-113825808D02*
X175144743Y-113906620D01*
X175144743Y-113906620D02*
X175252493Y-114014370D01*
X175252493Y-114014370D02*
X175333305Y-114041307D01*
X175333305Y-114041307D02*
X175387180Y-114041307D01*
X175387180Y-114041307D02*
X175467992Y-114014370D01*
X175467992Y-114014370D02*
X175575741Y-113906620D01*
X175575741Y-113906620D02*
X175602679Y-113825808D01*
X175602679Y-113825808D02*
X175602679Y-113771933D01*
X175602679Y-113771933D02*
X175575741Y-113691121D01*
X175575741Y-113691121D02*
X175467992Y-113583372D01*
X175467992Y-113583372D02*
X175387180Y-113556434D01*
X175387180Y-113556434D02*
X175333305Y-113556434D01*
X175333305Y-113556434D02*
X175252493Y-113583372D01*
X174013372Y-104231494D02*
X173932560Y-104258431D01*
X173932560Y-104258431D02*
X173851748Y-104339243D01*
X173851748Y-104339243D02*
X173797873Y-104446993D01*
X173797873Y-104446993D02*
X173797873Y-104554742D01*
X173797873Y-104554742D02*
X173824810Y-104635555D01*
X173824810Y-104635555D02*
X173905623Y-104770242D01*
X173905623Y-104770242D02*
X173986435Y-104851054D01*
X173986435Y-104851054D02*
X174121122Y-104931866D01*
X174121122Y-104931866D02*
X174201934Y-104958803D01*
X174201934Y-104958803D02*
X174309684Y-104958803D01*
X174309684Y-104958803D02*
X174417433Y-104904929D01*
X174417433Y-104904929D02*
X174471308Y-104851054D01*
X174471308Y-104851054D02*
X174525183Y-104743304D01*
X174525183Y-104743304D02*
X174525183Y-104689429D01*
X174525183Y-104689429D02*
X174336621Y-104500868D01*
X174336621Y-104500868D02*
X174228871Y-104608617D01*
X174821494Y-104500868D02*
X174255809Y-103935182D01*
X174255809Y-103935182D02*
X174471308Y-103719683D01*
X174471308Y-103719683D02*
X174552120Y-103692746D01*
X174552120Y-103692746D02*
X174605995Y-103692746D01*
X174605995Y-103692746D02*
X174686807Y-103719683D01*
X174686807Y-103719683D02*
X174767619Y-103800495D01*
X174767619Y-103800495D02*
X174794557Y-103881307D01*
X174794557Y-103881307D02*
X174794557Y-103935182D01*
X174794557Y-103935182D02*
X174767619Y-104015994D01*
X174767619Y-104015994D02*
X174552120Y-104231494D01*
X175090868Y-103100123D02*
X174821494Y-103369497D01*
X174821494Y-103369497D02*
X175063931Y-103665808D01*
X175063931Y-103665808D02*
X175063931Y-103611933D01*
X175063931Y-103611933D02*
X175090868Y-103531121D01*
X175090868Y-103531121D02*
X175225555Y-103396434D01*
X175225555Y-103396434D02*
X175306367Y-103369497D01*
X175306367Y-103369497D02*
X175360242Y-103369497D01*
X175360242Y-103369497D02*
X175441054Y-103396434D01*
X175441054Y-103396434D02*
X175575741Y-103531121D01*
X175575741Y-103531121D02*
X175602679Y-103611933D01*
X175602679Y-103611933D02*
X175602679Y-103665808D01*
X175602679Y-103665808D02*
X175575741Y-103746620D01*
X175575741Y-103746620D02*
X175441054Y-103881307D01*
X175441054Y-103881307D02*
X175360242Y-103908245D01*
X175360242Y-103908245D02*
X175306367Y-103908245D01*
X179990475Y-139524200D02*
X180104761Y-139562295D01*
X180104761Y-139562295D02*
X180295237Y-139562295D01*
X180295237Y-139562295D02*
X180371428Y-139524200D01*
X180371428Y-139524200D02*
X180409523Y-139486104D01*
X180409523Y-139486104D02*
X180447618Y-139409914D01*
X180447618Y-139409914D02*
X180447618Y-139333723D01*
X180447618Y-139333723D02*
X180409523Y-139257533D01*
X180409523Y-139257533D02*
X180371428Y-139219438D01*
X180371428Y-139219438D02*
X180295237Y-139181342D01*
X180295237Y-139181342D02*
X180142856Y-139143247D01*
X180142856Y-139143247D02*
X180066666Y-139105152D01*
X180066666Y-139105152D02*
X180028571Y-139067057D01*
X180028571Y-139067057D02*
X179990475Y-138990866D01*
X179990475Y-138990866D02*
X179990475Y-138914676D01*
X179990475Y-138914676D02*
X180028571Y-138838485D01*
X180028571Y-138838485D02*
X180066666Y-138800390D01*
X180066666Y-138800390D02*
X180142856Y-138762295D01*
X180142856Y-138762295D02*
X180333333Y-138762295D01*
X180333333Y-138762295D02*
X180447618Y-138800390D01*
X180714285Y-138762295D02*
X180904761Y-139562295D01*
X180904761Y-139562295D02*
X181057142Y-138990866D01*
X181057142Y-138990866D02*
X181209523Y-139562295D01*
X181209523Y-139562295D02*
X181400000Y-138762295D01*
X182161905Y-139486104D02*
X182123809Y-139524200D01*
X182123809Y-139524200D02*
X182009524Y-139562295D01*
X182009524Y-139562295D02*
X181933333Y-139562295D01*
X181933333Y-139562295D02*
X181819047Y-139524200D01*
X181819047Y-139524200D02*
X181742857Y-139448009D01*
X181742857Y-139448009D02*
X181704762Y-139371819D01*
X181704762Y-139371819D02*
X181666666Y-139219438D01*
X181666666Y-139219438D02*
X181666666Y-139105152D01*
X181666666Y-139105152D02*
X181704762Y-138952771D01*
X181704762Y-138952771D02*
X181742857Y-138876580D01*
X181742857Y-138876580D02*
X181819047Y-138800390D01*
X181819047Y-138800390D02*
X181933333Y-138762295D01*
X181933333Y-138762295D02*
X182009524Y-138762295D01*
X182009524Y-138762295D02*
X182123809Y-138800390D01*
X182123809Y-138800390D02*
X182161905Y-138838485D01*
X182885714Y-139562295D02*
X182504762Y-139562295D01*
X182504762Y-139562295D02*
X182504762Y-138762295D01*
X183152381Y-139562295D02*
X183152381Y-138762295D01*
X183609524Y-139562295D02*
X183266666Y-139105152D01*
X183609524Y-138762295D02*
X183152381Y-139219438D01*
X173343998Y-124820868D02*
X173263185Y-124847805D01*
X173263185Y-124847805D02*
X173182373Y-124928618D01*
X173182373Y-124928618D02*
X173128498Y-125036367D01*
X173128498Y-125036367D02*
X173128498Y-125144117D01*
X173128498Y-125144117D02*
X173155436Y-125224929D01*
X173155436Y-125224929D02*
X173236248Y-125359616D01*
X173236248Y-125359616D02*
X173317060Y-125440428D01*
X173317060Y-125440428D02*
X173451747Y-125521241D01*
X173451747Y-125521241D02*
X173532560Y-125548178D01*
X173532560Y-125548178D02*
X173640309Y-125548178D01*
X173640309Y-125548178D02*
X173748059Y-125494303D01*
X173748059Y-125494303D02*
X173801934Y-125440428D01*
X173801934Y-125440428D02*
X173855808Y-125332679D01*
X173855808Y-125332679D02*
X173855808Y-125278804D01*
X173855808Y-125278804D02*
X173667247Y-125090242D01*
X173667247Y-125090242D02*
X173559497Y-125197992D01*
X174152120Y-125090242D02*
X173586434Y-124524557D01*
X173586434Y-124524557D02*
X173801934Y-124309057D01*
X173801934Y-124309057D02*
X173882746Y-124282120D01*
X173882746Y-124282120D02*
X173936621Y-124282120D01*
X173936621Y-124282120D02*
X174017433Y-124309057D01*
X174017433Y-124309057D02*
X174098245Y-124389870D01*
X174098245Y-124389870D02*
X174125182Y-124470682D01*
X174125182Y-124470682D02*
X174125182Y-124524557D01*
X174125182Y-124524557D02*
X174098245Y-124605369D01*
X174098245Y-124605369D02*
X173882746Y-124820868D01*
X175014117Y-124228245D02*
X174690868Y-124551494D01*
X174852492Y-124389870D02*
X174286807Y-123824184D01*
X174286807Y-123824184D02*
X174313744Y-123958871D01*
X174313744Y-123958871D02*
X174313744Y-124066621D01*
X174313744Y-124066621D02*
X174286807Y-124147433D01*
X175552865Y-123689497D02*
X175229616Y-124012746D01*
X175391240Y-123851121D02*
X174825555Y-123285436D01*
X174825555Y-123285436D02*
X174852492Y-123420123D01*
X174852492Y-123420123D02*
X174852492Y-123527873D01*
X174852492Y-123527873D02*
X174825555Y-123608685D01*
X199586435Y-94098431D02*
X199505623Y-94125368D01*
X199505623Y-94125368D02*
X199424811Y-94206180D01*
X199424811Y-94206180D02*
X199370936Y-94313930D01*
X199370936Y-94313930D02*
X199370936Y-94421680D01*
X199370936Y-94421680D02*
X199397873Y-94502492D01*
X199397873Y-94502492D02*
X199478685Y-94637179D01*
X199478685Y-94637179D02*
X199559498Y-94717991D01*
X199559498Y-94717991D02*
X199694185Y-94798803D01*
X199694185Y-94798803D02*
X199774997Y-94825741D01*
X199774997Y-94825741D02*
X199882746Y-94825741D01*
X199882746Y-94825741D02*
X199990496Y-94771866D01*
X199990496Y-94771866D02*
X200044371Y-94717991D01*
X200044371Y-94717991D02*
X200098246Y-94610241D01*
X200098246Y-94610241D02*
X200098246Y-94556367D01*
X200098246Y-94556367D02*
X199909684Y-94367805D01*
X199909684Y-94367805D02*
X199801934Y-94475554D01*
X200394557Y-94367805D02*
X199828872Y-93802119D01*
X199828872Y-93802119D02*
X200717806Y-94044556D01*
X200717806Y-94044556D02*
X200152120Y-93478871D01*
X200987180Y-93775182D02*
X200421494Y-93209497D01*
X200421494Y-93209497D02*
X200556181Y-93074810D01*
X200556181Y-93074810D02*
X200663931Y-93020935D01*
X200663931Y-93020935D02*
X200771680Y-93020935D01*
X200771680Y-93020935D02*
X200852493Y-93047872D01*
X200852493Y-93047872D02*
X200987180Y-93128685D01*
X200987180Y-93128685D02*
X201067992Y-93209497D01*
X201067992Y-93209497D02*
X201148804Y-93344184D01*
X201148804Y-93344184D02*
X201175741Y-93424996D01*
X201175741Y-93424996D02*
X201175741Y-93532746D01*
X201175741Y-93532746D02*
X201121867Y-93640495D01*
X201121867Y-93640495D02*
X200987180Y-93775182D01*
X199597998Y-124820868D02*
X199517185Y-124847805D01*
X199517185Y-124847805D02*
X199436373Y-124928618D01*
X199436373Y-124928618D02*
X199382498Y-125036367D01*
X199382498Y-125036367D02*
X199382498Y-125144117D01*
X199382498Y-125144117D02*
X199409436Y-125224929D01*
X199409436Y-125224929D02*
X199490248Y-125359616D01*
X199490248Y-125359616D02*
X199571060Y-125440428D01*
X199571060Y-125440428D02*
X199705747Y-125521241D01*
X199705747Y-125521241D02*
X199786560Y-125548178D01*
X199786560Y-125548178D02*
X199894309Y-125548178D01*
X199894309Y-125548178D02*
X200002059Y-125494303D01*
X200002059Y-125494303D02*
X200055934Y-125440428D01*
X200055934Y-125440428D02*
X200109808Y-125332679D01*
X200109808Y-125332679D02*
X200109808Y-125278804D01*
X200109808Y-125278804D02*
X199921247Y-125090242D01*
X199921247Y-125090242D02*
X199813497Y-125197992D01*
X200406120Y-125090242D02*
X199840434Y-124524557D01*
X199840434Y-124524557D02*
X200055934Y-124309057D01*
X200055934Y-124309057D02*
X200136746Y-124282120D01*
X200136746Y-124282120D02*
X200190621Y-124282120D01*
X200190621Y-124282120D02*
X200271433Y-124309057D01*
X200271433Y-124309057D02*
X200352245Y-124389870D01*
X200352245Y-124389870D02*
X200379182Y-124470682D01*
X200379182Y-124470682D02*
X200379182Y-124524557D01*
X200379182Y-124524557D02*
X200352245Y-124605369D01*
X200352245Y-124605369D02*
X200136746Y-124820868D01*
X200433057Y-124039683D02*
X200433057Y-123985809D01*
X200433057Y-123985809D02*
X200459995Y-123904996D01*
X200459995Y-123904996D02*
X200594682Y-123770309D01*
X200594682Y-123770309D02*
X200675494Y-123743372D01*
X200675494Y-123743372D02*
X200729369Y-123743372D01*
X200729369Y-123743372D02*
X200810181Y-123770309D01*
X200810181Y-123770309D02*
X200864056Y-123824184D01*
X200864056Y-123824184D02*
X200917930Y-123931934D01*
X200917930Y-123931934D02*
X200917930Y-124578431D01*
X200917930Y-124578431D02*
X201268117Y-124228245D01*
X201052618Y-123312373D02*
X201106492Y-123258499D01*
X201106492Y-123258499D02*
X201187305Y-123231561D01*
X201187305Y-123231561D02*
X201241179Y-123231561D01*
X201241179Y-123231561D02*
X201321992Y-123258499D01*
X201321992Y-123258499D02*
X201456679Y-123339311D01*
X201456679Y-123339311D02*
X201591366Y-123473998D01*
X201591366Y-123473998D02*
X201672178Y-123608685D01*
X201672178Y-123608685D02*
X201699115Y-123689497D01*
X201699115Y-123689497D02*
X201699115Y-123743372D01*
X201699115Y-123743372D02*
X201672178Y-123824184D01*
X201672178Y-123824184D02*
X201618303Y-123878059D01*
X201618303Y-123878059D02*
X201537491Y-123904996D01*
X201537491Y-123904996D02*
X201483616Y-123904996D01*
X201483616Y-123904996D02*
X201402804Y-123878059D01*
X201402804Y-123878059D02*
X201268117Y-123797247D01*
X201268117Y-123797247D02*
X201133430Y-123662560D01*
X201133430Y-123662560D02*
X201052618Y-123527873D01*
X201052618Y-123527873D02*
X201025680Y-123447060D01*
X201025680Y-123447060D02*
X201025680Y-123393186D01*
X201025680Y-123393186D02*
X201052618Y-123312373D01*
X173986435Y-119498431D02*
X173905623Y-119525368D01*
X173905623Y-119525368D02*
X173824811Y-119606180D01*
X173824811Y-119606180D02*
X173770936Y-119713930D01*
X173770936Y-119713930D02*
X173770936Y-119821680D01*
X173770936Y-119821680D02*
X173797873Y-119902492D01*
X173797873Y-119902492D02*
X173878685Y-120037179D01*
X173878685Y-120037179D02*
X173959498Y-120117991D01*
X173959498Y-120117991D02*
X174094185Y-120198803D01*
X174094185Y-120198803D02*
X174174997Y-120225741D01*
X174174997Y-120225741D02*
X174282746Y-120225741D01*
X174282746Y-120225741D02*
X174390496Y-120171866D01*
X174390496Y-120171866D02*
X174444371Y-120117991D01*
X174444371Y-120117991D02*
X174498246Y-120010241D01*
X174498246Y-120010241D02*
X174498246Y-119956367D01*
X174498246Y-119956367D02*
X174309684Y-119767805D01*
X174309684Y-119767805D02*
X174201934Y-119875554D01*
X174794557Y-119767805D02*
X174228872Y-119202119D01*
X174228872Y-119202119D02*
X175117806Y-119444556D01*
X175117806Y-119444556D02*
X174552120Y-118878871D01*
X175387180Y-119175182D02*
X174821494Y-118609497D01*
X174821494Y-118609497D02*
X174956181Y-118474810D01*
X174956181Y-118474810D02*
X175063931Y-118420935D01*
X175063931Y-118420935D02*
X175171680Y-118420935D01*
X175171680Y-118420935D02*
X175252493Y-118447872D01*
X175252493Y-118447872D02*
X175387180Y-118528685D01*
X175387180Y-118528685D02*
X175467992Y-118609497D01*
X175467992Y-118609497D02*
X175548804Y-118744184D01*
X175548804Y-118744184D02*
X175575741Y-118824996D01*
X175575741Y-118824996D02*
X175575741Y-118932746D01*
X175575741Y-118932746D02*
X175521867Y-119040495D01*
X175521867Y-119040495D02*
X175387180Y-119175182D01*
X199597998Y-112120868D02*
X199517185Y-112147805D01*
X199517185Y-112147805D02*
X199436373Y-112228618D01*
X199436373Y-112228618D02*
X199382498Y-112336367D01*
X199382498Y-112336367D02*
X199382498Y-112444117D01*
X199382498Y-112444117D02*
X199409436Y-112524929D01*
X199409436Y-112524929D02*
X199490248Y-112659616D01*
X199490248Y-112659616D02*
X199571060Y-112740428D01*
X199571060Y-112740428D02*
X199705747Y-112821241D01*
X199705747Y-112821241D02*
X199786560Y-112848178D01*
X199786560Y-112848178D02*
X199894309Y-112848178D01*
X199894309Y-112848178D02*
X200002059Y-112794303D01*
X200002059Y-112794303D02*
X200055934Y-112740428D01*
X200055934Y-112740428D02*
X200109808Y-112632679D01*
X200109808Y-112632679D02*
X200109808Y-112578804D01*
X200109808Y-112578804D02*
X199921247Y-112390242D01*
X199921247Y-112390242D02*
X199813497Y-112497992D01*
X200406120Y-112390242D02*
X199840434Y-111824557D01*
X199840434Y-111824557D02*
X200055934Y-111609057D01*
X200055934Y-111609057D02*
X200136746Y-111582120D01*
X200136746Y-111582120D02*
X200190621Y-111582120D01*
X200190621Y-111582120D02*
X200271433Y-111609057D01*
X200271433Y-111609057D02*
X200352245Y-111689870D01*
X200352245Y-111689870D02*
X200379182Y-111770682D01*
X200379182Y-111770682D02*
X200379182Y-111824557D01*
X200379182Y-111824557D02*
X200352245Y-111905369D01*
X200352245Y-111905369D02*
X200136746Y-112120868D01*
X200433057Y-111339683D02*
X200433057Y-111285809D01*
X200433057Y-111285809D02*
X200459995Y-111204996D01*
X200459995Y-111204996D02*
X200594682Y-111070309D01*
X200594682Y-111070309D02*
X200675494Y-111043372D01*
X200675494Y-111043372D02*
X200729369Y-111043372D01*
X200729369Y-111043372D02*
X200810181Y-111070309D01*
X200810181Y-111070309D02*
X200864056Y-111124184D01*
X200864056Y-111124184D02*
X200917930Y-111231934D01*
X200917930Y-111231934D02*
X200917930Y-111878431D01*
X200917930Y-111878431D02*
X201268117Y-111528245D01*
X201187305Y-110477686D02*
X201079555Y-110585436D01*
X201079555Y-110585436D02*
X201052618Y-110666248D01*
X201052618Y-110666248D02*
X201052618Y-110720123D01*
X201052618Y-110720123D02*
X201079555Y-110854810D01*
X201079555Y-110854810D02*
X201160367Y-110989497D01*
X201160367Y-110989497D02*
X201375866Y-111204996D01*
X201375866Y-111204996D02*
X201456679Y-111231934D01*
X201456679Y-111231934D02*
X201510553Y-111231934D01*
X201510553Y-111231934D02*
X201591366Y-111204996D01*
X201591366Y-111204996D02*
X201699115Y-111097247D01*
X201699115Y-111097247D02*
X201726053Y-111016434D01*
X201726053Y-111016434D02*
X201726053Y-110962560D01*
X201726053Y-110962560D02*
X201699115Y-110881747D01*
X201699115Y-110881747D02*
X201564428Y-110747060D01*
X201564428Y-110747060D02*
X201483616Y-110720123D01*
X201483616Y-110720123D02*
X201429741Y-110720123D01*
X201429741Y-110720123D02*
X201348929Y-110747060D01*
X201348929Y-110747060D02*
X201241179Y-110854810D01*
X201241179Y-110854810D02*
X201214242Y-110935622D01*
X201214242Y-110935622D02*
X201214242Y-110989497D01*
X201214242Y-110989497D02*
X201241179Y-111070309D01*
X174013372Y-109311494D02*
X173932560Y-109338431D01*
X173932560Y-109338431D02*
X173851748Y-109419243D01*
X173851748Y-109419243D02*
X173797873Y-109526993D01*
X173797873Y-109526993D02*
X173797873Y-109634742D01*
X173797873Y-109634742D02*
X173824810Y-109715555D01*
X173824810Y-109715555D02*
X173905623Y-109850242D01*
X173905623Y-109850242D02*
X173986435Y-109931054D01*
X173986435Y-109931054D02*
X174121122Y-110011866D01*
X174121122Y-110011866D02*
X174201934Y-110038803D01*
X174201934Y-110038803D02*
X174309684Y-110038803D01*
X174309684Y-110038803D02*
X174417433Y-109984929D01*
X174417433Y-109984929D02*
X174471308Y-109931054D01*
X174471308Y-109931054D02*
X174525183Y-109823304D01*
X174525183Y-109823304D02*
X174525183Y-109769429D01*
X174525183Y-109769429D02*
X174336621Y-109580868D01*
X174336621Y-109580868D02*
X174228871Y-109688617D01*
X174821494Y-109580868D02*
X174255809Y-109015182D01*
X174255809Y-109015182D02*
X174471308Y-108799683D01*
X174471308Y-108799683D02*
X174552120Y-108772746D01*
X174552120Y-108772746D02*
X174605995Y-108772746D01*
X174605995Y-108772746D02*
X174686807Y-108799683D01*
X174686807Y-108799683D02*
X174767619Y-108880495D01*
X174767619Y-108880495D02*
X174794557Y-108961307D01*
X174794557Y-108961307D02*
X174794557Y-109015182D01*
X174794557Y-109015182D02*
X174767619Y-109095994D01*
X174767619Y-109095994D02*
X174552120Y-109311494D01*
X175063931Y-108207060D02*
X174956181Y-108314810D01*
X174956181Y-108314810D02*
X174929244Y-108395622D01*
X174929244Y-108395622D02*
X174929244Y-108449497D01*
X174929244Y-108449497D02*
X174956181Y-108584184D01*
X174956181Y-108584184D02*
X175036993Y-108718871D01*
X175036993Y-108718871D02*
X175252493Y-108934370D01*
X175252493Y-108934370D02*
X175333305Y-108961307D01*
X175333305Y-108961307D02*
X175387180Y-108961307D01*
X175387180Y-108961307D02*
X175467992Y-108934370D01*
X175467992Y-108934370D02*
X175575741Y-108826620D01*
X175575741Y-108826620D02*
X175602679Y-108745808D01*
X175602679Y-108745808D02*
X175602679Y-108691933D01*
X175602679Y-108691933D02*
X175575741Y-108611121D01*
X175575741Y-108611121D02*
X175441054Y-108476434D01*
X175441054Y-108476434D02*
X175360242Y-108449497D01*
X175360242Y-108449497D02*
X175306367Y-108449497D01*
X175306367Y-108449497D02*
X175225555Y-108476434D01*
X175225555Y-108476434D02*
X175117806Y-108584184D01*
X175117806Y-108584184D02*
X175090868Y-108664996D01*
X175090868Y-108664996D02*
X175090868Y-108718871D01*
X175090868Y-108718871D02*
X175117806Y-108799683D01*
X174013372Y-88991494D02*
X173932560Y-89018431D01*
X173932560Y-89018431D02*
X173851748Y-89099243D01*
X173851748Y-89099243D02*
X173797873Y-89206993D01*
X173797873Y-89206993D02*
X173797873Y-89314742D01*
X173797873Y-89314742D02*
X173824810Y-89395555D01*
X173824810Y-89395555D02*
X173905623Y-89530242D01*
X173905623Y-89530242D02*
X173986435Y-89611054D01*
X173986435Y-89611054D02*
X174121122Y-89691866D01*
X174121122Y-89691866D02*
X174201934Y-89718803D01*
X174201934Y-89718803D02*
X174309684Y-89718803D01*
X174309684Y-89718803D02*
X174417433Y-89664929D01*
X174417433Y-89664929D02*
X174471308Y-89611054D01*
X174471308Y-89611054D02*
X174525183Y-89503304D01*
X174525183Y-89503304D02*
X174525183Y-89449429D01*
X174525183Y-89449429D02*
X174336621Y-89260868D01*
X174336621Y-89260868D02*
X174228871Y-89368617D01*
X174821494Y-89260868D02*
X174255809Y-88695182D01*
X174255809Y-88695182D02*
X174471308Y-88479683D01*
X174471308Y-88479683D02*
X174552120Y-88452746D01*
X174552120Y-88452746D02*
X174605995Y-88452746D01*
X174605995Y-88452746D02*
X174686807Y-88479683D01*
X174686807Y-88479683D02*
X174767619Y-88560495D01*
X174767619Y-88560495D02*
X174794557Y-88641307D01*
X174794557Y-88641307D02*
X174794557Y-88695182D01*
X174794557Y-88695182D02*
X174767619Y-88775994D01*
X174767619Y-88775994D02*
X174552120Y-88991494D01*
X174929244Y-88021747D02*
X174983119Y-87967872D01*
X174983119Y-87967872D02*
X175063931Y-87940935D01*
X175063931Y-87940935D02*
X175117806Y-87940935D01*
X175117806Y-87940935D02*
X175198618Y-87967872D01*
X175198618Y-87967872D02*
X175333305Y-88048685D01*
X175333305Y-88048685D02*
X175467992Y-88183372D01*
X175467992Y-88183372D02*
X175548804Y-88318059D01*
X175548804Y-88318059D02*
X175575741Y-88398871D01*
X175575741Y-88398871D02*
X175575741Y-88452746D01*
X175575741Y-88452746D02*
X175548804Y-88533558D01*
X175548804Y-88533558D02*
X175494929Y-88587433D01*
X175494929Y-88587433D02*
X175414117Y-88614370D01*
X175414117Y-88614370D02*
X175360242Y-88614370D01*
X175360242Y-88614370D02*
X175279430Y-88587433D01*
X175279430Y-88587433D02*
X175144743Y-88506620D01*
X175144743Y-88506620D02*
X175010056Y-88371933D01*
X175010056Y-88371933D02*
X174929244Y-88237246D01*
X174929244Y-88237246D02*
X174902306Y-88156434D01*
X174902306Y-88156434D02*
X174902306Y-88102559D01*
X174902306Y-88102559D02*
X174929244Y-88021747D01*
X199597998Y-122290868D02*
X199517185Y-122317805D01*
X199517185Y-122317805D02*
X199436373Y-122398618D01*
X199436373Y-122398618D02*
X199382498Y-122506367D01*
X199382498Y-122506367D02*
X199382498Y-122614117D01*
X199382498Y-122614117D02*
X199409436Y-122694929D01*
X199409436Y-122694929D02*
X199490248Y-122829616D01*
X199490248Y-122829616D02*
X199571060Y-122910428D01*
X199571060Y-122910428D02*
X199705747Y-122991241D01*
X199705747Y-122991241D02*
X199786560Y-123018178D01*
X199786560Y-123018178D02*
X199894309Y-123018178D01*
X199894309Y-123018178D02*
X200002059Y-122964303D01*
X200002059Y-122964303D02*
X200055934Y-122910428D01*
X200055934Y-122910428D02*
X200109808Y-122802679D01*
X200109808Y-122802679D02*
X200109808Y-122748804D01*
X200109808Y-122748804D02*
X199921247Y-122560242D01*
X199921247Y-122560242D02*
X199813497Y-122667992D01*
X200406120Y-122560242D02*
X199840434Y-121994557D01*
X199840434Y-121994557D02*
X200055934Y-121779057D01*
X200055934Y-121779057D02*
X200136746Y-121752120D01*
X200136746Y-121752120D02*
X200190621Y-121752120D01*
X200190621Y-121752120D02*
X200271433Y-121779057D01*
X200271433Y-121779057D02*
X200352245Y-121859870D01*
X200352245Y-121859870D02*
X200379182Y-121940682D01*
X200379182Y-121940682D02*
X200379182Y-121994557D01*
X200379182Y-121994557D02*
X200352245Y-122075369D01*
X200352245Y-122075369D02*
X200136746Y-122290868D01*
X200433057Y-121509683D02*
X200433057Y-121455809D01*
X200433057Y-121455809D02*
X200459995Y-121374996D01*
X200459995Y-121374996D02*
X200594682Y-121240309D01*
X200594682Y-121240309D02*
X200675494Y-121213372D01*
X200675494Y-121213372D02*
X200729369Y-121213372D01*
X200729369Y-121213372D02*
X200810181Y-121240309D01*
X200810181Y-121240309D02*
X200864056Y-121294184D01*
X200864056Y-121294184D02*
X200917930Y-121401934D01*
X200917930Y-121401934D02*
X200917930Y-122048431D01*
X200917930Y-122048431D02*
X201268117Y-121698245D01*
X201806865Y-121159497D02*
X201483616Y-121482746D01*
X201645240Y-121321121D02*
X201079555Y-120755436D01*
X201079555Y-120755436D02*
X201106492Y-120890123D01*
X201106492Y-120890123D02*
X201106492Y-120997873D01*
X201106492Y-120997873D02*
X201079555Y-121078685D01*
X199586435Y-132198431D02*
X199505623Y-132225368D01*
X199505623Y-132225368D02*
X199424811Y-132306180D01*
X199424811Y-132306180D02*
X199370936Y-132413930D01*
X199370936Y-132413930D02*
X199370936Y-132521680D01*
X199370936Y-132521680D02*
X199397873Y-132602492D01*
X199397873Y-132602492D02*
X199478685Y-132737179D01*
X199478685Y-132737179D02*
X199559498Y-132817991D01*
X199559498Y-132817991D02*
X199694185Y-132898803D01*
X199694185Y-132898803D02*
X199774997Y-132925741D01*
X199774997Y-132925741D02*
X199882746Y-132925741D01*
X199882746Y-132925741D02*
X199990496Y-132871866D01*
X199990496Y-132871866D02*
X200044371Y-132817991D01*
X200044371Y-132817991D02*
X200098246Y-132710241D01*
X200098246Y-132710241D02*
X200098246Y-132656367D01*
X200098246Y-132656367D02*
X199909684Y-132467805D01*
X199909684Y-132467805D02*
X199801934Y-132575554D01*
X200394557Y-132467805D02*
X199828872Y-131902119D01*
X199828872Y-131902119D02*
X200717806Y-132144556D01*
X200717806Y-132144556D02*
X200152120Y-131578871D01*
X200987180Y-131875182D02*
X200421494Y-131309497D01*
X200421494Y-131309497D02*
X200556181Y-131174810D01*
X200556181Y-131174810D02*
X200663931Y-131120935D01*
X200663931Y-131120935D02*
X200771680Y-131120935D01*
X200771680Y-131120935D02*
X200852493Y-131147872D01*
X200852493Y-131147872D02*
X200987180Y-131228685D01*
X200987180Y-131228685D02*
X201067992Y-131309497D01*
X201067992Y-131309497D02*
X201148804Y-131444184D01*
X201148804Y-131444184D02*
X201175741Y-131524996D01*
X201175741Y-131524996D02*
X201175741Y-131632746D01*
X201175741Y-131632746D02*
X201121867Y-131740495D01*
X201121867Y-131740495D02*
X200987180Y-131875182D01*
X199597998Y-104246868D02*
X199517185Y-104273805D01*
X199517185Y-104273805D02*
X199436373Y-104354618D01*
X199436373Y-104354618D02*
X199382498Y-104462367D01*
X199382498Y-104462367D02*
X199382498Y-104570117D01*
X199382498Y-104570117D02*
X199409436Y-104650929D01*
X199409436Y-104650929D02*
X199490248Y-104785616D01*
X199490248Y-104785616D02*
X199571060Y-104866428D01*
X199571060Y-104866428D02*
X199705747Y-104947241D01*
X199705747Y-104947241D02*
X199786560Y-104974178D01*
X199786560Y-104974178D02*
X199894309Y-104974178D01*
X199894309Y-104974178D02*
X200002059Y-104920303D01*
X200002059Y-104920303D02*
X200055934Y-104866428D01*
X200055934Y-104866428D02*
X200109808Y-104758679D01*
X200109808Y-104758679D02*
X200109808Y-104704804D01*
X200109808Y-104704804D02*
X199921247Y-104516242D01*
X199921247Y-104516242D02*
X199813497Y-104623992D01*
X200406120Y-104516242D02*
X199840434Y-103950557D01*
X199840434Y-103950557D02*
X200055934Y-103735057D01*
X200055934Y-103735057D02*
X200136746Y-103708120D01*
X200136746Y-103708120D02*
X200190621Y-103708120D01*
X200190621Y-103708120D02*
X200271433Y-103735057D01*
X200271433Y-103735057D02*
X200352245Y-103815870D01*
X200352245Y-103815870D02*
X200379182Y-103896682D01*
X200379182Y-103896682D02*
X200379182Y-103950557D01*
X200379182Y-103950557D02*
X200352245Y-104031369D01*
X200352245Y-104031369D02*
X200136746Y-104246868D01*
X200433057Y-103465683D02*
X200433057Y-103411809D01*
X200433057Y-103411809D02*
X200459995Y-103330996D01*
X200459995Y-103330996D02*
X200594682Y-103196309D01*
X200594682Y-103196309D02*
X200675494Y-103169372D01*
X200675494Y-103169372D02*
X200729369Y-103169372D01*
X200729369Y-103169372D02*
X200810181Y-103196309D01*
X200810181Y-103196309D02*
X200864056Y-103250184D01*
X200864056Y-103250184D02*
X200917930Y-103357934D01*
X200917930Y-103357934D02*
X200917930Y-104004431D01*
X200917930Y-104004431D02*
X201268117Y-103654245D01*
X201268117Y-103007747D02*
X201187305Y-103034685D01*
X201187305Y-103034685D02*
X201133430Y-103034685D01*
X201133430Y-103034685D02*
X201052618Y-103007747D01*
X201052618Y-103007747D02*
X201025680Y-102980810D01*
X201025680Y-102980810D02*
X200998743Y-102899998D01*
X200998743Y-102899998D02*
X200998743Y-102846123D01*
X200998743Y-102846123D02*
X201025680Y-102765311D01*
X201025680Y-102765311D02*
X201133430Y-102657561D01*
X201133430Y-102657561D02*
X201214242Y-102630624D01*
X201214242Y-102630624D02*
X201268117Y-102630624D01*
X201268117Y-102630624D02*
X201348929Y-102657561D01*
X201348929Y-102657561D02*
X201375866Y-102684499D01*
X201375866Y-102684499D02*
X201402804Y-102765311D01*
X201402804Y-102765311D02*
X201402804Y-102819186D01*
X201402804Y-102819186D02*
X201375866Y-102899998D01*
X201375866Y-102899998D02*
X201268117Y-103007747D01*
X201268117Y-103007747D02*
X201241179Y-103088560D01*
X201241179Y-103088560D02*
X201241179Y-103142434D01*
X201241179Y-103142434D02*
X201268117Y-103223247D01*
X201268117Y-103223247D02*
X201375866Y-103330996D01*
X201375866Y-103330996D02*
X201456679Y-103357934D01*
X201456679Y-103357934D02*
X201510553Y-103357934D01*
X201510553Y-103357934D02*
X201591366Y-103330996D01*
X201591366Y-103330996D02*
X201699115Y-103223247D01*
X201699115Y-103223247D02*
X201726053Y-103142434D01*
X201726053Y-103142434D02*
X201726053Y-103088560D01*
X201726053Y-103088560D02*
X201699115Y-103007747D01*
X201699115Y-103007747D02*
X201591366Y-102899998D01*
X201591366Y-102899998D02*
X201510553Y-102873060D01*
X201510553Y-102873060D02*
X201456679Y-102873060D01*
X201456679Y-102873060D02*
X201375866Y-102899998D01*
X199586435Y-119498431D02*
X199505623Y-119525368D01*
X199505623Y-119525368D02*
X199424811Y-119606180D01*
X199424811Y-119606180D02*
X199370936Y-119713930D01*
X199370936Y-119713930D02*
X199370936Y-119821680D01*
X199370936Y-119821680D02*
X199397873Y-119902492D01*
X199397873Y-119902492D02*
X199478685Y-120037179D01*
X199478685Y-120037179D02*
X199559498Y-120117991D01*
X199559498Y-120117991D02*
X199694185Y-120198803D01*
X199694185Y-120198803D02*
X199774997Y-120225741D01*
X199774997Y-120225741D02*
X199882746Y-120225741D01*
X199882746Y-120225741D02*
X199990496Y-120171866D01*
X199990496Y-120171866D02*
X200044371Y-120117991D01*
X200044371Y-120117991D02*
X200098246Y-120010241D01*
X200098246Y-120010241D02*
X200098246Y-119956367D01*
X200098246Y-119956367D02*
X199909684Y-119767805D01*
X199909684Y-119767805D02*
X199801934Y-119875554D01*
X200394557Y-119767805D02*
X199828872Y-119202119D01*
X199828872Y-119202119D02*
X200717806Y-119444556D01*
X200717806Y-119444556D02*
X200152120Y-118878871D01*
X200987180Y-119175182D02*
X200421494Y-118609497D01*
X200421494Y-118609497D02*
X200556181Y-118474810D01*
X200556181Y-118474810D02*
X200663931Y-118420935D01*
X200663931Y-118420935D02*
X200771680Y-118420935D01*
X200771680Y-118420935D02*
X200852493Y-118447872D01*
X200852493Y-118447872D02*
X200987180Y-118528685D01*
X200987180Y-118528685D02*
X201067992Y-118609497D01*
X201067992Y-118609497D02*
X201148804Y-118744184D01*
X201148804Y-118744184D02*
X201175741Y-118824996D01*
X201175741Y-118824996D02*
X201175741Y-118932746D01*
X201175741Y-118932746D02*
X201121867Y-119040495D01*
X201121867Y-119040495D02*
X200987180Y-119175182D01*
X173986435Y-106798431D02*
X173905623Y-106825368D01*
X173905623Y-106825368D02*
X173824811Y-106906180D01*
X173824811Y-106906180D02*
X173770936Y-107013930D01*
X173770936Y-107013930D02*
X173770936Y-107121680D01*
X173770936Y-107121680D02*
X173797873Y-107202492D01*
X173797873Y-107202492D02*
X173878685Y-107337179D01*
X173878685Y-107337179D02*
X173959498Y-107417991D01*
X173959498Y-107417991D02*
X174094185Y-107498803D01*
X174094185Y-107498803D02*
X174174997Y-107525741D01*
X174174997Y-107525741D02*
X174282746Y-107525741D01*
X174282746Y-107525741D02*
X174390496Y-107471866D01*
X174390496Y-107471866D02*
X174444371Y-107417991D01*
X174444371Y-107417991D02*
X174498246Y-107310241D01*
X174498246Y-107310241D02*
X174498246Y-107256367D01*
X174498246Y-107256367D02*
X174309684Y-107067805D01*
X174309684Y-107067805D02*
X174201934Y-107175554D01*
X174794557Y-107067805D02*
X174228872Y-106502119D01*
X174228872Y-106502119D02*
X175117806Y-106744556D01*
X175117806Y-106744556D02*
X174552120Y-106178871D01*
X175387180Y-106475182D02*
X174821494Y-105909497D01*
X174821494Y-105909497D02*
X174956181Y-105774810D01*
X174956181Y-105774810D02*
X175063931Y-105720935D01*
X175063931Y-105720935D02*
X175171680Y-105720935D01*
X175171680Y-105720935D02*
X175252493Y-105747872D01*
X175252493Y-105747872D02*
X175387180Y-105828685D01*
X175387180Y-105828685D02*
X175467992Y-105909497D01*
X175467992Y-105909497D02*
X175548804Y-106044184D01*
X175548804Y-106044184D02*
X175575741Y-106124996D01*
X175575741Y-106124996D02*
X175575741Y-106232746D01*
X175575741Y-106232746D02*
X175521867Y-106340495D01*
X175521867Y-106340495D02*
X175387180Y-106475182D01*
X199420749Y-92070242D02*
X200174996Y-92447366D01*
X200174996Y-92447366D02*
X199797873Y-91693118D01*
X200498245Y-92070242D02*
X200605995Y-92016367D01*
X200605995Y-92016367D02*
X200740682Y-91881680D01*
X200740682Y-91881680D02*
X200767619Y-91800868D01*
X200767619Y-91800868D02*
X200767619Y-91746993D01*
X200767619Y-91746993D02*
X200740682Y-91666181D01*
X200740682Y-91666181D02*
X200686807Y-91612306D01*
X200686807Y-91612306D02*
X200605995Y-91585369D01*
X200605995Y-91585369D02*
X200552120Y-91585369D01*
X200552120Y-91585369D02*
X200471308Y-91612306D01*
X200471308Y-91612306D02*
X200336621Y-91693118D01*
X200336621Y-91693118D02*
X200255808Y-91720056D01*
X200255808Y-91720056D02*
X200201934Y-91720056D01*
X200201934Y-91720056D02*
X200121121Y-91693118D01*
X200121121Y-91693118D02*
X200067247Y-91639244D01*
X200067247Y-91639244D02*
X200040309Y-91558431D01*
X200040309Y-91558431D02*
X200040309Y-91504557D01*
X200040309Y-91504557D02*
X200067247Y-91423744D01*
X200067247Y-91423744D02*
X200201934Y-91289057D01*
X200201934Y-91289057D02*
X200309683Y-91235183D01*
X200929244Y-91154370D02*
X201198618Y-91423744D01*
X200444370Y-91046621D02*
X200929244Y-91154370D01*
X200929244Y-91154370D02*
X200821494Y-90669497D01*
X201521866Y-91046621D02*
X201629616Y-90992746D01*
X201629616Y-90992746D02*
X201764303Y-90858059D01*
X201764303Y-90858059D02*
X201791240Y-90777247D01*
X201791240Y-90777247D02*
X201791240Y-90723372D01*
X201791240Y-90723372D02*
X201764303Y-90642560D01*
X201764303Y-90642560D02*
X201710428Y-90588685D01*
X201710428Y-90588685D02*
X201629616Y-90561748D01*
X201629616Y-90561748D02*
X201575741Y-90561748D01*
X201575741Y-90561748D02*
X201494929Y-90588685D01*
X201494929Y-90588685D02*
X201360242Y-90669497D01*
X201360242Y-90669497D02*
X201279430Y-90696435D01*
X201279430Y-90696435D02*
X201225555Y-90696435D01*
X201225555Y-90696435D02*
X201144743Y-90669497D01*
X201144743Y-90669497D02*
X201090868Y-90615622D01*
X201090868Y-90615622D02*
X201063930Y-90534810D01*
X201063930Y-90534810D02*
X201063930Y-90480935D01*
X201063930Y-90480935D02*
X201090868Y-90400123D01*
X201090868Y-90400123D02*
X201225555Y-90265436D01*
X201225555Y-90265436D02*
X201333304Y-90211561D01*
X199597998Y-137520868D02*
X199517185Y-137547805D01*
X199517185Y-137547805D02*
X199436373Y-137628618D01*
X199436373Y-137628618D02*
X199382498Y-137736367D01*
X199382498Y-137736367D02*
X199382498Y-137844117D01*
X199382498Y-137844117D02*
X199409436Y-137924929D01*
X199409436Y-137924929D02*
X199490248Y-138059616D01*
X199490248Y-138059616D02*
X199571060Y-138140428D01*
X199571060Y-138140428D02*
X199705747Y-138221241D01*
X199705747Y-138221241D02*
X199786560Y-138248178D01*
X199786560Y-138248178D02*
X199894309Y-138248178D01*
X199894309Y-138248178D02*
X200002059Y-138194303D01*
X200002059Y-138194303D02*
X200055934Y-138140428D01*
X200055934Y-138140428D02*
X200109808Y-138032679D01*
X200109808Y-138032679D02*
X200109808Y-137978804D01*
X200109808Y-137978804D02*
X199921247Y-137790242D01*
X199921247Y-137790242D02*
X199813497Y-137897992D01*
X200406120Y-137790242D02*
X199840434Y-137224557D01*
X199840434Y-137224557D02*
X200055934Y-137009057D01*
X200055934Y-137009057D02*
X200136746Y-136982120D01*
X200136746Y-136982120D02*
X200190621Y-136982120D01*
X200190621Y-136982120D02*
X200271433Y-137009057D01*
X200271433Y-137009057D02*
X200352245Y-137089870D01*
X200352245Y-137089870D02*
X200379182Y-137170682D01*
X200379182Y-137170682D02*
X200379182Y-137224557D01*
X200379182Y-137224557D02*
X200352245Y-137305369D01*
X200352245Y-137305369D02*
X200136746Y-137520868D01*
X201268117Y-136928245D02*
X200944868Y-137251494D01*
X201106492Y-137089870D02*
X200540807Y-136524184D01*
X200540807Y-136524184D02*
X200567744Y-136658871D01*
X200567744Y-136658871D02*
X200567744Y-136766621D01*
X200567744Y-136766621D02*
X200540807Y-136847433D01*
X201187305Y-135877686D02*
X201079555Y-135985436D01*
X201079555Y-135985436D02*
X201052618Y-136066248D01*
X201052618Y-136066248D02*
X201052618Y-136120123D01*
X201052618Y-136120123D02*
X201079555Y-136254810D01*
X201079555Y-136254810D02*
X201160367Y-136389497D01*
X201160367Y-136389497D02*
X201375866Y-136604996D01*
X201375866Y-136604996D02*
X201456679Y-136631934D01*
X201456679Y-136631934D02*
X201510553Y-136631934D01*
X201510553Y-136631934D02*
X201591366Y-136604996D01*
X201591366Y-136604996D02*
X201699115Y-136497247D01*
X201699115Y-136497247D02*
X201726053Y-136416434D01*
X201726053Y-136416434D02*
X201726053Y-136362560D01*
X201726053Y-136362560D02*
X201699115Y-136281747D01*
X201699115Y-136281747D02*
X201564428Y-136147060D01*
X201564428Y-136147060D02*
X201483616Y-136120123D01*
X201483616Y-136120123D02*
X201429741Y-136120123D01*
X201429741Y-136120123D02*
X201348929Y-136147060D01*
X201348929Y-136147060D02*
X201241179Y-136254810D01*
X201241179Y-136254810D02*
X201214242Y-136335622D01*
X201214242Y-136335622D02*
X201214242Y-136389497D01*
X201214242Y-136389497D02*
X201241179Y-136470309D01*
X173489998Y-137520868D02*
X173409185Y-137547805D01*
X173409185Y-137547805D02*
X173328373Y-137628618D01*
X173328373Y-137628618D02*
X173274498Y-137736367D01*
X173274498Y-137736367D02*
X173274498Y-137844117D01*
X173274498Y-137844117D02*
X173301436Y-137924929D01*
X173301436Y-137924929D02*
X173382248Y-138059616D01*
X173382248Y-138059616D02*
X173463060Y-138140428D01*
X173463060Y-138140428D02*
X173597747Y-138221241D01*
X173597747Y-138221241D02*
X173678560Y-138248178D01*
X173678560Y-138248178D02*
X173786309Y-138248178D01*
X173786309Y-138248178D02*
X173894059Y-138194303D01*
X173894059Y-138194303D02*
X173947934Y-138140428D01*
X173947934Y-138140428D02*
X174001808Y-138032679D01*
X174001808Y-138032679D02*
X174001808Y-137978804D01*
X174001808Y-137978804D02*
X173813247Y-137790242D01*
X173813247Y-137790242D02*
X173705497Y-137897992D01*
X174298120Y-137790242D02*
X173732434Y-137224557D01*
X173732434Y-137224557D02*
X173947934Y-137009057D01*
X173947934Y-137009057D02*
X174028746Y-136982120D01*
X174028746Y-136982120D02*
X174082621Y-136982120D01*
X174082621Y-136982120D02*
X174163433Y-137009057D01*
X174163433Y-137009057D02*
X174244245Y-137089870D01*
X174244245Y-137089870D02*
X174271182Y-137170682D01*
X174271182Y-137170682D02*
X174271182Y-137224557D01*
X174271182Y-137224557D02*
X174244245Y-137305369D01*
X174244245Y-137305369D02*
X174028746Y-137520868D01*
X175160117Y-136928245D02*
X174836868Y-137251494D01*
X174998492Y-137089870D02*
X174432807Y-136524184D01*
X174432807Y-136524184D02*
X174459744Y-136658871D01*
X174459744Y-136658871D02*
X174459744Y-136766621D01*
X174459744Y-136766621D02*
X174432807Y-136847433D01*
X175106242Y-135850749D02*
X174836868Y-136120123D01*
X174836868Y-136120123D02*
X175079305Y-136416434D01*
X175079305Y-136416434D02*
X175079305Y-136362560D01*
X175079305Y-136362560D02*
X175106242Y-136281747D01*
X175106242Y-136281747D02*
X175240929Y-136147060D01*
X175240929Y-136147060D02*
X175321741Y-136120123D01*
X175321741Y-136120123D02*
X175375616Y-136120123D01*
X175375616Y-136120123D02*
X175456428Y-136147060D01*
X175456428Y-136147060D02*
X175591115Y-136281747D01*
X175591115Y-136281747D02*
X175618053Y-136362560D01*
X175618053Y-136362560D02*
X175618053Y-136416434D01*
X175618053Y-136416434D02*
X175591115Y-136497247D01*
X175591115Y-136497247D02*
X175456428Y-136631934D01*
X175456428Y-136631934D02*
X175375616Y-136658871D01*
X175375616Y-136658871D02*
X175321741Y-136658871D01*
X199655064Y-102534049D02*
X199924438Y-102264675D01*
X199762813Y-102749549D02*
X199385690Y-101995301D01*
X199385690Y-101995301D02*
X200139937Y-102372425D01*
X200328499Y-102183863D02*
X199762813Y-101618178D01*
X199762813Y-101618178D02*
X199897500Y-101483491D01*
X199897500Y-101483491D02*
X200005250Y-101429616D01*
X200005250Y-101429616D02*
X200112999Y-101429616D01*
X200112999Y-101429616D02*
X200193812Y-101456553D01*
X200193812Y-101456553D02*
X200328499Y-101537366D01*
X200328499Y-101537366D02*
X200409311Y-101618178D01*
X200409311Y-101618178D02*
X200490123Y-101752865D01*
X200490123Y-101752865D02*
X200517060Y-101833677D01*
X200517060Y-101833677D02*
X200517060Y-101941427D01*
X200517060Y-101941427D02*
X200463186Y-102049176D01*
X200463186Y-102049176D02*
X200328499Y-102183863D01*
X201163558Y-101241054D02*
X201163558Y-101294929D01*
X201163558Y-101294929D02*
X201109683Y-101402679D01*
X201109683Y-101402679D02*
X201055808Y-101456553D01*
X201055808Y-101456553D02*
X200948059Y-101510428D01*
X200948059Y-101510428D02*
X200840309Y-101510428D01*
X200840309Y-101510428D02*
X200759497Y-101483491D01*
X200759497Y-101483491D02*
X200624810Y-101402679D01*
X200624810Y-101402679D02*
X200543998Y-101321866D01*
X200543998Y-101321866D02*
X200463186Y-101187179D01*
X200463186Y-101187179D02*
X200436248Y-101106367D01*
X200436248Y-101106367D02*
X200436248Y-100998618D01*
X200436248Y-100998618D02*
X200490123Y-100890868D01*
X200490123Y-100890868D02*
X200543998Y-100836993D01*
X200543998Y-100836993D02*
X200651747Y-100783118D01*
X200651747Y-100783118D02*
X200705622Y-100783118D01*
X201379057Y-101241054D02*
X201810056Y-100810056D01*
X201244370Y-100136621D02*
X201998618Y-100513744D01*
X201998618Y-100513744D02*
X201621494Y-99759497D01*
X202698990Y-99813372D02*
X202241054Y-99732560D01*
X202375741Y-100136621D02*
X201810056Y-99570935D01*
X201810056Y-99570935D02*
X202025555Y-99355436D01*
X202025555Y-99355436D02*
X202106367Y-99328499D01*
X202106367Y-99328499D02*
X202160242Y-99328499D01*
X202160242Y-99328499D02*
X202241054Y-99355436D01*
X202241054Y-99355436D02*
X202321866Y-99436248D01*
X202321866Y-99436248D02*
X202348804Y-99517061D01*
X202348804Y-99517061D02*
X202348804Y-99570935D01*
X202348804Y-99570935D02*
X202321866Y-99651748D01*
X202321866Y-99651748D02*
X202106367Y-99867247D01*
X202645115Y-99274624D02*
X202833677Y-99086062D01*
X203210800Y-99301561D02*
X202941426Y-99570935D01*
X202941426Y-99570935D02*
X202375741Y-99005250D01*
X202375741Y-99005250D02*
X202645115Y-98735876D01*
X203345488Y-98574251D02*
X203156926Y-98762813D01*
X203453237Y-99059125D02*
X202887552Y-98493439D01*
X202887552Y-98493439D02*
X203156926Y-98224065D01*
X174013372Y-99151494D02*
X173932560Y-99178431D01*
X173932560Y-99178431D02*
X173851748Y-99259243D01*
X173851748Y-99259243D02*
X173797873Y-99366993D01*
X173797873Y-99366993D02*
X173797873Y-99474742D01*
X173797873Y-99474742D02*
X173824810Y-99555555D01*
X173824810Y-99555555D02*
X173905623Y-99690242D01*
X173905623Y-99690242D02*
X173986435Y-99771054D01*
X173986435Y-99771054D02*
X174121122Y-99851866D01*
X174121122Y-99851866D02*
X174201934Y-99878803D01*
X174201934Y-99878803D02*
X174309684Y-99878803D01*
X174309684Y-99878803D02*
X174417433Y-99824929D01*
X174417433Y-99824929D02*
X174471308Y-99771054D01*
X174471308Y-99771054D02*
X174525183Y-99663304D01*
X174525183Y-99663304D02*
X174525183Y-99609429D01*
X174525183Y-99609429D02*
X174336621Y-99420868D01*
X174336621Y-99420868D02*
X174228871Y-99528617D01*
X174821494Y-99420868D02*
X174255809Y-98855182D01*
X174255809Y-98855182D02*
X174471308Y-98639683D01*
X174471308Y-98639683D02*
X174552120Y-98612746D01*
X174552120Y-98612746D02*
X174605995Y-98612746D01*
X174605995Y-98612746D02*
X174686807Y-98639683D01*
X174686807Y-98639683D02*
X174767619Y-98720495D01*
X174767619Y-98720495D02*
X174794557Y-98801307D01*
X174794557Y-98801307D02*
X174794557Y-98855182D01*
X174794557Y-98855182D02*
X174767619Y-98935994D01*
X174767619Y-98935994D02*
X174552120Y-99151494D01*
X174767619Y-98343372D02*
X175117806Y-97993185D01*
X175117806Y-97993185D02*
X175144743Y-98397246D01*
X175144743Y-98397246D02*
X175225555Y-98316434D01*
X175225555Y-98316434D02*
X175306367Y-98289497D01*
X175306367Y-98289497D02*
X175360242Y-98289497D01*
X175360242Y-98289497D02*
X175441054Y-98316434D01*
X175441054Y-98316434D02*
X175575741Y-98451121D01*
X175575741Y-98451121D02*
X175602679Y-98531933D01*
X175602679Y-98531933D02*
X175602679Y-98585808D01*
X175602679Y-98585808D02*
X175575741Y-98666620D01*
X175575741Y-98666620D02*
X175414117Y-98828245D01*
X175414117Y-98828245D02*
X175333305Y-98855182D01*
X175333305Y-98855182D02*
X175279430Y-98855182D01*
X199597998Y-129900868D02*
X199517185Y-129927805D01*
X199517185Y-129927805D02*
X199436373Y-130008618D01*
X199436373Y-130008618D02*
X199382498Y-130116367D01*
X199382498Y-130116367D02*
X199382498Y-130224117D01*
X199382498Y-130224117D02*
X199409436Y-130304929D01*
X199409436Y-130304929D02*
X199490248Y-130439616D01*
X199490248Y-130439616D02*
X199571060Y-130520428D01*
X199571060Y-130520428D02*
X199705747Y-130601241D01*
X199705747Y-130601241D02*
X199786560Y-130628178D01*
X199786560Y-130628178D02*
X199894309Y-130628178D01*
X199894309Y-130628178D02*
X200002059Y-130574303D01*
X200002059Y-130574303D02*
X200055934Y-130520428D01*
X200055934Y-130520428D02*
X200109808Y-130412679D01*
X200109808Y-130412679D02*
X200109808Y-130358804D01*
X200109808Y-130358804D02*
X199921247Y-130170242D01*
X199921247Y-130170242D02*
X199813497Y-130277992D01*
X200406120Y-130170242D02*
X199840434Y-129604557D01*
X199840434Y-129604557D02*
X200055934Y-129389057D01*
X200055934Y-129389057D02*
X200136746Y-129362120D01*
X200136746Y-129362120D02*
X200190621Y-129362120D01*
X200190621Y-129362120D02*
X200271433Y-129389057D01*
X200271433Y-129389057D02*
X200352245Y-129469870D01*
X200352245Y-129469870D02*
X200379182Y-129550682D01*
X200379182Y-129550682D02*
X200379182Y-129604557D01*
X200379182Y-129604557D02*
X200352245Y-129685369D01*
X200352245Y-129685369D02*
X200136746Y-129900868D01*
X201268117Y-129308245D02*
X200944868Y-129631494D01*
X201106492Y-129469870D02*
X200540807Y-128904184D01*
X200540807Y-128904184D02*
X200567744Y-129038871D01*
X200567744Y-129038871D02*
X200567744Y-129146621D01*
X200567744Y-129146621D02*
X200540807Y-129227433D01*
X201268117Y-128661747D02*
X201187305Y-128688685D01*
X201187305Y-128688685D02*
X201133430Y-128688685D01*
X201133430Y-128688685D02*
X201052618Y-128661747D01*
X201052618Y-128661747D02*
X201025680Y-128634810D01*
X201025680Y-128634810D02*
X200998743Y-128553998D01*
X200998743Y-128553998D02*
X200998743Y-128500123D01*
X200998743Y-128500123D02*
X201025680Y-128419311D01*
X201025680Y-128419311D02*
X201133430Y-128311561D01*
X201133430Y-128311561D02*
X201214242Y-128284624D01*
X201214242Y-128284624D02*
X201268117Y-128284624D01*
X201268117Y-128284624D02*
X201348929Y-128311561D01*
X201348929Y-128311561D02*
X201375866Y-128338499D01*
X201375866Y-128338499D02*
X201402804Y-128419311D01*
X201402804Y-128419311D02*
X201402804Y-128473186D01*
X201402804Y-128473186D02*
X201375866Y-128553998D01*
X201375866Y-128553998D02*
X201268117Y-128661747D01*
X201268117Y-128661747D02*
X201241179Y-128742560D01*
X201241179Y-128742560D02*
X201241179Y-128796434D01*
X201241179Y-128796434D02*
X201268117Y-128877247D01*
X201268117Y-128877247D02*
X201375866Y-128984996D01*
X201375866Y-128984996D02*
X201456679Y-129011934D01*
X201456679Y-129011934D02*
X201510553Y-129011934D01*
X201510553Y-129011934D02*
X201591366Y-128984996D01*
X201591366Y-128984996D02*
X201699115Y-128877247D01*
X201699115Y-128877247D02*
X201726053Y-128796434D01*
X201726053Y-128796434D02*
X201726053Y-128742560D01*
X201726053Y-128742560D02*
X201699115Y-128661747D01*
X201699115Y-128661747D02*
X201591366Y-128553998D01*
X201591366Y-128553998D02*
X201510553Y-128527060D01*
X201510553Y-128527060D02*
X201456679Y-128527060D01*
X201456679Y-128527060D02*
X201375866Y-128553998D01*
X200338651Y-114943710D02*
X199880716Y-114862898D01*
X200015403Y-115266959D02*
X199449717Y-114701274D01*
X199449717Y-114701274D02*
X199665216Y-114485775D01*
X199665216Y-114485775D02*
X199746029Y-114458837D01*
X199746029Y-114458837D02*
X199799903Y-114458837D01*
X199799903Y-114458837D02*
X199880716Y-114485775D01*
X199880716Y-114485775D02*
X199961528Y-114566587D01*
X199961528Y-114566587D02*
X199988465Y-114647399D01*
X199988465Y-114647399D02*
X199988465Y-114701274D01*
X199988465Y-114701274D02*
X199961528Y-114782086D01*
X199961528Y-114782086D02*
X199746029Y-114997585D01*
X200015403Y-114135588D02*
X200473338Y-114593524D01*
X200473338Y-114593524D02*
X200554151Y-114620462D01*
X200554151Y-114620462D02*
X200608025Y-114620462D01*
X200608025Y-114620462D02*
X200688838Y-114593524D01*
X200688838Y-114593524D02*
X200796587Y-114485775D01*
X200796587Y-114485775D02*
X200823525Y-114404962D01*
X200823525Y-114404962D02*
X200823525Y-114351088D01*
X200823525Y-114351088D02*
X200796587Y-114270275D01*
X200796587Y-114270275D02*
X200338651Y-113812340D01*
X201173711Y-114108651D02*
X200608025Y-113542966D01*
X200608025Y-113542966D02*
X201496959Y-113785402D01*
X201496959Y-113785402D02*
X200931274Y-113219717D01*
X174013372Y-116931494D02*
X173932560Y-116958431D01*
X173932560Y-116958431D02*
X173851748Y-117039243D01*
X173851748Y-117039243D02*
X173797873Y-117146993D01*
X173797873Y-117146993D02*
X173797873Y-117254742D01*
X173797873Y-117254742D02*
X173824810Y-117335555D01*
X173824810Y-117335555D02*
X173905623Y-117470242D01*
X173905623Y-117470242D02*
X173986435Y-117551054D01*
X173986435Y-117551054D02*
X174121122Y-117631866D01*
X174121122Y-117631866D02*
X174201934Y-117658803D01*
X174201934Y-117658803D02*
X174309684Y-117658803D01*
X174309684Y-117658803D02*
X174417433Y-117604929D01*
X174417433Y-117604929D02*
X174471308Y-117551054D01*
X174471308Y-117551054D02*
X174525183Y-117443304D01*
X174525183Y-117443304D02*
X174525183Y-117389429D01*
X174525183Y-117389429D02*
X174336621Y-117200868D01*
X174336621Y-117200868D02*
X174228871Y-117308617D01*
X174821494Y-117200868D02*
X174255809Y-116635182D01*
X174255809Y-116635182D02*
X174471308Y-116419683D01*
X174471308Y-116419683D02*
X174552120Y-116392746D01*
X174552120Y-116392746D02*
X174605995Y-116392746D01*
X174605995Y-116392746D02*
X174686807Y-116419683D01*
X174686807Y-116419683D02*
X174767619Y-116500495D01*
X174767619Y-116500495D02*
X174794557Y-116581307D01*
X174794557Y-116581307D02*
X174794557Y-116635182D01*
X174794557Y-116635182D02*
X174767619Y-116715994D01*
X174767619Y-116715994D02*
X174552120Y-116931494D01*
X175414117Y-116608245D02*
X175521867Y-116500495D01*
X175521867Y-116500495D02*
X175548804Y-116419683D01*
X175548804Y-116419683D02*
X175548804Y-116365808D01*
X175548804Y-116365808D02*
X175521867Y-116231121D01*
X175521867Y-116231121D02*
X175441054Y-116096434D01*
X175441054Y-116096434D02*
X175225555Y-115880935D01*
X175225555Y-115880935D02*
X175144743Y-115853998D01*
X175144743Y-115853998D02*
X175090868Y-115853998D01*
X175090868Y-115853998D02*
X175010056Y-115880935D01*
X175010056Y-115880935D02*
X174902306Y-115988685D01*
X174902306Y-115988685D02*
X174875369Y-116069497D01*
X174875369Y-116069497D02*
X174875369Y-116123372D01*
X174875369Y-116123372D02*
X174902306Y-116204184D01*
X174902306Y-116204184D02*
X175036993Y-116338871D01*
X175036993Y-116338871D02*
X175117806Y-116365808D01*
X175117806Y-116365808D02*
X175171680Y-116365808D01*
X175171680Y-116365808D02*
X175252493Y-116338871D01*
X175252493Y-116338871D02*
X175360242Y-116231121D01*
X175360242Y-116231121D02*
X175387180Y-116150309D01*
X175387180Y-116150309D02*
X175387180Y-116096434D01*
X175387180Y-116096434D02*
X175360242Y-116015622D01*
X173986435Y-94098431D02*
X173905623Y-94125368D01*
X173905623Y-94125368D02*
X173824811Y-94206180D01*
X173824811Y-94206180D02*
X173770936Y-94313930D01*
X173770936Y-94313930D02*
X173770936Y-94421680D01*
X173770936Y-94421680D02*
X173797873Y-94502492D01*
X173797873Y-94502492D02*
X173878685Y-94637179D01*
X173878685Y-94637179D02*
X173959498Y-94717991D01*
X173959498Y-94717991D02*
X174094185Y-94798803D01*
X174094185Y-94798803D02*
X174174997Y-94825741D01*
X174174997Y-94825741D02*
X174282746Y-94825741D01*
X174282746Y-94825741D02*
X174390496Y-94771866D01*
X174390496Y-94771866D02*
X174444371Y-94717991D01*
X174444371Y-94717991D02*
X174498246Y-94610241D01*
X174498246Y-94610241D02*
X174498246Y-94556367D01*
X174498246Y-94556367D02*
X174309684Y-94367805D01*
X174309684Y-94367805D02*
X174201934Y-94475554D01*
X174794557Y-94367805D02*
X174228872Y-93802119D01*
X174228872Y-93802119D02*
X175117806Y-94044556D01*
X175117806Y-94044556D02*
X174552120Y-93478871D01*
X175387180Y-93775182D02*
X174821494Y-93209497D01*
X174821494Y-93209497D02*
X174956181Y-93074810D01*
X174956181Y-93074810D02*
X175063931Y-93020935D01*
X175063931Y-93020935D02*
X175171680Y-93020935D01*
X175171680Y-93020935D02*
X175252493Y-93047872D01*
X175252493Y-93047872D02*
X175387180Y-93128685D01*
X175387180Y-93128685D02*
X175467992Y-93209497D01*
X175467992Y-93209497D02*
X175548804Y-93344184D01*
X175548804Y-93344184D02*
X175575741Y-93424996D01*
X175575741Y-93424996D02*
X175575741Y-93532746D01*
X175575741Y-93532746D02*
X175521867Y-93640495D01*
X175521867Y-93640495D02*
X175387180Y-93775182D01*
X199597998Y-109590868D02*
X199517185Y-109617805D01*
X199517185Y-109617805D02*
X199436373Y-109698618D01*
X199436373Y-109698618D02*
X199382498Y-109806367D01*
X199382498Y-109806367D02*
X199382498Y-109914117D01*
X199382498Y-109914117D02*
X199409436Y-109994929D01*
X199409436Y-109994929D02*
X199490248Y-110129616D01*
X199490248Y-110129616D02*
X199571060Y-110210428D01*
X199571060Y-110210428D02*
X199705747Y-110291241D01*
X199705747Y-110291241D02*
X199786560Y-110318178D01*
X199786560Y-110318178D02*
X199894309Y-110318178D01*
X199894309Y-110318178D02*
X200002059Y-110264303D01*
X200002059Y-110264303D02*
X200055934Y-110210428D01*
X200055934Y-110210428D02*
X200109808Y-110102679D01*
X200109808Y-110102679D02*
X200109808Y-110048804D01*
X200109808Y-110048804D02*
X199921247Y-109860242D01*
X199921247Y-109860242D02*
X199813497Y-109967992D01*
X200406120Y-109860242D02*
X199840434Y-109294557D01*
X199840434Y-109294557D02*
X200055934Y-109079057D01*
X200055934Y-109079057D02*
X200136746Y-109052120D01*
X200136746Y-109052120D02*
X200190621Y-109052120D01*
X200190621Y-109052120D02*
X200271433Y-109079057D01*
X200271433Y-109079057D02*
X200352245Y-109159870D01*
X200352245Y-109159870D02*
X200379182Y-109240682D01*
X200379182Y-109240682D02*
X200379182Y-109294557D01*
X200379182Y-109294557D02*
X200352245Y-109375369D01*
X200352245Y-109375369D02*
X200136746Y-109590868D01*
X200433057Y-108809683D02*
X200433057Y-108755809D01*
X200433057Y-108755809D02*
X200459995Y-108674996D01*
X200459995Y-108674996D02*
X200594682Y-108540309D01*
X200594682Y-108540309D02*
X200675494Y-108513372D01*
X200675494Y-108513372D02*
X200729369Y-108513372D01*
X200729369Y-108513372D02*
X200810181Y-108540309D01*
X200810181Y-108540309D02*
X200864056Y-108594184D01*
X200864056Y-108594184D02*
X200917930Y-108701934D01*
X200917930Y-108701934D02*
X200917930Y-109348431D01*
X200917930Y-109348431D02*
X201268117Y-108998245D01*
X200890993Y-108243998D02*
X201268117Y-107866874D01*
X201268117Y-107866874D02*
X201591366Y-108674996D01*
X199597998Y-117200868D02*
X199517185Y-117227805D01*
X199517185Y-117227805D02*
X199436373Y-117308618D01*
X199436373Y-117308618D02*
X199382498Y-117416367D01*
X199382498Y-117416367D02*
X199382498Y-117524117D01*
X199382498Y-117524117D02*
X199409436Y-117604929D01*
X199409436Y-117604929D02*
X199490248Y-117739616D01*
X199490248Y-117739616D02*
X199571060Y-117820428D01*
X199571060Y-117820428D02*
X199705747Y-117901241D01*
X199705747Y-117901241D02*
X199786560Y-117928178D01*
X199786560Y-117928178D02*
X199894309Y-117928178D01*
X199894309Y-117928178D02*
X200002059Y-117874303D01*
X200002059Y-117874303D02*
X200055934Y-117820428D01*
X200055934Y-117820428D02*
X200109808Y-117712679D01*
X200109808Y-117712679D02*
X200109808Y-117658804D01*
X200109808Y-117658804D02*
X199921247Y-117470242D01*
X199921247Y-117470242D02*
X199813497Y-117577992D01*
X200406120Y-117470242D02*
X199840434Y-116904557D01*
X199840434Y-116904557D02*
X200055934Y-116689057D01*
X200055934Y-116689057D02*
X200136746Y-116662120D01*
X200136746Y-116662120D02*
X200190621Y-116662120D01*
X200190621Y-116662120D02*
X200271433Y-116689057D01*
X200271433Y-116689057D02*
X200352245Y-116769870D01*
X200352245Y-116769870D02*
X200379182Y-116850682D01*
X200379182Y-116850682D02*
X200379182Y-116904557D01*
X200379182Y-116904557D02*
X200352245Y-116985369D01*
X200352245Y-116985369D02*
X200136746Y-117200868D01*
X200433057Y-116419683D02*
X200433057Y-116365809D01*
X200433057Y-116365809D02*
X200459995Y-116284996D01*
X200459995Y-116284996D02*
X200594682Y-116150309D01*
X200594682Y-116150309D02*
X200675494Y-116123372D01*
X200675494Y-116123372D02*
X200729369Y-116123372D01*
X200729369Y-116123372D02*
X200810181Y-116150309D01*
X200810181Y-116150309D02*
X200864056Y-116204184D01*
X200864056Y-116204184D02*
X200917930Y-116311934D01*
X200917930Y-116311934D02*
X200917930Y-116958431D01*
X200917930Y-116958431D02*
X201268117Y-116608245D01*
X200971805Y-115880935D02*
X200971805Y-115827060D01*
X200971805Y-115827060D02*
X200998743Y-115746248D01*
X200998743Y-115746248D02*
X201133430Y-115611561D01*
X201133430Y-115611561D02*
X201214242Y-115584624D01*
X201214242Y-115584624D02*
X201268117Y-115584624D01*
X201268117Y-115584624D02*
X201348929Y-115611561D01*
X201348929Y-115611561D02*
X201402804Y-115665436D01*
X201402804Y-115665436D02*
X201456679Y-115773186D01*
X201456679Y-115773186D02*
X201456679Y-116419683D01*
X201456679Y-116419683D02*
X201806865Y-116069497D01*
X173986435Y-132198431D02*
X173905623Y-132225368D01*
X173905623Y-132225368D02*
X173824811Y-132306180D01*
X173824811Y-132306180D02*
X173770936Y-132413930D01*
X173770936Y-132413930D02*
X173770936Y-132521680D01*
X173770936Y-132521680D02*
X173797873Y-132602492D01*
X173797873Y-132602492D02*
X173878685Y-132737179D01*
X173878685Y-132737179D02*
X173959498Y-132817991D01*
X173959498Y-132817991D02*
X174094185Y-132898803D01*
X174094185Y-132898803D02*
X174174997Y-132925741D01*
X174174997Y-132925741D02*
X174282746Y-132925741D01*
X174282746Y-132925741D02*
X174390496Y-132871866D01*
X174390496Y-132871866D02*
X174444371Y-132817991D01*
X174444371Y-132817991D02*
X174498246Y-132710241D01*
X174498246Y-132710241D02*
X174498246Y-132656367D01*
X174498246Y-132656367D02*
X174309684Y-132467805D01*
X174309684Y-132467805D02*
X174201934Y-132575554D01*
X174794557Y-132467805D02*
X174228872Y-131902119D01*
X174228872Y-131902119D02*
X175117806Y-132144556D01*
X175117806Y-132144556D02*
X174552120Y-131578871D01*
X175387180Y-131875182D02*
X174821494Y-131309497D01*
X174821494Y-131309497D02*
X174956181Y-131174810D01*
X174956181Y-131174810D02*
X175063931Y-131120935D01*
X175063931Y-131120935D02*
X175171680Y-131120935D01*
X175171680Y-131120935D02*
X175252493Y-131147872D01*
X175252493Y-131147872D02*
X175387180Y-131228685D01*
X175387180Y-131228685D02*
X175467992Y-131309497D01*
X175467992Y-131309497D02*
X175548804Y-131444184D01*
X175548804Y-131444184D02*
X175575741Y-131524996D01*
X175575741Y-131524996D02*
X175575741Y-131632746D01*
X175575741Y-131632746D02*
X175521867Y-131740495D01*
X175521867Y-131740495D02*
X175387180Y-131875182D01*
X153004819Y-128809523D02*
X153719104Y-128809523D01*
X153719104Y-128809523D02*
X153861961Y-128857142D01*
X153861961Y-128857142D02*
X153957200Y-128952380D01*
X153957200Y-128952380D02*
X154004819Y-129095237D01*
X154004819Y-129095237D02*
X154004819Y-129190475D01*
X154004819Y-127809523D02*
X154004819Y-128380951D01*
X154004819Y-128095237D02*
X153004819Y-128095237D01*
X153004819Y-128095237D02*
X153147676Y-128190475D01*
X153147676Y-128190475D02*
X153242914Y-128285713D01*
X153242914Y-128285713D02*
X153290533Y-128380951D01*
X153004819Y-127476189D02*
X153004819Y-126857142D01*
X153004819Y-126857142D02*
X153385771Y-127190475D01*
X153385771Y-127190475D02*
X153385771Y-127047618D01*
X153385771Y-127047618D02*
X153433390Y-126952380D01*
X153433390Y-126952380D02*
X153481009Y-126904761D01*
X153481009Y-126904761D02*
X153576247Y-126857142D01*
X153576247Y-126857142D02*
X153814342Y-126857142D01*
X153814342Y-126857142D02*
X153909580Y-126904761D01*
X153909580Y-126904761D02*
X153957200Y-126952380D01*
X153957200Y-126952380D02*
X154004819Y-127047618D01*
X154004819Y-127047618D02*
X154004819Y-127333332D01*
X154004819Y-127333332D02*
X153957200Y-127428570D01*
X153957200Y-127428570D02*
X153909580Y-127476189D01*
X153004819Y-94833333D02*
X153719104Y-94833333D01*
X153719104Y-94833333D02*
X153861961Y-94880952D01*
X153861961Y-94880952D02*
X153957200Y-94976190D01*
X153957200Y-94976190D02*
X154004819Y-95119047D01*
X154004819Y-95119047D02*
X154004819Y-95214285D01*
X153004819Y-94452380D02*
X153004819Y-93833333D01*
X153004819Y-93833333D02*
X153385771Y-94166666D01*
X153385771Y-94166666D02*
X153385771Y-94023809D01*
X153385771Y-94023809D02*
X153433390Y-93928571D01*
X153433390Y-93928571D02*
X153481009Y-93880952D01*
X153481009Y-93880952D02*
X153576247Y-93833333D01*
X153576247Y-93833333D02*
X153814342Y-93833333D01*
X153814342Y-93833333D02*
X153909580Y-93880952D01*
X153909580Y-93880952D02*
X153957200Y-93928571D01*
X153957200Y-93928571D02*
X154004819Y-94023809D01*
X154004819Y-94023809D02*
X154004819Y-94309523D01*
X154004819Y-94309523D02*
X153957200Y-94404761D01*
X153957200Y-94404761D02*
X153909580Y-94452380D01*
X93004819Y-94833333D02*
X93719104Y-94833333D01*
X93719104Y-94833333D02*
X93861961Y-94880952D01*
X93861961Y-94880952D02*
X93957200Y-94976190D01*
X93957200Y-94976190D02*
X94004819Y-95119047D01*
X94004819Y-95119047D02*
X94004819Y-95214285D01*
X93433390Y-94214285D02*
X93385771Y-94309523D01*
X93385771Y-94309523D02*
X93338152Y-94357142D01*
X93338152Y-94357142D02*
X93242914Y-94404761D01*
X93242914Y-94404761D02*
X93195295Y-94404761D01*
X93195295Y-94404761D02*
X93100057Y-94357142D01*
X93100057Y-94357142D02*
X93052438Y-94309523D01*
X93052438Y-94309523D02*
X93004819Y-94214285D01*
X93004819Y-94214285D02*
X93004819Y-94023809D01*
X93004819Y-94023809D02*
X93052438Y-93928571D01*
X93052438Y-93928571D02*
X93100057Y-93880952D01*
X93100057Y-93880952D02*
X93195295Y-93833333D01*
X93195295Y-93833333D02*
X93242914Y-93833333D01*
X93242914Y-93833333D02*
X93338152Y-93880952D01*
X93338152Y-93880952D02*
X93385771Y-93928571D01*
X93385771Y-93928571D02*
X93433390Y-94023809D01*
X93433390Y-94023809D02*
X93433390Y-94214285D01*
X93433390Y-94214285D02*
X93481009Y-94309523D01*
X93481009Y-94309523D02*
X93528628Y-94357142D01*
X93528628Y-94357142D02*
X93623866Y-94404761D01*
X93623866Y-94404761D02*
X93814342Y-94404761D01*
X93814342Y-94404761D02*
X93909580Y-94357142D01*
X93909580Y-94357142D02*
X93957200Y-94309523D01*
X93957200Y-94309523D02*
X94004819Y-94214285D01*
X94004819Y-94214285D02*
X94004819Y-94023809D01*
X94004819Y-94023809D02*
X93957200Y-93928571D01*
X93957200Y-93928571D02*
X93909580Y-93880952D01*
X93909580Y-93880952D02*
X93814342Y-93833333D01*
X93814342Y-93833333D02*
X93623866Y-93833333D01*
X93623866Y-93833333D02*
X93528628Y-93880952D01*
X93528628Y-93880952D02*
X93481009Y-93928571D01*
X93481009Y-93928571D02*
X93433390Y-94023809D01*
X123004819Y-129309523D02*
X123719104Y-129309523D01*
X123719104Y-129309523D02*
X123861961Y-129357142D01*
X123861961Y-129357142D02*
X123957200Y-129452380D01*
X123957200Y-129452380D02*
X124004819Y-129595237D01*
X124004819Y-129595237D02*
X124004819Y-129690475D01*
X124004819Y-128309523D02*
X124004819Y-128880951D01*
X124004819Y-128595237D02*
X123004819Y-128595237D01*
X123004819Y-128595237D02*
X123147676Y-128690475D01*
X123147676Y-128690475D02*
X123242914Y-128785713D01*
X123242914Y-128785713D02*
X123290533Y-128880951D01*
X124004819Y-127357142D02*
X124004819Y-127928570D01*
X124004819Y-127642856D02*
X123004819Y-127642856D01*
X123004819Y-127642856D02*
X123147676Y-127738094D01*
X123147676Y-127738094D02*
X123242914Y-127833332D01*
X123242914Y-127833332D02*
X123290533Y-127928570D01*
X168004819Y-94833333D02*
X168719104Y-94833333D01*
X168719104Y-94833333D02*
X168861961Y-94880952D01*
X168861961Y-94880952D02*
X168957200Y-94976190D01*
X168957200Y-94976190D02*
X169004819Y-95119047D01*
X169004819Y-95119047D02*
X169004819Y-95214285D01*
X168338152Y-93928571D02*
X169004819Y-93928571D01*
X167957200Y-94166666D02*
X168671485Y-94404761D01*
X168671485Y-94404761D02*
X168671485Y-93785714D01*
X123004819Y-94833333D02*
X123719104Y-94833333D01*
X123719104Y-94833333D02*
X123861961Y-94880952D01*
X123861961Y-94880952D02*
X123957200Y-94976190D01*
X123957200Y-94976190D02*
X124004819Y-95119047D01*
X124004819Y-95119047D02*
X124004819Y-95214285D01*
X123004819Y-93928571D02*
X123004819Y-94119047D01*
X123004819Y-94119047D02*
X123052438Y-94214285D01*
X123052438Y-94214285D02*
X123100057Y-94261904D01*
X123100057Y-94261904D02*
X123242914Y-94357142D01*
X123242914Y-94357142D02*
X123433390Y-94404761D01*
X123433390Y-94404761D02*
X123814342Y-94404761D01*
X123814342Y-94404761D02*
X123909580Y-94357142D01*
X123909580Y-94357142D02*
X123957200Y-94309523D01*
X123957200Y-94309523D02*
X124004819Y-94214285D01*
X124004819Y-94214285D02*
X124004819Y-94023809D01*
X124004819Y-94023809D02*
X123957200Y-93928571D01*
X123957200Y-93928571D02*
X123909580Y-93880952D01*
X123909580Y-93880952D02*
X123814342Y-93833333D01*
X123814342Y-93833333D02*
X123576247Y-93833333D01*
X123576247Y-93833333D02*
X123481009Y-93880952D01*
X123481009Y-93880952D02*
X123433390Y-93928571D01*
X123433390Y-93928571D02*
X123385771Y-94023809D01*
X123385771Y-94023809D02*
X123385771Y-94214285D01*
X123385771Y-94214285D02*
X123433390Y-94309523D01*
X123433390Y-94309523D02*
X123481009Y-94357142D01*
X123481009Y-94357142D02*
X123576247Y-94404761D01*
X93004819Y-128833333D02*
X93719104Y-128833333D01*
X93719104Y-128833333D02*
X93861961Y-128880952D01*
X93861961Y-128880952D02*
X93957200Y-128976190D01*
X93957200Y-128976190D02*
X94004819Y-129119047D01*
X94004819Y-129119047D02*
X94004819Y-129214285D01*
X94004819Y-128309523D02*
X94004819Y-128119047D01*
X94004819Y-128119047D02*
X93957200Y-128023809D01*
X93957200Y-128023809D02*
X93909580Y-127976190D01*
X93909580Y-127976190D02*
X93766723Y-127880952D01*
X93766723Y-127880952D02*
X93576247Y-127833333D01*
X93576247Y-127833333D02*
X93195295Y-127833333D01*
X93195295Y-127833333D02*
X93100057Y-127880952D01*
X93100057Y-127880952D02*
X93052438Y-127928571D01*
X93052438Y-127928571D02*
X93004819Y-128023809D01*
X93004819Y-128023809D02*
X93004819Y-128214285D01*
X93004819Y-128214285D02*
X93052438Y-128309523D01*
X93052438Y-128309523D02*
X93100057Y-128357142D01*
X93100057Y-128357142D02*
X93195295Y-128404761D01*
X93195295Y-128404761D02*
X93433390Y-128404761D01*
X93433390Y-128404761D02*
X93528628Y-128357142D01*
X93528628Y-128357142D02*
X93576247Y-128309523D01*
X93576247Y-128309523D02*
X93623866Y-128214285D01*
X93623866Y-128214285D02*
X93623866Y-128023809D01*
X93623866Y-128023809D02*
X93576247Y-127928571D01*
X93576247Y-127928571D02*
X93528628Y-127880952D01*
X93528628Y-127880952D02*
X93433390Y-127833333D01*
X108004819Y-129309523D02*
X108719104Y-129309523D01*
X108719104Y-129309523D02*
X108861961Y-129357142D01*
X108861961Y-129357142D02*
X108957200Y-129452380D01*
X108957200Y-129452380D02*
X109004819Y-129595237D01*
X109004819Y-129595237D02*
X109004819Y-129690475D01*
X109004819Y-128309523D02*
X109004819Y-128880951D01*
X109004819Y-128595237D02*
X108004819Y-128595237D01*
X108004819Y-128595237D02*
X108147676Y-128690475D01*
X108147676Y-128690475D02*
X108242914Y-128785713D01*
X108242914Y-128785713D02*
X108290533Y-128880951D01*
X108004819Y-127690475D02*
X108004819Y-127595237D01*
X108004819Y-127595237D02*
X108052438Y-127499999D01*
X108052438Y-127499999D02*
X108100057Y-127452380D01*
X108100057Y-127452380D02*
X108195295Y-127404761D01*
X108195295Y-127404761D02*
X108385771Y-127357142D01*
X108385771Y-127357142D02*
X108623866Y-127357142D01*
X108623866Y-127357142D02*
X108814342Y-127404761D01*
X108814342Y-127404761D02*
X108909580Y-127452380D01*
X108909580Y-127452380D02*
X108957200Y-127499999D01*
X108957200Y-127499999D02*
X109004819Y-127595237D01*
X109004819Y-127595237D02*
X109004819Y-127690475D01*
X109004819Y-127690475D02*
X108957200Y-127785713D01*
X108957200Y-127785713D02*
X108909580Y-127833332D01*
X108909580Y-127833332D02*
X108814342Y-127880951D01*
X108814342Y-127880951D02*
X108623866Y-127928570D01*
X108623866Y-127928570D02*
X108385771Y-127928570D01*
X108385771Y-127928570D02*
X108195295Y-127880951D01*
X108195295Y-127880951D02*
X108100057Y-127833332D01*
X108100057Y-127833332D02*
X108052438Y-127785713D01*
X108052438Y-127785713D02*
X108004819Y-127690475D01*
X108004819Y-94833333D02*
X108719104Y-94833333D01*
X108719104Y-94833333D02*
X108861961Y-94880952D01*
X108861961Y-94880952D02*
X108957200Y-94976190D01*
X108957200Y-94976190D02*
X109004819Y-95119047D01*
X109004819Y-95119047D02*
X109004819Y-95214285D01*
X108004819Y-94452380D02*
X108004819Y-93785714D01*
X108004819Y-93785714D02*
X109004819Y-94214285D01*
X168004819Y-128809523D02*
X168719104Y-128809523D01*
X168719104Y-128809523D02*
X168861961Y-128857142D01*
X168861961Y-128857142D02*
X168957200Y-128952380D01*
X168957200Y-128952380D02*
X169004819Y-129095237D01*
X169004819Y-129095237D02*
X169004819Y-129190475D01*
X169004819Y-127809523D02*
X169004819Y-128380951D01*
X169004819Y-128095237D02*
X168004819Y-128095237D01*
X168004819Y-128095237D02*
X168147676Y-128190475D01*
X168147676Y-128190475D02*
X168242914Y-128285713D01*
X168242914Y-128285713D02*
X168290533Y-128380951D01*
X168338152Y-126952380D02*
X169004819Y-126952380D01*
X167957200Y-127190475D02*
X168671485Y-127428570D01*
X168671485Y-127428570D02*
X168671485Y-126809523D01*
D11*
%TO.C,J2*%
X225590000Y-140830000D02*
X225590000Y-89910000D01*
X225590000Y-140830000D02*
X216960000Y-140830000D01*
X225590000Y-140710000D02*
X216960000Y-140710000D01*
X225590000Y-140591905D02*
X216960000Y-140591905D01*
X225590000Y-140473810D02*
X216960000Y-140473810D01*
X225590000Y-140355715D02*
X216960000Y-140355715D01*
X225590000Y-140237620D02*
X216960000Y-140237620D01*
X225590000Y-140119525D02*
X216960000Y-140119525D01*
X225590000Y-140001430D02*
X216960000Y-140001430D01*
X225590000Y-139883335D02*
X216960000Y-139883335D01*
X225590000Y-139765240D02*
X216960000Y-139765240D01*
X225590000Y-139647145D02*
X216960000Y-139647145D01*
X225590000Y-139529050D02*
X216960000Y-139529050D01*
X225590000Y-139410955D02*
X216960000Y-139410955D01*
X225590000Y-139292860D02*
X216960000Y-139292860D01*
X225590000Y-139174765D02*
X216960000Y-139174765D01*
X225590000Y-139056670D02*
X216960000Y-139056670D01*
X225590000Y-138938575D02*
X216960000Y-138938575D01*
X225590000Y-138820480D02*
X216960000Y-138820480D01*
X225590000Y-138702385D02*
X216960000Y-138702385D01*
X225590000Y-138584290D02*
X216960000Y-138584290D01*
X225590000Y-138466195D02*
X216960000Y-138466195D01*
X225590000Y-138348100D02*
X216960000Y-138348100D01*
X225590000Y-138230000D02*
X216960000Y-138230000D01*
X225590000Y-135690000D02*
X216960000Y-135690000D01*
X225590000Y-133150000D02*
X216960000Y-133150000D01*
X225590000Y-130610000D02*
X216960000Y-130610000D01*
X225590000Y-128070000D02*
X216960000Y-128070000D01*
X225590000Y-125530000D02*
X216960000Y-125530000D01*
X225590000Y-122990000D02*
X216960000Y-122990000D01*
X225590000Y-120450000D02*
X216960000Y-120450000D01*
X225590000Y-117910000D02*
X216960000Y-117910000D01*
X225590000Y-115370000D02*
X216960000Y-115370000D01*
X225590000Y-112830000D02*
X216960000Y-112830000D01*
X225590000Y-110290000D02*
X216960000Y-110290000D01*
X225590000Y-107750000D02*
X216960000Y-107750000D01*
X225590000Y-105210000D02*
X216960000Y-105210000D01*
X225590000Y-102670000D02*
X216960000Y-102670000D01*
X225590000Y-100130000D02*
X216960000Y-100130000D01*
X225590000Y-97590000D02*
X216960000Y-97590000D01*
X225590000Y-95050000D02*
X216960000Y-95050000D01*
X225590000Y-92510000D02*
X216960000Y-92510000D01*
X225590000Y-89910000D02*
X216960000Y-89910000D01*
X216960000Y-140830000D02*
X216960000Y-89910000D01*
X216960000Y-139860000D02*
X216550000Y-139860000D01*
X216960000Y-139140000D02*
X216550000Y-139140000D01*
X216960000Y-137320000D02*
X216550000Y-137320000D01*
X216960000Y-136600000D02*
X216550000Y-136600000D01*
X216960000Y-134780000D02*
X216550000Y-134780000D01*
X216960000Y-134060000D02*
X216550000Y-134060000D01*
X216960000Y-132240000D02*
X216550000Y-132240000D01*
X216960000Y-131520000D02*
X216550000Y-131520000D01*
X216960000Y-129700000D02*
X216550000Y-129700000D01*
X216960000Y-128980000D02*
X216550000Y-128980000D01*
X216960000Y-127160000D02*
X216550000Y-127160000D01*
X216960000Y-126440000D02*
X216550000Y-126440000D01*
X216960000Y-124620000D02*
X216550000Y-124620000D01*
X216960000Y-123900000D02*
X216550000Y-123900000D01*
X216960000Y-122080000D02*
X216550000Y-122080000D01*
X216960000Y-121360000D02*
X216550000Y-121360000D01*
X216960000Y-119540000D02*
X216550000Y-119540000D01*
X216960000Y-118820000D02*
X216550000Y-118820000D01*
X216960000Y-117000000D02*
X216550000Y-117000000D01*
X216960000Y-116280000D02*
X216550000Y-116280000D01*
X216960000Y-114460000D02*
X216550000Y-114460000D01*
X216960000Y-113740000D02*
X216550000Y-113740000D01*
X216960000Y-111920000D02*
X216550000Y-111920000D01*
X216960000Y-111200000D02*
X216550000Y-111200000D01*
X216960000Y-109380000D02*
X216550000Y-109380000D01*
X216960000Y-108660000D02*
X216550000Y-108660000D01*
X216960000Y-106840000D02*
X216550000Y-106840000D01*
X216960000Y-106120000D02*
X216550000Y-106120000D01*
X216960000Y-104300000D02*
X216550000Y-104300000D01*
X216960000Y-103580000D02*
X216550000Y-103580000D01*
X216960000Y-101760000D02*
X216550000Y-101760000D01*
X216960000Y-101040000D02*
X216550000Y-101040000D01*
X216960000Y-99220000D02*
X216550000Y-99220000D01*
X216960000Y-98500000D02*
X216550000Y-98500000D01*
X216960000Y-96680000D02*
X216550000Y-96680000D01*
X216960000Y-95960000D02*
X216550000Y-95960000D01*
X216960000Y-94140000D02*
X216550000Y-94140000D01*
X216960000Y-93420000D02*
X216550000Y-93420000D01*
X216960000Y-91600000D02*
X216550000Y-91600000D01*
X216960000Y-90880000D02*
X216550000Y-90880000D01*
X214450000Y-139860000D02*
X214070000Y-139860000D01*
X214450000Y-139140000D02*
X214070000Y-139140000D01*
X214450000Y-137320000D02*
X214010000Y-137320000D01*
X214450000Y-136600000D02*
X214010000Y-136600000D01*
X214450000Y-134780000D02*
X214010000Y-134780000D01*
X214450000Y-134060000D02*
X214010000Y-134060000D01*
X214450000Y-132240000D02*
X214010000Y-132240000D01*
X214450000Y-131520000D02*
X214010000Y-131520000D01*
X214450000Y-129700000D02*
X214010000Y-129700000D01*
X214450000Y-128980000D02*
X214010000Y-128980000D01*
X214450000Y-127160000D02*
X214010000Y-127160000D01*
X214450000Y-126440000D02*
X214010000Y-126440000D01*
X214450000Y-124620000D02*
X214010000Y-124620000D01*
X214450000Y-123900000D02*
X214010000Y-123900000D01*
X214450000Y-122080000D02*
X214010000Y-122080000D01*
X214450000Y-121360000D02*
X214010000Y-121360000D01*
X214450000Y-119540000D02*
X214010000Y-119540000D01*
X214450000Y-118820000D02*
X214010000Y-118820000D01*
X214450000Y-117000000D02*
X214010000Y-117000000D01*
X214450000Y-116280000D02*
X214010000Y-116280000D01*
X214450000Y-114460000D02*
X214010000Y-114460000D01*
X214450000Y-113740000D02*
X214010000Y-113740000D01*
X214450000Y-111920000D02*
X214010000Y-111920000D01*
X214450000Y-111200000D02*
X214010000Y-111200000D01*
X214450000Y-109380000D02*
X214010000Y-109380000D01*
X214450000Y-108660000D02*
X214010000Y-108660000D01*
X214450000Y-106840000D02*
X214010000Y-106840000D01*
X214450000Y-106120000D02*
X214010000Y-106120000D01*
X214450000Y-104300000D02*
X214010000Y-104300000D01*
X214450000Y-103580000D02*
X214010000Y-103580000D01*
X214450000Y-101760000D02*
X214010000Y-101760000D01*
X214450000Y-101040000D02*
X214010000Y-101040000D01*
X214450000Y-99220000D02*
X214010000Y-99220000D01*
X214450000Y-98500000D02*
X214010000Y-98500000D01*
X214450000Y-96680000D02*
X214010000Y-96680000D01*
X214450000Y-95960000D02*
X214010000Y-95960000D01*
X214450000Y-94140000D02*
X214010000Y-94140000D01*
X214450000Y-93420000D02*
X214010000Y-93420000D01*
X214450000Y-91600000D02*
X214010000Y-91600000D01*
X214450000Y-90880000D02*
X214010000Y-90880000D01*
X212960000Y-140830000D02*
X211850000Y-140830000D01*
X211850000Y-140830000D02*
X211850000Y-139500000D01*
%TO.C,J12*%
X131490000Y-120940000D02*
X131490000Y-136060000D01*
X131490000Y-136060000D02*
X137460000Y-136060000D01*
X132250000Y-121700000D02*
X132250000Y-128500000D01*
X132250000Y-135300000D02*
X132250000Y-128500000D01*
X135200000Y-120950000D02*
X135200000Y-121700000D01*
X135200000Y-121700000D02*
X132250000Y-121700000D01*
X135200000Y-135300000D02*
X132250000Y-135300000D01*
X135200000Y-136050000D02*
X135200000Y-135300000D01*
X136700000Y-120950000D02*
X136700000Y-122750000D01*
X136700000Y-122750000D02*
X137450000Y-122750000D01*
X136700000Y-124250000D02*
X136700000Y-132750000D01*
X136700000Y-132750000D02*
X137450000Y-132750000D01*
X136700000Y-134250000D02*
X136700000Y-136050000D01*
X136700000Y-136050000D02*
X137450000Y-136050000D01*
X137450000Y-120950000D02*
X136700000Y-120950000D01*
X137450000Y-122750000D02*
X137450000Y-120950000D01*
X137450000Y-124250000D02*
X136700000Y-124250000D01*
X137450000Y-132750000D02*
X137450000Y-124250000D01*
X137450000Y-134250000D02*
X136700000Y-134250000D01*
X137450000Y-136050000D02*
X137450000Y-134250000D01*
X137460000Y-120940000D02*
X131490000Y-120940000D01*
X137460000Y-136060000D02*
X137460000Y-120940000D01*
X137750000Y-120650000D02*
X136500000Y-120650000D01*
X137750000Y-121900000D02*
X137750000Y-120650000D01*
%TO.C,J5*%
X131490000Y-86940000D02*
X131490000Y-102060000D01*
X131490000Y-102060000D02*
X137460000Y-102060000D01*
X132250000Y-87700000D02*
X132250000Y-94500000D01*
X132250000Y-101300000D02*
X132250000Y-94500000D01*
X135200000Y-86950000D02*
X135200000Y-87700000D01*
X135200000Y-87700000D02*
X132250000Y-87700000D01*
X135200000Y-101300000D02*
X132250000Y-101300000D01*
X135200000Y-102050000D02*
X135200000Y-101300000D01*
X136700000Y-86950000D02*
X136700000Y-88750000D01*
X136700000Y-88750000D02*
X137450000Y-88750000D01*
X136700000Y-90250000D02*
X136700000Y-98750000D01*
X136700000Y-98750000D02*
X137450000Y-98750000D01*
X136700000Y-100250000D02*
X136700000Y-102050000D01*
X136700000Y-102050000D02*
X137450000Y-102050000D01*
X137450000Y-86950000D02*
X136700000Y-86950000D01*
X137450000Y-88750000D02*
X137450000Y-86950000D01*
X137450000Y-90250000D02*
X136700000Y-90250000D01*
X137450000Y-98750000D02*
X137450000Y-90250000D01*
X137450000Y-100250000D02*
X136700000Y-100250000D01*
X137450000Y-102050000D02*
X137450000Y-100250000D01*
X137460000Y-86940000D02*
X131490000Y-86940000D01*
X137460000Y-102060000D02*
X137460000Y-86940000D01*
X137750000Y-86650000D02*
X136500000Y-86650000D01*
X137750000Y-87900000D02*
X137750000Y-86650000D01*
%TO.C,U2*%
X177000000Y-87500000D02*
X177000000Y-87800000D01*
X177000000Y-87500000D02*
X198000000Y-87500000D01*
X177000000Y-89900000D02*
X177000000Y-90300000D01*
X177000000Y-90167000D02*
X180007000Y-90167000D01*
X177000000Y-92500000D02*
X177000000Y-92900000D01*
X177000000Y-95000000D02*
X177000000Y-95400000D01*
X177000000Y-97600000D02*
X177000000Y-98000000D01*
X177000000Y-100100000D02*
X177000000Y-100500000D01*
X177000000Y-102600000D02*
X177000000Y-103000000D01*
X177000000Y-105200000D02*
X177000000Y-105600000D01*
X177000000Y-107700000D02*
X177000000Y-108100000D01*
X177000000Y-110300000D02*
X177000000Y-110700000D01*
X177000000Y-112800000D02*
X177000000Y-113200000D01*
X177000000Y-115300000D02*
X177000000Y-115700000D01*
X177000000Y-117900000D02*
X177000000Y-118300000D01*
X177000000Y-120400000D02*
X177000000Y-120800000D01*
X177000000Y-123000000D02*
X177000000Y-123400000D01*
X177000000Y-125500000D02*
X177000000Y-125900000D01*
X177000000Y-128100000D02*
X177000000Y-128500000D01*
X177000000Y-130600000D02*
X177000000Y-131000000D01*
X177000000Y-133100000D02*
X177000000Y-133500000D01*
X177000000Y-135700000D02*
X177000000Y-136100000D01*
X180007000Y-90167000D02*
X180007000Y-87500000D01*
X183800000Y-138500000D02*
X177000000Y-138500000D01*
X186000000Y-138500000D02*
X186400000Y-138500000D01*
X188600000Y-138500000D02*
X189000000Y-138500000D01*
X198000000Y-87500000D02*
X198000000Y-87800000D01*
X198000000Y-89900000D02*
X198000000Y-90300000D01*
X198000000Y-92500000D02*
X198000000Y-92900000D01*
X198000000Y-95000000D02*
X198000000Y-95400000D01*
X198000000Y-97600000D02*
X198000000Y-98000000D01*
X198000000Y-100100000D02*
X198000000Y-100500000D01*
X198000000Y-102600000D02*
X198000000Y-103000000D01*
X198000000Y-105200000D02*
X198000000Y-105600000D01*
X198000000Y-107700000D02*
X198000000Y-108100000D01*
X198000000Y-110300000D02*
X198000000Y-110700000D01*
X198000000Y-112800000D02*
X198000000Y-113200000D01*
X198000000Y-115300000D02*
X198000000Y-115700000D01*
X198000000Y-117900000D02*
X198000000Y-118300000D01*
X198000000Y-120400000D02*
X198000000Y-120800000D01*
X198000000Y-123000000D02*
X198000000Y-123400000D01*
X198000000Y-125500000D02*
X198000000Y-125900000D01*
X198000000Y-128100000D02*
X198000000Y-128500000D01*
X198000000Y-130600000D02*
X198000000Y-131000000D01*
X198000000Y-133100000D02*
X198000000Y-133500000D01*
X198000000Y-135700000D02*
X198000000Y-136100000D01*
X198000000Y-138500000D02*
X191200000Y-138500000D01*
%TO.C,C2*%
X196869000Y-75083000D02*
X196869000Y-74017000D01*
X196909000Y-75318000D02*
X196909000Y-73782000D01*
X196949000Y-75498000D02*
X196949000Y-73602000D01*
X196989000Y-75648000D02*
X196989000Y-73452000D01*
X197029000Y-75779000D02*
X197029000Y-73321000D01*
X197069000Y-75896000D02*
X197069000Y-73204000D01*
X197109000Y-76003000D02*
X197109000Y-73097000D01*
X197149000Y-76102000D02*
X197149000Y-72998000D01*
X197189000Y-76195000D02*
X197189000Y-72905000D01*
X197229000Y-76281000D02*
X197229000Y-72819000D01*
X197269000Y-76363000D02*
X197269000Y-72737000D01*
X197309000Y-76440000D02*
X197309000Y-72660000D01*
X197349000Y-76514000D02*
X197349000Y-72586000D01*
X197389000Y-76584000D02*
X197389000Y-72516000D01*
X197429000Y-76652000D02*
X197429000Y-72448000D01*
X197469000Y-76716000D02*
X197469000Y-72384000D01*
X197509000Y-76778000D02*
X197509000Y-72322000D01*
X197549000Y-76837000D02*
X197549000Y-72263000D01*
X197589000Y-76895000D02*
X197589000Y-72205000D01*
X197629000Y-76950000D02*
X197629000Y-72150000D01*
X197669000Y-77004000D02*
X197669000Y-72096000D01*
X197709000Y-77055000D02*
X197709000Y-72045000D01*
X197749000Y-77106000D02*
X197749000Y-71994000D01*
X197789000Y-77154000D02*
X197789000Y-71946000D01*
X197829000Y-77201000D02*
X197829000Y-71899000D01*
X197869000Y-77247000D02*
X197869000Y-71853000D01*
X197909000Y-77291000D02*
X197909000Y-71809000D01*
X197949000Y-77334000D02*
X197949000Y-71766000D01*
X197989000Y-77376000D02*
X197989000Y-71724000D01*
X198029000Y-77417000D02*
X198029000Y-71683000D01*
X198069000Y-77457000D02*
X198069000Y-71643000D01*
X198109000Y-77495000D02*
X198109000Y-71605000D01*
X198149000Y-77533000D02*
X198149000Y-71567000D01*
X198189000Y-73510000D02*
X198189000Y-71531000D01*
X198189000Y-77569000D02*
X198189000Y-75590000D01*
X198229000Y-73510000D02*
X198229000Y-71495000D01*
X198229000Y-77605000D02*
X198229000Y-75590000D01*
X198269000Y-73510000D02*
X198269000Y-71460000D01*
X198269000Y-77640000D02*
X198269000Y-75590000D01*
X198309000Y-73510000D02*
X198309000Y-71426000D01*
X198309000Y-77674000D02*
X198309000Y-75590000D01*
X198349000Y-73510000D02*
X198349000Y-71394000D01*
X198349000Y-77706000D02*
X198349000Y-75590000D01*
X198389000Y-73510000D02*
X198389000Y-71361000D01*
X198389000Y-77739000D02*
X198389000Y-75590000D01*
X198429000Y-73510000D02*
X198429000Y-71330000D01*
X198429000Y-77770000D02*
X198429000Y-75590000D01*
X198469000Y-73510000D02*
X198469000Y-71300000D01*
X198469000Y-77800000D02*
X198469000Y-75590000D01*
X198509000Y-73510000D02*
X198509000Y-71270000D01*
X198509000Y-77830000D02*
X198509000Y-75590000D01*
X198549000Y-73510000D02*
X198549000Y-71241000D01*
X198549000Y-77859000D02*
X198549000Y-75590000D01*
X198589000Y-73510000D02*
X198589000Y-71212000D01*
X198589000Y-77888000D02*
X198589000Y-75590000D01*
X198629000Y-73510000D02*
X198629000Y-71185000D01*
X198629000Y-77915000D02*
X198629000Y-75590000D01*
X198669000Y-73510000D02*
X198669000Y-71158000D01*
X198669000Y-77942000D02*
X198669000Y-75590000D01*
X198709000Y-73510000D02*
X198709000Y-71132000D01*
X198709000Y-77968000D02*
X198709000Y-75590000D01*
X198749000Y-73510000D02*
X198749000Y-71106000D01*
X198749000Y-77994000D02*
X198749000Y-75590000D01*
X198789000Y-73510000D02*
X198789000Y-71081000D01*
X198789000Y-78019000D02*
X198789000Y-75590000D01*
X198829000Y-73510000D02*
X198829000Y-71057000D01*
X198829000Y-78043000D02*
X198829000Y-75590000D01*
X198869000Y-73510000D02*
X198869000Y-71033000D01*
X198869000Y-78067000D02*
X198869000Y-75590000D01*
X198909000Y-73510000D02*
X198909000Y-71010000D01*
X198909000Y-78090000D02*
X198909000Y-75590000D01*
X198949000Y-73510000D02*
X198949000Y-70988000D01*
X198949000Y-78112000D02*
X198949000Y-75590000D01*
X198989000Y-73510000D02*
X198989000Y-70966000D01*
X198989000Y-78134000D02*
X198989000Y-75590000D01*
X199029000Y-73510000D02*
X199029000Y-70944000D01*
X199029000Y-78156000D02*
X199029000Y-75590000D01*
X199069000Y-73510000D02*
X199069000Y-70923000D01*
X199069000Y-78177000D02*
X199069000Y-75590000D01*
X199109000Y-73510000D02*
X199109000Y-70903000D01*
X199109000Y-78197000D02*
X199109000Y-75590000D01*
X199149000Y-73510000D02*
X199149000Y-70884000D01*
X199149000Y-78216000D02*
X199149000Y-75590000D01*
X199189000Y-73510000D02*
X199189000Y-70864000D01*
X199189000Y-78236000D02*
X199189000Y-75590000D01*
X199229000Y-73510000D02*
X199229000Y-70846000D01*
X199229000Y-78254000D02*
X199229000Y-75590000D01*
X199269000Y-73510000D02*
X199269000Y-70828000D01*
X199269000Y-78272000D02*
X199269000Y-75590000D01*
X199309000Y-73510000D02*
X199309000Y-70810000D01*
X199309000Y-78290000D02*
X199309000Y-75590000D01*
X199349000Y-73510000D02*
X199349000Y-70793000D01*
X199349000Y-78307000D02*
X199349000Y-75590000D01*
X199389000Y-73510000D02*
X199389000Y-70776000D01*
X199389000Y-78324000D02*
X199389000Y-75590000D01*
X199429000Y-73510000D02*
X199429000Y-70760000D01*
X199429000Y-78340000D02*
X199429000Y-75590000D01*
X199469000Y-73510000D02*
X199469000Y-70745000D01*
X199469000Y-78355000D02*
X199469000Y-75590000D01*
X199509000Y-73510000D02*
X199509000Y-70729000D01*
X199509000Y-78371000D02*
X199509000Y-75590000D01*
X199549000Y-73510000D02*
X199549000Y-70715000D01*
X199549000Y-78385000D02*
X199549000Y-75590000D01*
X199589000Y-73510000D02*
X199589000Y-70700000D01*
X199589000Y-78400000D02*
X199589000Y-75590000D01*
X199629000Y-73510000D02*
X199629000Y-70687000D01*
X199629000Y-78413000D02*
X199629000Y-75590000D01*
X199669000Y-73510000D02*
X199669000Y-70673000D01*
X199669000Y-78427000D02*
X199669000Y-75590000D01*
X199709000Y-73510000D02*
X199709000Y-70661000D01*
X199709000Y-78439000D02*
X199709000Y-75590000D01*
X199749000Y-73510000D02*
X199749000Y-70648000D01*
X199749000Y-78452000D02*
X199749000Y-75590000D01*
X199789000Y-73510000D02*
X199789000Y-70636000D01*
X199789000Y-78464000D02*
X199789000Y-75590000D01*
X199829000Y-73510000D02*
X199829000Y-70625000D01*
X199829000Y-78475000D02*
X199829000Y-75590000D01*
X199869000Y-73510000D02*
X199869000Y-70614000D01*
X199869000Y-78486000D02*
X199869000Y-75590000D01*
X199909000Y-73510000D02*
X199909000Y-70603000D01*
X199909000Y-78497000D02*
X199909000Y-75590000D01*
X199949000Y-73510000D02*
X199949000Y-70593000D01*
X199949000Y-78507000D02*
X199949000Y-75590000D01*
X199989000Y-73510000D02*
X199989000Y-70583000D01*
X199989000Y-78517000D02*
X199989000Y-75590000D01*
X200029000Y-73510000D02*
X200029000Y-70574000D01*
X200029000Y-78526000D02*
X200029000Y-75590000D01*
X200069000Y-73510000D02*
X200069000Y-70565000D01*
X200069000Y-78535000D02*
X200069000Y-75590000D01*
X200109000Y-73510000D02*
X200109000Y-70556000D01*
X200109000Y-78544000D02*
X200109000Y-75590000D01*
X200149000Y-73510000D02*
X200149000Y-70548000D01*
X200149000Y-78552000D02*
X200149000Y-75590000D01*
X200189000Y-73510000D02*
X200189000Y-70540000D01*
X200189000Y-78560000D02*
X200189000Y-75590000D01*
X200229000Y-73510000D02*
X200229000Y-70533000D01*
X200229000Y-78567000D02*
X200229000Y-75590000D01*
X200270000Y-78574000D02*
X200270000Y-70526000D01*
X200310000Y-78580000D02*
X200310000Y-70520000D01*
X200350000Y-78587000D02*
X200350000Y-70513000D01*
X200390000Y-78592000D02*
X200390000Y-70508000D01*
X200430000Y-78598000D02*
X200430000Y-70502000D01*
X200470000Y-78602000D02*
X200470000Y-70498000D01*
X200510000Y-78607000D02*
X200510000Y-70493000D01*
X200550000Y-78611000D02*
X200550000Y-70489000D01*
X200590000Y-78615000D02*
X200590000Y-70485000D01*
X200630000Y-78618000D02*
X200630000Y-70482000D01*
X200670000Y-78621000D02*
X200670000Y-70479000D01*
X200710000Y-78624000D02*
X200710000Y-70476000D01*
X200750000Y-78626000D02*
X200750000Y-70474000D01*
X200790000Y-78627000D02*
X200790000Y-70473000D01*
X200830000Y-78629000D02*
X200830000Y-70471000D01*
X200870000Y-78630000D02*
X200870000Y-70470000D01*
X200910000Y-78630000D02*
X200910000Y-70470000D01*
X200950000Y-78630000D02*
X200950000Y-70470000D01*
X204959698Y-77265000D02*
X204959698Y-76465000D01*
X205359698Y-76865000D02*
X204559698Y-76865000D01*
X205070000Y-74550000D02*
G75*
G02*
X196830000Y-74550000I-4120000J0D01*
G01*
X196830000Y-74550000D02*
G75*
G02*
X205070000Y-74550000I4120000J0D01*
G01*
%TO.C,J13*%
X146490000Y-120440000D02*
X146490000Y-135560000D01*
X146490000Y-135560000D02*
X152460000Y-135560000D01*
X147250000Y-121200000D02*
X147250000Y-128000000D01*
X147250000Y-134800000D02*
X147250000Y-128000000D01*
X150200000Y-120450000D02*
X150200000Y-121200000D01*
X150200000Y-121200000D02*
X147250000Y-121200000D01*
X150200000Y-134800000D02*
X147250000Y-134800000D01*
X150200000Y-135550000D02*
X150200000Y-134800000D01*
X151700000Y-120450000D02*
X151700000Y-122250000D01*
X151700000Y-122250000D02*
X152450000Y-122250000D01*
X151700000Y-123750000D02*
X151700000Y-132250000D01*
X151700000Y-132250000D02*
X152450000Y-132250000D01*
X151700000Y-133750000D02*
X151700000Y-135550000D01*
X151700000Y-135550000D02*
X152450000Y-135550000D01*
X152450000Y-120450000D02*
X151700000Y-120450000D01*
X152450000Y-122250000D02*
X152450000Y-120450000D01*
X152450000Y-123750000D02*
X151700000Y-123750000D01*
X152450000Y-132250000D02*
X152450000Y-123750000D01*
X152450000Y-133750000D02*
X151700000Y-133750000D01*
X152450000Y-135550000D02*
X152450000Y-133750000D01*
X152460000Y-120440000D02*
X146490000Y-120440000D01*
X152460000Y-135560000D02*
X152460000Y-120440000D01*
X152750000Y-120150000D02*
X151500000Y-120150000D01*
X152750000Y-121400000D02*
X152750000Y-120150000D01*
%TO.C,C1*%
X175120000Y-76250000D02*
G75*
G02*
X164880000Y-76250000I-5120000J0D01*
G01*
X164880000Y-76250000D02*
G75*
G02*
X175120000Y-76250000I5120000J0D01*
G01*
%TO.C,J3*%
X146490000Y-86940000D02*
X146490000Y-102060000D01*
X146490000Y-102060000D02*
X152460000Y-102060000D01*
X147250000Y-87700000D02*
X147250000Y-94500000D01*
X147250000Y-101300000D02*
X147250000Y-94500000D01*
X150200000Y-86950000D02*
X150200000Y-87700000D01*
X150200000Y-87700000D02*
X147250000Y-87700000D01*
X150200000Y-101300000D02*
X147250000Y-101300000D01*
X150200000Y-102050000D02*
X150200000Y-101300000D01*
X151700000Y-86950000D02*
X151700000Y-88750000D01*
X151700000Y-88750000D02*
X152450000Y-88750000D01*
X151700000Y-90250000D02*
X151700000Y-98750000D01*
X151700000Y-98750000D02*
X152450000Y-98750000D01*
X151700000Y-100250000D02*
X151700000Y-102050000D01*
X151700000Y-102050000D02*
X152450000Y-102050000D01*
X152450000Y-86950000D02*
X151700000Y-86950000D01*
X152450000Y-88750000D02*
X152450000Y-86950000D01*
X152450000Y-90250000D02*
X151700000Y-90250000D01*
X152450000Y-98750000D02*
X152450000Y-90250000D01*
X152450000Y-100250000D02*
X151700000Y-100250000D01*
X152450000Y-102050000D02*
X152450000Y-100250000D01*
X152460000Y-86940000D02*
X146490000Y-86940000D01*
X152460000Y-102060000D02*
X152460000Y-86940000D01*
X152750000Y-86650000D02*
X151500000Y-86650000D01*
X152750000Y-87900000D02*
X152750000Y-86650000D01*
%TO.C,J8*%
X86490000Y-86940000D02*
X86490000Y-102060000D01*
X86490000Y-102060000D02*
X92460000Y-102060000D01*
X87250000Y-87700000D02*
X87250000Y-94500000D01*
X87250000Y-101300000D02*
X87250000Y-94500000D01*
X90200000Y-86950000D02*
X90200000Y-87700000D01*
X90200000Y-87700000D02*
X87250000Y-87700000D01*
X90200000Y-101300000D02*
X87250000Y-101300000D01*
X90200000Y-102050000D02*
X90200000Y-101300000D01*
X91700000Y-86950000D02*
X91700000Y-88750000D01*
X91700000Y-88750000D02*
X92450000Y-88750000D01*
X91700000Y-90250000D02*
X91700000Y-98750000D01*
X91700000Y-98750000D02*
X92450000Y-98750000D01*
X91700000Y-100250000D02*
X91700000Y-102050000D01*
X91700000Y-102050000D02*
X92450000Y-102050000D01*
X92450000Y-86950000D02*
X91700000Y-86950000D01*
X92450000Y-88750000D02*
X92450000Y-86950000D01*
X92450000Y-90250000D02*
X91700000Y-90250000D01*
X92450000Y-98750000D02*
X92450000Y-90250000D01*
X92450000Y-100250000D02*
X91700000Y-100250000D01*
X92450000Y-102050000D02*
X92450000Y-100250000D01*
X92460000Y-86940000D02*
X86490000Y-86940000D01*
X92460000Y-102060000D02*
X92460000Y-86940000D01*
X92750000Y-86650000D02*
X91500000Y-86650000D01*
X92750000Y-87900000D02*
X92750000Y-86650000D01*
%TO.C,U1*%
X172979000Y-59230000D02*
X172979000Y-63871000D01*
X172979000Y-59230000D02*
X183220000Y-59230000D01*
X172979000Y-60739000D02*
X183220000Y-60739000D01*
X172979000Y-63871000D02*
X175335000Y-63871000D01*
X174700000Y-63871000D02*
X174700000Y-66501000D01*
X176250000Y-59230000D02*
X176250000Y-60739000D01*
X177465000Y-63871000D02*
X178735000Y-63871000D01*
X178100000Y-63871000D02*
X178100000Y-66485000D01*
X179950000Y-59230000D02*
X179950000Y-60739000D01*
X180865000Y-63871000D02*
X183220000Y-63871000D01*
X181500000Y-63871000D02*
X181500000Y-66485000D01*
X183220000Y-59230000D02*
X183220000Y-63871000D01*
%TO.C,J11*%
X116490000Y-120940000D02*
X116490000Y-136060000D01*
X116490000Y-136060000D02*
X122460000Y-136060000D01*
X117250000Y-121700000D02*
X117250000Y-128500000D01*
X117250000Y-135300000D02*
X117250000Y-128500000D01*
X120200000Y-120950000D02*
X120200000Y-121700000D01*
X120200000Y-121700000D02*
X117250000Y-121700000D01*
X120200000Y-135300000D02*
X117250000Y-135300000D01*
X120200000Y-136050000D02*
X120200000Y-135300000D01*
X121700000Y-120950000D02*
X121700000Y-122750000D01*
X121700000Y-122750000D02*
X122450000Y-122750000D01*
X121700000Y-124250000D02*
X121700000Y-132750000D01*
X121700000Y-132750000D02*
X122450000Y-132750000D01*
X121700000Y-134250000D02*
X121700000Y-136050000D01*
X121700000Y-136050000D02*
X122450000Y-136050000D01*
X122450000Y-120950000D02*
X121700000Y-120950000D01*
X122450000Y-122750000D02*
X122450000Y-120950000D01*
X122450000Y-124250000D02*
X121700000Y-124250000D01*
X122450000Y-132750000D02*
X122450000Y-124250000D01*
X122450000Y-134250000D02*
X121700000Y-134250000D01*
X122450000Y-136050000D02*
X122450000Y-134250000D01*
X122460000Y-120940000D02*
X116490000Y-120940000D01*
X122460000Y-136060000D02*
X122460000Y-120940000D01*
X122750000Y-120650000D02*
X121500000Y-120650000D01*
X122750000Y-121900000D02*
X122750000Y-120650000D01*
%TO.C,J4*%
X161490000Y-86940000D02*
X161490000Y-102060000D01*
X161490000Y-102060000D02*
X167460000Y-102060000D01*
X162250000Y-87700000D02*
X162250000Y-94500000D01*
X162250000Y-101300000D02*
X162250000Y-94500000D01*
X165200000Y-86950000D02*
X165200000Y-87700000D01*
X165200000Y-87700000D02*
X162250000Y-87700000D01*
X165200000Y-101300000D02*
X162250000Y-101300000D01*
X165200000Y-102050000D02*
X165200000Y-101300000D01*
X166700000Y-86950000D02*
X166700000Y-88750000D01*
X166700000Y-88750000D02*
X167450000Y-88750000D01*
X166700000Y-90250000D02*
X166700000Y-98750000D01*
X166700000Y-98750000D02*
X167450000Y-98750000D01*
X166700000Y-100250000D02*
X166700000Y-102050000D01*
X166700000Y-102050000D02*
X167450000Y-102050000D01*
X167450000Y-86950000D02*
X166700000Y-86950000D01*
X167450000Y-88750000D02*
X167450000Y-86950000D01*
X167450000Y-90250000D02*
X166700000Y-90250000D01*
X167450000Y-98750000D02*
X167450000Y-90250000D01*
X167450000Y-100250000D02*
X166700000Y-100250000D01*
X167450000Y-102050000D02*
X167450000Y-100250000D01*
X167460000Y-86940000D02*
X161490000Y-86940000D01*
X167460000Y-102060000D02*
X167460000Y-86940000D01*
X167750000Y-86650000D02*
X166500000Y-86650000D01*
X167750000Y-87900000D02*
X167750000Y-86650000D01*
%TO.C,L1*%
X184240000Y-56990000D02*
X187490000Y-56990000D01*
X184240000Y-67140000D02*
X184240000Y-56990000D01*
X184240000Y-69510000D02*
X184240000Y-67860000D01*
X184240000Y-69510000D02*
X187490000Y-69510000D01*
X196760000Y-56990000D02*
X193510000Y-56990000D01*
X196760000Y-69510000D02*
X193510000Y-69510000D01*
X196760000Y-69510000D02*
X196760000Y-56990000D01*
X184240000Y-67500000D02*
X183910000Y-67740000D01*
X183910000Y-67260000D01*
X184240000Y-67500000D01*
G36*
X184240000Y-67500000D02*
G01*
X183910000Y-67740000D01*
X183910000Y-67260000D01*
X184240000Y-67500000D01*
G37*
%TO.C,D1*%
X179800000Y-74550000D02*
X180710000Y-74550000D01*
X180710000Y-71830000D02*
X180710000Y-77270000D01*
X180710000Y-77270000D02*
X190450000Y-77270000D01*
X182135000Y-71830000D02*
X182135000Y-77270000D01*
X182255000Y-71830000D02*
X182255000Y-77270000D01*
X182375000Y-71830000D02*
X182375000Y-77270000D01*
X190450000Y-71830000D02*
X180710000Y-71830000D01*
X190450000Y-77270000D02*
X190450000Y-71830000D01*
X191360000Y-74550000D02*
X190450000Y-74550000D01*
%TO.C,J6*%
X116490000Y-86940000D02*
X116490000Y-102060000D01*
X116490000Y-102060000D02*
X122460000Y-102060000D01*
X117250000Y-87700000D02*
X117250000Y-94500000D01*
X117250000Y-101300000D02*
X117250000Y-94500000D01*
X120200000Y-86950000D02*
X120200000Y-87700000D01*
X120200000Y-87700000D02*
X117250000Y-87700000D01*
X120200000Y-101300000D02*
X117250000Y-101300000D01*
X120200000Y-102050000D02*
X120200000Y-101300000D01*
X121700000Y-86950000D02*
X121700000Y-88750000D01*
X121700000Y-88750000D02*
X122450000Y-88750000D01*
X121700000Y-90250000D02*
X121700000Y-98750000D01*
X121700000Y-98750000D02*
X122450000Y-98750000D01*
X121700000Y-100250000D02*
X121700000Y-102050000D01*
X121700000Y-102050000D02*
X122450000Y-102050000D01*
X122450000Y-86950000D02*
X121700000Y-86950000D01*
X122450000Y-88750000D02*
X122450000Y-86950000D01*
X122450000Y-90250000D02*
X121700000Y-90250000D01*
X122450000Y-98750000D02*
X122450000Y-90250000D01*
X122450000Y-100250000D02*
X121700000Y-100250000D01*
X122450000Y-102050000D02*
X122450000Y-100250000D01*
X122460000Y-86940000D02*
X116490000Y-86940000D01*
X122460000Y-102060000D02*
X122460000Y-86940000D01*
X122750000Y-86650000D02*
X121500000Y-86650000D01*
X122750000Y-87900000D02*
X122750000Y-86650000D01*
%TO.C,J9*%
X86490000Y-120940000D02*
X86490000Y-136060000D01*
X86490000Y-136060000D02*
X92460000Y-136060000D01*
X87250000Y-121700000D02*
X87250000Y-128500000D01*
X87250000Y-135300000D02*
X87250000Y-128500000D01*
X90200000Y-120950000D02*
X90200000Y-121700000D01*
X90200000Y-121700000D02*
X87250000Y-121700000D01*
X90200000Y-135300000D02*
X87250000Y-135300000D01*
X90200000Y-136050000D02*
X90200000Y-135300000D01*
X91700000Y-120950000D02*
X91700000Y-122750000D01*
X91700000Y-122750000D02*
X92450000Y-122750000D01*
X91700000Y-124250000D02*
X91700000Y-132750000D01*
X91700000Y-132750000D02*
X92450000Y-132750000D01*
X91700000Y-134250000D02*
X91700000Y-136050000D01*
X91700000Y-136050000D02*
X92450000Y-136050000D01*
X92450000Y-120950000D02*
X91700000Y-120950000D01*
X92450000Y-122750000D02*
X92450000Y-120950000D01*
X92450000Y-124250000D02*
X91700000Y-124250000D01*
X92450000Y-132750000D02*
X92450000Y-124250000D01*
X92450000Y-134250000D02*
X91700000Y-134250000D01*
X92450000Y-136050000D02*
X92450000Y-134250000D01*
X92460000Y-120940000D02*
X86490000Y-120940000D01*
X92460000Y-136060000D02*
X92460000Y-120940000D01*
X92750000Y-120650000D02*
X91500000Y-120650000D01*
X92750000Y-121900000D02*
X92750000Y-120650000D01*
%TO.C,J10*%
X101490000Y-120940000D02*
X101490000Y-136060000D01*
X101490000Y-136060000D02*
X107460000Y-136060000D01*
X102250000Y-121700000D02*
X102250000Y-128500000D01*
X102250000Y-135300000D02*
X102250000Y-128500000D01*
X105200000Y-120950000D02*
X105200000Y-121700000D01*
X105200000Y-121700000D02*
X102250000Y-121700000D01*
X105200000Y-135300000D02*
X102250000Y-135300000D01*
X105200000Y-136050000D02*
X105200000Y-135300000D01*
X106700000Y-120950000D02*
X106700000Y-122750000D01*
X106700000Y-122750000D02*
X107450000Y-122750000D01*
X106700000Y-124250000D02*
X106700000Y-132750000D01*
X106700000Y-132750000D02*
X107450000Y-132750000D01*
X106700000Y-134250000D02*
X106700000Y-136050000D01*
X106700000Y-136050000D02*
X107450000Y-136050000D01*
X107450000Y-120950000D02*
X106700000Y-120950000D01*
X107450000Y-122750000D02*
X107450000Y-120950000D01*
X107450000Y-124250000D02*
X106700000Y-124250000D01*
X107450000Y-132750000D02*
X107450000Y-124250000D01*
X107450000Y-134250000D02*
X106700000Y-134250000D01*
X107450000Y-136050000D02*
X107450000Y-134250000D01*
X107460000Y-120940000D02*
X101490000Y-120940000D01*
X107460000Y-136060000D02*
X107460000Y-120940000D01*
X107750000Y-120650000D02*
X106500000Y-120650000D01*
X107750000Y-121900000D02*
X107750000Y-120650000D01*
%TO.C,J1*%
X165990000Y-61690000D02*
X165990000Y-69310000D01*
X165990000Y-69310000D02*
X171960000Y-69310000D01*
X166750000Y-62450000D02*
X166750000Y-65500000D01*
X166750000Y-68550000D02*
X166750000Y-65500000D01*
X169700000Y-61700000D02*
X169700000Y-62450000D01*
X169700000Y-62450000D02*
X166750000Y-62450000D01*
X169700000Y-68550000D02*
X166750000Y-68550000D01*
X169700000Y-69300000D02*
X169700000Y-68550000D01*
X171200000Y-61700000D02*
X171200000Y-63500000D01*
X171200000Y-63500000D02*
X171950000Y-63500000D01*
X171200000Y-65000000D02*
X171200000Y-66000000D01*
X171200000Y-66000000D02*
X171950000Y-66000000D01*
X171200000Y-67500000D02*
X171200000Y-69300000D01*
X171200000Y-69300000D02*
X171950000Y-69300000D01*
X171950000Y-61700000D02*
X171200000Y-61700000D01*
X171950000Y-63500000D02*
X171950000Y-61700000D01*
X171950000Y-65000000D02*
X171200000Y-65000000D01*
X171950000Y-66000000D02*
X171950000Y-65000000D01*
X171950000Y-67500000D02*
X171200000Y-67500000D01*
X171950000Y-69300000D02*
X171950000Y-67500000D01*
X171960000Y-61690000D02*
X165990000Y-61690000D01*
X171960000Y-69310000D02*
X171960000Y-61690000D01*
X172250000Y-61400000D02*
X171000000Y-61400000D01*
X172250000Y-62650000D02*
X172250000Y-61400000D01*
%TO.C,J7*%
X101490000Y-86940000D02*
X101490000Y-102060000D01*
X101490000Y-102060000D02*
X107460000Y-102060000D01*
X102250000Y-87700000D02*
X102250000Y-94500000D01*
X102250000Y-101300000D02*
X102250000Y-94500000D01*
X105200000Y-86950000D02*
X105200000Y-87700000D01*
X105200000Y-87700000D02*
X102250000Y-87700000D01*
X105200000Y-101300000D02*
X102250000Y-101300000D01*
X105200000Y-102050000D02*
X105200000Y-101300000D01*
X106700000Y-86950000D02*
X106700000Y-88750000D01*
X106700000Y-88750000D02*
X107450000Y-88750000D01*
X106700000Y-90250000D02*
X106700000Y-98750000D01*
X106700000Y-98750000D02*
X107450000Y-98750000D01*
X106700000Y-100250000D02*
X106700000Y-102050000D01*
X106700000Y-102050000D02*
X107450000Y-102050000D01*
X107450000Y-86950000D02*
X106700000Y-86950000D01*
X107450000Y-88750000D02*
X107450000Y-86950000D01*
X107450000Y-90250000D02*
X106700000Y-90250000D01*
X107450000Y-98750000D02*
X107450000Y-90250000D01*
X107450000Y-100250000D02*
X106700000Y-100250000D01*
X107450000Y-102050000D02*
X107450000Y-100250000D01*
X107460000Y-86940000D02*
X101490000Y-86940000D01*
X107460000Y-102060000D02*
X107460000Y-86940000D01*
X107750000Y-86650000D02*
X106500000Y-86650000D01*
X107750000Y-87900000D02*
X107750000Y-86650000D01*
%TO.C,J14*%
X161490000Y-120440000D02*
X161490000Y-135560000D01*
X161490000Y-135560000D02*
X167460000Y-135560000D01*
X162250000Y-121200000D02*
X162250000Y-128000000D01*
X162250000Y-134800000D02*
X162250000Y-128000000D01*
X165200000Y-120450000D02*
X165200000Y-121200000D01*
X165200000Y-121200000D02*
X162250000Y-121200000D01*
X165200000Y-134800000D02*
X162250000Y-134800000D01*
X165200000Y-135550000D02*
X165200000Y-134800000D01*
X166700000Y-120450000D02*
X166700000Y-122250000D01*
X166700000Y-122250000D02*
X167450000Y-122250000D01*
X166700000Y-123750000D02*
X166700000Y-132250000D01*
X166700000Y-132250000D02*
X167450000Y-132250000D01*
X166700000Y-133750000D02*
X166700000Y-135550000D01*
X166700000Y-135550000D02*
X167450000Y-135550000D01*
X167450000Y-120450000D02*
X166700000Y-120450000D01*
X167450000Y-122250000D02*
X167450000Y-120450000D01*
X167450000Y-123750000D02*
X166700000Y-123750000D01*
X167450000Y-132250000D02*
X167450000Y-123750000D01*
X167450000Y-133750000D02*
X166700000Y-133750000D01*
X167450000Y-135550000D02*
X167450000Y-133750000D01*
X167460000Y-120440000D02*
X161490000Y-120440000D01*
X167460000Y-135560000D02*
X167460000Y-120440000D01*
X167750000Y-120150000D02*
X166500000Y-120150000D01*
X167750000Y-121400000D02*
X167750000Y-120150000D01*
%TD*%
M02*
