%TF.GenerationSoftware,KiCad,Pcbnew,8.0.8-8.0.8-0~ubuntu24.04.1*%
%TF.CreationDate,2025-05-21T16:34:38-05:00*%
%TF.ProjectId,wasabi,77617361-6269-42e6-9b69-6361645f7063,rev?*%
%TF.SameCoordinates,Original*%
%TF.FileFunction,Copper,L2,Bot*%
%TF.FilePolarity,Positive*%
%FSLAX46Y46*%
G04 Gerber Fmt 4.6, Leading zero omitted, Abs format (unit mm)*
G04 Created by KiCad (PCBNEW 8.0.8-8.0.8-0~ubuntu24.04.1) date 2025-05-21 16:34:38*
%MOMM*%
%LPD*%
G01*
G04 APERTURE LIST*
G04 Aperture macros list*
%AMRoundRect*
0 Rectangle with rounded corners*
0 $1 Rounding radius*
0 $2 $3 $4 $5 $6 $7 $8 $9 X,Y pos of 4 corners*
0 Add a 4 corners polygon primitive as box body*
4,1,4,$2,$3,$4,$5,$6,$7,$8,$9,$2,$3,0*
0 Add four circle primitives for the rounded corners*
1,1,$1+$1,$2,$3*
1,1,$1+$1,$4,$5*
1,1,$1+$1,$6,$7*
1,1,$1+$1,$8,$9*
0 Add four rect primitives between the rounded corners*
20,1,$1+$1,$2,$3,$4,$5,0*
20,1,$1+$1,$4,$5,$6,$7,0*
20,1,$1+$1,$6,$7,$8,$9,0*
20,1,$1+$1,$8,$9,$2,$3,0*%
G04 Aperture macros list end*
%TA.AperFunction,ComponentPad*%
%ADD10R,1.700000X1.700000*%
%TD*%
%TA.AperFunction,ComponentPad*%
%ADD11O,1.700000X1.700000*%
%TD*%
%TA.AperFunction,ComponentPad*%
%ADD12RoundRect,0.250000X-0.725000X0.600000X-0.725000X-0.600000X0.725000X-0.600000X0.725000X0.600000X0*%
%TD*%
%TA.AperFunction,ComponentPad*%
%ADD13O,1.950000X1.700000*%
%TD*%
%TA.AperFunction,ComponentPad*%
%ADD14R,1.600000X1.600000*%
%TD*%
%TA.AperFunction,ComponentPad*%
%ADD15C,1.600000*%
%TD*%
%TA.AperFunction,ComponentPad*%
%ADD16R,1.800000X1.800000*%
%TD*%
%TA.AperFunction,ComponentPad*%
%ADD17O,1.800000X1.800000*%
%TD*%
%TA.AperFunction,ComponentPad*%
%ADD18R,3.200000X3.200000*%
%TD*%
%TA.AperFunction,ComponentPad*%
%ADD19O,3.200000X3.200000*%
%TD*%
%TA.AperFunction,ComponentPad*%
%ADD20RoundRect,0.250000X-0.750000X0.600000X-0.750000X-0.600000X0.750000X-0.600000X0.750000X0.600000X0*%
%TD*%
%TA.AperFunction,ComponentPad*%
%ADD21O,2.000000X1.700000*%
%TD*%
%TA.AperFunction,Conductor*%
%ADD22C,0.200000*%
%TD*%
G04 APERTURE END LIST*
D10*
%TO.P,J2,1,3.3V*%
%TO.N,unconnected-(J2-3.3V-Pad1)*%
X212960000Y-139500000D03*
D11*
%TO.P,J2,2,5V*%
%TO.N,unconnected-(J2-5V-Pad2)*%
X215500000Y-139500000D03*
%TO.P,J2,3,GPIO2*%
%TO.N,unconnected-(J2-GPIO2-Pad3)*%
X212960000Y-136960000D03*
%TO.P,J2,4,5V*%
%TO.N,+5V*%
X215500000Y-136960000D03*
%TO.P,J2,5,GPIO3*%
%TO.N,unconnected-(J2-GPIO3-Pad5)*%
X212960000Y-134420000D03*
%TO.P,J2,6,GND*%
%TO.N,GND*%
X215500000Y-134420000D03*
%TO.P,J2,7,GPIO4*%
%TO.N,unconnected-(J2-GPIO4-Pad7)*%
X212960000Y-131880000D03*
%TO.P,J2,8,GPIO14*%
%TO.N,Net-(J2-GPIO14)*%
X215500000Y-131880000D03*
%TO.P,J2,9,GND*%
%TO.N,unconnected-(J2-GND-Pad9)*%
X212960000Y-129340000D03*
%TO.P,J2,10,GPIO15*%
%TO.N,Net-(J2-GPIO15)*%
X215500000Y-129340000D03*
%TO.P,J2,11,GPIO17*%
%TO.N,unconnected-(J2-GPIO17-Pad11)*%
X212960000Y-126800000D03*
%TO.P,J2,12,GPIO18*%
%TO.N,unconnected-(J2-GPIO18-Pad12)*%
X215500000Y-126800000D03*
%TO.P,J2,13,GPIO27*%
%TO.N,unconnected-(J2-GPIO27-Pad13)*%
X212960000Y-124260000D03*
%TO.P,J2,14,GND*%
%TO.N,unconnected-(J2-GND-Pad14)*%
X215500000Y-124260000D03*
%TO.P,J2,15,GPIO22*%
%TO.N,unconnected-(J2-GPIO22-Pad15)*%
X212960000Y-121720000D03*
%TO.P,J2,16,GPIO23*%
%TO.N,unconnected-(J2-GPIO23-Pad16)*%
X215500000Y-121720000D03*
%TO.P,J2,17,3.3V*%
%TO.N,unconnected-(J2-3.3V-Pad17)*%
X212960000Y-119180000D03*
%TO.P,J2,18,GPIO24*%
%TO.N,unconnected-(J2-GPIO24-Pad18)*%
X215500000Y-119180000D03*
%TO.P,J2,19,GPIO10*%
%TO.N,unconnected-(J2-GPIO10-Pad19)*%
X212960000Y-116640000D03*
%TO.P,J2,20,GND*%
%TO.N,unconnected-(J2-GND-Pad20)*%
X215500000Y-116640000D03*
%TO.P,J2,21,GPIO9*%
%TO.N,unconnected-(J2-GPIO9-Pad21)*%
X212960000Y-114100000D03*
%TO.P,J2,22,GPIO25*%
%TO.N,unconnected-(J2-GPIO25-Pad22)*%
X215500000Y-114100000D03*
%TO.P,J2,23,GPIO11*%
%TO.N,unconnected-(J2-GPIO11-Pad23)*%
X212960000Y-111560000D03*
%TO.P,J2,24,GPIO8*%
%TO.N,unconnected-(J2-GPIO8-Pad24)*%
X215500000Y-111560000D03*
%TO.P,J2,25,GND*%
%TO.N,unconnected-(J2-GND-Pad25)*%
X212960000Y-109020000D03*
%TO.P,J2,26,GPIO7*%
%TO.N,unconnected-(J2-GPIO7-Pad26)*%
X215500000Y-109020000D03*
%TO.P,J2,27,ID_SD*%
%TO.N,unconnected-(J2-ID_SD-Pad27)*%
X212960000Y-106480000D03*
%TO.P,J2,28,ID_SC*%
%TO.N,unconnected-(J2-ID_SC-Pad28)*%
X215500000Y-106480000D03*
%TO.P,J2,29,GPIO5*%
%TO.N,unconnected-(J2-GPIO5-Pad29)*%
X212960000Y-103940000D03*
%TO.P,J2,30,GND*%
%TO.N,unconnected-(J2-GND-Pad30)*%
X215500000Y-103940000D03*
%TO.P,J2,31,GPIO6*%
%TO.N,unconnected-(J2-GPIO6-Pad31)*%
X212960000Y-101400000D03*
%TO.P,J2,32,GPIO12*%
%TO.N,unconnected-(J2-GPIO12-Pad32)*%
X215500000Y-101400000D03*
%TO.P,J2,33,GPIO13*%
%TO.N,unconnected-(J2-GPIO13-Pad33)*%
X212960000Y-98860000D03*
%TO.P,J2,34,GND*%
%TO.N,unconnected-(J2-GND-Pad34)*%
X215500000Y-98860000D03*
%TO.P,J2,35,GPIO19*%
%TO.N,unconnected-(J2-GPIO19-Pad35)*%
X212960000Y-96320000D03*
%TO.P,J2,36,GPIO16*%
%TO.N,unconnected-(J2-GPIO16-Pad36)*%
X215500000Y-96320000D03*
%TO.P,J2,37,GPIO26*%
%TO.N,unconnected-(J2-GPIO26-Pad37)*%
X212960000Y-93780000D03*
%TO.P,J2,38,GPIO20*%
%TO.N,unconnected-(J2-GPIO20-Pad38)*%
X215500000Y-93780000D03*
%TO.P,J2,39,GND*%
%TO.N,unconnected-(J2-GND-Pad39)*%
X212960000Y-91240000D03*
%TO.P,J2,40,GPIO21*%
%TO.N,unconnected-(J2-GPIO21-Pad40)*%
X215500000Y-91240000D03*
%TD*%
D12*
%TO.P,J12,1,Pin_1*%
%TO.N,GND*%
X135000000Y-123500000D03*
D13*
%TO.P,J12,2,Pin_2*%
%TO.N,+24V*%
X135000000Y-126000000D03*
%TO.P,J12,3,Pin_3*%
%TO.N,+5V*%
X135000000Y-128500000D03*
%TO.P,J12,4,Pin_4*%
%TO.N,Net-(J12-Pin_4)*%
X135000000Y-131000000D03*
%TO.P,J12,5,Pin_5*%
%TO.N,Net-(J12-Pin_5)*%
X135000000Y-133500000D03*
%TD*%
D12*
%TO.P,J5,1,Pin_1*%
%TO.N,GND*%
X135000000Y-89500000D03*
D13*
%TO.P,J5,2,Pin_2*%
%TO.N,+24V*%
X135000000Y-92000000D03*
%TO.P,J5,3,Pin_3*%
%TO.N,+5V*%
X135000000Y-94500000D03*
%TO.P,J5,4,Pin_4*%
%TO.N,Net-(J5-Pin_4)*%
X135000000Y-97000000D03*
%TO.P,J5,5,Pin_5*%
%TO.N,Net-(J5-Pin_5)*%
X135000000Y-99500000D03*
%TD*%
D11*
%TO.P,U2,1,GPIO0*%
%TO.N,Net-(J4-Pin_4)*%
X178610000Y-88870000D03*
%TO.P,U2,2,GPIO1*%
%TO.N,Net-(J4-Pin_5)*%
X178610000Y-91410000D03*
D10*
%TO.P,U2,3,GND*%
%TO.N,unconnected-(U2-GND-Pad3)*%
X178610000Y-93950000D03*
D11*
%TO.P,U2,4,GPIO2*%
%TO.N,Net-(J3-Pin_4)*%
X178610000Y-96490000D03*
%TO.P,U2,5,GPIO3*%
%TO.N,Net-(J3-Pin_5)*%
X178610000Y-99030000D03*
%TO.P,U2,6,GPIO4*%
%TO.N,Net-(J5-Pin_4)*%
X178610000Y-101570000D03*
%TO.P,U2,7,GPIO5*%
%TO.N,Net-(J5-Pin_5)*%
X178610000Y-104110000D03*
D10*
%TO.P,U2,8,GND*%
%TO.N,unconnected-(U2-GND-Pad8)*%
X178610000Y-106650000D03*
D11*
%TO.P,U2,9,GPIO6*%
%TO.N,Net-(J6-Pin_4)*%
X178610000Y-109190000D03*
%TO.P,U2,10,GPIO7*%
%TO.N,Net-(J6-Pin_5)*%
X178610000Y-111730000D03*
%TO.P,U2,11,GPIO8*%
%TO.N,Net-(J7-Pin_4)*%
X178610000Y-114270000D03*
%TO.P,U2,12,GPIO9*%
%TO.N,Net-(J7-Pin_5)*%
X178610000Y-116810000D03*
D10*
%TO.P,U2,13,GND*%
%TO.N,unconnected-(U2-GND-Pad13)*%
X178610000Y-119350000D03*
D11*
%TO.P,U2,14,GPIO10*%
%TO.N,Net-(J8-Pin_4)*%
X178610000Y-121890000D03*
%TO.P,U2,15,GPIO11*%
%TO.N,Net-(J8-Pin_5)*%
X178610000Y-124430000D03*
%TO.P,U2,16,GPIO12*%
%TO.N,Net-(J14-Pin_4)*%
X178610000Y-126970000D03*
%TO.P,U2,17,GPIO13*%
%TO.N,Net-(J14-Pin_5)*%
X178610000Y-129510000D03*
D10*
%TO.P,U2,18,GND*%
%TO.N,unconnected-(U2-GND-Pad18)*%
X178610000Y-132050000D03*
D11*
%TO.P,U2,19,GPIO14*%
%TO.N,Net-(J13-Pin_4)*%
X178610000Y-134590000D03*
%TO.P,U2,20,GPIO15*%
%TO.N,Net-(J13-Pin_5)*%
X178610000Y-137130000D03*
%TO.P,U2,21,GPIO16*%
%TO.N,Net-(J2-GPIO15)*%
X196390000Y-137130000D03*
%TO.P,U2,22,GPIO17*%
%TO.N,Net-(J2-GPIO14)*%
X196390000Y-134590000D03*
D10*
%TO.P,U2,23,GND*%
%TO.N,unconnected-(U2-GND-Pad23)*%
X196390000Y-132050000D03*
D11*
%TO.P,U2,24,GPIO18*%
%TO.N,Net-(J12-Pin_4)*%
X196390000Y-129510000D03*
%TO.P,U2,25,GPIO19*%
%TO.N,Net-(J12-Pin_5)*%
X196390000Y-126970000D03*
%TO.P,U2,26,GPIO20*%
%TO.N,Net-(J11-Pin_4)*%
X196390000Y-124430000D03*
%TO.P,U2,27,GPIO21*%
%TO.N,Net-(J11-Pin_5)*%
X196390000Y-121890000D03*
D10*
%TO.P,U2,28,GND*%
%TO.N,unconnected-(U2-GND-Pad28)*%
X196390000Y-119350000D03*
D11*
%TO.P,U2,29,GPIO22*%
%TO.N,Net-(J10-Pin_4)*%
X196390000Y-116810000D03*
%TO.P,U2,30,RUN*%
%TO.N,unconnected-(U2-RUN-Pad30)*%
X196390000Y-114270000D03*
%TO.P,U2,31,GPIO26_ADC0*%
%TO.N,Net-(J10-Pin_5)*%
X196390000Y-111730000D03*
%TO.P,U2,32,GPIO27_ADC1*%
%TO.N,Net-(J9-Pin_4)*%
X196390000Y-109190000D03*
D10*
%TO.P,U2,33,AGND*%
%TO.N,unconnected-(U2-AGND-Pad33)*%
X196390000Y-106650000D03*
D11*
%TO.P,U2,34,GPIO28_ADC2*%
%TO.N,Net-(J9-Pin_5)*%
X196390000Y-104110000D03*
%TO.P,U2,35,ADC_VREF*%
%TO.N,unconnected-(U2-ADC_VREF-Pad35)*%
X196390000Y-101570000D03*
%TO.P,U2,36,3V3*%
%TO.N,unconnected-(U2-3V3-Pad36)*%
X196390000Y-99030000D03*
%TO.P,U2,37,3V3_EN*%
%TO.N,unconnected-(U2-3V3_EN-Pad37)*%
X196390000Y-96490000D03*
D10*
%TO.P,U2,38,GND*%
%TO.N,GND*%
X196390000Y-93950000D03*
D11*
%TO.P,U2,39,VSYS*%
%TO.N,+5V*%
X196390000Y-91410000D03*
%TO.P,U2,40,VBUS*%
%TO.N,unconnected-(U2-VBUS-Pad40)*%
X196390000Y-88870000D03*
%TO.P,U2,41,SWCLK*%
%TO.N,unconnected-(U2-SWCLK-Pad41)*%
X184960000Y-136900000D03*
D10*
%TO.P,U2,42,GND*%
%TO.N,unconnected-(U2-GND-Pad42)*%
X187500000Y-136900000D03*
D11*
%TO.P,U2,43,SWDIO*%
%TO.N,unconnected-(U2-SWDIO-Pad43)*%
X190040000Y-136900000D03*
%TD*%
D14*
%TO.P,C2,1*%
%TO.N,+5V*%
X202700000Y-74550000D03*
D15*
%TO.P,C2,2*%
%TO.N,GND*%
X199200000Y-74550000D03*
%TD*%
D12*
%TO.P,J13,1,Pin_1*%
%TO.N,GND*%
X150000000Y-123000000D03*
D13*
%TO.P,J13,2,Pin_2*%
%TO.N,+24V*%
X150000000Y-125500000D03*
%TO.P,J13,3,Pin_3*%
%TO.N,+5V*%
X150000000Y-128000000D03*
%TO.P,J13,4,Pin_4*%
%TO.N,Net-(J13-Pin_4)*%
X150000000Y-130500000D03*
%TO.P,J13,5,Pin_5*%
%TO.N,Net-(J13-Pin_5)*%
X150000000Y-133000000D03*
%TD*%
D15*
%TO.P,C1,1*%
%TO.N,+24V*%
X170000000Y-73750000D03*
%TO.P,C1,2*%
%TO.N,GND*%
X170000000Y-78750000D03*
%TD*%
D12*
%TO.P,J3,1,Pin_1*%
%TO.N,GND*%
X150000000Y-89500000D03*
D13*
%TO.P,J3,2,Pin_2*%
%TO.N,+24V*%
X150000000Y-92000000D03*
%TO.P,J3,3,Pin_3*%
%TO.N,+5V*%
X150000000Y-94500000D03*
%TO.P,J3,4,Pin_4*%
%TO.N,Net-(J3-Pin_4)*%
X150000000Y-97000000D03*
%TO.P,J3,5,Pin_5*%
%TO.N,Net-(J3-Pin_5)*%
X150000000Y-99500000D03*
%TD*%
D12*
%TO.P,J8,1,Pin_1*%
%TO.N,GND*%
X90000000Y-89500000D03*
D13*
%TO.P,J8,2,Pin_2*%
%TO.N,+24V*%
X90000000Y-92000000D03*
%TO.P,J8,3,Pin_3*%
%TO.N,+5V*%
X90000000Y-94500000D03*
%TO.P,J8,4,Pin_4*%
%TO.N,Net-(J8-Pin_4)*%
X90000000Y-97000000D03*
%TO.P,J8,5,Pin_5*%
%TO.N,Net-(J8-Pin_5)*%
X90000000Y-99500000D03*
%TD*%
D16*
%TO.P,U1,1,VIN*%
%TO.N,+24V*%
X174700000Y-67550000D03*
D17*
%TO.P,U1,2,OUT*%
%TO.N,Net-(D1-K)*%
X176400000Y-63850000D03*
%TO.P,U1,3,GND*%
%TO.N,GND*%
X178100000Y-67550000D03*
%TO.P,U1,4,FB*%
%TO.N,+5V*%
X179800000Y-63850000D03*
%TO.P,U1,5,~{ON}/OFF*%
%TO.N,GND*%
X181500000Y-67550000D03*
%TD*%
D12*
%TO.P,J11,1,Pin_1*%
%TO.N,GND*%
X120000000Y-123500000D03*
D13*
%TO.P,J11,2,Pin_2*%
%TO.N,+24V*%
X120000000Y-126000000D03*
%TO.P,J11,3,Pin_3*%
%TO.N,+5V*%
X120000000Y-128500000D03*
%TO.P,J11,4,Pin_4*%
%TO.N,Net-(J11-Pin_4)*%
X120000000Y-131000000D03*
%TO.P,J11,5,Pin_5*%
%TO.N,Net-(J11-Pin_5)*%
X120000000Y-133500000D03*
%TD*%
D12*
%TO.P,J4,1,Pin_1*%
%TO.N,GND*%
X165000000Y-89500000D03*
D13*
%TO.P,J4,2,Pin_2*%
%TO.N,+24V*%
X165000000Y-92000000D03*
%TO.P,J4,3,Pin_3*%
%TO.N,+5V*%
X165000000Y-94500000D03*
%TO.P,J4,4,Pin_4*%
%TO.N,Net-(J4-Pin_4)*%
X165000000Y-97000000D03*
%TO.P,J4,5,Pin_5*%
%TO.N,Net-(J4-Pin_5)*%
X165000000Y-99500000D03*
%TD*%
D18*
%TO.P,D1,1,K*%
%TO.N,Net-(D1-K)*%
X177960000Y-74550000D03*
D19*
%TO.P,D1,2,A*%
%TO.N,GND*%
X193200000Y-74550000D03*
%TD*%
D12*
%TO.P,J6,1,Pin_1*%
%TO.N,GND*%
X120000000Y-89500000D03*
D13*
%TO.P,J6,2,Pin_2*%
%TO.N,+24V*%
X120000000Y-92000000D03*
%TO.P,J6,3,Pin_3*%
%TO.N,+5V*%
X120000000Y-94500000D03*
%TO.P,J6,4,Pin_4*%
%TO.N,Net-(J6-Pin_4)*%
X120000000Y-97000000D03*
%TO.P,J6,5,Pin_5*%
%TO.N,Net-(J6-Pin_5)*%
X120000000Y-99500000D03*
%TD*%
D12*
%TO.P,J9,1,Pin_1*%
%TO.N,GND*%
X90000000Y-123500000D03*
D13*
%TO.P,J9,2,Pin_2*%
%TO.N,+24V*%
X90000000Y-126000000D03*
%TO.P,J9,3,Pin_3*%
%TO.N,+5V*%
X90000000Y-128500000D03*
%TO.P,J9,4,Pin_4*%
%TO.N,Net-(J9-Pin_4)*%
X90000000Y-131000000D03*
%TO.P,J9,5,Pin_5*%
%TO.N,Net-(J9-Pin_5)*%
X90000000Y-133500000D03*
%TD*%
D12*
%TO.P,J10,1,Pin_1*%
%TO.N,GND*%
X105000000Y-123500000D03*
D13*
%TO.P,J10,2,Pin_2*%
%TO.N,+24V*%
X105000000Y-126000000D03*
%TO.P,J10,3,Pin_3*%
%TO.N,+5V*%
X105000000Y-128500000D03*
%TO.P,J10,4,Pin_4*%
%TO.N,Net-(J10-Pin_4)*%
X105000000Y-131000000D03*
%TO.P,J10,5,Pin_5*%
%TO.N,Net-(J10-Pin_5)*%
X105000000Y-133500000D03*
%TD*%
D20*
%TO.P,J1,1,Pin_1*%
%TO.N,GND*%
X169500000Y-64250000D03*
D21*
%TO.P,J1,2,Pin_2*%
%TO.N,+24V*%
X169500000Y-66750000D03*
%TD*%
D12*
%TO.P,J7,1,Pin_1*%
%TO.N,GND*%
X105000000Y-89500000D03*
D13*
%TO.P,J7,2,Pin_2*%
%TO.N,+24V*%
X105000000Y-92000000D03*
%TO.P,J7,3,Pin_3*%
%TO.N,+5V*%
X105000000Y-94500000D03*
%TO.P,J7,4,Pin_4*%
%TO.N,Net-(J7-Pin_4)*%
X105000000Y-97000000D03*
%TO.P,J7,5,Pin_5*%
%TO.N,Net-(J7-Pin_5)*%
X105000000Y-99500000D03*
%TD*%
D12*
%TO.P,J14,1,Pin_1*%
%TO.N,GND*%
X165000000Y-123000000D03*
D13*
%TO.P,J14,2,Pin_2*%
%TO.N,+24V*%
X165000000Y-125500000D03*
%TO.P,J14,3,Pin_3*%
%TO.N,+5V*%
X165000000Y-128000000D03*
%TO.P,J14,4,Pin_4*%
%TO.N,Net-(J14-Pin_4)*%
X165000000Y-130500000D03*
%TO.P,J14,5,Pin_5*%
%TO.N,Net-(J14-Pin_5)*%
X165000000Y-133000000D03*
%TD*%
D22*
%TO.N,+24V*%
X165000000Y-92000000D02*
X171000000Y-98000000D01*
X171000000Y-119500000D02*
X165000000Y-125500000D01*
X171000000Y-98000000D02*
X171000000Y-119500000D01*
%TO.N,GND*%
X163000000Y-123500000D02*
X164500000Y-123500000D01*
X90000000Y-89500000D02*
X165000000Y-89500000D01*
X165000000Y-89500000D02*
X161000000Y-89500000D01*
X170000000Y-78750000D02*
X170000000Y-84500000D01*
X193200000Y-90200000D02*
X193200000Y-74550000D01*
X164500000Y-123500000D02*
X165000000Y-123000000D01*
X196390000Y-93390000D02*
X193200000Y-90200000D01*
X197410000Y-94970000D02*
X196390000Y-93950000D01*
X196390000Y-93950000D02*
X196390000Y-93390000D01*
X170000000Y-84500000D02*
X165000000Y-89500000D01*
X156500000Y-94000000D02*
X156500000Y-117000000D01*
X90000000Y-123500000D02*
X163000000Y-123500000D01*
X161000000Y-89500000D02*
X156500000Y-94000000D01*
X156500000Y-117000000D02*
X163000000Y-123500000D01*
X215540000Y-93820000D02*
X214390000Y-94970000D01*
X214390000Y-94970000D02*
X197410000Y-94970000D01*
%TO.N,Net-(J2-GPIO14)*%
X207500000Y-102773654D02*
X212523654Y-97750000D01*
X201910000Y-134590000D02*
X207500000Y-129000000D01*
X214150000Y-97750000D02*
X215540000Y-96360000D01*
X207500000Y-129000000D02*
X207500000Y-102773654D01*
X212523654Y-97750000D02*
X214150000Y-97750000D01*
X196390000Y-134590000D02*
X201910000Y-134590000D01*
%TO.N,Net-(J2-GPIO15)*%
X212210000Y-100290000D02*
X210000000Y-102500000D01*
X196520000Y-137000000D02*
X196390000Y-137130000D01*
X202000000Y-137000000D02*
X196520000Y-137000000D01*
X214150000Y-100290000D02*
X212210000Y-100290000D01*
X215540000Y-98900000D02*
X214150000Y-100290000D01*
X210000000Y-129000000D02*
X202000000Y-137000000D01*
X210000000Y-102500000D02*
X210000000Y-129000000D01*
%TD*%
%TA.AperFunction,Conductor*%
%TO.N,GND*%
G36*
X175560164Y-62519685D02*
G01*
X175605919Y-62572489D01*
X175615863Y-62641647D01*
X175586838Y-62705203D01*
X175569287Y-62721853D01*
X175448222Y-62816081D01*
X175448219Y-62816084D01*
X175291016Y-62986852D01*
X175164075Y-63181151D01*
X175070842Y-63393699D01*
X175013866Y-63618691D01*
X175013864Y-63618702D01*
X174994700Y-63849993D01*
X174994700Y-63850006D01*
X175013864Y-64081297D01*
X175013866Y-64081308D01*
X175070842Y-64306300D01*
X175164075Y-64518848D01*
X175291016Y-64713147D01*
X175291019Y-64713151D01*
X175291021Y-64713153D01*
X175448216Y-64883913D01*
X175448219Y-64883915D01*
X175448222Y-64883918D01*
X175631365Y-65026464D01*
X175631371Y-65026468D01*
X175631374Y-65026470D01*
X175835497Y-65136936D01*
X175949487Y-65176068D01*
X176055015Y-65212297D01*
X176055017Y-65212297D01*
X176055019Y-65212298D01*
X176283951Y-65250500D01*
X176283952Y-65250500D01*
X176516048Y-65250500D01*
X176516049Y-65250500D01*
X176744981Y-65212298D01*
X176964503Y-65136936D01*
X177168626Y-65026470D01*
X177351784Y-64883913D01*
X177508979Y-64713153D01*
X177635924Y-64518849D01*
X177729157Y-64306300D01*
X177786134Y-64081305D01*
X177786135Y-64081297D01*
X177805300Y-63850006D01*
X177805300Y-63849993D01*
X177786135Y-63618702D01*
X177786133Y-63618691D01*
X177729157Y-63393699D01*
X177635924Y-63181151D01*
X177508983Y-62986852D01*
X177508980Y-62986849D01*
X177508979Y-62986847D01*
X177351784Y-62816087D01*
X177351779Y-62816083D01*
X177351777Y-62816081D01*
X177230713Y-62721853D01*
X177189900Y-62665143D01*
X177186225Y-62595370D01*
X177220857Y-62534687D01*
X177282798Y-62502360D01*
X177306875Y-62500000D01*
X178893125Y-62500000D01*
X178960164Y-62519685D01*
X179005919Y-62572489D01*
X179015863Y-62641647D01*
X178986838Y-62705203D01*
X178969287Y-62721853D01*
X178848222Y-62816081D01*
X178848219Y-62816084D01*
X178691016Y-62986852D01*
X178564075Y-63181151D01*
X178470842Y-63393699D01*
X178413866Y-63618691D01*
X178413864Y-63618702D01*
X178394700Y-63849993D01*
X178394700Y-63850006D01*
X178413864Y-64081297D01*
X178413866Y-64081308D01*
X178470842Y-64306300D01*
X178564075Y-64518848D01*
X178691016Y-64713147D01*
X178691019Y-64713151D01*
X178691021Y-64713153D01*
X178848216Y-64883913D01*
X178848219Y-64883915D01*
X178848222Y-64883918D01*
X179031365Y-65026464D01*
X179031371Y-65026468D01*
X179031374Y-65026470D01*
X179235497Y-65136936D01*
X179349487Y-65176068D01*
X179455015Y-65212297D01*
X179455017Y-65212297D01*
X179455019Y-65212298D01*
X179683951Y-65250500D01*
X179683952Y-65250500D01*
X179916048Y-65250500D01*
X179916049Y-65250500D01*
X180144981Y-65212298D01*
X180364503Y-65136936D01*
X180568626Y-65026470D01*
X180751784Y-64883913D01*
X180908979Y-64713153D01*
X181035924Y-64518849D01*
X181129157Y-64306300D01*
X181186134Y-64081305D01*
X181186135Y-64081297D01*
X181205300Y-63850006D01*
X181205300Y-63849993D01*
X181186135Y-63618702D01*
X181186133Y-63618691D01*
X181129157Y-63393699D01*
X181035924Y-63181151D01*
X180908983Y-62986852D01*
X180908980Y-62986849D01*
X180908979Y-62986847D01*
X180751784Y-62816087D01*
X180751779Y-62816083D01*
X180751777Y-62816081D01*
X180630713Y-62721853D01*
X180589900Y-62665143D01*
X180586225Y-62595370D01*
X180620857Y-62534687D01*
X180682798Y-62502360D01*
X180706875Y-62500000D01*
X187937342Y-62500000D01*
X188004381Y-62519685D01*
X188037167Y-62550441D01*
X195000000Y-72000000D01*
X200376000Y-72000000D01*
X200443039Y-72019685D01*
X200488794Y-72072489D01*
X200500000Y-72124000D01*
X200500000Y-73746833D01*
X200480315Y-73813872D01*
X200427511Y-73859627D01*
X200358353Y-73869571D01*
X200294797Y-73840546D01*
X200280463Y-73824652D01*
X200279025Y-73824526D01*
X199600000Y-74503551D01*
X199600000Y-74497339D01*
X199572741Y-74395606D01*
X199520080Y-74304394D01*
X199445606Y-74229920D01*
X199354394Y-74177259D01*
X199252661Y-74150000D01*
X199246445Y-74150000D01*
X199925472Y-73470974D01*
X199852478Y-73419863D01*
X199646331Y-73323735D01*
X199646317Y-73323730D01*
X199426610Y-73264860D01*
X199426599Y-73264858D01*
X199200002Y-73245034D01*
X199199998Y-73245034D01*
X198973400Y-73264858D01*
X198973389Y-73264860D01*
X198753682Y-73323730D01*
X198753673Y-73323734D01*
X198547516Y-73419866D01*
X198547512Y-73419868D01*
X198474526Y-73470973D01*
X198474526Y-73470974D01*
X199153553Y-74150000D01*
X199147339Y-74150000D01*
X199045606Y-74177259D01*
X198954394Y-74229920D01*
X198879920Y-74304394D01*
X198827259Y-74395606D01*
X198800000Y-74497339D01*
X198800000Y-74503552D01*
X198120974Y-73824526D01*
X198120973Y-73824526D01*
X198069868Y-73897512D01*
X198069866Y-73897516D01*
X197973734Y-74103673D01*
X197973730Y-74103682D01*
X197914860Y-74323389D01*
X197914858Y-74323400D01*
X197895034Y-74549997D01*
X197895034Y-74550002D01*
X197914858Y-74776599D01*
X197914860Y-74776610D01*
X197973730Y-74996317D01*
X197973735Y-74996331D01*
X198069863Y-75202478D01*
X198120974Y-75275472D01*
X198800000Y-74596446D01*
X198800000Y-74602661D01*
X198827259Y-74704394D01*
X198879920Y-74795606D01*
X198954394Y-74870080D01*
X199045606Y-74922741D01*
X199147339Y-74950000D01*
X199153553Y-74950000D01*
X198474526Y-75629025D01*
X198547513Y-75680132D01*
X198547521Y-75680136D01*
X198753668Y-75776264D01*
X198753682Y-75776269D01*
X198973389Y-75835139D01*
X198973400Y-75835141D01*
X199199998Y-75854966D01*
X199200002Y-75854966D01*
X199426599Y-75835141D01*
X199426610Y-75835139D01*
X199646317Y-75776269D01*
X199646331Y-75776264D01*
X199852478Y-75680136D01*
X199925471Y-75629024D01*
X199246447Y-74950000D01*
X199252661Y-74950000D01*
X199354394Y-74922741D01*
X199445606Y-74870080D01*
X199520080Y-74795606D01*
X199572741Y-74704394D01*
X199600000Y-74602661D01*
X199600000Y-74596447D01*
X200279025Y-75275472D01*
X200283086Y-75275116D01*
X200329003Y-75238415D01*
X200398502Y-75231223D01*
X200460856Y-75262746D01*
X200496269Y-75322976D01*
X200500000Y-75353164D01*
X200500000Y-76876000D01*
X200480315Y-76943039D01*
X200427511Y-76988794D01*
X200376000Y-77000000D01*
X176000000Y-77000000D01*
X175345338Y-77523730D01*
X175345333Y-77523734D01*
X175225168Y-77619866D01*
X174719343Y-78024526D01*
X174370398Y-78303682D01*
X174254443Y-78396446D01*
X173529238Y-78976610D01*
X172181293Y-80054966D01*
X171033965Y-80972828D01*
X170969319Y-80999336D01*
X170956503Y-81000000D01*
X167624000Y-81000000D01*
X167556961Y-80980315D01*
X167511206Y-80927511D01*
X167500000Y-80876000D01*
X167500000Y-78749997D01*
X168695034Y-78749997D01*
X168695034Y-78750002D01*
X168714858Y-78976599D01*
X168714860Y-78976610D01*
X168773730Y-79196317D01*
X168773735Y-79196331D01*
X168869863Y-79402478D01*
X168920974Y-79475472D01*
X169600000Y-78796446D01*
X169600000Y-78802661D01*
X169627259Y-78904394D01*
X169679920Y-78995606D01*
X169754394Y-79070080D01*
X169845606Y-79122741D01*
X169947339Y-79150000D01*
X169953553Y-79150000D01*
X169274526Y-79829025D01*
X169347513Y-79880132D01*
X169347521Y-79880136D01*
X169553668Y-79976264D01*
X169553682Y-79976269D01*
X169773389Y-80035139D01*
X169773400Y-80035141D01*
X169999998Y-80054966D01*
X170000002Y-80054966D01*
X170226599Y-80035141D01*
X170226610Y-80035139D01*
X170446317Y-79976269D01*
X170446331Y-79976264D01*
X170652478Y-79880136D01*
X170725471Y-79829024D01*
X170046447Y-79150000D01*
X170052661Y-79150000D01*
X170154394Y-79122741D01*
X170245606Y-79070080D01*
X170320080Y-78995606D01*
X170372741Y-78904394D01*
X170400000Y-78802661D01*
X170400000Y-78796447D01*
X171079024Y-79475471D01*
X171130136Y-79402478D01*
X171226264Y-79196331D01*
X171226269Y-79196317D01*
X171285139Y-78976610D01*
X171285141Y-78976599D01*
X171304966Y-78750002D01*
X171304966Y-78749997D01*
X171285141Y-78523400D01*
X171285139Y-78523389D01*
X171226269Y-78303682D01*
X171226264Y-78303668D01*
X171130136Y-78097521D01*
X171130132Y-78097513D01*
X171079025Y-78024526D01*
X170400000Y-78703551D01*
X170400000Y-78697339D01*
X170372741Y-78595606D01*
X170320080Y-78504394D01*
X170245606Y-78429920D01*
X170154394Y-78377259D01*
X170052661Y-78350000D01*
X170046445Y-78350000D01*
X170725472Y-77670974D01*
X170652478Y-77619863D01*
X170446331Y-77523735D01*
X170446317Y-77523730D01*
X170226610Y-77464860D01*
X170226599Y-77464858D01*
X170000002Y-77445034D01*
X169999998Y-77445034D01*
X169773400Y-77464858D01*
X169773389Y-77464860D01*
X169553682Y-77523730D01*
X169553673Y-77523734D01*
X169347516Y-77619866D01*
X169347512Y-77619868D01*
X169274526Y-77670973D01*
X169274526Y-77670974D01*
X169953553Y-78350000D01*
X169947339Y-78350000D01*
X169845606Y-78377259D01*
X169754394Y-78429920D01*
X169679920Y-78504394D01*
X169627259Y-78595606D01*
X169600000Y-78697339D01*
X169600000Y-78703552D01*
X168920974Y-78024526D01*
X168920973Y-78024526D01*
X168869868Y-78097512D01*
X168869866Y-78097516D01*
X168773734Y-78303673D01*
X168773730Y-78303682D01*
X168714860Y-78523389D01*
X168714858Y-78523400D01*
X168695034Y-78749997D01*
X167500000Y-78749997D01*
X167500000Y-73749998D01*
X168694532Y-73749998D01*
X168694532Y-73750001D01*
X168714364Y-73976686D01*
X168714366Y-73976697D01*
X168773258Y-74196488D01*
X168773261Y-74196497D01*
X168869431Y-74402732D01*
X168869432Y-74402734D01*
X168999954Y-74589141D01*
X169160858Y-74750045D01*
X169160861Y-74750047D01*
X169347266Y-74880568D01*
X169553504Y-74976739D01*
X169773308Y-75035635D01*
X169935230Y-75049801D01*
X169999998Y-75055468D01*
X170000000Y-75055468D01*
X170000002Y-75055468D01*
X170056673Y-75050509D01*
X170226692Y-75035635D01*
X170446496Y-74976739D01*
X170652734Y-74880568D01*
X170839139Y-74750047D01*
X171000047Y-74589139D01*
X171130568Y-74402734D01*
X171226739Y-74196496D01*
X171285635Y-73976692D01*
X171305468Y-73750000D01*
X171285635Y-73523308D01*
X171226739Y-73303504D01*
X171130568Y-73097266D01*
X171000047Y-72910861D01*
X171000045Y-72910858D01*
X170991322Y-72902135D01*
X175859500Y-72902135D01*
X175859500Y-76197870D01*
X175859501Y-76197876D01*
X175865908Y-76257483D01*
X175916202Y-76392328D01*
X175916206Y-76392335D01*
X176002452Y-76507544D01*
X176002455Y-76507547D01*
X176117664Y-76593793D01*
X176117671Y-76593797D01*
X176252517Y-76644091D01*
X176252516Y-76644091D01*
X176259444Y-76644835D01*
X176312127Y-76650500D01*
X179607872Y-76650499D01*
X179667483Y-76644091D01*
X179802331Y-76593796D01*
X179917546Y-76507546D01*
X180003796Y-76392331D01*
X180054091Y-76257483D01*
X180060500Y-76197873D01*
X180060499Y-74299999D01*
X191112192Y-74299999D01*
X191112193Y-74300000D01*
X192437639Y-74300000D01*
X192430743Y-74316649D01*
X192400000Y-74471207D01*
X192400000Y-74628793D01*
X192430743Y-74783351D01*
X192437639Y-74800000D01*
X191112193Y-74800000D01*
X191114697Y-74836619D01*
X191173146Y-75117888D01*
X191173150Y-75117902D01*
X191269355Y-75388595D01*
X191401527Y-75643676D01*
X191567204Y-75878385D01*
X191567204Y-75878386D01*
X191763288Y-76088341D01*
X191986135Y-76269641D01*
X191986146Y-76269648D01*
X192231607Y-76418917D01*
X192495108Y-76533371D01*
X192771737Y-76610879D01*
X192771746Y-76610881D01*
X192949999Y-76635380D01*
X192950000Y-76635380D01*
X192950000Y-75312360D01*
X192966649Y-75319257D01*
X193121207Y-75350000D01*
X193278793Y-75350000D01*
X193433351Y-75319257D01*
X193450000Y-75312360D01*
X193450000Y-76635380D01*
X193628253Y-76610881D01*
X193628262Y-76610879D01*
X193904891Y-76533371D01*
X194168392Y-76418917D01*
X194413853Y-76269648D01*
X194413864Y-76269641D01*
X194636711Y-76088341D01*
X194832795Y-75878386D01*
X194832795Y-75878385D01*
X194998472Y-75643676D01*
X195130644Y-75388595D01*
X195226849Y-75117902D01*
X195226853Y-75117888D01*
X195285302Y-74836619D01*
X195287807Y-74800000D01*
X193962361Y-74800000D01*
X193969257Y-74783351D01*
X194000000Y-74628793D01*
X194000000Y-74471207D01*
X193969257Y-74316649D01*
X193962361Y-74300000D01*
X195287807Y-74300000D01*
X195287807Y-74299999D01*
X195285302Y-74263380D01*
X195226853Y-73982111D01*
X195226846Y-73982086D01*
X195130644Y-73711404D01*
X194998472Y-73456323D01*
X194832795Y-73221614D01*
X194832795Y-73221613D01*
X194636711Y-73011658D01*
X194413864Y-72830358D01*
X194413853Y-72830351D01*
X194168392Y-72681082D01*
X193904891Y-72566628D01*
X193628262Y-72489120D01*
X193628255Y-72489119D01*
X193450000Y-72464618D01*
X193450000Y-73787639D01*
X193433351Y-73780743D01*
X193278793Y-73750000D01*
X193121207Y-73750000D01*
X192966649Y-73780743D01*
X192950000Y-73787639D01*
X192950000Y-72464618D01*
X192771744Y-72489119D01*
X192771737Y-72489120D01*
X192495108Y-72566628D01*
X192231607Y-72681082D01*
X191986146Y-72830351D01*
X191986135Y-72830358D01*
X191763288Y-73011658D01*
X191567204Y-73221613D01*
X191567204Y-73221614D01*
X191401527Y-73456323D01*
X191269355Y-73711404D01*
X191173154Y-73982086D01*
X191173146Y-73982111D01*
X191114697Y-74263380D01*
X191112192Y-74299999D01*
X180060499Y-74299999D01*
X180060499Y-72902128D01*
X180054091Y-72842517D01*
X180049553Y-72830351D01*
X180003797Y-72707671D01*
X180003793Y-72707664D01*
X179917547Y-72592455D01*
X179917544Y-72592452D01*
X179802335Y-72506206D01*
X179802328Y-72506202D01*
X179667482Y-72455908D01*
X179667483Y-72455908D01*
X179607883Y-72449501D01*
X179607881Y-72449500D01*
X179607873Y-72449500D01*
X179607864Y-72449500D01*
X176312129Y-72449500D01*
X176312123Y-72449501D01*
X176252516Y-72455908D01*
X176117671Y-72506202D01*
X176117664Y-72506206D01*
X176002455Y-72592452D01*
X176002452Y-72592455D01*
X175916206Y-72707664D01*
X175916202Y-72707671D01*
X175865908Y-72842517D01*
X175859501Y-72902116D01*
X175859501Y-72902123D01*
X175859500Y-72902135D01*
X170991322Y-72902135D01*
X170839141Y-72749954D01*
X170652734Y-72619432D01*
X170652732Y-72619431D01*
X170446497Y-72523261D01*
X170446488Y-72523258D01*
X170226697Y-72464366D01*
X170226693Y-72464365D01*
X170226692Y-72464365D01*
X170226691Y-72464364D01*
X170226686Y-72464364D01*
X170000002Y-72444532D01*
X169999998Y-72444532D01*
X169773313Y-72464364D01*
X169773302Y-72464366D01*
X169553511Y-72523258D01*
X169553502Y-72523261D01*
X169347267Y-72619431D01*
X169347265Y-72619432D01*
X169160858Y-72749954D01*
X168999954Y-72910858D01*
X168869432Y-73097265D01*
X168869431Y-73097267D01*
X168773261Y-73303502D01*
X168773258Y-73303511D01*
X168714366Y-73523302D01*
X168714364Y-73523313D01*
X168694532Y-73749998D01*
X167500000Y-73749998D01*
X167500000Y-66643713D01*
X167999500Y-66643713D01*
X167999500Y-66856286D01*
X168028198Y-67037482D01*
X168032754Y-67066243D01*
X168080208Y-67212292D01*
X168098444Y-67268414D01*
X168194951Y-67457820D01*
X168319890Y-67629786D01*
X168470213Y-67780109D01*
X168642179Y-67905048D01*
X168642181Y-67905049D01*
X168642184Y-67905051D01*
X168831588Y-68001557D01*
X169033757Y-68067246D01*
X169243713Y-68100500D01*
X169243714Y-68100500D01*
X169756286Y-68100500D01*
X169756287Y-68100500D01*
X169966243Y-68067246D01*
X170168412Y-68001557D01*
X170357816Y-67905051D01*
X170381687Y-67887708D01*
X170529786Y-67780109D01*
X170529788Y-67780106D01*
X170529792Y-67780104D01*
X170680104Y-67629792D01*
X170680106Y-67629788D01*
X170680109Y-67629786D01*
X170805048Y-67457820D01*
X170805047Y-67457820D01*
X170805051Y-67457816D01*
X170901557Y-67268412D01*
X170967246Y-67066243D01*
X171000500Y-66856287D01*
X171000500Y-66643713D01*
X170993915Y-66602135D01*
X173299500Y-66602135D01*
X173299500Y-68497870D01*
X173299501Y-68497876D01*
X173305908Y-68557483D01*
X173356202Y-68692328D01*
X173356206Y-68692335D01*
X173442452Y-68807544D01*
X173442455Y-68807547D01*
X173557664Y-68893793D01*
X173557671Y-68893797D01*
X173692517Y-68944091D01*
X173692516Y-68944091D01*
X173699444Y-68944835D01*
X173752127Y-68950500D01*
X175647872Y-68950499D01*
X175707483Y-68944091D01*
X175842331Y-68893796D01*
X175957546Y-68807546D01*
X176043796Y-68692331D01*
X176094091Y-68557483D01*
X176100500Y-68497873D01*
X176100499Y-67300000D01*
X176719117Y-67300000D01*
X177609252Y-67300000D01*
X177587482Y-67337708D01*
X177550000Y-67477591D01*
X177550000Y-67622409D01*
X177587482Y-67762292D01*
X177609252Y-67800000D01*
X176719117Y-67800000D01*
X176771317Y-68006135D01*
X176864516Y-68218609D01*
X176991414Y-68412842D01*
X177148558Y-68583545D01*
X177148562Y-68583548D01*
X177331644Y-68726047D01*
X177331648Y-68726050D01*
X177535697Y-68836476D01*
X177535706Y-68836479D01*
X177755139Y-68911811D01*
X177849999Y-68927640D01*
X177850000Y-68927639D01*
X177850000Y-68040747D01*
X177887708Y-68062518D01*
X178027591Y-68100000D01*
X178172409Y-68100000D01*
X178312292Y-68062518D01*
X178350000Y-68040747D01*
X178350000Y-68927640D01*
X178444860Y-68911811D01*
X178664293Y-68836479D01*
X178664302Y-68836476D01*
X178868351Y-68726050D01*
X178868355Y-68726047D01*
X179051437Y-68583548D01*
X179051441Y-68583545D01*
X179208585Y-68412842D01*
X179335483Y-68218609D01*
X179428682Y-68006135D01*
X179480883Y-67800000D01*
X178590748Y-67800000D01*
X178612518Y-67762292D01*
X178650000Y-67622409D01*
X178650000Y-67477591D01*
X178612518Y-67337708D01*
X178590748Y-67300000D01*
X179480883Y-67300000D01*
X180119117Y-67300000D01*
X181009252Y-67300000D01*
X180987482Y-67337708D01*
X180950000Y-67477591D01*
X180950000Y-67622409D01*
X180987482Y-67762292D01*
X181009252Y-67800000D01*
X180119117Y-67800000D01*
X180171317Y-68006135D01*
X180264516Y-68218609D01*
X180391414Y-68412842D01*
X180548558Y-68583545D01*
X180548562Y-68583548D01*
X180731644Y-68726047D01*
X180731648Y-68726050D01*
X180935697Y-68836476D01*
X180935706Y-68836479D01*
X181155139Y-68911811D01*
X181249999Y-68927640D01*
X181250000Y-68927639D01*
X181250000Y-68040747D01*
X181287708Y-68062518D01*
X181427591Y-68100000D01*
X181572409Y-68100000D01*
X181712292Y-68062518D01*
X181750000Y-68040747D01*
X181750000Y-68927640D01*
X181844860Y-68911811D01*
X182064293Y-68836479D01*
X182064302Y-68836476D01*
X182268351Y-68726050D01*
X182268355Y-68726047D01*
X182451437Y-68583548D01*
X182451441Y-68583545D01*
X182608585Y-68412842D01*
X182735483Y-68218609D01*
X182828682Y-68006135D01*
X182880883Y-67800000D01*
X181990748Y-67800000D01*
X182012518Y-67762292D01*
X182050000Y-67622409D01*
X182050000Y-67477591D01*
X182012518Y-67337708D01*
X181990748Y-67300000D01*
X182880883Y-67300000D01*
X182828682Y-67093864D01*
X182735483Y-66881390D01*
X182608585Y-66687157D01*
X182451441Y-66516454D01*
X182451437Y-66516451D01*
X182268355Y-66373952D01*
X182268351Y-66373949D01*
X182064302Y-66263523D01*
X182064293Y-66263520D01*
X181844861Y-66188188D01*
X181750000Y-66172359D01*
X181750000Y-67059252D01*
X181712292Y-67037482D01*
X181572409Y-67000000D01*
X181427591Y-67000000D01*
X181287708Y-67037482D01*
X181250000Y-67059252D01*
X181250000Y-66172359D01*
X181249999Y-66172359D01*
X181155138Y-66188188D01*
X180935706Y-66263520D01*
X180935697Y-66263523D01*
X180731648Y-66373949D01*
X180731644Y-66373952D01*
X180548562Y-66516451D01*
X180548558Y-66516454D01*
X180391414Y-66687157D01*
X180264516Y-66881390D01*
X180171317Y-67093864D01*
X180119117Y-67300000D01*
X179480883Y-67300000D01*
X179428682Y-67093864D01*
X179335483Y-66881390D01*
X179208585Y-66687157D01*
X179051441Y-66516454D01*
X179051437Y-66516451D01*
X178868355Y-66373952D01*
X178868351Y-66373949D01*
X178664302Y-66263523D01*
X178664293Y-66263520D01*
X178444861Y-66188188D01*
X178350000Y-66172359D01*
X178350000Y-67059252D01*
X178312292Y-67037482D01*
X178172409Y-67000000D01*
X178027591Y-67000000D01*
X177887708Y-67037482D01*
X177850000Y-67059252D01*
X177850000Y-66172359D01*
X177849999Y-66172359D01*
X177755138Y-66188188D01*
X177535706Y-66263520D01*
X177535697Y-66263523D01*
X177331648Y-66373949D01*
X177331644Y-66373952D01*
X177148562Y-66516451D01*
X177148558Y-66516454D01*
X176991414Y-66687157D01*
X176864516Y-66881390D01*
X176771317Y-67093864D01*
X176719117Y-67300000D01*
X176100499Y-67300000D01*
X176100499Y-66602128D01*
X176094091Y-66542517D01*
X176053527Y-66433760D01*
X176043797Y-66407671D01*
X176043793Y-66407664D01*
X175957547Y-66292455D01*
X175957544Y-66292452D01*
X175842335Y-66206206D01*
X175842328Y-66206202D01*
X175707482Y-66155908D01*
X175707483Y-66155908D01*
X175647883Y-66149501D01*
X175647881Y-66149500D01*
X175647873Y-66149500D01*
X175647864Y-66149500D01*
X173752129Y-66149500D01*
X173752123Y-66149501D01*
X173692516Y-66155908D01*
X173557671Y-66206202D01*
X173557664Y-66206206D01*
X173442455Y-66292452D01*
X173442452Y-66292455D01*
X173356206Y-66407664D01*
X173356202Y-66407671D01*
X173305908Y-66542517D01*
X173299501Y-66602116D01*
X173299501Y-66602123D01*
X173299500Y-66602135D01*
X170993915Y-66602135D01*
X170967246Y-66433757D01*
X170901557Y-66231588D01*
X170805051Y-66042184D01*
X170805049Y-66042181D01*
X170805048Y-66042179D01*
X170680109Y-65870213D01*
X170540931Y-65731035D01*
X170507446Y-65669712D01*
X170512430Y-65600020D01*
X170554302Y-65544087D01*
X170563516Y-65537815D01*
X170718343Y-65442317D01*
X170842315Y-65318345D01*
X170934356Y-65169124D01*
X170934358Y-65169119D01*
X170989505Y-65002697D01*
X170989506Y-65002690D01*
X170999999Y-64899986D01*
X171000000Y-64899973D01*
X171000000Y-64500000D01*
X169933012Y-64500000D01*
X169965925Y-64442993D01*
X170000000Y-64315826D01*
X170000000Y-64184174D01*
X169965925Y-64057007D01*
X169933012Y-64000000D01*
X170999999Y-64000000D01*
X170999999Y-63600028D01*
X170999998Y-63600013D01*
X170989505Y-63497302D01*
X170934358Y-63330880D01*
X170934356Y-63330875D01*
X170842315Y-63181654D01*
X170718345Y-63057684D01*
X170569124Y-62965643D01*
X170569119Y-62965641D01*
X170402697Y-62910494D01*
X170402690Y-62910493D01*
X170299986Y-62900000D01*
X169750000Y-62900000D01*
X169750000Y-63816988D01*
X169692993Y-63784075D01*
X169565826Y-63750000D01*
X169434174Y-63750000D01*
X169307007Y-63784075D01*
X169250000Y-63816988D01*
X169250000Y-62900000D01*
X168700028Y-62900000D01*
X168700012Y-62900001D01*
X168597302Y-62910494D01*
X168430880Y-62965641D01*
X168430875Y-62965643D01*
X168281654Y-63057684D01*
X168157684Y-63181654D01*
X168065643Y-63330875D01*
X168065641Y-63330880D01*
X168010494Y-63497302D01*
X168010493Y-63497309D01*
X168000000Y-63600013D01*
X168000000Y-64000000D01*
X169066988Y-64000000D01*
X169034075Y-64057007D01*
X169000000Y-64184174D01*
X169000000Y-64315826D01*
X169034075Y-64442993D01*
X169066988Y-64500000D01*
X168000001Y-64500000D01*
X168000001Y-64899986D01*
X168010494Y-65002697D01*
X168065641Y-65169119D01*
X168065643Y-65169124D01*
X168157684Y-65318345D01*
X168281654Y-65442315D01*
X168436484Y-65537815D01*
X168483208Y-65589763D01*
X168494431Y-65658726D01*
X168466587Y-65722808D01*
X168459069Y-65731035D01*
X168319889Y-65870215D01*
X168194951Y-66042179D01*
X168098444Y-66231585D01*
X168032753Y-66433760D01*
X167999500Y-66643713D01*
X167500000Y-66643713D01*
X167500000Y-62624000D01*
X167519685Y-62556961D01*
X167572489Y-62511206D01*
X167624000Y-62500000D01*
X175493125Y-62500000D01*
X175560164Y-62519685D01*
G37*
%TD.AperFunction*%
%TD*%
M02*
