%TF.GenerationSoftware,KiCad,Pcbnew,8.0.8-8.0.8-0~ubuntu24.04.1*%
%TF.CreationDate,2025-04-08T09:18:34-05:00*%
%TF.ProjectId,wasabi,77617361-6269-42e6-9b69-6361645f7063,rev?*%
%TF.SameCoordinates,Original*%
%TF.FileFunction,Drillmap*%
%TF.FilePolarity,Positive*%
%FSLAX45Y45*%
G04 Gerber Fmt 4.5, Leading zero omitted, Abs format (unit mm)*
G04 Created by KiCad (PCBNEW 8.0.8-8.0.8-0~ubuntu24.04.1) date 2025-04-08 09:18:34*
%MOMM*%
%LPD*%
G01*
G04 APERTURE LIST*
%ADD10C,0.050000*%
%ADD11C,0.200000*%
%ADD12C,0.100000*%
%ADD13C,0.110000*%
%ADD14C,0.160000*%
G04 APERTURE END LIST*
D10*
X7700000Y-14700000D02*
X20000000Y-14700000D01*
D11*
X19395000Y-13700000D02*
G75*
G02*
X19045000Y-13700000I-175000J0D01*
G01*
X19045000Y-13700000D02*
G75*
G02*
X19395000Y-13700000I175000J0D01*
G01*
D10*
X11650000Y-5650000D02*
X10050000Y-5650000D01*
X16700000Y-5600000D02*
X16300000Y-5200000D01*
X10050000Y-5650000D02*
X8750000Y-6950000D01*
D11*
X14525000Y-13700000D02*
G75*
G02*
X14175000Y-13700000I-175000J0D01*
G01*
X14175000Y-13700000D02*
G75*
G02*
X14525000Y-13700000I175000J0D01*
G01*
D10*
X7100000Y-7500000D02*
X7100000Y-13500000D01*
X7100000Y-13500000D02*
X7100000Y-14100000D01*
X16050000Y-4100000D02*
X13200000Y-4100000D01*
X7650000Y-6950000D02*
X7100000Y-7500000D01*
X18200000Y-5600000D02*
X16700000Y-5600000D01*
X20400000Y-7800000D02*
X18200000Y-5600000D01*
X20400000Y-14300000D02*
X20400000Y-7800000D01*
X20000000Y-14700000D02*
X20400000Y-14300000D01*
X8750000Y-6950000D02*
X7650000Y-6950000D01*
X16300000Y-5200000D02*
X16300000Y-4350000D01*
X7100000Y-14100000D02*
X7700000Y-14700000D01*
X16300000Y-4350000D02*
X16050000Y-4100000D01*
X13200000Y-4100000D02*
X11650000Y-5650000D01*
D11*
X14525000Y-7900000D02*
G75*
G02*
X14175000Y-7900000I-175000J0D01*
G01*
X14175000Y-7900000D02*
G75*
G02*
X14525000Y-7900000I175000J0D01*
G01*
X19395000Y-7900000D02*
G75*
G02*
X19045000Y-7900000I-175000J0D01*
G01*
X19045000Y-7900000D02*
G75*
G02*
X19395000Y-7900000I175000J0D01*
G01*
D12*
X8395000Y-7282000D02*
X8475000Y-7362000D01*
X8475000Y-7282000D02*
X8395000Y-7362000D01*
X8395000Y-7536000D02*
X8475000Y-7616000D01*
X8475000Y-7536000D02*
X8395000Y-7616000D01*
X8395000Y-7790000D02*
X8475000Y-7870000D01*
X8475000Y-7790000D02*
X8395000Y-7870000D01*
X8395000Y-8044000D02*
X8475000Y-8124000D01*
X8475000Y-8044000D02*
X8395000Y-8124000D01*
X8395000Y-8298000D02*
X8475000Y-8378000D01*
X8475000Y-8298000D02*
X8395000Y-8378000D01*
X8395000Y-8552000D02*
X8475000Y-8632000D01*
X8475000Y-8552000D02*
X8395000Y-8632000D01*
X8395000Y-8806000D02*
X8475000Y-8886000D01*
X8475000Y-8806000D02*
X8395000Y-8886000D01*
X8395000Y-9060000D02*
X8475000Y-9140000D01*
X8475000Y-9060000D02*
X8395000Y-9140000D01*
X8395000Y-9482000D02*
X8475000Y-9562000D01*
X8475000Y-9482000D02*
X8395000Y-9562000D01*
X8395000Y-9736000D02*
X8475000Y-9816000D01*
X8475000Y-9736000D02*
X8395000Y-9816000D01*
X8395000Y-9990000D02*
X8475000Y-10070000D01*
X8475000Y-9990000D02*
X8395000Y-10070000D01*
X8395000Y-10244000D02*
X8475000Y-10324000D01*
X8475000Y-10244000D02*
X8395000Y-10324000D01*
X8395000Y-10498000D02*
X8475000Y-10578000D01*
X8475000Y-10498000D02*
X8395000Y-10578000D01*
X8395000Y-10752000D02*
X8475000Y-10832000D01*
X8475000Y-10752000D02*
X8395000Y-10832000D01*
X8395000Y-11006000D02*
X8475000Y-11086000D01*
X8475000Y-11006000D02*
X8395000Y-11086000D01*
X8395000Y-11260000D02*
X8475000Y-11340000D01*
X8475000Y-11260000D02*
X8395000Y-11340000D01*
X8420000Y-12378000D02*
X8500000Y-12458000D01*
X8500000Y-12378000D02*
X8420000Y-12458000D01*
X8420000Y-12632000D02*
X8500000Y-12712000D01*
X8500000Y-12632000D02*
X8420000Y-12712000D01*
X8420000Y-12886000D02*
X8500000Y-12966000D01*
X8500000Y-12886000D02*
X8420000Y-12966000D01*
X8420000Y-13140000D02*
X8500000Y-13220000D01*
X8500000Y-13140000D02*
X8420000Y-13220000D01*
X8420000Y-13394000D02*
X8500000Y-13474000D01*
X8500000Y-13394000D02*
X8420000Y-13474000D01*
X8420000Y-13648000D02*
X8500000Y-13728000D01*
X8500000Y-13648000D02*
X8420000Y-13728000D01*
X8420000Y-13902000D02*
X8500000Y-13982000D01*
X8500000Y-13902000D02*
X8420000Y-13982000D01*
X8420000Y-14156000D02*
X8500000Y-14236000D01*
X8500000Y-14156000D02*
X8420000Y-14236000D01*
X9645000Y-7282000D02*
X9725000Y-7362000D01*
X9725000Y-7282000D02*
X9645000Y-7362000D01*
X9645000Y-7536000D02*
X9725000Y-7616000D01*
X9725000Y-7536000D02*
X9645000Y-7616000D01*
X9645000Y-7790000D02*
X9725000Y-7870000D01*
X9725000Y-7790000D02*
X9645000Y-7870000D01*
X9645000Y-8044000D02*
X9725000Y-8124000D01*
X9725000Y-8044000D02*
X9645000Y-8124000D01*
X9645000Y-8298000D02*
X9725000Y-8378000D01*
X9725000Y-8298000D02*
X9645000Y-8378000D01*
X9645000Y-8552000D02*
X9725000Y-8632000D01*
X9725000Y-8552000D02*
X9645000Y-8632000D01*
X9645000Y-8806000D02*
X9725000Y-8886000D01*
X9725000Y-8806000D02*
X9645000Y-8886000D01*
X9645000Y-9060000D02*
X9725000Y-9140000D01*
X9725000Y-9060000D02*
X9645000Y-9140000D01*
X9645000Y-9482000D02*
X9725000Y-9562000D01*
X9725000Y-9482000D02*
X9645000Y-9562000D01*
X9645000Y-9736000D02*
X9725000Y-9816000D01*
X9725000Y-9736000D02*
X9645000Y-9816000D01*
X9645000Y-9990000D02*
X9725000Y-10070000D01*
X9725000Y-9990000D02*
X9645000Y-10070000D01*
X9645000Y-10244000D02*
X9725000Y-10324000D01*
X9725000Y-10244000D02*
X9645000Y-10324000D01*
X9645000Y-10498000D02*
X9725000Y-10578000D01*
X9725000Y-10498000D02*
X9645000Y-10578000D01*
X9645000Y-10752000D02*
X9725000Y-10832000D01*
X9725000Y-10752000D02*
X9645000Y-10832000D01*
X9645000Y-11006000D02*
X9725000Y-11086000D01*
X9725000Y-11006000D02*
X9645000Y-11086000D01*
X9645000Y-11260000D02*
X9725000Y-11340000D01*
X9725000Y-11260000D02*
X9645000Y-11340000D01*
X9670000Y-12378000D02*
X9750000Y-12458000D01*
X9750000Y-12378000D02*
X9670000Y-12458000D01*
X9670000Y-12632000D02*
X9750000Y-12712000D01*
X9750000Y-12632000D02*
X9670000Y-12712000D01*
X9670000Y-12886000D02*
X9750000Y-12966000D01*
X9750000Y-12886000D02*
X9670000Y-12966000D01*
X9670000Y-13140000D02*
X9750000Y-13220000D01*
X9750000Y-13140000D02*
X9670000Y-13220000D01*
X9670000Y-13394000D02*
X9750000Y-13474000D01*
X9750000Y-13394000D02*
X9670000Y-13474000D01*
X9670000Y-13648000D02*
X9750000Y-13728000D01*
X9750000Y-13648000D02*
X9670000Y-13728000D01*
X9670000Y-13902000D02*
X9750000Y-13982000D01*
X9750000Y-13902000D02*
X9670000Y-13982000D01*
X9670000Y-14156000D02*
X9750000Y-14236000D01*
X9750000Y-14156000D02*
X9670000Y-14236000D01*
X10995000Y-7282000D02*
X11075000Y-7362000D01*
X11075000Y-7282000D02*
X10995000Y-7362000D01*
X10995000Y-7536000D02*
X11075000Y-7616000D01*
X11075000Y-7536000D02*
X10995000Y-7616000D01*
X10995000Y-7790000D02*
X11075000Y-7870000D01*
X11075000Y-7790000D02*
X10995000Y-7870000D01*
X10995000Y-8044000D02*
X11075000Y-8124000D01*
X11075000Y-8044000D02*
X10995000Y-8124000D01*
X10995000Y-8298000D02*
X11075000Y-8378000D01*
X11075000Y-8298000D02*
X10995000Y-8378000D01*
X10995000Y-8552000D02*
X11075000Y-8632000D01*
X11075000Y-8552000D02*
X10995000Y-8632000D01*
X10995000Y-8806000D02*
X11075000Y-8886000D01*
X11075000Y-8806000D02*
X10995000Y-8886000D01*
X10995000Y-9060000D02*
X11075000Y-9140000D01*
X11075000Y-9060000D02*
X10995000Y-9140000D01*
X10995000Y-9482000D02*
X11075000Y-9562000D01*
X11075000Y-9482000D02*
X10995000Y-9562000D01*
X10995000Y-9736000D02*
X11075000Y-9816000D01*
X11075000Y-9736000D02*
X10995000Y-9816000D01*
X10995000Y-9990000D02*
X11075000Y-10070000D01*
X11075000Y-9990000D02*
X10995000Y-10070000D01*
X10995000Y-10244000D02*
X11075000Y-10324000D01*
X11075000Y-10244000D02*
X10995000Y-10324000D01*
X10995000Y-10498000D02*
X11075000Y-10578000D01*
X11075000Y-10498000D02*
X10995000Y-10578000D01*
X10995000Y-10752000D02*
X11075000Y-10832000D01*
X11075000Y-10752000D02*
X10995000Y-10832000D01*
X10995000Y-11006000D02*
X11075000Y-11086000D01*
X11075000Y-11006000D02*
X10995000Y-11086000D01*
X10995000Y-11260000D02*
X11075000Y-11340000D01*
X11075000Y-11260000D02*
X10995000Y-11340000D01*
X11020000Y-12378000D02*
X11100000Y-12458000D01*
X11100000Y-12378000D02*
X11020000Y-12458000D01*
X11020000Y-12632000D02*
X11100000Y-12712000D01*
X11100000Y-12632000D02*
X11020000Y-12712000D01*
X11020000Y-12886000D02*
X11100000Y-12966000D01*
X11100000Y-12886000D02*
X11020000Y-12966000D01*
X11020000Y-13140000D02*
X11100000Y-13220000D01*
X11100000Y-13140000D02*
X11020000Y-13220000D01*
X11020000Y-13394000D02*
X11100000Y-13474000D01*
X11100000Y-13394000D02*
X11020000Y-13474000D01*
X11020000Y-13648000D02*
X11100000Y-13728000D01*
X11100000Y-13648000D02*
X11020000Y-13728000D01*
X11020000Y-13902000D02*
X11100000Y-13982000D01*
X11100000Y-13902000D02*
X11020000Y-13982000D01*
X11020000Y-14156000D02*
X11100000Y-14236000D01*
X11100000Y-14156000D02*
X11020000Y-14236000D01*
X12245000Y-7282000D02*
X12325000Y-7362000D01*
X12325000Y-7282000D02*
X12245000Y-7362000D01*
X12245000Y-7536000D02*
X12325000Y-7616000D01*
X12325000Y-7536000D02*
X12245000Y-7616000D01*
X12245000Y-7790000D02*
X12325000Y-7870000D01*
X12325000Y-7790000D02*
X12245000Y-7870000D01*
X12245000Y-8044000D02*
X12325000Y-8124000D01*
X12325000Y-8044000D02*
X12245000Y-8124000D01*
X12245000Y-8298000D02*
X12325000Y-8378000D01*
X12325000Y-8298000D02*
X12245000Y-8378000D01*
X12245000Y-8552000D02*
X12325000Y-8632000D01*
X12325000Y-8552000D02*
X12245000Y-8632000D01*
X12245000Y-8806000D02*
X12325000Y-8886000D01*
X12325000Y-8806000D02*
X12245000Y-8886000D01*
X12245000Y-9060000D02*
X12325000Y-9140000D01*
X12325000Y-9060000D02*
X12245000Y-9140000D01*
X12245000Y-9482000D02*
X12325000Y-9562000D01*
X12325000Y-9482000D02*
X12245000Y-9562000D01*
X12245000Y-9736000D02*
X12325000Y-9816000D01*
X12325000Y-9736000D02*
X12245000Y-9816000D01*
X12245000Y-9990000D02*
X12325000Y-10070000D01*
X12325000Y-9990000D02*
X12245000Y-10070000D01*
X12245000Y-10244000D02*
X12325000Y-10324000D01*
X12325000Y-10244000D02*
X12245000Y-10324000D01*
X12245000Y-10498000D02*
X12325000Y-10578000D01*
X12325000Y-10498000D02*
X12245000Y-10578000D01*
X12245000Y-10752000D02*
X12325000Y-10832000D01*
X12325000Y-10752000D02*
X12245000Y-10832000D01*
X12245000Y-11006000D02*
X12325000Y-11086000D01*
X12325000Y-11006000D02*
X12245000Y-11086000D01*
X12245000Y-11260000D02*
X12325000Y-11340000D01*
X12325000Y-11260000D02*
X12245000Y-11340000D01*
X12270000Y-12378000D02*
X12350000Y-12458000D01*
X12350000Y-12378000D02*
X12270000Y-12458000D01*
X12270000Y-12632000D02*
X12350000Y-12712000D01*
X12350000Y-12632000D02*
X12270000Y-12712000D01*
X12270000Y-12886000D02*
X12350000Y-12966000D01*
X12350000Y-12886000D02*
X12270000Y-12966000D01*
X12270000Y-13140000D02*
X12350000Y-13220000D01*
X12350000Y-13140000D02*
X12270000Y-13220000D01*
X12270000Y-13394000D02*
X12350000Y-13474000D01*
X12350000Y-13394000D02*
X12270000Y-13474000D01*
X12270000Y-13648000D02*
X12350000Y-13728000D01*
X12350000Y-13648000D02*
X12270000Y-13728000D01*
X12270000Y-13902000D02*
X12350000Y-13982000D01*
X12350000Y-13902000D02*
X12270000Y-13982000D01*
X12270000Y-14156000D02*
X12350000Y-14236000D01*
X12350000Y-14156000D02*
X12270000Y-14236000D01*
X12810000Y-5255000D02*
X12890000Y-5335000D01*
X12890000Y-5255000D02*
X12810000Y-5335000D01*
X12810000Y-5755000D02*
X12890000Y-5835000D01*
X12890000Y-5755000D02*
X12810000Y-5835000D01*
X13685000Y-7282000D02*
X13765000Y-7362000D01*
X13765000Y-7282000D02*
X13685000Y-7362000D01*
X13685000Y-7536000D02*
X13765000Y-7616000D01*
X13765000Y-7536000D02*
X13685000Y-7616000D01*
X13685000Y-7790000D02*
X13765000Y-7870000D01*
X13765000Y-7790000D02*
X13685000Y-7870000D01*
X13685000Y-8044000D02*
X13765000Y-8124000D01*
X13765000Y-8044000D02*
X13685000Y-8124000D01*
X13685000Y-8298000D02*
X13765000Y-8378000D01*
X13765000Y-8298000D02*
X13685000Y-8378000D01*
X13685000Y-8552000D02*
X13765000Y-8632000D01*
X13765000Y-8552000D02*
X13685000Y-8632000D01*
X13685000Y-8806000D02*
X13765000Y-8886000D01*
X13765000Y-8806000D02*
X13685000Y-8886000D01*
X13685000Y-9060000D02*
X13765000Y-9140000D01*
X13765000Y-9060000D02*
X13685000Y-9140000D01*
X13685000Y-9482000D02*
X13765000Y-9562000D01*
X13765000Y-9482000D02*
X13685000Y-9562000D01*
X13685000Y-9736000D02*
X13765000Y-9816000D01*
X13765000Y-9736000D02*
X13685000Y-9816000D01*
X13685000Y-9990000D02*
X13765000Y-10070000D01*
X13765000Y-9990000D02*
X13685000Y-10070000D01*
X13685000Y-10244000D02*
X13765000Y-10324000D01*
X13765000Y-10244000D02*
X13685000Y-10324000D01*
X13685000Y-10498000D02*
X13765000Y-10578000D01*
X13765000Y-10498000D02*
X13685000Y-10578000D01*
X13685000Y-10752000D02*
X13765000Y-10832000D01*
X13765000Y-10752000D02*
X13685000Y-10832000D01*
X13685000Y-11006000D02*
X13765000Y-11086000D01*
X13765000Y-11006000D02*
X13685000Y-11086000D01*
X13685000Y-11260000D02*
X13765000Y-11340000D01*
X13765000Y-11260000D02*
X13685000Y-11340000D01*
X13710000Y-12378000D02*
X13790000Y-12458000D01*
X13790000Y-12378000D02*
X13710000Y-12458000D01*
X13710000Y-12632000D02*
X13790000Y-12712000D01*
X13790000Y-12632000D02*
X13710000Y-12712000D01*
X13710000Y-12886000D02*
X13790000Y-12966000D01*
X13790000Y-12886000D02*
X13710000Y-12966000D01*
X13710000Y-13140000D02*
X13790000Y-13220000D01*
X13790000Y-13140000D02*
X13710000Y-13220000D01*
X13710000Y-13394000D02*
X13790000Y-13474000D01*
X13790000Y-13394000D02*
X13710000Y-13474000D01*
X13710000Y-13648000D02*
X13790000Y-13728000D01*
X13790000Y-13648000D02*
X13710000Y-13728000D01*
X13710000Y-13902000D02*
X13790000Y-13982000D01*
X13790000Y-13902000D02*
X13710000Y-13982000D01*
X13710000Y-14156000D02*
X13790000Y-14236000D01*
X13790000Y-14156000D02*
X13710000Y-14236000D01*
X14935000Y-7282000D02*
X15015000Y-7362000D01*
X15015000Y-7282000D02*
X14935000Y-7362000D01*
X14935000Y-7536000D02*
X15015000Y-7616000D01*
X15015000Y-7536000D02*
X14935000Y-7616000D01*
X14935000Y-7790000D02*
X15015000Y-7870000D01*
X15015000Y-7790000D02*
X14935000Y-7870000D01*
X14935000Y-8044000D02*
X15015000Y-8124000D01*
X15015000Y-8044000D02*
X14935000Y-8124000D01*
X14935000Y-8298000D02*
X15015000Y-8378000D01*
X15015000Y-8298000D02*
X14935000Y-8378000D01*
X14935000Y-8552000D02*
X15015000Y-8632000D01*
X15015000Y-8552000D02*
X14935000Y-8632000D01*
X14935000Y-8806000D02*
X15015000Y-8886000D01*
X15015000Y-8806000D02*
X14935000Y-8886000D01*
X14935000Y-9060000D02*
X15015000Y-9140000D01*
X15015000Y-9060000D02*
X14935000Y-9140000D01*
X14935000Y-9482000D02*
X15015000Y-9562000D01*
X15015000Y-9482000D02*
X14935000Y-9562000D01*
X14935000Y-9736000D02*
X15015000Y-9816000D01*
X15015000Y-9736000D02*
X14935000Y-9816000D01*
X14935000Y-9990000D02*
X15015000Y-10070000D01*
X15015000Y-9990000D02*
X14935000Y-10070000D01*
X14935000Y-10244000D02*
X15015000Y-10324000D01*
X15015000Y-10244000D02*
X14935000Y-10324000D01*
X14935000Y-10498000D02*
X15015000Y-10578000D01*
X15015000Y-10498000D02*
X14935000Y-10578000D01*
X14935000Y-10752000D02*
X15015000Y-10832000D01*
X15015000Y-10752000D02*
X14935000Y-10832000D01*
X14935000Y-11006000D02*
X15015000Y-11086000D01*
X15015000Y-11006000D02*
X14935000Y-11086000D01*
X14935000Y-11260000D02*
X15015000Y-11340000D01*
X15015000Y-11260000D02*
X14935000Y-11340000D01*
X14960000Y-12378000D02*
X15040000Y-12458000D01*
X15040000Y-12378000D02*
X14960000Y-12458000D01*
X14960000Y-12632000D02*
X15040000Y-12712000D01*
X15040000Y-12632000D02*
X14960000Y-12712000D01*
X14960000Y-12886000D02*
X15040000Y-12966000D01*
X15040000Y-12886000D02*
X14960000Y-12966000D01*
X14960000Y-13140000D02*
X15040000Y-13220000D01*
X15040000Y-13140000D02*
X14960000Y-13220000D01*
X14960000Y-13394000D02*
X15040000Y-13474000D01*
X15040000Y-13394000D02*
X14960000Y-13474000D01*
X14960000Y-13648000D02*
X15040000Y-13728000D01*
X15040000Y-13648000D02*
X14960000Y-13728000D01*
X14960000Y-13902000D02*
X15040000Y-13982000D01*
X15040000Y-13902000D02*
X14960000Y-13982000D01*
X14960000Y-14156000D02*
X15040000Y-14236000D01*
X15040000Y-14156000D02*
X14960000Y-14236000D01*
X15325265Y-6135000D02*
X15405265Y-6215000D01*
X15405265Y-6135000D02*
X15325265Y-6215000D01*
X15675265Y-6135000D02*
X15755265Y-6215000D01*
X15755265Y-6135000D02*
X15675265Y-6215000D01*
X16435000Y-7336000D02*
X16515000Y-7416000D01*
X16515000Y-7336000D02*
X16435000Y-7416000D01*
X16435000Y-7590000D02*
X16515000Y-7670000D01*
X16515000Y-7590000D02*
X16435000Y-7670000D01*
X16435000Y-7844000D02*
X16515000Y-7924000D01*
X16515000Y-7844000D02*
X16435000Y-7924000D01*
X16435000Y-8098000D02*
X16515000Y-8178000D01*
X16515000Y-8098000D02*
X16435000Y-8178000D01*
X16435000Y-8352000D02*
X16515000Y-8432000D01*
X16515000Y-8352000D02*
X16435000Y-8432000D01*
X16435000Y-8606000D02*
X16515000Y-8686000D01*
X16515000Y-8606000D02*
X16435000Y-8686000D01*
X16435000Y-8860000D02*
X16515000Y-8940000D01*
X16515000Y-8860000D02*
X16435000Y-8940000D01*
X16435000Y-9114000D02*
X16515000Y-9194000D01*
X16515000Y-9114000D02*
X16435000Y-9194000D01*
X16435000Y-9536000D02*
X16515000Y-9616000D01*
X16515000Y-9536000D02*
X16435000Y-9616000D01*
X16435000Y-9790000D02*
X16515000Y-9870000D01*
X16515000Y-9790000D02*
X16435000Y-9870000D01*
X16435000Y-10044000D02*
X16515000Y-10124000D01*
X16515000Y-10044000D02*
X16435000Y-10124000D01*
X16435000Y-10298000D02*
X16515000Y-10378000D01*
X16515000Y-10298000D02*
X16435000Y-10378000D01*
X16435000Y-10552000D02*
X16515000Y-10632000D01*
X16515000Y-10552000D02*
X16435000Y-10632000D01*
X16435000Y-10806000D02*
X16515000Y-10886000D01*
X16515000Y-10806000D02*
X16435000Y-10886000D01*
X16435000Y-11060000D02*
X16515000Y-11140000D01*
X16515000Y-11060000D02*
X16435000Y-11140000D01*
X16435000Y-11314000D02*
X16515000Y-11394000D01*
X16515000Y-11314000D02*
X16435000Y-11394000D01*
X16435000Y-12382000D02*
X16515000Y-12462000D01*
X16515000Y-12382000D02*
X16435000Y-12462000D01*
X16435000Y-12636000D02*
X16515000Y-12716000D01*
X16515000Y-12636000D02*
X16435000Y-12716000D01*
X16435000Y-12890000D02*
X16515000Y-12970000D01*
X16515000Y-12890000D02*
X16435000Y-12970000D01*
X16435000Y-13144000D02*
X16515000Y-13224000D01*
X16515000Y-13144000D02*
X16435000Y-13224000D01*
X16435000Y-13398000D02*
X16515000Y-13478000D01*
X16515000Y-13398000D02*
X16435000Y-13478000D01*
X16435000Y-13652000D02*
X16515000Y-13732000D01*
X16515000Y-13652000D02*
X16435000Y-13732000D01*
X16435000Y-13906000D02*
X16515000Y-13986000D01*
X16515000Y-13906000D02*
X16435000Y-13986000D01*
X16435000Y-14160000D02*
X16515000Y-14240000D01*
X16515000Y-14160000D02*
X16435000Y-14240000D01*
X17685000Y-7336000D02*
X17765000Y-7416000D01*
X17765000Y-7336000D02*
X17685000Y-7416000D01*
X17685000Y-7590000D02*
X17765000Y-7670000D01*
X17765000Y-7590000D02*
X17685000Y-7670000D01*
X17685000Y-7844000D02*
X17765000Y-7924000D01*
X17765000Y-7844000D02*
X17685000Y-7924000D01*
X17685000Y-8098000D02*
X17765000Y-8178000D01*
X17765000Y-8098000D02*
X17685000Y-8178000D01*
X17685000Y-8352000D02*
X17765000Y-8432000D01*
X17765000Y-8352000D02*
X17685000Y-8432000D01*
X17685000Y-8606000D02*
X17765000Y-8686000D01*
X17765000Y-8606000D02*
X17685000Y-8686000D01*
X17685000Y-8860000D02*
X17765000Y-8940000D01*
X17765000Y-8860000D02*
X17685000Y-8940000D01*
X17685000Y-9114000D02*
X17765000Y-9194000D01*
X17765000Y-9114000D02*
X17685000Y-9194000D01*
X17685000Y-9536000D02*
X17765000Y-9616000D01*
X17765000Y-9536000D02*
X17685000Y-9616000D01*
X17685000Y-9790000D02*
X17765000Y-9870000D01*
X17765000Y-9790000D02*
X17685000Y-9870000D01*
X17685000Y-10044000D02*
X17765000Y-10124000D01*
X17765000Y-10044000D02*
X17685000Y-10124000D01*
X17685000Y-10298000D02*
X17765000Y-10378000D01*
X17765000Y-10298000D02*
X17685000Y-10378000D01*
X17685000Y-10552000D02*
X17765000Y-10632000D01*
X17765000Y-10552000D02*
X17685000Y-10632000D01*
X17685000Y-10806000D02*
X17765000Y-10886000D01*
X17765000Y-10806000D02*
X17685000Y-10886000D01*
X17685000Y-11060000D02*
X17765000Y-11140000D01*
X17765000Y-11060000D02*
X17685000Y-11140000D01*
X17685000Y-11314000D02*
X17765000Y-11394000D01*
X17765000Y-11314000D02*
X17685000Y-11394000D01*
X17685000Y-12382000D02*
X17765000Y-12462000D01*
X17765000Y-12382000D02*
X17685000Y-12462000D01*
X17685000Y-12636000D02*
X17765000Y-12716000D01*
X17765000Y-12636000D02*
X17685000Y-12716000D01*
X17685000Y-12890000D02*
X17765000Y-12970000D01*
X17765000Y-12890000D02*
X17685000Y-12970000D01*
X17685000Y-13144000D02*
X17765000Y-13224000D01*
X17765000Y-13144000D02*
X17685000Y-13224000D01*
X17685000Y-13398000D02*
X17765000Y-13478000D01*
X17765000Y-13398000D02*
X17685000Y-13478000D01*
X17685000Y-13652000D02*
X17765000Y-13732000D01*
X17765000Y-13652000D02*
X17685000Y-13732000D01*
X17685000Y-13906000D02*
X17765000Y-13986000D01*
X17765000Y-13906000D02*
X17685000Y-13986000D01*
X17685000Y-14160000D02*
X17765000Y-14240000D01*
X17765000Y-14160000D02*
X17685000Y-14240000D01*
X7772500Y-7800000D02*
G75*
G02*
X7677500Y-7800000I-47500J0D01*
G01*
X7677500Y-7800000D02*
G75*
G02*
X7772500Y-7800000I47500J0D01*
G01*
X7772500Y-8050000D02*
G75*
G02*
X7677500Y-8050000I-47500J0D01*
G01*
X7677500Y-8050000D02*
G75*
G02*
X7772500Y-8050000I47500J0D01*
G01*
X7772500Y-8300000D02*
G75*
G02*
X7677500Y-8300000I-47500J0D01*
G01*
X7677500Y-8300000D02*
G75*
G02*
X7772500Y-8300000I47500J0D01*
G01*
X7772500Y-8550000D02*
G75*
G02*
X7677500Y-8550000I-47500J0D01*
G01*
X7677500Y-8550000D02*
G75*
G02*
X7772500Y-8550000I47500J0D01*
G01*
X7822500Y-10105000D02*
G75*
G02*
X7727500Y-10105000I-47500J0D01*
G01*
X7727500Y-10105000D02*
G75*
G02*
X7822500Y-10105000I47500J0D01*
G01*
X7822500Y-10355000D02*
G75*
G02*
X7727500Y-10355000I-47500J0D01*
G01*
X7727500Y-10355000D02*
G75*
G02*
X7822500Y-10355000I47500J0D01*
G01*
X7822500Y-10605000D02*
G75*
G02*
X7727500Y-10605000I-47500J0D01*
G01*
X7727500Y-10605000D02*
G75*
G02*
X7822500Y-10605000I47500J0D01*
G01*
X7822500Y-10855000D02*
G75*
G02*
X7727500Y-10855000I-47500J0D01*
G01*
X7727500Y-10855000D02*
G75*
G02*
X7822500Y-10855000I47500J0D01*
G01*
X7847500Y-12956000D02*
G75*
G02*
X7752500Y-12956000I-47500J0D01*
G01*
X7752500Y-12956000D02*
G75*
G02*
X7847500Y-12956000I47500J0D01*
G01*
X7847500Y-13206000D02*
G75*
G02*
X7752500Y-13206000I-47500J0D01*
G01*
X7752500Y-13206000D02*
G75*
G02*
X7847500Y-13206000I47500J0D01*
G01*
X7847500Y-13456000D02*
G75*
G02*
X7752500Y-13456000I-47500J0D01*
G01*
X7752500Y-13456000D02*
G75*
G02*
X7847500Y-13456000I47500J0D01*
G01*
X7847500Y-13706000D02*
G75*
G02*
X7752500Y-13706000I-47500J0D01*
G01*
X7752500Y-13706000D02*
G75*
G02*
X7847500Y-13706000I47500J0D01*
G01*
X10370000Y-7825000D02*
G75*
G02*
X10275000Y-7825000I-47500J0D01*
G01*
X10275000Y-7825000D02*
G75*
G02*
X10370000Y-7825000I47500J0D01*
G01*
X10370000Y-8075000D02*
G75*
G02*
X10275000Y-8075000I-47500J0D01*
G01*
X10275000Y-8075000D02*
G75*
G02*
X10370000Y-8075000I47500J0D01*
G01*
X10370000Y-8325000D02*
G75*
G02*
X10275000Y-8325000I-47500J0D01*
G01*
X10275000Y-8325000D02*
G75*
G02*
X10370000Y-8325000I47500J0D01*
G01*
X10370000Y-8575000D02*
G75*
G02*
X10275000Y-8575000I-47500J0D01*
G01*
X10275000Y-8575000D02*
G75*
G02*
X10370000Y-8575000I47500J0D01*
G01*
X10372500Y-10055000D02*
G75*
G02*
X10277500Y-10055000I-47500J0D01*
G01*
X10277500Y-10055000D02*
G75*
G02*
X10372500Y-10055000I47500J0D01*
G01*
X10372500Y-10305000D02*
G75*
G02*
X10277500Y-10305000I-47500J0D01*
G01*
X10277500Y-10305000D02*
G75*
G02*
X10372500Y-10305000I47500J0D01*
G01*
X10372500Y-10555000D02*
G75*
G02*
X10277500Y-10555000I-47500J0D01*
G01*
X10277500Y-10555000D02*
G75*
G02*
X10372500Y-10555000I47500J0D01*
G01*
X10372500Y-10805000D02*
G75*
G02*
X10277500Y-10805000I-47500J0D01*
G01*
X10277500Y-10805000D02*
G75*
G02*
X10372500Y-10805000I47500J0D01*
G01*
X10447500Y-12856000D02*
G75*
G02*
X10352500Y-12856000I-47500J0D01*
G01*
X10352500Y-12856000D02*
G75*
G02*
X10447500Y-12856000I47500J0D01*
G01*
X10447500Y-13106000D02*
G75*
G02*
X10352500Y-13106000I-47500J0D01*
G01*
X10352500Y-13106000D02*
G75*
G02*
X10447500Y-13106000I47500J0D01*
G01*
X10447500Y-13356000D02*
G75*
G02*
X10352500Y-13356000I-47500J0D01*
G01*
X10352500Y-13356000D02*
G75*
G02*
X10447500Y-13356000I47500J0D01*
G01*
X10447500Y-13606000D02*
G75*
G02*
X10352500Y-13606000I-47500J0D01*
G01*
X10352500Y-13606000D02*
G75*
G02*
X10447500Y-13606000I47500J0D01*
G01*
X13047500Y-12906000D02*
G75*
G02*
X12952500Y-12906000I-47500J0D01*
G01*
X12952500Y-12906000D02*
G75*
G02*
X13047500Y-12906000I47500J0D01*
G01*
X13047500Y-13156000D02*
G75*
G02*
X12952500Y-13156000I-47500J0D01*
G01*
X12952500Y-13156000D02*
G75*
G02*
X13047500Y-13156000I47500J0D01*
G01*
X13047500Y-13406000D02*
G75*
G02*
X12952500Y-13406000I-47500J0D01*
G01*
X12952500Y-13406000D02*
G75*
G02*
X13047500Y-13406000I47500J0D01*
G01*
X13047500Y-13656000D02*
G75*
G02*
X12952500Y-13656000I-47500J0D01*
G01*
X12952500Y-13656000D02*
G75*
G02*
X13047500Y-13656000I47500J0D01*
G01*
X13072500Y-7900000D02*
G75*
G02*
X12977500Y-7900000I-47500J0D01*
G01*
X12977500Y-7900000D02*
G75*
G02*
X13072500Y-7900000I47500J0D01*
G01*
X13072500Y-8150000D02*
G75*
G02*
X12977500Y-8150000I-47500J0D01*
G01*
X12977500Y-8150000D02*
G75*
G02*
X13072500Y-8150000I47500J0D01*
G01*
X13072500Y-8400000D02*
G75*
G02*
X12977500Y-8400000I-47500J0D01*
G01*
X12977500Y-8400000D02*
G75*
G02*
X13072500Y-8400000I47500J0D01*
G01*
X13072500Y-8650000D02*
G75*
G02*
X12977500Y-8650000I-47500J0D01*
G01*
X12977500Y-8650000D02*
G75*
G02*
X13072500Y-8650000I47500J0D01*
G01*
X13072500Y-10055000D02*
G75*
G02*
X12977500Y-10055000I-47500J0D01*
G01*
X12977500Y-10055000D02*
G75*
G02*
X13072500Y-10055000I47500J0D01*
G01*
X13072500Y-10305000D02*
G75*
G02*
X12977500Y-10305000I-47500J0D01*
G01*
X12977500Y-10305000D02*
G75*
G02*
X13072500Y-10305000I47500J0D01*
G01*
X13072500Y-10555000D02*
G75*
G02*
X12977500Y-10555000I-47500J0D01*
G01*
X12977500Y-10555000D02*
G75*
G02*
X13072500Y-10555000I47500J0D01*
G01*
X13072500Y-10805000D02*
G75*
G02*
X12977500Y-10805000I-47500J0D01*
G01*
X12977500Y-10805000D02*
G75*
G02*
X13072500Y-10805000I47500J0D01*
G01*
X15770000Y-7875000D02*
G75*
G02*
X15675000Y-7875000I-47500J0D01*
G01*
X15675000Y-7875000D02*
G75*
G02*
X15770000Y-7875000I47500J0D01*
G01*
X15770000Y-8125000D02*
G75*
G02*
X15675000Y-8125000I-47500J0D01*
G01*
X15675000Y-8125000D02*
G75*
G02*
X15770000Y-8125000I47500J0D01*
G01*
X15770000Y-8375000D02*
G75*
G02*
X15675000Y-8375000I-47500J0D01*
G01*
X15675000Y-8375000D02*
G75*
G02*
X15770000Y-8375000I47500J0D01*
G01*
X15770000Y-8625000D02*
G75*
G02*
X15675000Y-8625000I-47500J0D01*
G01*
X15675000Y-8625000D02*
G75*
G02*
X15770000Y-8625000I47500J0D01*
G01*
X15772500Y-10055000D02*
G75*
G02*
X15677500Y-10055000I-47500J0D01*
G01*
X15677500Y-10055000D02*
G75*
G02*
X15772500Y-10055000I47500J0D01*
G01*
X15772500Y-10305000D02*
G75*
G02*
X15677500Y-10305000I-47500J0D01*
G01*
X15677500Y-10305000D02*
G75*
G02*
X15772500Y-10305000I47500J0D01*
G01*
X15772500Y-10555000D02*
G75*
G02*
X15677500Y-10555000I-47500J0D01*
G01*
X15677500Y-10555000D02*
G75*
G02*
X15772500Y-10555000I47500J0D01*
G01*
X15772500Y-10805000D02*
G75*
G02*
X15677500Y-10805000I-47500J0D01*
G01*
X15677500Y-10805000D02*
G75*
G02*
X15772500Y-10805000I47500J0D01*
G01*
X15797500Y-12956000D02*
G75*
G02*
X15702500Y-12956000I-47500J0D01*
G01*
X15702500Y-12956000D02*
G75*
G02*
X15797500Y-12956000I47500J0D01*
G01*
X15797500Y-13206000D02*
G75*
G02*
X15702500Y-13206000I-47500J0D01*
G01*
X15702500Y-13206000D02*
G75*
G02*
X15797500Y-13206000I47500J0D01*
G01*
X15797500Y-13456000D02*
G75*
G02*
X15702500Y-13456000I-47500J0D01*
G01*
X15702500Y-13456000D02*
G75*
G02*
X15797500Y-13456000I47500J0D01*
G01*
X15797500Y-13706000D02*
G75*
G02*
X15702500Y-13706000I-47500J0D01*
G01*
X15702500Y-13706000D02*
G75*
G02*
X15797500Y-13706000I47500J0D01*
G01*
X10690000Y-6252500D02*
X10690000Y-6352500D01*
X10640000Y-6302500D02*
X10740000Y-6302500D01*
X10940000Y-6252500D02*
X10940000Y-6352500D01*
X10890000Y-6302500D02*
X10990000Y-6302500D01*
X19096000Y-8342000D02*
X19096000Y-8442000D01*
X19046000Y-8392000D02*
X19146000Y-8392000D01*
X19096000Y-8596000D02*
X19096000Y-8696000D01*
X19046000Y-8646000D02*
X19146000Y-8646000D01*
X19096000Y-8850000D02*
X19096000Y-8950000D01*
X19046000Y-8900000D02*
X19146000Y-8900000D01*
X19096000Y-9104000D02*
X19096000Y-9204000D01*
X19046000Y-9154000D02*
X19146000Y-9154000D01*
X19096000Y-9358000D02*
X19096000Y-9458000D01*
X19046000Y-9408000D02*
X19146000Y-9408000D01*
X19096000Y-9612000D02*
X19096000Y-9712000D01*
X19046000Y-9662000D02*
X19146000Y-9662000D01*
X19096000Y-9866000D02*
X19096000Y-9966000D01*
X19046000Y-9916000D02*
X19146000Y-9916000D01*
X19096000Y-10120000D02*
X19096000Y-10220000D01*
X19046000Y-10170000D02*
X19146000Y-10170000D01*
X19096000Y-10374000D02*
X19096000Y-10474000D01*
X19046000Y-10424000D02*
X19146000Y-10424000D01*
X19096000Y-10628000D02*
X19096000Y-10728000D01*
X19046000Y-10678000D02*
X19146000Y-10678000D01*
X19096000Y-10882000D02*
X19096000Y-10982000D01*
X19046000Y-10932000D02*
X19146000Y-10932000D01*
X19096000Y-11136000D02*
X19096000Y-11236000D01*
X19046000Y-11186000D02*
X19146000Y-11186000D01*
X19096000Y-11390000D02*
X19096000Y-11490000D01*
X19046000Y-11440000D02*
X19146000Y-11440000D01*
X19096000Y-11644000D02*
X19096000Y-11744000D01*
X19046000Y-11694000D02*
X19146000Y-11694000D01*
X19096000Y-11898000D02*
X19096000Y-11998000D01*
X19046000Y-11948000D02*
X19146000Y-11948000D01*
X19096000Y-12152000D02*
X19096000Y-12252000D01*
X19046000Y-12202000D02*
X19146000Y-12202000D01*
X19096000Y-12406000D02*
X19096000Y-12506000D01*
X19046000Y-12456000D02*
X19146000Y-12456000D01*
X19096000Y-12660000D02*
X19096000Y-12760000D01*
X19046000Y-12710000D02*
X19146000Y-12710000D01*
X19096000Y-12914000D02*
X19096000Y-13014000D01*
X19046000Y-12964000D02*
X19146000Y-12964000D01*
X19096000Y-13168000D02*
X19096000Y-13268000D01*
X19046000Y-13218000D02*
X19146000Y-13218000D01*
X19350000Y-8342000D02*
X19350000Y-8442000D01*
X19300000Y-8392000D02*
X19400000Y-8392000D01*
X19350000Y-8596000D02*
X19350000Y-8696000D01*
X19300000Y-8646000D02*
X19400000Y-8646000D01*
X19350000Y-8850000D02*
X19350000Y-8950000D01*
X19300000Y-8900000D02*
X19400000Y-8900000D01*
X19350000Y-9104000D02*
X19350000Y-9204000D01*
X19300000Y-9154000D02*
X19400000Y-9154000D01*
X19350000Y-9358000D02*
X19350000Y-9458000D01*
X19300000Y-9408000D02*
X19400000Y-9408000D01*
X19350000Y-9612000D02*
X19350000Y-9712000D01*
X19300000Y-9662000D02*
X19400000Y-9662000D01*
X19350000Y-9866000D02*
X19350000Y-9966000D01*
X19300000Y-9916000D02*
X19400000Y-9916000D01*
X19350000Y-10120000D02*
X19350000Y-10220000D01*
X19300000Y-10170000D02*
X19400000Y-10170000D01*
X19350000Y-10374000D02*
X19350000Y-10474000D01*
X19300000Y-10424000D02*
X19400000Y-10424000D01*
X19350000Y-10628000D02*
X19350000Y-10728000D01*
X19300000Y-10678000D02*
X19400000Y-10678000D01*
X19350000Y-10882000D02*
X19350000Y-10982000D01*
X19300000Y-10932000D02*
X19400000Y-10932000D01*
X19350000Y-11136000D02*
X19350000Y-11236000D01*
X19300000Y-11186000D02*
X19400000Y-11186000D01*
X19350000Y-11390000D02*
X19350000Y-11490000D01*
X19300000Y-11440000D02*
X19400000Y-11440000D01*
X19350000Y-11644000D02*
X19350000Y-11744000D01*
X19300000Y-11694000D02*
X19400000Y-11694000D01*
X19350000Y-11898000D02*
X19350000Y-11998000D01*
X19300000Y-11948000D02*
X19400000Y-11948000D01*
X19350000Y-12152000D02*
X19350000Y-12252000D01*
X19300000Y-12202000D02*
X19400000Y-12202000D01*
X19350000Y-12406000D02*
X19350000Y-12506000D01*
X19300000Y-12456000D02*
X19400000Y-12456000D01*
X19350000Y-12660000D02*
X19350000Y-12760000D01*
X19300000Y-12710000D02*
X19400000Y-12710000D01*
X19350000Y-12914000D02*
X19350000Y-13014000D01*
X19300000Y-12964000D02*
X19400000Y-12964000D01*
X19350000Y-13168000D02*
X19350000Y-13268000D01*
X19300000Y-13218000D02*
X19400000Y-13218000D01*
D13*
X13618891Y-5103891D02*
X13618891Y-5026109D01*
X13541109Y-5026109D01*
X13541109Y-5103891D01*
X13618891Y-5103891D01*
X13788891Y-4733891D02*
X13788891Y-4656109D01*
X13711109Y-4656109D01*
X13711109Y-4733891D01*
X13788891Y-4733891D01*
X13958891Y-5103891D02*
X13958891Y-5026109D01*
X13881109Y-5026109D01*
X13881109Y-5103891D01*
X13958891Y-5103891D01*
X14128891Y-4733891D02*
X14128891Y-4656109D01*
X14051109Y-4656109D01*
X14051109Y-4733891D01*
X14128891Y-4733891D01*
X14298891Y-5103891D02*
X14298891Y-5026109D01*
X14221109Y-5026109D01*
X14221109Y-5103891D01*
X14298891Y-5103891D01*
D14*
X13213000Y-6505000D02*
X13293000Y-6425000D01*
X13213000Y-6345000D01*
X13133000Y-6425000D01*
X13213000Y-6505000D01*
X14737000Y-6505000D02*
X14817000Y-6425000D01*
X14737000Y-6345000D01*
X14657000Y-6425000D01*
X14737000Y-6505000D01*
D11*
X7358277Y-15013984D02*
X7358277Y-14813984D01*
X7358277Y-14813984D02*
X7405896Y-14813984D01*
X7405896Y-14813984D02*
X7434467Y-14823508D01*
X7434467Y-14823508D02*
X7453515Y-14842555D01*
X7453515Y-14842555D02*
X7463039Y-14861603D01*
X7463039Y-14861603D02*
X7472562Y-14899698D01*
X7472562Y-14899698D02*
X7472562Y-14928269D01*
X7472562Y-14928269D02*
X7463039Y-14966365D01*
X7463039Y-14966365D02*
X7453515Y-14985412D01*
X7453515Y-14985412D02*
X7434467Y-15004460D01*
X7434467Y-15004460D02*
X7405896Y-15013984D01*
X7405896Y-15013984D02*
X7358277Y-15013984D01*
X7558277Y-15013984D02*
X7558277Y-14880650D01*
X7558277Y-14918746D02*
X7567801Y-14899698D01*
X7567801Y-14899698D02*
X7577324Y-14890174D01*
X7577324Y-14890174D02*
X7596372Y-14880650D01*
X7596372Y-14880650D02*
X7615420Y-14880650D01*
X7682086Y-15013984D02*
X7682086Y-14880650D01*
X7682086Y-14813984D02*
X7672562Y-14823508D01*
X7672562Y-14823508D02*
X7682086Y-14833031D01*
X7682086Y-14833031D02*
X7691610Y-14823508D01*
X7691610Y-14823508D02*
X7682086Y-14813984D01*
X7682086Y-14813984D02*
X7682086Y-14833031D01*
X7805896Y-15013984D02*
X7786848Y-15004460D01*
X7786848Y-15004460D02*
X7777324Y-14985412D01*
X7777324Y-14985412D02*
X7777324Y-14813984D01*
X7910658Y-15013984D02*
X7891610Y-15004460D01*
X7891610Y-15004460D02*
X7882086Y-14985412D01*
X7882086Y-14985412D02*
X7882086Y-14813984D01*
X8139229Y-15013984D02*
X8139229Y-14813984D01*
X8139229Y-14813984D02*
X8205896Y-14956841D01*
X8205896Y-14956841D02*
X8272562Y-14813984D01*
X8272562Y-14813984D02*
X8272562Y-15013984D01*
X8453515Y-15013984D02*
X8453515Y-14909222D01*
X8453515Y-14909222D02*
X8443991Y-14890174D01*
X8443991Y-14890174D02*
X8424944Y-14880650D01*
X8424944Y-14880650D02*
X8386848Y-14880650D01*
X8386848Y-14880650D02*
X8367801Y-14890174D01*
X8453515Y-15004460D02*
X8434467Y-15013984D01*
X8434467Y-15013984D02*
X8386848Y-15013984D01*
X8386848Y-15013984D02*
X8367801Y-15004460D01*
X8367801Y-15004460D02*
X8358277Y-14985412D01*
X8358277Y-14985412D02*
X8358277Y-14966365D01*
X8358277Y-14966365D02*
X8367801Y-14947317D01*
X8367801Y-14947317D02*
X8386848Y-14937793D01*
X8386848Y-14937793D02*
X8434467Y-14937793D01*
X8434467Y-14937793D02*
X8453515Y-14928269D01*
X8548753Y-14880650D02*
X8548753Y-15080650D01*
X8548753Y-14890174D02*
X8567801Y-14880650D01*
X8567801Y-14880650D02*
X8605896Y-14880650D01*
X8605896Y-14880650D02*
X8624944Y-14890174D01*
X8624944Y-14890174D02*
X8634467Y-14899698D01*
X8634467Y-14899698D02*
X8643991Y-14918746D01*
X8643991Y-14918746D02*
X8643991Y-14975888D01*
X8643991Y-14975888D02*
X8634467Y-14994936D01*
X8634467Y-14994936D02*
X8624944Y-15004460D01*
X8624944Y-15004460D02*
X8605896Y-15013984D01*
X8605896Y-15013984D02*
X8567801Y-15013984D01*
X8567801Y-15013984D02*
X8548753Y-15004460D01*
X8729705Y-14994936D02*
X8739229Y-15004460D01*
X8739229Y-15004460D02*
X8729705Y-15013984D01*
X8729705Y-15013984D02*
X8720182Y-15004460D01*
X8720182Y-15004460D02*
X8729705Y-14994936D01*
X8729705Y-14994936D02*
X8729705Y-15013984D01*
X8729705Y-14890174D02*
X8739229Y-14899698D01*
X8739229Y-14899698D02*
X8729705Y-14909222D01*
X8729705Y-14909222D02*
X8720182Y-14899698D01*
X8720182Y-14899698D02*
X8729705Y-14890174D01*
X8729705Y-14890174D02*
X8729705Y-14909222D01*
D12*
X7017500Y-15302500D02*
X7097500Y-15382500D01*
X7097500Y-15302500D02*
X7017500Y-15382500D01*
D11*
X7396372Y-15233984D02*
X7415420Y-15233984D01*
X7415420Y-15233984D02*
X7434467Y-15243508D01*
X7434467Y-15243508D02*
X7443991Y-15253031D01*
X7443991Y-15253031D02*
X7453515Y-15272079D01*
X7453515Y-15272079D02*
X7463039Y-15310174D01*
X7463039Y-15310174D02*
X7463039Y-15357793D01*
X7463039Y-15357793D02*
X7453515Y-15395888D01*
X7453515Y-15395888D02*
X7443991Y-15414936D01*
X7443991Y-15414936D02*
X7434467Y-15424460D01*
X7434467Y-15424460D02*
X7415420Y-15433984D01*
X7415420Y-15433984D02*
X7396372Y-15433984D01*
X7396372Y-15433984D02*
X7377324Y-15424460D01*
X7377324Y-15424460D02*
X7367801Y-15414936D01*
X7367801Y-15414936D02*
X7358277Y-15395888D01*
X7358277Y-15395888D02*
X7348753Y-15357793D01*
X7348753Y-15357793D02*
X7348753Y-15310174D01*
X7348753Y-15310174D02*
X7358277Y-15272079D01*
X7358277Y-15272079D02*
X7367801Y-15253031D01*
X7367801Y-15253031D02*
X7377324Y-15243508D01*
X7377324Y-15243508D02*
X7396372Y-15233984D01*
X7548753Y-15414936D02*
X7558277Y-15424460D01*
X7558277Y-15424460D02*
X7548753Y-15433984D01*
X7548753Y-15433984D02*
X7539229Y-15424460D01*
X7539229Y-15424460D02*
X7548753Y-15414936D01*
X7548753Y-15414936D02*
X7548753Y-15433984D01*
X7672562Y-15319698D02*
X7653515Y-15310174D01*
X7653515Y-15310174D02*
X7643991Y-15300650D01*
X7643991Y-15300650D02*
X7634467Y-15281603D01*
X7634467Y-15281603D02*
X7634467Y-15272079D01*
X7634467Y-15272079D02*
X7643991Y-15253031D01*
X7643991Y-15253031D02*
X7653515Y-15243508D01*
X7653515Y-15243508D02*
X7672562Y-15233984D01*
X7672562Y-15233984D02*
X7710658Y-15233984D01*
X7710658Y-15233984D02*
X7729705Y-15243508D01*
X7729705Y-15243508D02*
X7739229Y-15253031D01*
X7739229Y-15253031D02*
X7748753Y-15272079D01*
X7748753Y-15272079D02*
X7748753Y-15281603D01*
X7748753Y-15281603D02*
X7739229Y-15300650D01*
X7739229Y-15300650D02*
X7729705Y-15310174D01*
X7729705Y-15310174D02*
X7710658Y-15319698D01*
X7710658Y-15319698D02*
X7672562Y-15319698D01*
X7672562Y-15319698D02*
X7653515Y-15329222D01*
X7653515Y-15329222D02*
X7643991Y-15338746D01*
X7643991Y-15338746D02*
X7634467Y-15357793D01*
X7634467Y-15357793D02*
X7634467Y-15395888D01*
X7634467Y-15395888D02*
X7643991Y-15414936D01*
X7643991Y-15414936D02*
X7653515Y-15424460D01*
X7653515Y-15424460D02*
X7672562Y-15433984D01*
X7672562Y-15433984D02*
X7710658Y-15433984D01*
X7710658Y-15433984D02*
X7729705Y-15424460D01*
X7729705Y-15424460D02*
X7739229Y-15414936D01*
X7739229Y-15414936D02*
X7748753Y-15395888D01*
X7748753Y-15395888D02*
X7748753Y-15357793D01*
X7748753Y-15357793D02*
X7739229Y-15338746D01*
X7739229Y-15338746D02*
X7729705Y-15329222D01*
X7729705Y-15329222D02*
X7710658Y-15319698D01*
X7872562Y-15233984D02*
X7891610Y-15233984D01*
X7891610Y-15233984D02*
X7910658Y-15243508D01*
X7910658Y-15243508D02*
X7920182Y-15253031D01*
X7920182Y-15253031D02*
X7929705Y-15272079D01*
X7929705Y-15272079D02*
X7939229Y-15310174D01*
X7939229Y-15310174D02*
X7939229Y-15357793D01*
X7939229Y-15357793D02*
X7929705Y-15395888D01*
X7929705Y-15395888D02*
X7920182Y-15414936D01*
X7920182Y-15414936D02*
X7910658Y-15424460D01*
X7910658Y-15424460D02*
X7891610Y-15433984D01*
X7891610Y-15433984D02*
X7872562Y-15433984D01*
X7872562Y-15433984D02*
X7853515Y-15424460D01*
X7853515Y-15424460D02*
X7843991Y-15414936D01*
X7843991Y-15414936D02*
X7834467Y-15395888D01*
X7834467Y-15395888D02*
X7824943Y-15357793D01*
X7824943Y-15357793D02*
X7824943Y-15310174D01*
X7824943Y-15310174D02*
X7834467Y-15272079D01*
X7834467Y-15272079D02*
X7843991Y-15253031D01*
X7843991Y-15253031D02*
X7853515Y-15243508D01*
X7853515Y-15243508D02*
X7872562Y-15233984D01*
X8063039Y-15233984D02*
X8082086Y-15233984D01*
X8082086Y-15233984D02*
X8101134Y-15243508D01*
X8101134Y-15243508D02*
X8110658Y-15253031D01*
X8110658Y-15253031D02*
X8120182Y-15272079D01*
X8120182Y-15272079D02*
X8129705Y-15310174D01*
X8129705Y-15310174D02*
X8129705Y-15357793D01*
X8129705Y-15357793D02*
X8120182Y-15395888D01*
X8120182Y-15395888D02*
X8110658Y-15414936D01*
X8110658Y-15414936D02*
X8101134Y-15424460D01*
X8101134Y-15424460D02*
X8082086Y-15433984D01*
X8082086Y-15433984D02*
X8063039Y-15433984D01*
X8063039Y-15433984D02*
X8043991Y-15424460D01*
X8043991Y-15424460D02*
X8034467Y-15414936D01*
X8034467Y-15414936D02*
X8024943Y-15395888D01*
X8024943Y-15395888D02*
X8015420Y-15357793D01*
X8015420Y-15357793D02*
X8015420Y-15310174D01*
X8015420Y-15310174D02*
X8024943Y-15272079D01*
X8024943Y-15272079D02*
X8034467Y-15253031D01*
X8034467Y-15253031D02*
X8043991Y-15243508D01*
X8043991Y-15243508D02*
X8063039Y-15233984D01*
X8215420Y-15433984D02*
X8215420Y-15300650D01*
X8215420Y-15319698D02*
X8224943Y-15310174D01*
X8224943Y-15310174D02*
X8243991Y-15300650D01*
X8243991Y-15300650D02*
X8272563Y-15300650D01*
X8272563Y-15300650D02*
X8291610Y-15310174D01*
X8291610Y-15310174D02*
X8301134Y-15329222D01*
X8301134Y-15329222D02*
X8301134Y-15433984D01*
X8301134Y-15329222D02*
X8310658Y-15310174D01*
X8310658Y-15310174D02*
X8329705Y-15300650D01*
X8329705Y-15300650D02*
X8358277Y-15300650D01*
X8358277Y-15300650D02*
X8377324Y-15310174D01*
X8377324Y-15310174D02*
X8386848Y-15329222D01*
X8386848Y-15329222D02*
X8386848Y-15433984D01*
X8482086Y-15433984D02*
X8482086Y-15300650D01*
X8482086Y-15319698D02*
X8491610Y-15310174D01*
X8491610Y-15310174D02*
X8510658Y-15300650D01*
X8510658Y-15300650D02*
X8539229Y-15300650D01*
X8539229Y-15300650D02*
X8558277Y-15310174D01*
X8558277Y-15310174D02*
X8567801Y-15329222D01*
X8567801Y-15329222D02*
X8567801Y-15433984D01*
X8567801Y-15329222D02*
X8577325Y-15310174D01*
X8577325Y-15310174D02*
X8596372Y-15300650D01*
X8596372Y-15300650D02*
X8624944Y-15300650D01*
X8624944Y-15300650D02*
X8643991Y-15310174D01*
X8643991Y-15310174D02*
X8653515Y-15329222D01*
X8653515Y-15329222D02*
X8653515Y-15433984D01*
X9043991Y-15224460D02*
X8872563Y-15481603D01*
X9301134Y-15233984D02*
X9320182Y-15233984D01*
X9320182Y-15233984D02*
X9339229Y-15243508D01*
X9339229Y-15243508D02*
X9348753Y-15253031D01*
X9348753Y-15253031D02*
X9358277Y-15272079D01*
X9358277Y-15272079D02*
X9367801Y-15310174D01*
X9367801Y-15310174D02*
X9367801Y-15357793D01*
X9367801Y-15357793D02*
X9358277Y-15395888D01*
X9358277Y-15395888D02*
X9348753Y-15414936D01*
X9348753Y-15414936D02*
X9339229Y-15424460D01*
X9339229Y-15424460D02*
X9320182Y-15433984D01*
X9320182Y-15433984D02*
X9301134Y-15433984D01*
X9301134Y-15433984D02*
X9282087Y-15424460D01*
X9282087Y-15424460D02*
X9272563Y-15414936D01*
X9272563Y-15414936D02*
X9263039Y-15395888D01*
X9263039Y-15395888D02*
X9253515Y-15357793D01*
X9253515Y-15357793D02*
X9253515Y-15310174D01*
X9253515Y-15310174D02*
X9263039Y-15272079D01*
X9263039Y-15272079D02*
X9272563Y-15253031D01*
X9272563Y-15253031D02*
X9282087Y-15243508D01*
X9282087Y-15243508D02*
X9301134Y-15233984D01*
X9453515Y-15414936D02*
X9463039Y-15424460D01*
X9463039Y-15424460D02*
X9453515Y-15433984D01*
X9453515Y-15433984D02*
X9443991Y-15424460D01*
X9443991Y-15424460D02*
X9453515Y-15414936D01*
X9453515Y-15414936D02*
X9453515Y-15433984D01*
X9586848Y-15233984D02*
X9605896Y-15233984D01*
X9605896Y-15233984D02*
X9624944Y-15243508D01*
X9624944Y-15243508D02*
X9634468Y-15253031D01*
X9634468Y-15253031D02*
X9643991Y-15272079D01*
X9643991Y-15272079D02*
X9653515Y-15310174D01*
X9653515Y-15310174D02*
X9653515Y-15357793D01*
X9653515Y-15357793D02*
X9643991Y-15395888D01*
X9643991Y-15395888D02*
X9634468Y-15414936D01*
X9634468Y-15414936D02*
X9624944Y-15424460D01*
X9624944Y-15424460D02*
X9605896Y-15433984D01*
X9605896Y-15433984D02*
X9586848Y-15433984D01*
X9586848Y-15433984D02*
X9567801Y-15424460D01*
X9567801Y-15424460D02*
X9558277Y-15414936D01*
X9558277Y-15414936D02*
X9548753Y-15395888D01*
X9548753Y-15395888D02*
X9539229Y-15357793D01*
X9539229Y-15357793D02*
X9539229Y-15310174D01*
X9539229Y-15310174D02*
X9548753Y-15272079D01*
X9548753Y-15272079D02*
X9558277Y-15253031D01*
X9558277Y-15253031D02*
X9567801Y-15243508D01*
X9567801Y-15243508D02*
X9586848Y-15233984D01*
X9720182Y-15233984D02*
X9843991Y-15233984D01*
X9843991Y-15233984D02*
X9777325Y-15310174D01*
X9777325Y-15310174D02*
X9805896Y-15310174D01*
X9805896Y-15310174D02*
X9824944Y-15319698D01*
X9824944Y-15319698D02*
X9834468Y-15329222D01*
X9834468Y-15329222D02*
X9843991Y-15348269D01*
X9843991Y-15348269D02*
X9843991Y-15395888D01*
X9843991Y-15395888D02*
X9834468Y-15414936D01*
X9834468Y-15414936D02*
X9824944Y-15424460D01*
X9824944Y-15424460D02*
X9805896Y-15433984D01*
X9805896Y-15433984D02*
X9748753Y-15433984D01*
X9748753Y-15433984D02*
X9729706Y-15424460D01*
X9729706Y-15424460D02*
X9720182Y-15414936D01*
X10034468Y-15433984D02*
X9920182Y-15433984D01*
X9977325Y-15433984D02*
X9977325Y-15233984D01*
X9977325Y-15233984D02*
X9958277Y-15262555D01*
X9958277Y-15262555D02*
X9939229Y-15281603D01*
X9939229Y-15281603D02*
X9920182Y-15291127D01*
X10215420Y-15233984D02*
X10120182Y-15233984D01*
X10120182Y-15233984D02*
X10110658Y-15329222D01*
X10110658Y-15329222D02*
X10120182Y-15319698D01*
X10120182Y-15319698D02*
X10139229Y-15310174D01*
X10139229Y-15310174D02*
X10186849Y-15310174D01*
X10186849Y-15310174D02*
X10205896Y-15319698D01*
X10205896Y-15319698D02*
X10215420Y-15329222D01*
X10215420Y-15329222D02*
X10224944Y-15348269D01*
X10224944Y-15348269D02*
X10224944Y-15395888D01*
X10224944Y-15395888D02*
X10215420Y-15414936D01*
X10215420Y-15414936D02*
X10205896Y-15424460D01*
X10205896Y-15424460D02*
X10186849Y-15433984D01*
X10186849Y-15433984D02*
X10139229Y-15433984D01*
X10139229Y-15433984D02*
X10120182Y-15424460D01*
X10120182Y-15424460D02*
X10110658Y-15414936D01*
X10301134Y-15233984D02*
X10301134Y-15272079D01*
X10377325Y-15233984D02*
X10377325Y-15272079D01*
X10672563Y-15510174D02*
X10663039Y-15500650D01*
X10663039Y-15500650D02*
X10643991Y-15472079D01*
X10643991Y-15472079D02*
X10634468Y-15453031D01*
X10634468Y-15453031D02*
X10624944Y-15424460D01*
X10624944Y-15424460D02*
X10615420Y-15376841D01*
X10615420Y-15376841D02*
X10615420Y-15338746D01*
X10615420Y-15338746D02*
X10624944Y-15291127D01*
X10624944Y-15291127D02*
X10634468Y-15262555D01*
X10634468Y-15262555D02*
X10643991Y-15243508D01*
X10643991Y-15243508D02*
X10663039Y-15214936D01*
X10663039Y-15214936D02*
X10672563Y-15205412D01*
X10853515Y-15433984D02*
X10739230Y-15433984D01*
X10796372Y-15433984D02*
X10796372Y-15233984D01*
X10796372Y-15233984D02*
X10777325Y-15262555D01*
X10777325Y-15262555D02*
X10758277Y-15281603D01*
X10758277Y-15281603D02*
X10739230Y-15291127D01*
X10948753Y-15433984D02*
X10986849Y-15433984D01*
X10986849Y-15433984D02*
X11005896Y-15424460D01*
X11005896Y-15424460D02*
X11015420Y-15414936D01*
X11015420Y-15414936D02*
X11034468Y-15386365D01*
X11034468Y-15386365D02*
X11043991Y-15348269D01*
X11043991Y-15348269D02*
X11043991Y-15272079D01*
X11043991Y-15272079D02*
X11034468Y-15253031D01*
X11034468Y-15253031D02*
X11024944Y-15243508D01*
X11024944Y-15243508D02*
X11005896Y-15233984D01*
X11005896Y-15233984D02*
X10967801Y-15233984D01*
X10967801Y-15233984D02*
X10948753Y-15243508D01*
X10948753Y-15243508D02*
X10939230Y-15253031D01*
X10939230Y-15253031D02*
X10929706Y-15272079D01*
X10929706Y-15272079D02*
X10929706Y-15319698D01*
X10929706Y-15319698D02*
X10939230Y-15338746D01*
X10939230Y-15338746D02*
X10948753Y-15348269D01*
X10948753Y-15348269D02*
X10967801Y-15357793D01*
X10967801Y-15357793D02*
X11005896Y-15357793D01*
X11005896Y-15357793D02*
X11024944Y-15348269D01*
X11024944Y-15348269D02*
X11034468Y-15338746D01*
X11034468Y-15338746D02*
X11043991Y-15319698D01*
X11215420Y-15233984D02*
X11177325Y-15233984D01*
X11177325Y-15233984D02*
X11158277Y-15243508D01*
X11158277Y-15243508D02*
X11148753Y-15253031D01*
X11148753Y-15253031D02*
X11129706Y-15281603D01*
X11129706Y-15281603D02*
X11120182Y-15319698D01*
X11120182Y-15319698D02*
X11120182Y-15395888D01*
X11120182Y-15395888D02*
X11129706Y-15414936D01*
X11129706Y-15414936D02*
X11139230Y-15424460D01*
X11139230Y-15424460D02*
X11158277Y-15433984D01*
X11158277Y-15433984D02*
X11196372Y-15433984D01*
X11196372Y-15433984D02*
X11215420Y-15424460D01*
X11215420Y-15424460D02*
X11224944Y-15414936D01*
X11224944Y-15414936D02*
X11234468Y-15395888D01*
X11234468Y-15395888D02*
X11234468Y-15348269D01*
X11234468Y-15348269D02*
X11224944Y-15329222D01*
X11224944Y-15329222D02*
X11215420Y-15319698D01*
X11215420Y-15319698D02*
X11196372Y-15310174D01*
X11196372Y-15310174D02*
X11158277Y-15310174D01*
X11158277Y-15310174D02*
X11139230Y-15319698D01*
X11139230Y-15319698D02*
X11129706Y-15329222D01*
X11129706Y-15329222D02*
X11120182Y-15348269D01*
X11472563Y-15433984D02*
X11472563Y-15233984D01*
X11558277Y-15433984D02*
X11558277Y-15329222D01*
X11558277Y-15329222D02*
X11548753Y-15310174D01*
X11548753Y-15310174D02*
X11529706Y-15300650D01*
X11529706Y-15300650D02*
X11501134Y-15300650D01*
X11501134Y-15300650D02*
X11482087Y-15310174D01*
X11482087Y-15310174D02*
X11472563Y-15319698D01*
X11682087Y-15433984D02*
X11663039Y-15424460D01*
X11663039Y-15424460D02*
X11653515Y-15414936D01*
X11653515Y-15414936D02*
X11643991Y-15395888D01*
X11643991Y-15395888D02*
X11643991Y-15338746D01*
X11643991Y-15338746D02*
X11653515Y-15319698D01*
X11653515Y-15319698D02*
X11663039Y-15310174D01*
X11663039Y-15310174D02*
X11682087Y-15300650D01*
X11682087Y-15300650D02*
X11710658Y-15300650D01*
X11710658Y-15300650D02*
X11729706Y-15310174D01*
X11729706Y-15310174D02*
X11739230Y-15319698D01*
X11739230Y-15319698D02*
X11748753Y-15338746D01*
X11748753Y-15338746D02*
X11748753Y-15395888D01*
X11748753Y-15395888D02*
X11739230Y-15414936D01*
X11739230Y-15414936D02*
X11729706Y-15424460D01*
X11729706Y-15424460D02*
X11710658Y-15433984D01*
X11710658Y-15433984D02*
X11682087Y-15433984D01*
X11863039Y-15433984D02*
X11843991Y-15424460D01*
X11843991Y-15424460D02*
X11834468Y-15405412D01*
X11834468Y-15405412D02*
X11834468Y-15233984D01*
X12015420Y-15424460D02*
X11996372Y-15433984D01*
X11996372Y-15433984D02*
X11958277Y-15433984D01*
X11958277Y-15433984D02*
X11939230Y-15424460D01*
X11939230Y-15424460D02*
X11929706Y-15405412D01*
X11929706Y-15405412D02*
X11929706Y-15329222D01*
X11929706Y-15329222D02*
X11939230Y-15310174D01*
X11939230Y-15310174D02*
X11958277Y-15300650D01*
X11958277Y-15300650D02*
X11996372Y-15300650D01*
X11996372Y-15300650D02*
X12015420Y-15310174D01*
X12015420Y-15310174D02*
X12024944Y-15329222D01*
X12024944Y-15329222D02*
X12024944Y-15348269D01*
X12024944Y-15348269D02*
X11929706Y-15367317D01*
X12101134Y-15424460D02*
X12120182Y-15433984D01*
X12120182Y-15433984D02*
X12158277Y-15433984D01*
X12158277Y-15433984D02*
X12177325Y-15424460D01*
X12177325Y-15424460D02*
X12186849Y-15405412D01*
X12186849Y-15405412D02*
X12186849Y-15395888D01*
X12186849Y-15395888D02*
X12177325Y-15376841D01*
X12177325Y-15376841D02*
X12158277Y-15367317D01*
X12158277Y-15367317D02*
X12129706Y-15367317D01*
X12129706Y-15367317D02*
X12110658Y-15357793D01*
X12110658Y-15357793D02*
X12101134Y-15338746D01*
X12101134Y-15338746D02*
X12101134Y-15329222D01*
X12101134Y-15329222D02*
X12110658Y-15310174D01*
X12110658Y-15310174D02*
X12129706Y-15300650D01*
X12129706Y-15300650D02*
X12158277Y-15300650D01*
X12158277Y-15300650D02*
X12177325Y-15310174D01*
X12253515Y-15510174D02*
X12263039Y-15500650D01*
X12263039Y-15500650D02*
X12282087Y-15472079D01*
X12282087Y-15472079D02*
X12291611Y-15453031D01*
X12291611Y-15453031D02*
X12301134Y-15424460D01*
X12301134Y-15424460D02*
X12310658Y-15376841D01*
X12310658Y-15376841D02*
X12310658Y-15338746D01*
X12310658Y-15338746D02*
X12301134Y-15291127D01*
X12301134Y-15291127D02*
X12291611Y-15262555D01*
X12291611Y-15262555D02*
X12282087Y-15243508D01*
X12282087Y-15243508D02*
X12263039Y-15214936D01*
X12263039Y-15214936D02*
X12253515Y-15205412D01*
D12*
X7097500Y-15606500D02*
G75*
G02*
X7002500Y-15606500I-47500J0D01*
G01*
X7002500Y-15606500D02*
G75*
G02*
X7097500Y-15606500I47500J0D01*
G01*
D11*
X7396372Y-15497984D02*
X7415420Y-15497984D01*
X7415420Y-15497984D02*
X7434467Y-15507508D01*
X7434467Y-15507508D02*
X7443991Y-15517031D01*
X7443991Y-15517031D02*
X7453515Y-15536079D01*
X7453515Y-15536079D02*
X7463039Y-15574174D01*
X7463039Y-15574174D02*
X7463039Y-15621793D01*
X7463039Y-15621793D02*
X7453515Y-15659888D01*
X7453515Y-15659888D02*
X7443991Y-15678936D01*
X7443991Y-15678936D02*
X7434467Y-15688460D01*
X7434467Y-15688460D02*
X7415420Y-15697984D01*
X7415420Y-15697984D02*
X7396372Y-15697984D01*
X7396372Y-15697984D02*
X7377324Y-15688460D01*
X7377324Y-15688460D02*
X7367801Y-15678936D01*
X7367801Y-15678936D02*
X7358277Y-15659888D01*
X7358277Y-15659888D02*
X7348753Y-15621793D01*
X7348753Y-15621793D02*
X7348753Y-15574174D01*
X7348753Y-15574174D02*
X7358277Y-15536079D01*
X7358277Y-15536079D02*
X7367801Y-15517031D01*
X7367801Y-15517031D02*
X7377324Y-15507508D01*
X7377324Y-15507508D02*
X7396372Y-15497984D01*
X7548753Y-15678936D02*
X7558277Y-15688460D01*
X7558277Y-15688460D02*
X7548753Y-15697984D01*
X7548753Y-15697984D02*
X7539229Y-15688460D01*
X7539229Y-15688460D02*
X7548753Y-15678936D01*
X7548753Y-15678936D02*
X7548753Y-15697984D01*
X7653515Y-15697984D02*
X7691610Y-15697984D01*
X7691610Y-15697984D02*
X7710658Y-15688460D01*
X7710658Y-15688460D02*
X7720182Y-15678936D01*
X7720182Y-15678936D02*
X7739229Y-15650365D01*
X7739229Y-15650365D02*
X7748753Y-15612269D01*
X7748753Y-15612269D02*
X7748753Y-15536079D01*
X7748753Y-15536079D02*
X7739229Y-15517031D01*
X7739229Y-15517031D02*
X7729705Y-15507508D01*
X7729705Y-15507508D02*
X7710658Y-15497984D01*
X7710658Y-15497984D02*
X7672562Y-15497984D01*
X7672562Y-15497984D02*
X7653515Y-15507508D01*
X7653515Y-15507508D02*
X7643991Y-15517031D01*
X7643991Y-15517031D02*
X7634467Y-15536079D01*
X7634467Y-15536079D02*
X7634467Y-15583698D01*
X7634467Y-15583698D02*
X7643991Y-15602746D01*
X7643991Y-15602746D02*
X7653515Y-15612269D01*
X7653515Y-15612269D02*
X7672562Y-15621793D01*
X7672562Y-15621793D02*
X7710658Y-15621793D01*
X7710658Y-15621793D02*
X7729705Y-15612269D01*
X7729705Y-15612269D02*
X7739229Y-15602746D01*
X7739229Y-15602746D02*
X7748753Y-15583698D01*
X7929705Y-15497984D02*
X7834467Y-15497984D01*
X7834467Y-15497984D02*
X7824943Y-15593222D01*
X7824943Y-15593222D02*
X7834467Y-15583698D01*
X7834467Y-15583698D02*
X7853515Y-15574174D01*
X7853515Y-15574174D02*
X7901134Y-15574174D01*
X7901134Y-15574174D02*
X7920182Y-15583698D01*
X7920182Y-15583698D02*
X7929705Y-15593222D01*
X7929705Y-15593222D02*
X7939229Y-15612269D01*
X7939229Y-15612269D02*
X7939229Y-15659888D01*
X7939229Y-15659888D02*
X7929705Y-15678936D01*
X7929705Y-15678936D02*
X7920182Y-15688460D01*
X7920182Y-15688460D02*
X7901134Y-15697984D01*
X7901134Y-15697984D02*
X7853515Y-15697984D01*
X7853515Y-15697984D02*
X7834467Y-15688460D01*
X7834467Y-15688460D02*
X7824943Y-15678936D01*
X8063039Y-15497984D02*
X8082086Y-15497984D01*
X8082086Y-15497984D02*
X8101134Y-15507508D01*
X8101134Y-15507508D02*
X8110658Y-15517031D01*
X8110658Y-15517031D02*
X8120182Y-15536079D01*
X8120182Y-15536079D02*
X8129705Y-15574174D01*
X8129705Y-15574174D02*
X8129705Y-15621793D01*
X8129705Y-15621793D02*
X8120182Y-15659888D01*
X8120182Y-15659888D02*
X8110658Y-15678936D01*
X8110658Y-15678936D02*
X8101134Y-15688460D01*
X8101134Y-15688460D02*
X8082086Y-15697984D01*
X8082086Y-15697984D02*
X8063039Y-15697984D01*
X8063039Y-15697984D02*
X8043991Y-15688460D01*
X8043991Y-15688460D02*
X8034467Y-15678936D01*
X8034467Y-15678936D02*
X8024943Y-15659888D01*
X8024943Y-15659888D02*
X8015420Y-15621793D01*
X8015420Y-15621793D02*
X8015420Y-15574174D01*
X8015420Y-15574174D02*
X8024943Y-15536079D01*
X8024943Y-15536079D02*
X8034467Y-15517031D01*
X8034467Y-15517031D02*
X8043991Y-15507508D01*
X8043991Y-15507508D02*
X8063039Y-15497984D01*
X8215420Y-15697984D02*
X8215420Y-15564650D01*
X8215420Y-15583698D02*
X8224943Y-15574174D01*
X8224943Y-15574174D02*
X8243991Y-15564650D01*
X8243991Y-15564650D02*
X8272563Y-15564650D01*
X8272563Y-15564650D02*
X8291610Y-15574174D01*
X8291610Y-15574174D02*
X8301134Y-15593222D01*
X8301134Y-15593222D02*
X8301134Y-15697984D01*
X8301134Y-15593222D02*
X8310658Y-15574174D01*
X8310658Y-15574174D02*
X8329705Y-15564650D01*
X8329705Y-15564650D02*
X8358277Y-15564650D01*
X8358277Y-15564650D02*
X8377324Y-15574174D01*
X8377324Y-15574174D02*
X8386848Y-15593222D01*
X8386848Y-15593222D02*
X8386848Y-15697984D01*
X8482086Y-15697984D02*
X8482086Y-15564650D01*
X8482086Y-15583698D02*
X8491610Y-15574174D01*
X8491610Y-15574174D02*
X8510658Y-15564650D01*
X8510658Y-15564650D02*
X8539229Y-15564650D01*
X8539229Y-15564650D02*
X8558277Y-15574174D01*
X8558277Y-15574174D02*
X8567801Y-15593222D01*
X8567801Y-15593222D02*
X8567801Y-15697984D01*
X8567801Y-15593222D02*
X8577325Y-15574174D01*
X8577325Y-15574174D02*
X8596372Y-15564650D01*
X8596372Y-15564650D02*
X8624944Y-15564650D01*
X8624944Y-15564650D02*
X8643991Y-15574174D01*
X8643991Y-15574174D02*
X8653515Y-15593222D01*
X8653515Y-15593222D02*
X8653515Y-15697984D01*
X9043991Y-15488460D02*
X8872563Y-15745603D01*
X9301134Y-15497984D02*
X9320182Y-15497984D01*
X9320182Y-15497984D02*
X9339229Y-15507508D01*
X9339229Y-15507508D02*
X9348753Y-15517031D01*
X9348753Y-15517031D02*
X9358277Y-15536079D01*
X9358277Y-15536079D02*
X9367801Y-15574174D01*
X9367801Y-15574174D02*
X9367801Y-15621793D01*
X9367801Y-15621793D02*
X9358277Y-15659888D01*
X9358277Y-15659888D02*
X9348753Y-15678936D01*
X9348753Y-15678936D02*
X9339229Y-15688460D01*
X9339229Y-15688460D02*
X9320182Y-15697984D01*
X9320182Y-15697984D02*
X9301134Y-15697984D01*
X9301134Y-15697984D02*
X9282087Y-15688460D01*
X9282087Y-15688460D02*
X9272563Y-15678936D01*
X9272563Y-15678936D02*
X9263039Y-15659888D01*
X9263039Y-15659888D02*
X9253515Y-15621793D01*
X9253515Y-15621793D02*
X9253515Y-15574174D01*
X9253515Y-15574174D02*
X9263039Y-15536079D01*
X9263039Y-15536079D02*
X9272563Y-15517031D01*
X9272563Y-15517031D02*
X9282087Y-15507508D01*
X9282087Y-15507508D02*
X9301134Y-15497984D01*
X9453515Y-15678936D02*
X9463039Y-15688460D01*
X9463039Y-15688460D02*
X9453515Y-15697984D01*
X9453515Y-15697984D02*
X9443991Y-15688460D01*
X9443991Y-15688460D02*
X9453515Y-15678936D01*
X9453515Y-15678936D02*
X9453515Y-15697984D01*
X9586848Y-15497984D02*
X9605896Y-15497984D01*
X9605896Y-15497984D02*
X9624944Y-15507508D01*
X9624944Y-15507508D02*
X9634468Y-15517031D01*
X9634468Y-15517031D02*
X9643991Y-15536079D01*
X9643991Y-15536079D02*
X9653515Y-15574174D01*
X9653515Y-15574174D02*
X9653515Y-15621793D01*
X9653515Y-15621793D02*
X9643991Y-15659888D01*
X9643991Y-15659888D02*
X9634468Y-15678936D01*
X9634468Y-15678936D02*
X9624944Y-15688460D01*
X9624944Y-15688460D02*
X9605896Y-15697984D01*
X9605896Y-15697984D02*
X9586848Y-15697984D01*
X9586848Y-15697984D02*
X9567801Y-15688460D01*
X9567801Y-15688460D02*
X9558277Y-15678936D01*
X9558277Y-15678936D02*
X9548753Y-15659888D01*
X9548753Y-15659888D02*
X9539229Y-15621793D01*
X9539229Y-15621793D02*
X9539229Y-15574174D01*
X9539229Y-15574174D02*
X9548753Y-15536079D01*
X9548753Y-15536079D02*
X9558277Y-15517031D01*
X9558277Y-15517031D02*
X9567801Y-15507508D01*
X9567801Y-15507508D02*
X9586848Y-15497984D01*
X9720182Y-15497984D02*
X9843991Y-15497984D01*
X9843991Y-15497984D02*
X9777325Y-15574174D01*
X9777325Y-15574174D02*
X9805896Y-15574174D01*
X9805896Y-15574174D02*
X9824944Y-15583698D01*
X9824944Y-15583698D02*
X9834468Y-15593222D01*
X9834468Y-15593222D02*
X9843991Y-15612269D01*
X9843991Y-15612269D02*
X9843991Y-15659888D01*
X9843991Y-15659888D02*
X9834468Y-15678936D01*
X9834468Y-15678936D02*
X9824944Y-15688460D01*
X9824944Y-15688460D02*
X9805896Y-15697984D01*
X9805896Y-15697984D02*
X9748753Y-15697984D01*
X9748753Y-15697984D02*
X9729706Y-15688460D01*
X9729706Y-15688460D02*
X9720182Y-15678936D01*
X9910658Y-15497984D02*
X10043991Y-15497984D01*
X10043991Y-15497984D02*
X9958277Y-15697984D01*
X10205896Y-15564650D02*
X10205896Y-15697984D01*
X10158277Y-15488460D02*
X10110658Y-15631317D01*
X10110658Y-15631317D02*
X10234468Y-15631317D01*
X10301134Y-15497984D02*
X10301134Y-15536079D01*
X10377325Y-15497984D02*
X10377325Y-15536079D01*
X10672563Y-15774174D02*
X10663039Y-15764650D01*
X10663039Y-15764650D02*
X10643991Y-15736079D01*
X10643991Y-15736079D02*
X10634468Y-15717031D01*
X10634468Y-15717031D02*
X10624944Y-15688460D01*
X10624944Y-15688460D02*
X10615420Y-15640841D01*
X10615420Y-15640841D02*
X10615420Y-15602746D01*
X10615420Y-15602746D02*
X10624944Y-15555127D01*
X10624944Y-15555127D02*
X10634468Y-15526555D01*
X10634468Y-15526555D02*
X10643991Y-15507508D01*
X10643991Y-15507508D02*
X10663039Y-15478936D01*
X10663039Y-15478936D02*
X10672563Y-15469412D01*
X10834468Y-15564650D02*
X10834468Y-15697984D01*
X10786849Y-15488460D02*
X10739230Y-15631317D01*
X10739230Y-15631317D02*
X10863039Y-15631317D01*
X10967801Y-15583698D02*
X10948753Y-15574174D01*
X10948753Y-15574174D02*
X10939230Y-15564650D01*
X10939230Y-15564650D02*
X10929706Y-15545603D01*
X10929706Y-15545603D02*
X10929706Y-15536079D01*
X10929706Y-15536079D02*
X10939230Y-15517031D01*
X10939230Y-15517031D02*
X10948753Y-15507508D01*
X10948753Y-15507508D02*
X10967801Y-15497984D01*
X10967801Y-15497984D02*
X11005896Y-15497984D01*
X11005896Y-15497984D02*
X11024944Y-15507508D01*
X11024944Y-15507508D02*
X11034468Y-15517031D01*
X11034468Y-15517031D02*
X11043991Y-15536079D01*
X11043991Y-15536079D02*
X11043991Y-15545603D01*
X11043991Y-15545603D02*
X11034468Y-15564650D01*
X11034468Y-15564650D02*
X11024944Y-15574174D01*
X11024944Y-15574174D02*
X11005896Y-15583698D01*
X11005896Y-15583698D02*
X10967801Y-15583698D01*
X10967801Y-15583698D02*
X10948753Y-15593222D01*
X10948753Y-15593222D02*
X10939230Y-15602746D01*
X10939230Y-15602746D02*
X10929706Y-15621793D01*
X10929706Y-15621793D02*
X10929706Y-15659888D01*
X10929706Y-15659888D02*
X10939230Y-15678936D01*
X10939230Y-15678936D02*
X10948753Y-15688460D01*
X10948753Y-15688460D02*
X10967801Y-15697984D01*
X10967801Y-15697984D02*
X11005896Y-15697984D01*
X11005896Y-15697984D02*
X11024944Y-15688460D01*
X11024944Y-15688460D02*
X11034468Y-15678936D01*
X11034468Y-15678936D02*
X11043991Y-15659888D01*
X11043991Y-15659888D02*
X11043991Y-15621793D01*
X11043991Y-15621793D02*
X11034468Y-15602746D01*
X11034468Y-15602746D02*
X11024944Y-15593222D01*
X11024944Y-15593222D02*
X11005896Y-15583698D01*
X11282087Y-15697984D02*
X11282087Y-15497984D01*
X11367801Y-15697984D02*
X11367801Y-15593222D01*
X11367801Y-15593222D02*
X11358277Y-15574174D01*
X11358277Y-15574174D02*
X11339230Y-15564650D01*
X11339230Y-15564650D02*
X11310658Y-15564650D01*
X11310658Y-15564650D02*
X11291610Y-15574174D01*
X11291610Y-15574174D02*
X11282087Y-15583698D01*
X11491610Y-15697984D02*
X11472563Y-15688460D01*
X11472563Y-15688460D02*
X11463039Y-15678936D01*
X11463039Y-15678936D02*
X11453515Y-15659888D01*
X11453515Y-15659888D02*
X11453515Y-15602746D01*
X11453515Y-15602746D02*
X11463039Y-15583698D01*
X11463039Y-15583698D02*
X11472563Y-15574174D01*
X11472563Y-15574174D02*
X11491610Y-15564650D01*
X11491610Y-15564650D02*
X11520182Y-15564650D01*
X11520182Y-15564650D02*
X11539230Y-15574174D01*
X11539230Y-15574174D02*
X11548753Y-15583698D01*
X11548753Y-15583698D02*
X11558277Y-15602746D01*
X11558277Y-15602746D02*
X11558277Y-15659888D01*
X11558277Y-15659888D02*
X11548753Y-15678936D01*
X11548753Y-15678936D02*
X11539230Y-15688460D01*
X11539230Y-15688460D02*
X11520182Y-15697984D01*
X11520182Y-15697984D02*
X11491610Y-15697984D01*
X11672563Y-15697984D02*
X11653515Y-15688460D01*
X11653515Y-15688460D02*
X11643991Y-15669412D01*
X11643991Y-15669412D02*
X11643991Y-15497984D01*
X11824944Y-15688460D02*
X11805896Y-15697984D01*
X11805896Y-15697984D02*
X11767801Y-15697984D01*
X11767801Y-15697984D02*
X11748753Y-15688460D01*
X11748753Y-15688460D02*
X11739230Y-15669412D01*
X11739230Y-15669412D02*
X11739230Y-15593222D01*
X11739230Y-15593222D02*
X11748753Y-15574174D01*
X11748753Y-15574174D02*
X11767801Y-15564650D01*
X11767801Y-15564650D02*
X11805896Y-15564650D01*
X11805896Y-15564650D02*
X11824944Y-15574174D01*
X11824944Y-15574174D02*
X11834468Y-15593222D01*
X11834468Y-15593222D02*
X11834468Y-15612269D01*
X11834468Y-15612269D02*
X11739230Y-15631317D01*
X11910658Y-15688460D02*
X11929706Y-15697984D01*
X11929706Y-15697984D02*
X11967801Y-15697984D01*
X11967801Y-15697984D02*
X11986849Y-15688460D01*
X11986849Y-15688460D02*
X11996372Y-15669412D01*
X11996372Y-15669412D02*
X11996372Y-15659888D01*
X11996372Y-15659888D02*
X11986849Y-15640841D01*
X11986849Y-15640841D02*
X11967801Y-15631317D01*
X11967801Y-15631317D02*
X11939230Y-15631317D01*
X11939230Y-15631317D02*
X11920182Y-15621793D01*
X11920182Y-15621793D02*
X11910658Y-15602746D01*
X11910658Y-15602746D02*
X11910658Y-15593222D01*
X11910658Y-15593222D02*
X11920182Y-15574174D01*
X11920182Y-15574174D02*
X11939230Y-15564650D01*
X11939230Y-15564650D02*
X11967801Y-15564650D01*
X11967801Y-15564650D02*
X11986849Y-15574174D01*
X12063039Y-15774174D02*
X12072563Y-15764650D01*
X12072563Y-15764650D02*
X12091611Y-15736079D01*
X12091611Y-15736079D02*
X12101134Y-15717031D01*
X12101134Y-15717031D02*
X12110658Y-15688460D01*
X12110658Y-15688460D02*
X12120182Y-15640841D01*
X12120182Y-15640841D02*
X12120182Y-15602746D01*
X12120182Y-15602746D02*
X12110658Y-15555127D01*
X12110658Y-15555127D02*
X12101134Y-15526555D01*
X12101134Y-15526555D02*
X12091611Y-15507508D01*
X12091611Y-15507508D02*
X12072563Y-15478936D01*
X12072563Y-15478936D02*
X12063039Y-15469412D01*
D12*
X7047500Y-15820500D02*
X7047500Y-15920500D01*
X6997500Y-15870500D02*
X7097500Y-15870500D01*
D11*
X7463039Y-15961984D02*
X7348753Y-15961984D01*
X7405896Y-15961984D02*
X7405896Y-15761984D01*
X7405896Y-15761984D02*
X7386848Y-15790555D01*
X7386848Y-15790555D02*
X7367801Y-15809603D01*
X7367801Y-15809603D02*
X7348753Y-15819127D01*
X7548753Y-15942936D02*
X7558277Y-15952460D01*
X7558277Y-15952460D02*
X7548753Y-15961984D01*
X7548753Y-15961984D02*
X7539229Y-15952460D01*
X7539229Y-15952460D02*
X7548753Y-15942936D01*
X7548753Y-15942936D02*
X7548753Y-15961984D01*
X7682086Y-15761984D02*
X7701134Y-15761984D01*
X7701134Y-15761984D02*
X7720182Y-15771508D01*
X7720182Y-15771508D02*
X7729705Y-15781031D01*
X7729705Y-15781031D02*
X7739229Y-15800079D01*
X7739229Y-15800079D02*
X7748753Y-15838174D01*
X7748753Y-15838174D02*
X7748753Y-15885793D01*
X7748753Y-15885793D02*
X7739229Y-15923888D01*
X7739229Y-15923888D02*
X7729705Y-15942936D01*
X7729705Y-15942936D02*
X7720182Y-15952460D01*
X7720182Y-15952460D02*
X7701134Y-15961984D01*
X7701134Y-15961984D02*
X7682086Y-15961984D01*
X7682086Y-15961984D02*
X7663039Y-15952460D01*
X7663039Y-15952460D02*
X7653515Y-15942936D01*
X7653515Y-15942936D02*
X7643991Y-15923888D01*
X7643991Y-15923888D02*
X7634467Y-15885793D01*
X7634467Y-15885793D02*
X7634467Y-15838174D01*
X7634467Y-15838174D02*
X7643991Y-15800079D01*
X7643991Y-15800079D02*
X7653515Y-15781031D01*
X7653515Y-15781031D02*
X7663039Y-15771508D01*
X7663039Y-15771508D02*
X7682086Y-15761984D01*
X7872562Y-15761984D02*
X7891610Y-15761984D01*
X7891610Y-15761984D02*
X7910658Y-15771508D01*
X7910658Y-15771508D02*
X7920182Y-15781031D01*
X7920182Y-15781031D02*
X7929705Y-15800079D01*
X7929705Y-15800079D02*
X7939229Y-15838174D01*
X7939229Y-15838174D02*
X7939229Y-15885793D01*
X7939229Y-15885793D02*
X7929705Y-15923888D01*
X7929705Y-15923888D02*
X7920182Y-15942936D01*
X7920182Y-15942936D02*
X7910658Y-15952460D01*
X7910658Y-15952460D02*
X7891610Y-15961984D01*
X7891610Y-15961984D02*
X7872562Y-15961984D01*
X7872562Y-15961984D02*
X7853515Y-15952460D01*
X7853515Y-15952460D02*
X7843991Y-15942936D01*
X7843991Y-15942936D02*
X7834467Y-15923888D01*
X7834467Y-15923888D02*
X7824943Y-15885793D01*
X7824943Y-15885793D02*
X7824943Y-15838174D01*
X7824943Y-15838174D02*
X7834467Y-15800079D01*
X7834467Y-15800079D02*
X7843991Y-15781031D01*
X7843991Y-15781031D02*
X7853515Y-15771508D01*
X7853515Y-15771508D02*
X7872562Y-15761984D01*
X8063039Y-15761984D02*
X8082086Y-15761984D01*
X8082086Y-15761984D02*
X8101134Y-15771508D01*
X8101134Y-15771508D02*
X8110658Y-15781031D01*
X8110658Y-15781031D02*
X8120182Y-15800079D01*
X8120182Y-15800079D02*
X8129705Y-15838174D01*
X8129705Y-15838174D02*
X8129705Y-15885793D01*
X8129705Y-15885793D02*
X8120182Y-15923888D01*
X8120182Y-15923888D02*
X8110658Y-15942936D01*
X8110658Y-15942936D02*
X8101134Y-15952460D01*
X8101134Y-15952460D02*
X8082086Y-15961984D01*
X8082086Y-15961984D02*
X8063039Y-15961984D01*
X8063039Y-15961984D02*
X8043991Y-15952460D01*
X8043991Y-15952460D02*
X8034467Y-15942936D01*
X8034467Y-15942936D02*
X8024943Y-15923888D01*
X8024943Y-15923888D02*
X8015420Y-15885793D01*
X8015420Y-15885793D02*
X8015420Y-15838174D01*
X8015420Y-15838174D02*
X8024943Y-15800079D01*
X8024943Y-15800079D02*
X8034467Y-15781031D01*
X8034467Y-15781031D02*
X8043991Y-15771508D01*
X8043991Y-15771508D02*
X8063039Y-15761984D01*
X8215420Y-15961984D02*
X8215420Y-15828650D01*
X8215420Y-15847698D02*
X8224943Y-15838174D01*
X8224943Y-15838174D02*
X8243991Y-15828650D01*
X8243991Y-15828650D02*
X8272563Y-15828650D01*
X8272563Y-15828650D02*
X8291610Y-15838174D01*
X8291610Y-15838174D02*
X8301134Y-15857222D01*
X8301134Y-15857222D02*
X8301134Y-15961984D01*
X8301134Y-15857222D02*
X8310658Y-15838174D01*
X8310658Y-15838174D02*
X8329705Y-15828650D01*
X8329705Y-15828650D02*
X8358277Y-15828650D01*
X8358277Y-15828650D02*
X8377324Y-15838174D01*
X8377324Y-15838174D02*
X8386848Y-15857222D01*
X8386848Y-15857222D02*
X8386848Y-15961984D01*
X8482086Y-15961984D02*
X8482086Y-15828650D01*
X8482086Y-15847698D02*
X8491610Y-15838174D01*
X8491610Y-15838174D02*
X8510658Y-15828650D01*
X8510658Y-15828650D02*
X8539229Y-15828650D01*
X8539229Y-15828650D02*
X8558277Y-15838174D01*
X8558277Y-15838174D02*
X8567801Y-15857222D01*
X8567801Y-15857222D02*
X8567801Y-15961984D01*
X8567801Y-15857222D02*
X8577325Y-15838174D01*
X8577325Y-15838174D02*
X8596372Y-15828650D01*
X8596372Y-15828650D02*
X8624944Y-15828650D01*
X8624944Y-15828650D02*
X8643991Y-15838174D01*
X8643991Y-15838174D02*
X8653515Y-15857222D01*
X8653515Y-15857222D02*
X8653515Y-15961984D01*
X9043991Y-15752460D02*
X8872563Y-16009603D01*
X9301134Y-15761984D02*
X9320182Y-15761984D01*
X9320182Y-15761984D02*
X9339229Y-15771508D01*
X9339229Y-15771508D02*
X9348753Y-15781031D01*
X9348753Y-15781031D02*
X9358277Y-15800079D01*
X9358277Y-15800079D02*
X9367801Y-15838174D01*
X9367801Y-15838174D02*
X9367801Y-15885793D01*
X9367801Y-15885793D02*
X9358277Y-15923888D01*
X9358277Y-15923888D02*
X9348753Y-15942936D01*
X9348753Y-15942936D02*
X9339229Y-15952460D01*
X9339229Y-15952460D02*
X9320182Y-15961984D01*
X9320182Y-15961984D02*
X9301134Y-15961984D01*
X9301134Y-15961984D02*
X9282087Y-15952460D01*
X9282087Y-15952460D02*
X9272563Y-15942936D01*
X9272563Y-15942936D02*
X9263039Y-15923888D01*
X9263039Y-15923888D02*
X9253515Y-15885793D01*
X9253515Y-15885793D02*
X9253515Y-15838174D01*
X9253515Y-15838174D02*
X9263039Y-15800079D01*
X9263039Y-15800079D02*
X9272563Y-15781031D01*
X9272563Y-15781031D02*
X9282087Y-15771508D01*
X9282087Y-15771508D02*
X9301134Y-15761984D01*
X9453515Y-15942936D02*
X9463039Y-15952460D01*
X9463039Y-15952460D02*
X9453515Y-15961984D01*
X9453515Y-15961984D02*
X9443991Y-15952460D01*
X9443991Y-15952460D02*
X9453515Y-15942936D01*
X9453515Y-15942936D02*
X9453515Y-15961984D01*
X9586848Y-15761984D02*
X9605896Y-15761984D01*
X9605896Y-15761984D02*
X9624944Y-15771508D01*
X9624944Y-15771508D02*
X9634468Y-15781031D01*
X9634468Y-15781031D02*
X9643991Y-15800079D01*
X9643991Y-15800079D02*
X9653515Y-15838174D01*
X9653515Y-15838174D02*
X9653515Y-15885793D01*
X9653515Y-15885793D02*
X9643991Y-15923888D01*
X9643991Y-15923888D02*
X9634468Y-15942936D01*
X9634468Y-15942936D02*
X9624944Y-15952460D01*
X9624944Y-15952460D02*
X9605896Y-15961984D01*
X9605896Y-15961984D02*
X9586848Y-15961984D01*
X9586848Y-15961984D02*
X9567801Y-15952460D01*
X9567801Y-15952460D02*
X9558277Y-15942936D01*
X9558277Y-15942936D02*
X9548753Y-15923888D01*
X9548753Y-15923888D02*
X9539229Y-15885793D01*
X9539229Y-15885793D02*
X9539229Y-15838174D01*
X9539229Y-15838174D02*
X9548753Y-15800079D01*
X9548753Y-15800079D02*
X9558277Y-15781031D01*
X9558277Y-15781031D02*
X9567801Y-15771508D01*
X9567801Y-15771508D02*
X9586848Y-15761984D01*
X9720182Y-15761984D02*
X9843991Y-15761984D01*
X9843991Y-15761984D02*
X9777325Y-15838174D01*
X9777325Y-15838174D02*
X9805896Y-15838174D01*
X9805896Y-15838174D02*
X9824944Y-15847698D01*
X9824944Y-15847698D02*
X9834468Y-15857222D01*
X9834468Y-15857222D02*
X9843991Y-15876269D01*
X9843991Y-15876269D02*
X9843991Y-15923888D01*
X9843991Y-15923888D02*
X9834468Y-15942936D01*
X9834468Y-15942936D02*
X9824944Y-15952460D01*
X9824944Y-15952460D02*
X9805896Y-15961984D01*
X9805896Y-15961984D02*
X9748753Y-15961984D01*
X9748753Y-15961984D02*
X9729706Y-15952460D01*
X9729706Y-15952460D02*
X9720182Y-15942936D01*
X9939229Y-15961984D02*
X9977325Y-15961984D01*
X9977325Y-15961984D02*
X9996372Y-15952460D01*
X9996372Y-15952460D02*
X10005896Y-15942936D01*
X10005896Y-15942936D02*
X10024944Y-15914365D01*
X10024944Y-15914365D02*
X10034468Y-15876269D01*
X10034468Y-15876269D02*
X10034468Y-15800079D01*
X10034468Y-15800079D02*
X10024944Y-15781031D01*
X10024944Y-15781031D02*
X10015420Y-15771508D01*
X10015420Y-15771508D02*
X9996372Y-15761984D01*
X9996372Y-15761984D02*
X9958277Y-15761984D01*
X9958277Y-15761984D02*
X9939229Y-15771508D01*
X9939229Y-15771508D02*
X9929706Y-15781031D01*
X9929706Y-15781031D02*
X9920182Y-15800079D01*
X9920182Y-15800079D02*
X9920182Y-15847698D01*
X9920182Y-15847698D02*
X9929706Y-15866746D01*
X9929706Y-15866746D02*
X9939229Y-15876269D01*
X9939229Y-15876269D02*
X9958277Y-15885793D01*
X9958277Y-15885793D02*
X9996372Y-15885793D01*
X9996372Y-15885793D02*
X10015420Y-15876269D01*
X10015420Y-15876269D02*
X10024944Y-15866746D01*
X10024944Y-15866746D02*
X10034468Y-15847698D01*
X10205896Y-15828650D02*
X10205896Y-15961984D01*
X10158277Y-15752460D02*
X10110658Y-15895317D01*
X10110658Y-15895317D02*
X10234468Y-15895317D01*
X10301134Y-15761984D02*
X10301134Y-15800079D01*
X10377325Y-15761984D02*
X10377325Y-15800079D01*
X10672563Y-16038174D02*
X10663039Y-16028650D01*
X10663039Y-16028650D02*
X10643991Y-16000079D01*
X10643991Y-16000079D02*
X10634468Y-15981031D01*
X10634468Y-15981031D02*
X10624944Y-15952460D01*
X10624944Y-15952460D02*
X10615420Y-15904841D01*
X10615420Y-15904841D02*
X10615420Y-15866746D01*
X10615420Y-15866746D02*
X10624944Y-15819127D01*
X10624944Y-15819127D02*
X10634468Y-15790555D01*
X10634468Y-15790555D02*
X10643991Y-15771508D01*
X10643991Y-15771508D02*
X10663039Y-15742936D01*
X10663039Y-15742936D02*
X10672563Y-15733412D01*
X10834468Y-15828650D02*
X10834468Y-15961984D01*
X10786849Y-15752460D02*
X10739230Y-15895317D01*
X10739230Y-15895317D02*
X10863039Y-15895317D01*
X10929706Y-15781031D02*
X10939230Y-15771508D01*
X10939230Y-15771508D02*
X10958277Y-15761984D01*
X10958277Y-15761984D02*
X11005896Y-15761984D01*
X11005896Y-15761984D02*
X11024944Y-15771508D01*
X11024944Y-15771508D02*
X11034468Y-15781031D01*
X11034468Y-15781031D02*
X11043991Y-15800079D01*
X11043991Y-15800079D02*
X11043991Y-15819127D01*
X11043991Y-15819127D02*
X11034468Y-15847698D01*
X11034468Y-15847698D02*
X10920182Y-15961984D01*
X10920182Y-15961984D02*
X11043991Y-15961984D01*
X11282087Y-15961984D02*
X11282087Y-15761984D01*
X11367801Y-15961984D02*
X11367801Y-15857222D01*
X11367801Y-15857222D02*
X11358277Y-15838174D01*
X11358277Y-15838174D02*
X11339230Y-15828650D01*
X11339230Y-15828650D02*
X11310658Y-15828650D01*
X11310658Y-15828650D02*
X11291610Y-15838174D01*
X11291610Y-15838174D02*
X11282087Y-15847698D01*
X11491610Y-15961984D02*
X11472563Y-15952460D01*
X11472563Y-15952460D02*
X11463039Y-15942936D01*
X11463039Y-15942936D02*
X11453515Y-15923888D01*
X11453515Y-15923888D02*
X11453515Y-15866746D01*
X11453515Y-15866746D02*
X11463039Y-15847698D01*
X11463039Y-15847698D02*
X11472563Y-15838174D01*
X11472563Y-15838174D02*
X11491610Y-15828650D01*
X11491610Y-15828650D02*
X11520182Y-15828650D01*
X11520182Y-15828650D02*
X11539230Y-15838174D01*
X11539230Y-15838174D02*
X11548753Y-15847698D01*
X11548753Y-15847698D02*
X11558277Y-15866746D01*
X11558277Y-15866746D02*
X11558277Y-15923888D01*
X11558277Y-15923888D02*
X11548753Y-15942936D01*
X11548753Y-15942936D02*
X11539230Y-15952460D01*
X11539230Y-15952460D02*
X11520182Y-15961984D01*
X11520182Y-15961984D02*
X11491610Y-15961984D01*
X11672563Y-15961984D02*
X11653515Y-15952460D01*
X11653515Y-15952460D02*
X11643991Y-15933412D01*
X11643991Y-15933412D02*
X11643991Y-15761984D01*
X11824944Y-15952460D02*
X11805896Y-15961984D01*
X11805896Y-15961984D02*
X11767801Y-15961984D01*
X11767801Y-15961984D02*
X11748753Y-15952460D01*
X11748753Y-15952460D02*
X11739230Y-15933412D01*
X11739230Y-15933412D02*
X11739230Y-15857222D01*
X11739230Y-15857222D02*
X11748753Y-15838174D01*
X11748753Y-15838174D02*
X11767801Y-15828650D01*
X11767801Y-15828650D02*
X11805896Y-15828650D01*
X11805896Y-15828650D02*
X11824944Y-15838174D01*
X11824944Y-15838174D02*
X11834468Y-15857222D01*
X11834468Y-15857222D02*
X11834468Y-15876269D01*
X11834468Y-15876269D02*
X11739230Y-15895317D01*
X11910658Y-15952460D02*
X11929706Y-15961984D01*
X11929706Y-15961984D02*
X11967801Y-15961984D01*
X11967801Y-15961984D02*
X11986849Y-15952460D01*
X11986849Y-15952460D02*
X11996372Y-15933412D01*
X11996372Y-15933412D02*
X11996372Y-15923888D01*
X11996372Y-15923888D02*
X11986849Y-15904841D01*
X11986849Y-15904841D02*
X11967801Y-15895317D01*
X11967801Y-15895317D02*
X11939230Y-15895317D01*
X11939230Y-15895317D02*
X11920182Y-15885793D01*
X11920182Y-15885793D02*
X11910658Y-15866746D01*
X11910658Y-15866746D02*
X11910658Y-15857222D01*
X11910658Y-15857222D02*
X11920182Y-15838174D01*
X11920182Y-15838174D02*
X11939230Y-15828650D01*
X11939230Y-15828650D02*
X11967801Y-15828650D01*
X11967801Y-15828650D02*
X11986849Y-15838174D01*
X12063039Y-16038174D02*
X12072563Y-16028650D01*
X12072563Y-16028650D02*
X12091611Y-16000079D01*
X12091611Y-16000079D02*
X12101134Y-15981031D01*
X12101134Y-15981031D02*
X12110658Y-15952460D01*
X12110658Y-15952460D02*
X12120182Y-15904841D01*
X12120182Y-15904841D02*
X12120182Y-15866746D01*
X12120182Y-15866746D02*
X12110658Y-15819127D01*
X12110658Y-15819127D02*
X12101134Y-15790555D01*
X12101134Y-15790555D02*
X12091611Y-15771508D01*
X12091611Y-15771508D02*
X12072563Y-15742936D01*
X12072563Y-15742936D02*
X12063039Y-15733412D01*
D13*
X7081391Y-16173391D02*
X7081391Y-16095609D01*
X7003609Y-16095609D01*
X7003609Y-16173391D01*
X7081391Y-16173391D01*
D11*
X7463039Y-16225984D02*
X7348753Y-16225984D01*
X7405896Y-16225984D02*
X7405896Y-16025984D01*
X7405896Y-16025984D02*
X7386848Y-16054555D01*
X7386848Y-16054555D02*
X7367801Y-16073603D01*
X7367801Y-16073603D02*
X7348753Y-16083127D01*
X7548753Y-16206936D02*
X7558277Y-16216460D01*
X7558277Y-16216460D02*
X7548753Y-16225984D01*
X7548753Y-16225984D02*
X7539229Y-16216460D01*
X7539229Y-16216460D02*
X7548753Y-16206936D01*
X7548753Y-16206936D02*
X7548753Y-16225984D01*
X7748753Y-16225984D02*
X7634467Y-16225984D01*
X7691610Y-16225984D02*
X7691610Y-16025984D01*
X7691610Y-16025984D02*
X7672562Y-16054555D01*
X7672562Y-16054555D02*
X7653515Y-16073603D01*
X7653515Y-16073603D02*
X7634467Y-16083127D01*
X7872562Y-16025984D02*
X7891610Y-16025984D01*
X7891610Y-16025984D02*
X7910658Y-16035508D01*
X7910658Y-16035508D02*
X7920182Y-16045031D01*
X7920182Y-16045031D02*
X7929705Y-16064079D01*
X7929705Y-16064079D02*
X7939229Y-16102174D01*
X7939229Y-16102174D02*
X7939229Y-16149793D01*
X7939229Y-16149793D02*
X7929705Y-16187888D01*
X7929705Y-16187888D02*
X7920182Y-16206936D01*
X7920182Y-16206936D02*
X7910658Y-16216460D01*
X7910658Y-16216460D02*
X7891610Y-16225984D01*
X7891610Y-16225984D02*
X7872562Y-16225984D01*
X7872562Y-16225984D02*
X7853515Y-16216460D01*
X7853515Y-16216460D02*
X7843991Y-16206936D01*
X7843991Y-16206936D02*
X7834467Y-16187888D01*
X7834467Y-16187888D02*
X7824943Y-16149793D01*
X7824943Y-16149793D02*
X7824943Y-16102174D01*
X7824943Y-16102174D02*
X7834467Y-16064079D01*
X7834467Y-16064079D02*
X7843991Y-16045031D01*
X7843991Y-16045031D02*
X7853515Y-16035508D01*
X7853515Y-16035508D02*
X7872562Y-16025984D01*
X8063039Y-16025984D02*
X8082086Y-16025984D01*
X8082086Y-16025984D02*
X8101134Y-16035508D01*
X8101134Y-16035508D02*
X8110658Y-16045031D01*
X8110658Y-16045031D02*
X8120182Y-16064079D01*
X8120182Y-16064079D02*
X8129705Y-16102174D01*
X8129705Y-16102174D02*
X8129705Y-16149793D01*
X8129705Y-16149793D02*
X8120182Y-16187888D01*
X8120182Y-16187888D02*
X8110658Y-16206936D01*
X8110658Y-16206936D02*
X8101134Y-16216460D01*
X8101134Y-16216460D02*
X8082086Y-16225984D01*
X8082086Y-16225984D02*
X8063039Y-16225984D01*
X8063039Y-16225984D02*
X8043991Y-16216460D01*
X8043991Y-16216460D02*
X8034467Y-16206936D01*
X8034467Y-16206936D02*
X8024943Y-16187888D01*
X8024943Y-16187888D02*
X8015420Y-16149793D01*
X8015420Y-16149793D02*
X8015420Y-16102174D01*
X8015420Y-16102174D02*
X8024943Y-16064079D01*
X8024943Y-16064079D02*
X8034467Y-16045031D01*
X8034467Y-16045031D02*
X8043991Y-16035508D01*
X8043991Y-16035508D02*
X8063039Y-16025984D01*
X8215420Y-16225984D02*
X8215420Y-16092650D01*
X8215420Y-16111698D02*
X8224943Y-16102174D01*
X8224943Y-16102174D02*
X8243991Y-16092650D01*
X8243991Y-16092650D02*
X8272563Y-16092650D01*
X8272563Y-16092650D02*
X8291610Y-16102174D01*
X8291610Y-16102174D02*
X8301134Y-16121222D01*
X8301134Y-16121222D02*
X8301134Y-16225984D01*
X8301134Y-16121222D02*
X8310658Y-16102174D01*
X8310658Y-16102174D02*
X8329705Y-16092650D01*
X8329705Y-16092650D02*
X8358277Y-16092650D01*
X8358277Y-16092650D02*
X8377324Y-16102174D01*
X8377324Y-16102174D02*
X8386848Y-16121222D01*
X8386848Y-16121222D02*
X8386848Y-16225984D01*
X8482086Y-16225984D02*
X8482086Y-16092650D01*
X8482086Y-16111698D02*
X8491610Y-16102174D01*
X8491610Y-16102174D02*
X8510658Y-16092650D01*
X8510658Y-16092650D02*
X8539229Y-16092650D01*
X8539229Y-16092650D02*
X8558277Y-16102174D01*
X8558277Y-16102174D02*
X8567801Y-16121222D01*
X8567801Y-16121222D02*
X8567801Y-16225984D01*
X8567801Y-16121222D02*
X8577325Y-16102174D01*
X8577325Y-16102174D02*
X8596372Y-16092650D01*
X8596372Y-16092650D02*
X8624944Y-16092650D01*
X8624944Y-16092650D02*
X8643991Y-16102174D01*
X8643991Y-16102174D02*
X8653515Y-16121222D01*
X8653515Y-16121222D02*
X8653515Y-16225984D01*
X9043991Y-16016460D02*
X8872563Y-16273603D01*
X9301134Y-16025984D02*
X9320182Y-16025984D01*
X9320182Y-16025984D02*
X9339229Y-16035508D01*
X9339229Y-16035508D02*
X9348753Y-16045031D01*
X9348753Y-16045031D02*
X9358277Y-16064079D01*
X9358277Y-16064079D02*
X9367801Y-16102174D01*
X9367801Y-16102174D02*
X9367801Y-16149793D01*
X9367801Y-16149793D02*
X9358277Y-16187888D01*
X9358277Y-16187888D02*
X9348753Y-16206936D01*
X9348753Y-16206936D02*
X9339229Y-16216460D01*
X9339229Y-16216460D02*
X9320182Y-16225984D01*
X9320182Y-16225984D02*
X9301134Y-16225984D01*
X9301134Y-16225984D02*
X9282087Y-16216460D01*
X9282087Y-16216460D02*
X9272563Y-16206936D01*
X9272563Y-16206936D02*
X9263039Y-16187888D01*
X9263039Y-16187888D02*
X9253515Y-16149793D01*
X9253515Y-16149793D02*
X9253515Y-16102174D01*
X9253515Y-16102174D02*
X9263039Y-16064079D01*
X9263039Y-16064079D02*
X9272563Y-16045031D01*
X9272563Y-16045031D02*
X9282087Y-16035508D01*
X9282087Y-16035508D02*
X9301134Y-16025984D01*
X9453515Y-16206936D02*
X9463039Y-16216460D01*
X9463039Y-16216460D02*
X9453515Y-16225984D01*
X9453515Y-16225984D02*
X9443991Y-16216460D01*
X9443991Y-16216460D02*
X9453515Y-16206936D01*
X9453515Y-16206936D02*
X9453515Y-16225984D01*
X9586848Y-16025984D02*
X9605896Y-16025984D01*
X9605896Y-16025984D02*
X9624944Y-16035508D01*
X9624944Y-16035508D02*
X9634468Y-16045031D01*
X9634468Y-16045031D02*
X9643991Y-16064079D01*
X9643991Y-16064079D02*
X9653515Y-16102174D01*
X9653515Y-16102174D02*
X9653515Y-16149793D01*
X9653515Y-16149793D02*
X9643991Y-16187888D01*
X9643991Y-16187888D02*
X9634468Y-16206936D01*
X9634468Y-16206936D02*
X9624944Y-16216460D01*
X9624944Y-16216460D02*
X9605896Y-16225984D01*
X9605896Y-16225984D02*
X9586848Y-16225984D01*
X9586848Y-16225984D02*
X9567801Y-16216460D01*
X9567801Y-16216460D02*
X9558277Y-16206936D01*
X9558277Y-16206936D02*
X9548753Y-16187888D01*
X9548753Y-16187888D02*
X9539229Y-16149793D01*
X9539229Y-16149793D02*
X9539229Y-16102174D01*
X9539229Y-16102174D02*
X9548753Y-16064079D01*
X9548753Y-16064079D02*
X9558277Y-16045031D01*
X9558277Y-16045031D02*
X9567801Y-16035508D01*
X9567801Y-16035508D02*
X9586848Y-16025984D01*
X9824944Y-16092650D02*
X9824944Y-16225984D01*
X9777325Y-16016460D02*
X9729706Y-16159317D01*
X9729706Y-16159317D02*
X9853515Y-16159317D01*
X9910658Y-16025984D02*
X10034468Y-16025984D01*
X10034468Y-16025984D02*
X9967801Y-16102174D01*
X9967801Y-16102174D02*
X9996372Y-16102174D01*
X9996372Y-16102174D02*
X10015420Y-16111698D01*
X10015420Y-16111698D02*
X10024944Y-16121222D01*
X10024944Y-16121222D02*
X10034468Y-16140269D01*
X10034468Y-16140269D02*
X10034468Y-16187888D01*
X10034468Y-16187888D02*
X10024944Y-16206936D01*
X10024944Y-16206936D02*
X10015420Y-16216460D01*
X10015420Y-16216460D02*
X9996372Y-16225984D01*
X9996372Y-16225984D02*
X9939229Y-16225984D01*
X9939229Y-16225984D02*
X9920182Y-16216460D01*
X9920182Y-16216460D02*
X9910658Y-16206936D01*
X10101134Y-16025984D02*
X10224944Y-16025984D01*
X10224944Y-16025984D02*
X10158277Y-16102174D01*
X10158277Y-16102174D02*
X10186849Y-16102174D01*
X10186849Y-16102174D02*
X10205896Y-16111698D01*
X10205896Y-16111698D02*
X10215420Y-16121222D01*
X10215420Y-16121222D02*
X10224944Y-16140269D01*
X10224944Y-16140269D02*
X10224944Y-16187888D01*
X10224944Y-16187888D02*
X10215420Y-16206936D01*
X10215420Y-16206936D02*
X10205896Y-16216460D01*
X10205896Y-16216460D02*
X10186849Y-16225984D01*
X10186849Y-16225984D02*
X10129706Y-16225984D01*
X10129706Y-16225984D02*
X10110658Y-16216460D01*
X10110658Y-16216460D02*
X10101134Y-16206936D01*
X10301134Y-16025984D02*
X10301134Y-16064079D01*
X10377325Y-16025984D02*
X10377325Y-16064079D01*
X10672563Y-16302174D02*
X10663039Y-16292650D01*
X10663039Y-16292650D02*
X10643991Y-16264079D01*
X10643991Y-16264079D02*
X10634468Y-16245031D01*
X10634468Y-16245031D02*
X10624944Y-16216460D01*
X10624944Y-16216460D02*
X10615420Y-16168841D01*
X10615420Y-16168841D02*
X10615420Y-16130746D01*
X10615420Y-16130746D02*
X10624944Y-16083127D01*
X10624944Y-16083127D02*
X10634468Y-16054555D01*
X10634468Y-16054555D02*
X10643991Y-16035508D01*
X10643991Y-16035508D02*
X10663039Y-16006936D01*
X10663039Y-16006936D02*
X10672563Y-15997412D01*
X10843991Y-16025984D02*
X10748753Y-16025984D01*
X10748753Y-16025984D02*
X10739230Y-16121222D01*
X10739230Y-16121222D02*
X10748753Y-16111698D01*
X10748753Y-16111698D02*
X10767801Y-16102174D01*
X10767801Y-16102174D02*
X10815420Y-16102174D01*
X10815420Y-16102174D02*
X10834468Y-16111698D01*
X10834468Y-16111698D02*
X10843991Y-16121222D01*
X10843991Y-16121222D02*
X10853515Y-16140269D01*
X10853515Y-16140269D02*
X10853515Y-16187888D01*
X10853515Y-16187888D02*
X10843991Y-16206936D01*
X10843991Y-16206936D02*
X10834468Y-16216460D01*
X10834468Y-16216460D02*
X10815420Y-16225984D01*
X10815420Y-16225984D02*
X10767801Y-16225984D01*
X10767801Y-16225984D02*
X10748753Y-16216460D01*
X10748753Y-16216460D02*
X10739230Y-16206936D01*
X11091611Y-16225984D02*
X11091611Y-16025984D01*
X11177325Y-16225984D02*
X11177325Y-16121222D01*
X11177325Y-16121222D02*
X11167801Y-16102174D01*
X11167801Y-16102174D02*
X11148753Y-16092650D01*
X11148753Y-16092650D02*
X11120182Y-16092650D01*
X11120182Y-16092650D02*
X11101134Y-16102174D01*
X11101134Y-16102174D02*
X11091611Y-16111698D01*
X11301134Y-16225984D02*
X11282087Y-16216460D01*
X11282087Y-16216460D02*
X11272563Y-16206936D01*
X11272563Y-16206936D02*
X11263039Y-16187888D01*
X11263039Y-16187888D02*
X11263039Y-16130746D01*
X11263039Y-16130746D02*
X11272563Y-16111698D01*
X11272563Y-16111698D02*
X11282087Y-16102174D01*
X11282087Y-16102174D02*
X11301134Y-16092650D01*
X11301134Y-16092650D02*
X11329706Y-16092650D01*
X11329706Y-16092650D02*
X11348753Y-16102174D01*
X11348753Y-16102174D02*
X11358277Y-16111698D01*
X11358277Y-16111698D02*
X11367801Y-16130746D01*
X11367801Y-16130746D02*
X11367801Y-16187888D01*
X11367801Y-16187888D02*
X11358277Y-16206936D01*
X11358277Y-16206936D02*
X11348753Y-16216460D01*
X11348753Y-16216460D02*
X11329706Y-16225984D01*
X11329706Y-16225984D02*
X11301134Y-16225984D01*
X11482087Y-16225984D02*
X11463039Y-16216460D01*
X11463039Y-16216460D02*
X11453515Y-16197412D01*
X11453515Y-16197412D02*
X11453515Y-16025984D01*
X11634468Y-16216460D02*
X11615420Y-16225984D01*
X11615420Y-16225984D02*
X11577325Y-16225984D01*
X11577325Y-16225984D02*
X11558277Y-16216460D01*
X11558277Y-16216460D02*
X11548753Y-16197412D01*
X11548753Y-16197412D02*
X11548753Y-16121222D01*
X11548753Y-16121222D02*
X11558277Y-16102174D01*
X11558277Y-16102174D02*
X11577325Y-16092650D01*
X11577325Y-16092650D02*
X11615420Y-16092650D01*
X11615420Y-16092650D02*
X11634468Y-16102174D01*
X11634468Y-16102174D02*
X11643991Y-16121222D01*
X11643991Y-16121222D02*
X11643991Y-16140269D01*
X11643991Y-16140269D02*
X11548753Y-16159317D01*
X11720182Y-16216460D02*
X11739230Y-16225984D01*
X11739230Y-16225984D02*
X11777325Y-16225984D01*
X11777325Y-16225984D02*
X11796372Y-16216460D01*
X11796372Y-16216460D02*
X11805896Y-16197412D01*
X11805896Y-16197412D02*
X11805896Y-16187888D01*
X11805896Y-16187888D02*
X11796372Y-16168841D01*
X11796372Y-16168841D02*
X11777325Y-16159317D01*
X11777325Y-16159317D02*
X11748753Y-16159317D01*
X11748753Y-16159317D02*
X11729706Y-16149793D01*
X11729706Y-16149793D02*
X11720182Y-16130746D01*
X11720182Y-16130746D02*
X11720182Y-16121222D01*
X11720182Y-16121222D02*
X11729706Y-16102174D01*
X11729706Y-16102174D02*
X11748753Y-16092650D01*
X11748753Y-16092650D02*
X11777325Y-16092650D01*
X11777325Y-16092650D02*
X11796372Y-16102174D01*
X11872563Y-16302174D02*
X11882087Y-16292650D01*
X11882087Y-16292650D02*
X11901134Y-16264079D01*
X11901134Y-16264079D02*
X11910658Y-16245031D01*
X11910658Y-16245031D02*
X11920182Y-16216460D01*
X11920182Y-16216460D02*
X11929706Y-16168841D01*
X11929706Y-16168841D02*
X11929706Y-16130746D01*
X11929706Y-16130746D02*
X11920182Y-16083127D01*
X11920182Y-16083127D02*
X11910658Y-16054555D01*
X11910658Y-16054555D02*
X11901134Y-16035508D01*
X11901134Y-16035508D02*
X11882087Y-16006936D01*
X11882087Y-16006936D02*
X11872563Y-15997412D01*
D14*
X7017500Y-16478500D02*
X7097500Y-16398500D01*
X7017500Y-16318500D01*
X6937500Y-16398500D01*
X7017500Y-16478500D01*
D11*
X7463039Y-16489984D02*
X7348753Y-16489984D01*
X7405896Y-16489984D02*
X7405896Y-16289984D01*
X7405896Y-16289984D02*
X7386848Y-16318555D01*
X7386848Y-16318555D02*
X7367801Y-16337603D01*
X7367801Y-16337603D02*
X7348753Y-16347127D01*
X7548753Y-16470936D02*
X7558277Y-16480460D01*
X7558277Y-16480460D02*
X7548753Y-16489984D01*
X7548753Y-16489984D02*
X7539229Y-16480460D01*
X7539229Y-16480460D02*
X7548753Y-16470936D01*
X7548753Y-16470936D02*
X7548753Y-16489984D01*
X7729705Y-16289984D02*
X7691610Y-16289984D01*
X7691610Y-16289984D02*
X7672562Y-16299508D01*
X7672562Y-16299508D02*
X7663039Y-16309031D01*
X7663039Y-16309031D02*
X7643991Y-16337603D01*
X7643991Y-16337603D02*
X7634467Y-16375698D01*
X7634467Y-16375698D02*
X7634467Y-16451888D01*
X7634467Y-16451888D02*
X7643991Y-16470936D01*
X7643991Y-16470936D02*
X7653515Y-16480460D01*
X7653515Y-16480460D02*
X7672562Y-16489984D01*
X7672562Y-16489984D02*
X7710658Y-16489984D01*
X7710658Y-16489984D02*
X7729705Y-16480460D01*
X7729705Y-16480460D02*
X7739229Y-16470936D01*
X7739229Y-16470936D02*
X7748753Y-16451888D01*
X7748753Y-16451888D02*
X7748753Y-16404269D01*
X7748753Y-16404269D02*
X7739229Y-16385222D01*
X7739229Y-16385222D02*
X7729705Y-16375698D01*
X7729705Y-16375698D02*
X7710658Y-16366174D01*
X7710658Y-16366174D02*
X7672562Y-16366174D01*
X7672562Y-16366174D02*
X7653515Y-16375698D01*
X7653515Y-16375698D02*
X7643991Y-16385222D01*
X7643991Y-16385222D02*
X7634467Y-16404269D01*
X7872562Y-16289984D02*
X7891610Y-16289984D01*
X7891610Y-16289984D02*
X7910658Y-16299508D01*
X7910658Y-16299508D02*
X7920182Y-16309031D01*
X7920182Y-16309031D02*
X7929705Y-16328079D01*
X7929705Y-16328079D02*
X7939229Y-16366174D01*
X7939229Y-16366174D02*
X7939229Y-16413793D01*
X7939229Y-16413793D02*
X7929705Y-16451888D01*
X7929705Y-16451888D02*
X7920182Y-16470936D01*
X7920182Y-16470936D02*
X7910658Y-16480460D01*
X7910658Y-16480460D02*
X7891610Y-16489984D01*
X7891610Y-16489984D02*
X7872562Y-16489984D01*
X7872562Y-16489984D02*
X7853515Y-16480460D01*
X7853515Y-16480460D02*
X7843991Y-16470936D01*
X7843991Y-16470936D02*
X7834467Y-16451888D01*
X7834467Y-16451888D02*
X7824943Y-16413793D01*
X7824943Y-16413793D02*
X7824943Y-16366174D01*
X7824943Y-16366174D02*
X7834467Y-16328079D01*
X7834467Y-16328079D02*
X7843991Y-16309031D01*
X7843991Y-16309031D02*
X7853515Y-16299508D01*
X7853515Y-16299508D02*
X7872562Y-16289984D01*
X8063039Y-16289984D02*
X8082086Y-16289984D01*
X8082086Y-16289984D02*
X8101134Y-16299508D01*
X8101134Y-16299508D02*
X8110658Y-16309031D01*
X8110658Y-16309031D02*
X8120182Y-16328079D01*
X8120182Y-16328079D02*
X8129705Y-16366174D01*
X8129705Y-16366174D02*
X8129705Y-16413793D01*
X8129705Y-16413793D02*
X8120182Y-16451888D01*
X8120182Y-16451888D02*
X8110658Y-16470936D01*
X8110658Y-16470936D02*
X8101134Y-16480460D01*
X8101134Y-16480460D02*
X8082086Y-16489984D01*
X8082086Y-16489984D02*
X8063039Y-16489984D01*
X8063039Y-16489984D02*
X8043991Y-16480460D01*
X8043991Y-16480460D02*
X8034467Y-16470936D01*
X8034467Y-16470936D02*
X8024943Y-16451888D01*
X8024943Y-16451888D02*
X8015420Y-16413793D01*
X8015420Y-16413793D02*
X8015420Y-16366174D01*
X8015420Y-16366174D02*
X8024943Y-16328079D01*
X8024943Y-16328079D02*
X8034467Y-16309031D01*
X8034467Y-16309031D02*
X8043991Y-16299508D01*
X8043991Y-16299508D02*
X8063039Y-16289984D01*
X8215420Y-16489984D02*
X8215420Y-16356650D01*
X8215420Y-16375698D02*
X8224943Y-16366174D01*
X8224943Y-16366174D02*
X8243991Y-16356650D01*
X8243991Y-16356650D02*
X8272563Y-16356650D01*
X8272563Y-16356650D02*
X8291610Y-16366174D01*
X8291610Y-16366174D02*
X8301134Y-16385222D01*
X8301134Y-16385222D02*
X8301134Y-16489984D01*
X8301134Y-16385222D02*
X8310658Y-16366174D01*
X8310658Y-16366174D02*
X8329705Y-16356650D01*
X8329705Y-16356650D02*
X8358277Y-16356650D01*
X8358277Y-16356650D02*
X8377324Y-16366174D01*
X8377324Y-16366174D02*
X8386848Y-16385222D01*
X8386848Y-16385222D02*
X8386848Y-16489984D01*
X8482086Y-16489984D02*
X8482086Y-16356650D01*
X8482086Y-16375698D02*
X8491610Y-16366174D01*
X8491610Y-16366174D02*
X8510658Y-16356650D01*
X8510658Y-16356650D02*
X8539229Y-16356650D01*
X8539229Y-16356650D02*
X8558277Y-16366174D01*
X8558277Y-16366174D02*
X8567801Y-16385222D01*
X8567801Y-16385222D02*
X8567801Y-16489984D01*
X8567801Y-16385222D02*
X8577325Y-16366174D01*
X8577325Y-16366174D02*
X8596372Y-16356650D01*
X8596372Y-16356650D02*
X8624944Y-16356650D01*
X8624944Y-16356650D02*
X8643991Y-16366174D01*
X8643991Y-16366174D02*
X8653515Y-16385222D01*
X8653515Y-16385222D02*
X8653515Y-16489984D01*
X9043991Y-16280460D02*
X8872563Y-16537603D01*
X9301134Y-16289984D02*
X9320182Y-16289984D01*
X9320182Y-16289984D02*
X9339229Y-16299508D01*
X9339229Y-16299508D02*
X9348753Y-16309031D01*
X9348753Y-16309031D02*
X9358277Y-16328079D01*
X9358277Y-16328079D02*
X9367801Y-16366174D01*
X9367801Y-16366174D02*
X9367801Y-16413793D01*
X9367801Y-16413793D02*
X9358277Y-16451888D01*
X9358277Y-16451888D02*
X9348753Y-16470936D01*
X9348753Y-16470936D02*
X9339229Y-16480460D01*
X9339229Y-16480460D02*
X9320182Y-16489984D01*
X9320182Y-16489984D02*
X9301134Y-16489984D01*
X9301134Y-16489984D02*
X9282087Y-16480460D01*
X9282087Y-16480460D02*
X9272563Y-16470936D01*
X9272563Y-16470936D02*
X9263039Y-16451888D01*
X9263039Y-16451888D02*
X9253515Y-16413793D01*
X9253515Y-16413793D02*
X9253515Y-16366174D01*
X9253515Y-16366174D02*
X9263039Y-16328079D01*
X9263039Y-16328079D02*
X9272563Y-16309031D01*
X9272563Y-16309031D02*
X9282087Y-16299508D01*
X9282087Y-16299508D02*
X9301134Y-16289984D01*
X9453515Y-16470936D02*
X9463039Y-16480460D01*
X9463039Y-16480460D02*
X9453515Y-16489984D01*
X9453515Y-16489984D02*
X9443991Y-16480460D01*
X9443991Y-16480460D02*
X9453515Y-16470936D01*
X9453515Y-16470936D02*
X9453515Y-16489984D01*
X9586848Y-16289984D02*
X9605896Y-16289984D01*
X9605896Y-16289984D02*
X9624944Y-16299508D01*
X9624944Y-16299508D02*
X9634468Y-16309031D01*
X9634468Y-16309031D02*
X9643991Y-16328079D01*
X9643991Y-16328079D02*
X9653515Y-16366174D01*
X9653515Y-16366174D02*
X9653515Y-16413793D01*
X9653515Y-16413793D02*
X9643991Y-16451888D01*
X9643991Y-16451888D02*
X9634468Y-16470936D01*
X9634468Y-16470936D02*
X9624944Y-16480460D01*
X9624944Y-16480460D02*
X9605896Y-16489984D01*
X9605896Y-16489984D02*
X9586848Y-16489984D01*
X9586848Y-16489984D02*
X9567801Y-16480460D01*
X9567801Y-16480460D02*
X9558277Y-16470936D01*
X9558277Y-16470936D02*
X9548753Y-16451888D01*
X9548753Y-16451888D02*
X9539229Y-16413793D01*
X9539229Y-16413793D02*
X9539229Y-16366174D01*
X9539229Y-16366174D02*
X9548753Y-16328079D01*
X9548753Y-16328079D02*
X9558277Y-16309031D01*
X9558277Y-16309031D02*
X9567801Y-16299508D01*
X9567801Y-16299508D02*
X9586848Y-16289984D01*
X9824944Y-16289984D02*
X9786848Y-16289984D01*
X9786848Y-16289984D02*
X9767801Y-16299508D01*
X9767801Y-16299508D02*
X9758277Y-16309031D01*
X9758277Y-16309031D02*
X9739229Y-16337603D01*
X9739229Y-16337603D02*
X9729706Y-16375698D01*
X9729706Y-16375698D02*
X9729706Y-16451888D01*
X9729706Y-16451888D02*
X9739229Y-16470936D01*
X9739229Y-16470936D02*
X9748753Y-16480460D01*
X9748753Y-16480460D02*
X9767801Y-16489984D01*
X9767801Y-16489984D02*
X9805896Y-16489984D01*
X9805896Y-16489984D02*
X9824944Y-16480460D01*
X9824944Y-16480460D02*
X9834468Y-16470936D01*
X9834468Y-16470936D02*
X9843991Y-16451888D01*
X9843991Y-16451888D02*
X9843991Y-16404269D01*
X9843991Y-16404269D02*
X9834468Y-16385222D01*
X9834468Y-16385222D02*
X9824944Y-16375698D01*
X9824944Y-16375698D02*
X9805896Y-16366174D01*
X9805896Y-16366174D02*
X9767801Y-16366174D01*
X9767801Y-16366174D02*
X9748753Y-16375698D01*
X9748753Y-16375698D02*
X9739229Y-16385222D01*
X9739229Y-16385222D02*
X9729706Y-16404269D01*
X9910658Y-16289984D02*
X10034468Y-16289984D01*
X10034468Y-16289984D02*
X9967801Y-16366174D01*
X9967801Y-16366174D02*
X9996372Y-16366174D01*
X9996372Y-16366174D02*
X10015420Y-16375698D01*
X10015420Y-16375698D02*
X10024944Y-16385222D01*
X10024944Y-16385222D02*
X10034468Y-16404269D01*
X10034468Y-16404269D02*
X10034468Y-16451888D01*
X10034468Y-16451888D02*
X10024944Y-16470936D01*
X10024944Y-16470936D02*
X10015420Y-16480460D01*
X10015420Y-16480460D02*
X9996372Y-16489984D01*
X9996372Y-16489984D02*
X9939229Y-16489984D01*
X9939229Y-16489984D02*
X9920182Y-16480460D01*
X9920182Y-16480460D02*
X9910658Y-16470936D01*
X10158277Y-16289984D02*
X10177325Y-16289984D01*
X10177325Y-16289984D02*
X10196372Y-16299508D01*
X10196372Y-16299508D02*
X10205896Y-16309031D01*
X10205896Y-16309031D02*
X10215420Y-16328079D01*
X10215420Y-16328079D02*
X10224944Y-16366174D01*
X10224944Y-16366174D02*
X10224944Y-16413793D01*
X10224944Y-16413793D02*
X10215420Y-16451888D01*
X10215420Y-16451888D02*
X10205896Y-16470936D01*
X10205896Y-16470936D02*
X10196372Y-16480460D01*
X10196372Y-16480460D02*
X10177325Y-16489984D01*
X10177325Y-16489984D02*
X10158277Y-16489984D01*
X10158277Y-16489984D02*
X10139229Y-16480460D01*
X10139229Y-16480460D02*
X10129706Y-16470936D01*
X10129706Y-16470936D02*
X10120182Y-16451888D01*
X10120182Y-16451888D02*
X10110658Y-16413793D01*
X10110658Y-16413793D02*
X10110658Y-16366174D01*
X10110658Y-16366174D02*
X10120182Y-16328079D01*
X10120182Y-16328079D02*
X10129706Y-16309031D01*
X10129706Y-16309031D02*
X10139229Y-16299508D01*
X10139229Y-16299508D02*
X10158277Y-16289984D01*
X10301134Y-16289984D02*
X10301134Y-16328079D01*
X10377325Y-16289984D02*
X10377325Y-16328079D01*
X10672563Y-16566174D02*
X10663039Y-16556650D01*
X10663039Y-16556650D02*
X10643991Y-16528079D01*
X10643991Y-16528079D02*
X10634468Y-16509031D01*
X10634468Y-16509031D02*
X10624944Y-16480460D01*
X10624944Y-16480460D02*
X10615420Y-16432841D01*
X10615420Y-16432841D02*
X10615420Y-16394746D01*
X10615420Y-16394746D02*
X10624944Y-16347127D01*
X10624944Y-16347127D02*
X10634468Y-16318555D01*
X10634468Y-16318555D02*
X10643991Y-16299508D01*
X10643991Y-16299508D02*
X10663039Y-16270936D01*
X10663039Y-16270936D02*
X10672563Y-16261412D01*
X10739230Y-16309031D02*
X10748753Y-16299508D01*
X10748753Y-16299508D02*
X10767801Y-16289984D01*
X10767801Y-16289984D02*
X10815420Y-16289984D01*
X10815420Y-16289984D02*
X10834468Y-16299508D01*
X10834468Y-16299508D02*
X10843991Y-16309031D01*
X10843991Y-16309031D02*
X10853515Y-16328079D01*
X10853515Y-16328079D02*
X10853515Y-16347127D01*
X10853515Y-16347127D02*
X10843991Y-16375698D01*
X10843991Y-16375698D02*
X10729706Y-16489984D01*
X10729706Y-16489984D02*
X10853515Y-16489984D01*
X11091611Y-16489984D02*
X11091611Y-16289984D01*
X11177325Y-16489984D02*
X11177325Y-16385222D01*
X11177325Y-16385222D02*
X11167801Y-16366174D01*
X11167801Y-16366174D02*
X11148753Y-16356650D01*
X11148753Y-16356650D02*
X11120182Y-16356650D01*
X11120182Y-16356650D02*
X11101134Y-16366174D01*
X11101134Y-16366174D02*
X11091611Y-16375698D01*
X11301134Y-16489984D02*
X11282087Y-16480460D01*
X11282087Y-16480460D02*
X11272563Y-16470936D01*
X11272563Y-16470936D02*
X11263039Y-16451888D01*
X11263039Y-16451888D02*
X11263039Y-16394746D01*
X11263039Y-16394746D02*
X11272563Y-16375698D01*
X11272563Y-16375698D02*
X11282087Y-16366174D01*
X11282087Y-16366174D02*
X11301134Y-16356650D01*
X11301134Y-16356650D02*
X11329706Y-16356650D01*
X11329706Y-16356650D02*
X11348753Y-16366174D01*
X11348753Y-16366174D02*
X11358277Y-16375698D01*
X11358277Y-16375698D02*
X11367801Y-16394746D01*
X11367801Y-16394746D02*
X11367801Y-16451888D01*
X11367801Y-16451888D02*
X11358277Y-16470936D01*
X11358277Y-16470936D02*
X11348753Y-16480460D01*
X11348753Y-16480460D02*
X11329706Y-16489984D01*
X11329706Y-16489984D02*
X11301134Y-16489984D01*
X11482087Y-16489984D02*
X11463039Y-16480460D01*
X11463039Y-16480460D02*
X11453515Y-16461412D01*
X11453515Y-16461412D02*
X11453515Y-16289984D01*
X11634468Y-16480460D02*
X11615420Y-16489984D01*
X11615420Y-16489984D02*
X11577325Y-16489984D01*
X11577325Y-16489984D02*
X11558277Y-16480460D01*
X11558277Y-16480460D02*
X11548753Y-16461412D01*
X11548753Y-16461412D02*
X11548753Y-16385222D01*
X11548753Y-16385222D02*
X11558277Y-16366174D01*
X11558277Y-16366174D02*
X11577325Y-16356650D01*
X11577325Y-16356650D02*
X11615420Y-16356650D01*
X11615420Y-16356650D02*
X11634468Y-16366174D01*
X11634468Y-16366174D02*
X11643991Y-16385222D01*
X11643991Y-16385222D02*
X11643991Y-16404269D01*
X11643991Y-16404269D02*
X11548753Y-16423317D01*
X11720182Y-16480460D02*
X11739230Y-16489984D01*
X11739230Y-16489984D02*
X11777325Y-16489984D01*
X11777325Y-16489984D02*
X11796372Y-16480460D01*
X11796372Y-16480460D02*
X11805896Y-16461412D01*
X11805896Y-16461412D02*
X11805896Y-16451888D01*
X11805896Y-16451888D02*
X11796372Y-16432841D01*
X11796372Y-16432841D02*
X11777325Y-16423317D01*
X11777325Y-16423317D02*
X11748753Y-16423317D01*
X11748753Y-16423317D02*
X11729706Y-16413793D01*
X11729706Y-16413793D02*
X11720182Y-16394746D01*
X11720182Y-16394746D02*
X11720182Y-16385222D01*
X11720182Y-16385222D02*
X11729706Y-16366174D01*
X11729706Y-16366174D02*
X11748753Y-16356650D01*
X11748753Y-16356650D02*
X11777325Y-16356650D01*
X11777325Y-16356650D02*
X11796372Y-16366174D01*
X11872563Y-16566174D02*
X11882087Y-16556650D01*
X11882087Y-16556650D02*
X11901134Y-16528079D01*
X11901134Y-16528079D02*
X11910658Y-16509031D01*
X11910658Y-16509031D02*
X11920182Y-16480460D01*
X11920182Y-16480460D02*
X11929706Y-16432841D01*
X11929706Y-16432841D02*
X11929706Y-16394746D01*
X11929706Y-16394746D02*
X11920182Y-16347127D01*
X11920182Y-16347127D02*
X11910658Y-16318555D01*
X11910658Y-16318555D02*
X11901134Y-16299508D01*
X11901134Y-16299508D02*
X11882087Y-16270936D01*
X11882087Y-16270936D02*
X11872563Y-16261412D01*
M02*
