G04 #@! TF.GenerationSoftware,KiCad,Pcbnew,8.0.8-8.0.8-0~ubuntu24.04.1*
G04 #@! TF.CreationDate,2025-04-08T09:18:08-05:00*
G04 #@! TF.ProjectId,wasabi,77617361-6269-42e6-9b69-6361645f7063,rev?*
G04 #@! TF.SameCoordinates,Original*
G04 #@! TF.FileFunction,Legend,Top*
G04 #@! TF.FilePolarity,Positive*
%FSLAX46Y46*%
G04 Gerber Fmt 4.6, Leading zero omitted, Abs format (unit mm)*
G04 Created by KiCad (PCBNEW 8.0.8-8.0.8-0~ubuntu24.04.1) date 2025-04-08 09:18:08*
%MOMM*%
%LPD*%
G01*
G04 APERTURE LIST*
G04 Aperture macros list*
%AMRoundRect*
0 Rectangle with rounded corners*
0 $1 Rounding radius*
0 $2 $3 $4 $5 $6 $7 $8 $9 X,Y pos of 4 corners*
0 Add a 4 corners polygon primitive as box body*
4,1,4,$2,$3,$4,$5,$6,$7,$8,$9,$2,$3,0*
0 Add four circle primitives for the rounded corners*
1,1,$1+$1,$2,$3*
1,1,$1+$1,$4,$5*
1,1,$1+$1,$6,$7*
1,1,$1+$1,$8,$9*
0 Add four rect primitives between the rounded corners*
20,1,$1+$1,$2,$3,$4,$5,0*
20,1,$1+$1,$4,$5,$6,$7,0*
20,1,$1+$1,$6,$7,$8,$9,0*
20,1,$1+$1,$8,$9,$2,$3,0*%
G04 Aperture macros list end*
%ADD10C,0.150000*%
%ADD11C,0.120000*%
%ADD12RoundRect,0.250000X0.725000X-0.600000X0.725000X0.600000X-0.725000X0.600000X-0.725000X-0.600000X0*%
%ADD13O,1.950000X1.700000*%
%ADD14C,1.500000*%
%ADD15C,1.600000*%
%ADD16RoundRect,0.250000X0.600000X0.750000X-0.600000X0.750000X-0.600000X-0.750000X0.600000X-0.750000X0*%
%ADD17O,1.700000X2.000000*%
%ADD18R,1.800000X1.800000*%
%ADD19O,1.800000X1.800000*%
%ADD20R,3.200000X3.200000*%
%ADD21O,3.200000X3.200000*%
%ADD22RoundRect,0.250000X2.500000X-1.750000X2.500000X1.750000X-2.500000X1.750000X-2.500000X-1.750000X0*%
%ADD23R,1.600000X1.600000*%
%ADD24R,1.700000X1.700000*%
%ADD25O,1.700000X1.700000*%
G04 APERTURE END LIST*
D10*
X73654819Y-105133333D02*
X74369104Y-105133333D01*
X74369104Y-105133333D02*
X74511961Y-105180952D01*
X74511961Y-105180952D02*
X74607200Y-105276190D01*
X74607200Y-105276190D02*
X74654819Y-105419047D01*
X74654819Y-105419047D02*
X74654819Y-105514285D01*
X73654819Y-104752380D02*
X73654819Y-104085714D01*
X73654819Y-104085714D02*
X74654819Y-104514285D01*
X73904819Y-134119523D02*
X74619104Y-134119523D01*
X74619104Y-134119523D02*
X74761961Y-134167142D01*
X74761961Y-134167142D02*
X74857200Y-134262380D01*
X74857200Y-134262380D02*
X74904819Y-134405237D01*
X74904819Y-134405237D02*
X74904819Y-134500475D01*
X74904819Y-133119523D02*
X74904819Y-133690951D01*
X74904819Y-133405237D02*
X73904819Y-133405237D01*
X73904819Y-133405237D02*
X74047676Y-133500475D01*
X74047676Y-133500475D02*
X74142914Y-133595713D01*
X74142914Y-133595713D02*
X74190533Y-133690951D01*
X74238152Y-132262380D02*
X74904819Y-132262380D01*
X73857200Y-132500475D02*
X74571485Y-132738570D01*
X74571485Y-132738570D02*
X74571485Y-132119523D01*
X73154819Y-82083333D02*
X73869104Y-82083333D01*
X73869104Y-82083333D02*
X74011961Y-82130952D01*
X74011961Y-82130952D02*
X74107200Y-82226190D01*
X74107200Y-82226190D02*
X74154819Y-82369047D01*
X74154819Y-82369047D02*
X74154819Y-82464285D01*
X73154819Y-81178571D02*
X73154819Y-81369047D01*
X73154819Y-81369047D02*
X73202438Y-81464285D01*
X73202438Y-81464285D02*
X73250057Y-81511904D01*
X73250057Y-81511904D02*
X73392914Y-81607142D01*
X73392914Y-81607142D02*
X73583390Y-81654761D01*
X73583390Y-81654761D02*
X73964342Y-81654761D01*
X73964342Y-81654761D02*
X74059580Y-81607142D01*
X74059580Y-81607142D02*
X74107200Y-81559523D01*
X74107200Y-81559523D02*
X74154819Y-81464285D01*
X74154819Y-81464285D02*
X74154819Y-81273809D01*
X74154819Y-81273809D02*
X74107200Y-81178571D01*
X74107200Y-81178571D02*
X74059580Y-81130952D01*
X74059580Y-81130952D02*
X73964342Y-81083333D01*
X73964342Y-81083333D02*
X73726247Y-81083333D01*
X73726247Y-81083333D02*
X73631009Y-81130952D01*
X73631009Y-81130952D02*
X73583390Y-81178571D01*
X73583390Y-81178571D02*
X73535771Y-81273809D01*
X73535771Y-81273809D02*
X73535771Y-81464285D01*
X73535771Y-81464285D02*
X73583390Y-81559523D01*
X73583390Y-81559523D02*
X73631009Y-81607142D01*
X73631009Y-81607142D02*
X73726247Y-81654761D01*
D11*
X101250000Y-137660000D02*
X101250000Y-138910000D01*
X101250000Y-138910000D02*
X102500000Y-138910000D01*
X101540000Y-126000000D02*
X101540000Y-138620000D01*
X101540000Y-138620000D02*
X107510000Y-138620000D01*
X101550000Y-126010000D02*
X101550000Y-127810000D01*
X101550000Y-127810000D02*
X102300000Y-127810000D01*
X101550000Y-129310000D02*
X101550000Y-135310000D01*
X101550000Y-135310000D02*
X102300000Y-135310000D01*
X101550000Y-136810000D02*
X101550000Y-138610000D01*
X101550000Y-138610000D02*
X102300000Y-138610000D01*
X102300000Y-126010000D02*
X101550000Y-126010000D01*
X102300000Y-127810000D02*
X102300000Y-126010000D01*
X102300000Y-129310000D02*
X101550000Y-129310000D01*
X102300000Y-135310000D02*
X102300000Y-129310000D01*
X102300000Y-136810000D02*
X101550000Y-136810000D01*
X102300000Y-138610000D02*
X102300000Y-136810000D01*
X103800000Y-126010000D02*
X103800000Y-126760000D01*
X103800000Y-126760000D02*
X106750000Y-126760000D01*
X103800000Y-137860000D02*
X106750000Y-137860000D01*
X103800000Y-138610000D02*
X103800000Y-137860000D01*
X106750000Y-126760000D02*
X106750000Y-132310000D01*
X106750000Y-137860000D02*
X106750000Y-132310000D01*
X107510000Y-126000000D02*
X101540000Y-126000000D01*
X107510000Y-138620000D02*
X107510000Y-126000000D01*
X133620000Y-55450000D02*
G75*
G02*
X123380000Y-55450000I-5120000J0D01*
G01*
X123380000Y-55450000D02*
G75*
G02*
X133620000Y-55450000I5120000J0D01*
G01*
X100475000Y-87350000D02*
X100475000Y-88600000D01*
X100475000Y-88600000D02*
X101725000Y-88600000D01*
X100765000Y-75690000D02*
X100765000Y-88310000D01*
X100765000Y-88310000D02*
X106735000Y-88310000D01*
X100775000Y-75700000D02*
X100775000Y-77500000D01*
X100775000Y-77500000D02*
X101525000Y-77500000D01*
X100775000Y-79000000D02*
X100775000Y-85000000D01*
X100775000Y-85000000D02*
X101525000Y-85000000D01*
X100775000Y-86500000D02*
X100775000Y-88300000D01*
X100775000Y-88300000D02*
X101525000Y-88300000D01*
X101525000Y-75700000D02*
X100775000Y-75700000D01*
X101525000Y-77500000D02*
X101525000Y-75700000D01*
X101525000Y-79000000D02*
X100775000Y-79000000D01*
X101525000Y-85000000D02*
X101525000Y-79000000D01*
X101525000Y-86500000D02*
X100775000Y-86500000D01*
X101525000Y-88300000D02*
X101525000Y-86500000D01*
X103025000Y-75700000D02*
X103025000Y-76450000D01*
X103025000Y-76450000D02*
X105975000Y-76450000D01*
X103025000Y-87550000D02*
X105975000Y-87550000D01*
X103025000Y-88300000D02*
X103025000Y-87550000D01*
X105975000Y-76450000D02*
X105975000Y-82000000D01*
X105975000Y-87550000D02*
X105975000Y-82000000D01*
X106735000Y-75690000D02*
X100765000Y-75690000D01*
X106735000Y-88310000D02*
X106735000Y-75690000D01*
X154500000Y-109650000D02*
X154500000Y-110900000D01*
X154500000Y-110900000D02*
X155750000Y-110900000D01*
X154790000Y-97990000D02*
X154790000Y-110610000D01*
X154790000Y-110610000D02*
X160760000Y-110610000D01*
X154800000Y-98000000D02*
X154800000Y-99800000D01*
X154800000Y-99800000D02*
X155550000Y-99800000D01*
X154800000Y-101300000D02*
X154800000Y-107300000D01*
X154800000Y-107300000D02*
X155550000Y-107300000D01*
X154800000Y-108800000D02*
X154800000Y-110600000D01*
X154800000Y-110600000D02*
X155550000Y-110600000D01*
X155550000Y-98000000D02*
X154800000Y-98000000D01*
X155550000Y-99800000D02*
X155550000Y-98000000D01*
X155550000Y-101300000D02*
X154800000Y-101300000D01*
X155550000Y-107300000D02*
X155550000Y-101300000D01*
X155550000Y-108800000D02*
X154800000Y-108800000D01*
X155550000Y-110600000D02*
X155550000Y-108800000D01*
X157050000Y-98000000D02*
X157050000Y-98750000D01*
X157050000Y-98750000D02*
X160000000Y-98750000D01*
X157050000Y-109850000D02*
X160000000Y-109850000D01*
X157050000Y-110600000D02*
X157050000Y-109850000D01*
X160000000Y-98750000D02*
X160000000Y-104300000D01*
X160000000Y-109850000D02*
X160000000Y-104300000D01*
X160760000Y-97990000D02*
X154790000Y-97990000D01*
X160760000Y-110610000D02*
X160760000Y-97990000D01*
X104340000Y-59515000D02*
X104340000Y-65485000D01*
X104340000Y-65485000D02*
X111960000Y-65485000D01*
X104350000Y-63225000D02*
X105100000Y-63225000D01*
X104350000Y-64725000D02*
X104350000Y-65475000D01*
X104350000Y-65475000D02*
X106150000Y-65475000D01*
X105100000Y-60275000D02*
X108150000Y-60275000D01*
X105100000Y-63225000D02*
X105100000Y-60275000D01*
X106150000Y-64725000D02*
X104350000Y-64725000D01*
X106150000Y-65475000D02*
X106150000Y-64725000D01*
X107650000Y-64725000D02*
X107650000Y-65475000D01*
X107650000Y-65475000D02*
X108650000Y-65475000D01*
X108650000Y-64725000D02*
X107650000Y-64725000D01*
X108650000Y-65475000D02*
X108650000Y-64725000D01*
X110150000Y-64725000D02*
X110150000Y-65475000D01*
X110150000Y-65475000D02*
X111950000Y-65475000D01*
X111000000Y-65775000D02*
X112250000Y-65775000D01*
X111200000Y-60275000D02*
X108150000Y-60275000D01*
X111200000Y-63225000D02*
X111200000Y-60275000D01*
X111950000Y-63225000D02*
X111200000Y-63225000D01*
X111950000Y-64725000D02*
X110150000Y-64725000D01*
X111950000Y-65475000D02*
X111950000Y-64725000D01*
X111960000Y-59515000D02*
X104340000Y-59515000D01*
X111960000Y-65485000D02*
X111960000Y-59515000D01*
X112250000Y-65775000D02*
X112250000Y-64525000D01*
X154750000Y-138660000D02*
X154750000Y-139910000D01*
X154750000Y-139910000D02*
X156000000Y-139910000D01*
X155040000Y-127000000D02*
X155040000Y-139620000D01*
X155040000Y-139620000D02*
X161010000Y-139620000D01*
X155050000Y-127010000D02*
X155050000Y-128810000D01*
X155050000Y-128810000D02*
X155800000Y-128810000D01*
X155050000Y-130310000D02*
X155050000Y-136310000D01*
X155050000Y-136310000D02*
X155800000Y-136310000D01*
X155050000Y-137810000D02*
X155050000Y-139610000D01*
X155050000Y-139610000D02*
X155800000Y-139610000D01*
X155800000Y-127010000D02*
X155050000Y-127010000D01*
X155800000Y-128810000D02*
X155800000Y-127010000D01*
X155800000Y-130310000D02*
X155050000Y-130310000D01*
X155800000Y-136310000D02*
X155800000Y-130310000D01*
X155800000Y-137810000D02*
X155050000Y-137810000D01*
X155800000Y-139610000D02*
X155800000Y-137810000D01*
X157300000Y-127010000D02*
X157300000Y-127760000D01*
X157300000Y-127760000D02*
X160250000Y-127760000D01*
X157300000Y-138860000D02*
X160250000Y-138860000D01*
X157300000Y-139610000D02*
X157300000Y-138860000D01*
X160250000Y-127760000D02*
X160250000Y-133310000D01*
X160250000Y-138860000D02*
X160250000Y-133310000D01*
X161010000Y-127000000D02*
X155040000Y-127000000D01*
X161010000Y-139620000D02*
X161010000Y-127000000D01*
X100500000Y-109650000D02*
X100500000Y-110900000D01*
X100500000Y-110900000D02*
X101750000Y-110900000D01*
X100790000Y-97990000D02*
X100790000Y-110610000D01*
X100790000Y-110610000D02*
X106760000Y-110610000D01*
X100800000Y-98000000D02*
X100800000Y-99800000D01*
X100800000Y-99800000D02*
X101550000Y-99800000D01*
X100800000Y-101300000D02*
X100800000Y-107300000D01*
X100800000Y-107300000D02*
X101550000Y-107300000D01*
X100800000Y-108800000D02*
X100800000Y-110600000D01*
X100800000Y-110600000D02*
X101550000Y-110600000D01*
X101550000Y-98000000D02*
X100800000Y-98000000D01*
X101550000Y-99800000D02*
X101550000Y-98000000D01*
X101550000Y-101300000D02*
X100800000Y-101300000D01*
X101550000Y-107300000D02*
X101550000Y-101300000D01*
X101550000Y-108800000D02*
X100800000Y-108800000D01*
X101550000Y-110600000D02*
X101550000Y-108800000D01*
X103050000Y-98000000D02*
X103050000Y-98750000D01*
X103050000Y-98750000D02*
X106000000Y-98750000D01*
X103050000Y-109850000D02*
X106000000Y-109850000D01*
X103050000Y-110600000D02*
X103050000Y-109850000D01*
X106000000Y-98750000D02*
X106000000Y-104300000D01*
X106000000Y-109850000D02*
X106000000Y-104300000D01*
X106760000Y-97990000D02*
X100790000Y-97990000D01*
X106760000Y-110610000D02*
X106760000Y-97990000D01*
X75000000Y-110150000D02*
X75000000Y-111400000D01*
X75000000Y-111400000D02*
X76250000Y-111400000D01*
X75290000Y-98490000D02*
X75290000Y-111110000D01*
X75290000Y-111110000D02*
X81260000Y-111110000D01*
X75300000Y-98500000D02*
X75300000Y-100300000D01*
X75300000Y-100300000D02*
X76050000Y-100300000D01*
X75300000Y-101800000D02*
X75300000Y-107800000D01*
X75300000Y-107800000D02*
X76050000Y-107800000D01*
X75300000Y-109300000D02*
X75300000Y-111100000D01*
X75300000Y-111100000D02*
X76050000Y-111100000D01*
X76050000Y-98500000D02*
X75300000Y-98500000D01*
X76050000Y-100300000D02*
X76050000Y-98500000D01*
X76050000Y-101800000D02*
X75300000Y-101800000D01*
X76050000Y-107800000D02*
X76050000Y-101800000D01*
X76050000Y-109300000D02*
X75300000Y-109300000D01*
X76050000Y-111100000D02*
X76050000Y-109300000D01*
X77550000Y-98500000D02*
X77550000Y-99250000D01*
X77550000Y-99250000D02*
X80500000Y-99250000D01*
X77550000Y-110350000D02*
X80500000Y-110350000D01*
X77550000Y-111100000D02*
X77550000Y-110350000D01*
X80500000Y-99250000D02*
X80500000Y-104800000D01*
X80500000Y-110350000D02*
X80500000Y-104800000D01*
X81260000Y-98490000D02*
X75290000Y-98490000D01*
X81260000Y-111110000D02*
X81260000Y-98490000D01*
X127250000Y-138160000D02*
X127250000Y-139410000D01*
X127250000Y-139410000D02*
X128500000Y-139410000D01*
X127540000Y-126500000D02*
X127540000Y-139120000D01*
X127540000Y-139120000D02*
X133510000Y-139120000D01*
X127550000Y-126510000D02*
X127550000Y-128310000D01*
X127550000Y-128310000D02*
X128300000Y-128310000D01*
X127550000Y-129810000D02*
X127550000Y-135810000D01*
X127550000Y-135810000D02*
X128300000Y-135810000D01*
X127550000Y-137310000D02*
X127550000Y-139110000D01*
X127550000Y-139110000D02*
X128300000Y-139110000D01*
X128300000Y-126510000D02*
X127550000Y-126510000D01*
X128300000Y-128310000D02*
X128300000Y-126510000D01*
X128300000Y-129810000D02*
X127550000Y-129810000D01*
X128300000Y-135810000D02*
X128300000Y-129810000D01*
X128300000Y-137310000D02*
X127550000Y-137310000D01*
X128300000Y-139110000D02*
X128300000Y-137310000D01*
X129800000Y-126510000D02*
X129800000Y-127260000D01*
X129800000Y-127260000D02*
X132750000Y-127260000D01*
X129800000Y-138360000D02*
X132750000Y-138360000D01*
X129800000Y-139110000D02*
X129800000Y-138360000D01*
X132750000Y-127260000D02*
X132750000Y-132810000D01*
X132750000Y-138360000D02*
X132750000Y-132810000D01*
X133510000Y-126500000D02*
X127540000Y-126500000D01*
X133510000Y-139120000D02*
X133510000Y-126500000D01*
X134079000Y-42330000D02*
X134079000Y-46971000D01*
X134079000Y-42330000D02*
X144320000Y-42330000D01*
X134079000Y-43839000D02*
X144320000Y-43839000D01*
X134079000Y-46971000D02*
X136435000Y-46971000D01*
X135800000Y-46971000D02*
X135800000Y-49601000D01*
X137350000Y-42330000D02*
X137350000Y-43839000D01*
X138565000Y-46971000D02*
X139835000Y-46971000D01*
X139200000Y-46971000D02*
X139200000Y-49585000D01*
X141050000Y-42330000D02*
X141050000Y-43839000D01*
X141965000Y-46971000D02*
X144320000Y-46971000D01*
X142600000Y-46971000D02*
X142600000Y-49585000D01*
X144320000Y-42330000D02*
X144320000Y-46971000D01*
X133970000Y-64250000D02*
X134880000Y-64250000D01*
X134880000Y-61530000D02*
X134880000Y-66970000D01*
X134880000Y-66970000D02*
X144620000Y-66970000D01*
X142955000Y-66970000D02*
X142955000Y-61530000D01*
X143075000Y-66970000D02*
X143075000Y-61530000D01*
X143195000Y-66970000D02*
X143195000Y-61530000D01*
X144620000Y-61530000D02*
X134880000Y-61530000D01*
X144620000Y-66970000D02*
X144620000Y-61530000D01*
X145530000Y-64250000D02*
X144620000Y-64250000D01*
X146240000Y-42490000D02*
X149490000Y-42490000D01*
X146240000Y-52640000D02*
X146240000Y-42490000D01*
X146240000Y-55010000D02*
X146240000Y-53360000D01*
X146240000Y-55010000D02*
X149490000Y-55010000D01*
X158760000Y-42490000D02*
X155510000Y-42490000D01*
X158760000Y-55010000D02*
X155510000Y-55010000D01*
X158760000Y-55010000D02*
X158760000Y-42490000D01*
X146240000Y-53000000D02*
X145910000Y-53240000D01*
X145910000Y-52760000D01*
X146240000Y-53000000D01*
G36*
X146240000Y-53000000D02*
G01*
X145910000Y-53240000D01*
X145910000Y-52760000D01*
X146240000Y-53000000D01*
G37*
X127500000Y-109650000D02*
X127500000Y-110900000D01*
X127500000Y-110900000D02*
X128750000Y-110900000D01*
X127790000Y-97990000D02*
X127790000Y-110610000D01*
X127790000Y-110610000D02*
X133760000Y-110610000D01*
X127800000Y-98000000D02*
X127800000Y-99800000D01*
X127800000Y-99800000D02*
X128550000Y-99800000D01*
X127800000Y-101300000D02*
X127800000Y-107300000D01*
X127800000Y-107300000D02*
X128550000Y-107300000D01*
X127800000Y-108800000D02*
X127800000Y-110600000D01*
X127800000Y-110600000D02*
X128550000Y-110600000D01*
X128550000Y-98000000D02*
X127800000Y-98000000D01*
X128550000Y-99800000D02*
X128550000Y-98000000D01*
X128550000Y-101300000D02*
X127800000Y-101300000D01*
X128550000Y-107300000D02*
X128550000Y-101300000D01*
X128550000Y-108800000D02*
X127800000Y-108800000D01*
X128550000Y-110600000D02*
X128550000Y-108800000D01*
X130050000Y-98000000D02*
X130050000Y-98750000D01*
X130050000Y-98750000D02*
X133000000Y-98750000D01*
X130050000Y-109850000D02*
X133000000Y-109850000D01*
X130050000Y-110600000D02*
X130050000Y-109850000D01*
X133000000Y-98750000D02*
X133000000Y-104300000D01*
X133000000Y-109850000D02*
X133000000Y-104300000D01*
X133760000Y-97990000D02*
X127790000Y-97990000D01*
X133760000Y-110610000D02*
X133760000Y-97990000D01*
X75250000Y-138660000D02*
X75250000Y-139910000D01*
X75250000Y-139910000D02*
X76500000Y-139910000D01*
X75540000Y-127000000D02*
X75540000Y-139620000D01*
X75540000Y-139620000D02*
X81510000Y-139620000D01*
X75550000Y-127010000D02*
X75550000Y-128810000D01*
X75550000Y-128810000D02*
X76300000Y-128810000D01*
X75550000Y-130310000D02*
X75550000Y-136310000D01*
X75550000Y-136310000D02*
X76300000Y-136310000D01*
X75550000Y-137810000D02*
X75550000Y-139610000D01*
X75550000Y-139610000D02*
X76300000Y-139610000D01*
X76300000Y-127010000D02*
X75550000Y-127010000D01*
X76300000Y-128810000D02*
X76300000Y-127010000D01*
X76300000Y-130310000D02*
X75550000Y-130310000D01*
X76300000Y-136310000D02*
X76300000Y-130310000D01*
X76300000Y-137810000D02*
X75550000Y-137810000D01*
X76300000Y-139610000D02*
X76300000Y-137810000D01*
X77800000Y-127010000D02*
X77800000Y-127760000D01*
X77800000Y-127760000D02*
X80750000Y-127760000D01*
X77800000Y-138860000D02*
X80750000Y-138860000D01*
X77800000Y-139610000D02*
X77800000Y-138860000D01*
X80750000Y-127760000D02*
X80750000Y-133310000D01*
X80750000Y-138860000D02*
X80750000Y-133310000D01*
X81510000Y-127000000D02*
X75540000Y-127000000D01*
X81510000Y-139620000D02*
X81510000Y-127000000D01*
X151321651Y-62283000D02*
X151321651Y-61217000D01*
X151361651Y-62518000D02*
X151361651Y-60982000D01*
X151401651Y-62698000D02*
X151401651Y-60802000D01*
X151441651Y-62848000D02*
X151441651Y-60652000D01*
X151481651Y-62979000D02*
X151481651Y-60521000D01*
X151521651Y-63096000D02*
X151521651Y-60404000D01*
X151561651Y-63203000D02*
X151561651Y-60297000D01*
X151601651Y-63302000D02*
X151601651Y-60198000D01*
X151641651Y-63395000D02*
X151641651Y-60105000D01*
X151681651Y-63481000D02*
X151681651Y-60019000D01*
X151721651Y-63563000D02*
X151721651Y-59937000D01*
X151761651Y-63640000D02*
X151761651Y-59860000D01*
X151801651Y-63714000D02*
X151801651Y-59786000D01*
X151841651Y-63784000D02*
X151841651Y-59716000D01*
X151881651Y-63852000D02*
X151881651Y-59648000D01*
X151921651Y-63916000D02*
X151921651Y-59584000D01*
X151961651Y-63978000D02*
X151961651Y-59522000D01*
X152001651Y-64037000D02*
X152001651Y-59463000D01*
X152041651Y-64095000D02*
X152041651Y-59405000D01*
X152081651Y-64150000D02*
X152081651Y-59350000D01*
X152121651Y-64204000D02*
X152121651Y-59296000D01*
X152161651Y-64255000D02*
X152161651Y-59245000D01*
X152201651Y-64306000D02*
X152201651Y-59194000D01*
X152241651Y-64354000D02*
X152241651Y-59146000D01*
X152281651Y-64401000D02*
X152281651Y-59099000D01*
X152321651Y-64447000D02*
X152321651Y-59053000D01*
X152361651Y-64491000D02*
X152361651Y-59009000D01*
X152401651Y-64534000D02*
X152401651Y-58966000D01*
X152441651Y-64576000D02*
X152441651Y-58924000D01*
X152481651Y-64617000D02*
X152481651Y-58883000D01*
X152521651Y-64657000D02*
X152521651Y-58843000D01*
X152561651Y-64695000D02*
X152561651Y-58805000D01*
X152601651Y-64733000D02*
X152601651Y-58767000D01*
X152641651Y-60710000D02*
X152641651Y-58731000D01*
X152641651Y-64769000D02*
X152641651Y-62790000D01*
X152681651Y-60710000D02*
X152681651Y-58695000D01*
X152681651Y-64805000D02*
X152681651Y-62790000D01*
X152721651Y-60710000D02*
X152721651Y-58660000D01*
X152721651Y-64840000D02*
X152721651Y-62790000D01*
X152761651Y-60710000D02*
X152761651Y-58626000D01*
X152761651Y-64874000D02*
X152761651Y-62790000D01*
X152801651Y-60710000D02*
X152801651Y-58594000D01*
X152801651Y-64906000D02*
X152801651Y-62790000D01*
X152841651Y-60710000D02*
X152841651Y-58561000D01*
X152841651Y-64939000D02*
X152841651Y-62790000D01*
X152881651Y-60710000D02*
X152881651Y-58530000D01*
X152881651Y-64970000D02*
X152881651Y-62790000D01*
X152921651Y-60710000D02*
X152921651Y-58500000D01*
X152921651Y-65000000D02*
X152921651Y-62790000D01*
X152961651Y-60710000D02*
X152961651Y-58470000D01*
X152961651Y-65030000D02*
X152961651Y-62790000D01*
X153001651Y-60710000D02*
X153001651Y-58441000D01*
X153001651Y-65059000D02*
X153001651Y-62790000D01*
X153041651Y-60710000D02*
X153041651Y-58412000D01*
X153041651Y-65088000D02*
X153041651Y-62790000D01*
X153081651Y-60710000D02*
X153081651Y-58385000D01*
X153081651Y-65115000D02*
X153081651Y-62790000D01*
X153121651Y-60710000D02*
X153121651Y-58358000D01*
X153121651Y-65142000D02*
X153121651Y-62790000D01*
X153161651Y-60710000D02*
X153161651Y-58332000D01*
X153161651Y-65168000D02*
X153161651Y-62790000D01*
X153201651Y-60710000D02*
X153201651Y-58306000D01*
X153201651Y-65194000D02*
X153201651Y-62790000D01*
X153241651Y-60710000D02*
X153241651Y-58281000D01*
X153241651Y-65219000D02*
X153241651Y-62790000D01*
X153281651Y-60710000D02*
X153281651Y-58257000D01*
X153281651Y-65243000D02*
X153281651Y-62790000D01*
X153321651Y-60710000D02*
X153321651Y-58233000D01*
X153321651Y-65267000D02*
X153321651Y-62790000D01*
X153361651Y-60710000D02*
X153361651Y-58210000D01*
X153361651Y-65290000D02*
X153361651Y-62790000D01*
X153401651Y-60710000D02*
X153401651Y-58188000D01*
X153401651Y-65312000D02*
X153401651Y-62790000D01*
X153441651Y-60710000D02*
X153441651Y-58166000D01*
X153441651Y-65334000D02*
X153441651Y-62790000D01*
X153481651Y-60710000D02*
X153481651Y-58144000D01*
X153481651Y-65356000D02*
X153481651Y-62790000D01*
X153521651Y-60710000D02*
X153521651Y-58123000D01*
X153521651Y-65377000D02*
X153521651Y-62790000D01*
X153561651Y-60710000D02*
X153561651Y-58103000D01*
X153561651Y-65397000D02*
X153561651Y-62790000D01*
X153601651Y-60710000D02*
X153601651Y-58084000D01*
X153601651Y-65416000D02*
X153601651Y-62790000D01*
X153641651Y-60710000D02*
X153641651Y-58064000D01*
X153641651Y-65436000D02*
X153641651Y-62790000D01*
X153681651Y-60710000D02*
X153681651Y-58046000D01*
X153681651Y-65454000D02*
X153681651Y-62790000D01*
X153721651Y-60710000D02*
X153721651Y-58028000D01*
X153721651Y-65472000D02*
X153721651Y-62790000D01*
X153761651Y-60710000D02*
X153761651Y-58010000D01*
X153761651Y-65490000D02*
X153761651Y-62790000D01*
X153801651Y-60710000D02*
X153801651Y-57993000D01*
X153801651Y-65507000D02*
X153801651Y-62790000D01*
X153841651Y-60710000D02*
X153841651Y-57976000D01*
X153841651Y-65524000D02*
X153841651Y-62790000D01*
X153881651Y-60710000D02*
X153881651Y-57960000D01*
X153881651Y-65540000D02*
X153881651Y-62790000D01*
X153921651Y-60710000D02*
X153921651Y-57945000D01*
X153921651Y-65555000D02*
X153921651Y-62790000D01*
X153961651Y-60710000D02*
X153961651Y-57929000D01*
X153961651Y-65571000D02*
X153961651Y-62790000D01*
X154001651Y-60710000D02*
X154001651Y-57915000D01*
X154001651Y-65585000D02*
X154001651Y-62790000D01*
X154041651Y-60710000D02*
X154041651Y-57900000D01*
X154041651Y-65600000D02*
X154041651Y-62790000D01*
X154081651Y-60710000D02*
X154081651Y-57887000D01*
X154081651Y-65613000D02*
X154081651Y-62790000D01*
X154121651Y-60710000D02*
X154121651Y-57873000D01*
X154121651Y-65627000D02*
X154121651Y-62790000D01*
X154161651Y-60710000D02*
X154161651Y-57861000D01*
X154161651Y-65639000D02*
X154161651Y-62790000D01*
X154201651Y-60710000D02*
X154201651Y-57848000D01*
X154201651Y-65652000D02*
X154201651Y-62790000D01*
X154241651Y-60710000D02*
X154241651Y-57836000D01*
X154241651Y-65664000D02*
X154241651Y-62790000D01*
X154281651Y-60710000D02*
X154281651Y-57825000D01*
X154281651Y-65675000D02*
X154281651Y-62790000D01*
X154321651Y-60710000D02*
X154321651Y-57814000D01*
X154321651Y-65686000D02*
X154321651Y-62790000D01*
X154361651Y-60710000D02*
X154361651Y-57803000D01*
X154361651Y-65697000D02*
X154361651Y-62790000D01*
X154401651Y-60710000D02*
X154401651Y-57793000D01*
X154401651Y-65707000D02*
X154401651Y-62790000D01*
X154441651Y-60710000D02*
X154441651Y-57783000D01*
X154441651Y-65717000D02*
X154441651Y-62790000D01*
X154481651Y-60710000D02*
X154481651Y-57774000D01*
X154481651Y-65726000D02*
X154481651Y-62790000D01*
X154521651Y-60710000D02*
X154521651Y-57765000D01*
X154521651Y-65735000D02*
X154521651Y-62790000D01*
X154561651Y-60710000D02*
X154561651Y-57756000D01*
X154561651Y-65744000D02*
X154561651Y-62790000D01*
X154601651Y-60710000D02*
X154601651Y-57748000D01*
X154601651Y-65752000D02*
X154601651Y-62790000D01*
X154641651Y-60710000D02*
X154641651Y-57740000D01*
X154641651Y-65760000D02*
X154641651Y-62790000D01*
X154681651Y-60710000D02*
X154681651Y-57733000D01*
X154681651Y-65767000D02*
X154681651Y-62790000D01*
X154722651Y-65774000D02*
X154722651Y-57726000D01*
X154762651Y-65780000D02*
X154762651Y-57720000D01*
X154802651Y-65787000D02*
X154802651Y-57713000D01*
X154842651Y-65792000D02*
X154842651Y-57708000D01*
X154882651Y-65798000D02*
X154882651Y-57702000D01*
X154922651Y-65802000D02*
X154922651Y-57698000D01*
X154962651Y-65807000D02*
X154962651Y-57693000D01*
X155002651Y-65811000D02*
X155002651Y-57689000D01*
X155042651Y-65815000D02*
X155042651Y-57685000D01*
X155082651Y-65818000D02*
X155082651Y-57682000D01*
X155122651Y-65821000D02*
X155122651Y-57679000D01*
X155162651Y-65824000D02*
X155162651Y-57676000D01*
X155202651Y-65826000D02*
X155202651Y-57674000D01*
X155242651Y-65827000D02*
X155242651Y-57673000D01*
X155282651Y-65829000D02*
X155282651Y-57671000D01*
X155322651Y-65830000D02*
X155322651Y-57670000D01*
X155362651Y-65830000D02*
X155362651Y-57670000D01*
X155402651Y-65830000D02*
X155402651Y-57670000D01*
X159412349Y-64465000D02*
X159412349Y-63665000D01*
X159812349Y-64065000D02*
X159012349Y-64065000D01*
X159522651Y-61750000D02*
G75*
G02*
X151282651Y-61750000I-4120000J0D01*
G01*
X151282651Y-61750000D02*
G75*
G02*
X159522651Y-61750000I4120000J0D01*
G01*
X154475000Y-87850000D02*
X154475000Y-89100000D01*
X154475000Y-89100000D02*
X155725000Y-89100000D01*
X154765000Y-76190000D02*
X154765000Y-88810000D01*
X154765000Y-88810000D02*
X160735000Y-88810000D01*
X154775000Y-76200000D02*
X154775000Y-78000000D01*
X154775000Y-78000000D02*
X155525000Y-78000000D01*
X154775000Y-79500000D02*
X154775000Y-85500000D01*
X154775000Y-85500000D02*
X155525000Y-85500000D01*
X154775000Y-87000000D02*
X154775000Y-88800000D01*
X154775000Y-88800000D02*
X155525000Y-88800000D01*
X155525000Y-76200000D02*
X154775000Y-76200000D01*
X155525000Y-78000000D02*
X155525000Y-76200000D01*
X155525000Y-79500000D02*
X154775000Y-79500000D01*
X155525000Y-85500000D02*
X155525000Y-79500000D01*
X155525000Y-87000000D02*
X154775000Y-87000000D01*
X155525000Y-88800000D02*
X155525000Y-87000000D01*
X157025000Y-76200000D02*
X157025000Y-76950000D01*
X157025000Y-76950000D02*
X159975000Y-76950000D01*
X157025000Y-88050000D02*
X159975000Y-88050000D01*
X157025000Y-88800000D02*
X157025000Y-88050000D01*
X159975000Y-76950000D02*
X159975000Y-82500000D01*
X159975000Y-88050000D02*
X159975000Y-82500000D01*
X160735000Y-76190000D02*
X154765000Y-76190000D01*
X160735000Y-88810000D02*
X160735000Y-76190000D01*
X74500000Y-87100000D02*
X74500000Y-88350000D01*
X74500000Y-88350000D02*
X75750000Y-88350000D01*
X74790000Y-75440000D02*
X74790000Y-88060000D01*
X74790000Y-88060000D02*
X80760000Y-88060000D01*
X74800000Y-75450000D02*
X74800000Y-77250000D01*
X74800000Y-77250000D02*
X75550000Y-77250000D01*
X74800000Y-78750000D02*
X74800000Y-84750000D01*
X74800000Y-84750000D02*
X75550000Y-84750000D01*
X74800000Y-86250000D02*
X74800000Y-88050000D01*
X74800000Y-88050000D02*
X75550000Y-88050000D01*
X75550000Y-75450000D02*
X74800000Y-75450000D01*
X75550000Y-77250000D02*
X75550000Y-75450000D01*
X75550000Y-78750000D02*
X74800000Y-78750000D01*
X75550000Y-84750000D02*
X75550000Y-78750000D01*
X75550000Y-86250000D02*
X74800000Y-86250000D01*
X75550000Y-88050000D02*
X75550000Y-86250000D01*
X77050000Y-75450000D02*
X77050000Y-76200000D01*
X77050000Y-76200000D02*
X80000000Y-76200000D01*
X77050000Y-87300000D02*
X80000000Y-87300000D01*
X77050000Y-88050000D02*
X77050000Y-87300000D01*
X80000000Y-76200000D02*
X80000000Y-81750000D01*
X80000000Y-87300000D02*
X80000000Y-81750000D01*
X80760000Y-75440000D02*
X74790000Y-75440000D01*
X80760000Y-88060000D02*
X80760000Y-75440000D01*
X189630000Y-82590000D02*
X190960000Y-82590000D01*
X189630000Y-83920000D02*
X189630000Y-82590000D01*
X189630000Y-85190000D02*
X189630000Y-133510000D01*
X189630000Y-85190000D02*
X192230000Y-85190000D01*
X189630000Y-133510000D02*
X194830000Y-133510000D01*
X192230000Y-82590000D02*
X194830000Y-82590000D01*
X192230000Y-85190000D02*
X192230000Y-82590000D01*
X194830000Y-82590000D02*
X194830000Y-133510000D01*
X127500000Y-88100000D02*
X127500000Y-89350000D01*
X127500000Y-89350000D02*
X128750000Y-89350000D01*
X127790000Y-76440000D02*
X127790000Y-89060000D01*
X127790000Y-89060000D02*
X133760000Y-89060000D01*
X127800000Y-76450000D02*
X127800000Y-78250000D01*
X127800000Y-78250000D02*
X128550000Y-78250000D01*
X127800000Y-79750000D02*
X127800000Y-85750000D01*
X127800000Y-85750000D02*
X128550000Y-85750000D01*
X127800000Y-87250000D02*
X127800000Y-89050000D01*
X127800000Y-89050000D02*
X128550000Y-89050000D01*
X128550000Y-76450000D02*
X127800000Y-76450000D01*
X128550000Y-78250000D02*
X128550000Y-76450000D01*
X128550000Y-79750000D02*
X127800000Y-79750000D01*
X128550000Y-85750000D02*
X128550000Y-79750000D01*
X128550000Y-87250000D02*
X127800000Y-87250000D01*
X128550000Y-89050000D02*
X128550000Y-87250000D01*
X130050000Y-76450000D02*
X130050000Y-77200000D01*
X130050000Y-77200000D02*
X133000000Y-77200000D01*
X130050000Y-88300000D02*
X133000000Y-88300000D01*
X130050000Y-89050000D02*
X130050000Y-88300000D01*
X133000000Y-77200000D02*
X133000000Y-82750000D01*
X133000000Y-88300000D02*
X133000000Y-82750000D01*
X133760000Y-76440000D02*
X127790000Y-76440000D01*
X133760000Y-89060000D02*
X133760000Y-76440000D01*
%LPC*%
D12*
X104000000Y-136060000D03*
D13*
X104000000Y-133560000D03*
X104000000Y-131060000D03*
X104000000Y-128560000D03*
D14*
X164750000Y-91540000D03*
X164750000Y-89000000D03*
X164750000Y-86460000D03*
X164750000Y-83920000D03*
X164750000Y-81380000D03*
X164750000Y-78840000D03*
X164750000Y-76300000D03*
X164750000Y-73760000D03*
X177250000Y-91540000D03*
X177250000Y-89000000D03*
X177250000Y-86460000D03*
X177250000Y-83920000D03*
X177250000Y-81380000D03*
X177250000Y-78840000D03*
X177250000Y-76300000D03*
X177250000Y-73760000D03*
D15*
X128500000Y-52950000D03*
X128500000Y-57950000D03*
D12*
X103225000Y-85750000D03*
D13*
X103225000Y-83250000D03*
X103225000Y-80750000D03*
X103225000Y-78250000D03*
D12*
X157250000Y-108050000D03*
D13*
X157250000Y-105550000D03*
X157250000Y-103050000D03*
X157250000Y-100550000D03*
D16*
X109400000Y-63025000D03*
D17*
X106900000Y-63025000D03*
D12*
X157500000Y-137060000D03*
D13*
X157500000Y-134560000D03*
X157500000Y-132060000D03*
X157500000Y-129560000D03*
D14*
X84350000Y-113000000D03*
X84350000Y-110460000D03*
X84350000Y-107920000D03*
X84350000Y-105380000D03*
X84350000Y-102840000D03*
X84350000Y-100300000D03*
X84350000Y-97760000D03*
X84350000Y-95220000D03*
X96850000Y-113000000D03*
X96850000Y-110460000D03*
X96850000Y-107920000D03*
X96850000Y-105380000D03*
X96850000Y-102840000D03*
X96850000Y-100300000D03*
X96850000Y-97760000D03*
X96850000Y-95220000D03*
D12*
X103250000Y-108050000D03*
D13*
X103250000Y-105550000D03*
X103250000Y-103050000D03*
X103250000Y-100550000D03*
D14*
X164750000Y-113540000D03*
X164750000Y-111000000D03*
X164750000Y-108460000D03*
X164750000Y-105920000D03*
X164750000Y-103380000D03*
X164750000Y-100840000D03*
X164750000Y-98300000D03*
X164750000Y-95760000D03*
X177250000Y-113540000D03*
X177250000Y-111000000D03*
X177250000Y-108460000D03*
X177250000Y-105920000D03*
X177250000Y-103380000D03*
X177250000Y-100840000D03*
X177250000Y-98300000D03*
X177250000Y-95760000D03*
D12*
X77750000Y-108550000D03*
D13*
X77750000Y-106050000D03*
X77750000Y-103550000D03*
X77750000Y-101050000D03*
D14*
X84600000Y-141960000D03*
X84600000Y-139420000D03*
X84600000Y-136880000D03*
X84600000Y-134340000D03*
X84600000Y-131800000D03*
X84600000Y-129260000D03*
X84600000Y-126720000D03*
X84600000Y-124180000D03*
X97100000Y-141960000D03*
X97100000Y-139420000D03*
X97100000Y-136880000D03*
X97100000Y-134340000D03*
X97100000Y-131800000D03*
X97100000Y-129260000D03*
X97100000Y-126720000D03*
X97100000Y-124180000D03*
X137250000Y-91000000D03*
X137250000Y-88460000D03*
X137250000Y-85920000D03*
X137250000Y-83380000D03*
X137250000Y-80840000D03*
X137250000Y-78300000D03*
X137250000Y-75760000D03*
X137250000Y-73220000D03*
X149750000Y-91000000D03*
X149750000Y-88460000D03*
X149750000Y-85920000D03*
X149750000Y-83380000D03*
X149750000Y-80840000D03*
X149750000Y-78300000D03*
X149750000Y-75760000D03*
X149750000Y-73220000D03*
X110350000Y-91000000D03*
X110350000Y-88460000D03*
X110350000Y-85920000D03*
X110350000Y-83380000D03*
X110350000Y-80840000D03*
X110350000Y-78300000D03*
X110350000Y-75760000D03*
X110350000Y-73220000D03*
X122850000Y-91000000D03*
X122850000Y-88460000D03*
X122850000Y-85920000D03*
X122850000Y-83380000D03*
X122850000Y-80840000D03*
X122850000Y-78300000D03*
X122850000Y-75760000D03*
X122850000Y-73220000D03*
D12*
X130000000Y-136560000D03*
D13*
X130000000Y-134060000D03*
X130000000Y-131560000D03*
X130000000Y-129060000D03*
D18*
X135800000Y-50650000D03*
D19*
X137500000Y-46950000D03*
X139200000Y-50650000D03*
X140900000Y-46950000D03*
X142600000Y-50650000D03*
D20*
X147370000Y-64250000D03*
D21*
X132130000Y-64250000D03*
D22*
X152500000Y-53000000D03*
X152500000Y-44500000D03*
D12*
X130250000Y-108050000D03*
D13*
X130250000Y-105550000D03*
X130250000Y-103050000D03*
X130250000Y-100550000D03*
D12*
X78000000Y-137060000D03*
D13*
X78000000Y-134560000D03*
X78000000Y-132060000D03*
X78000000Y-129560000D03*
D14*
X110600000Y-141960000D03*
X110600000Y-139420000D03*
X110600000Y-136880000D03*
X110600000Y-134340000D03*
X110600000Y-131800000D03*
X110600000Y-129260000D03*
X110600000Y-126720000D03*
X110600000Y-124180000D03*
X123100000Y-141960000D03*
X123100000Y-139420000D03*
X123100000Y-136880000D03*
X123100000Y-134340000D03*
X123100000Y-131800000D03*
X123100000Y-129260000D03*
X123100000Y-126720000D03*
X123100000Y-124180000D03*
X137500000Y-141960000D03*
X137500000Y-139420000D03*
X137500000Y-136880000D03*
X137500000Y-134340000D03*
X137500000Y-131800000D03*
X137500000Y-129260000D03*
X137500000Y-126720000D03*
X137500000Y-124180000D03*
X150000000Y-141960000D03*
X150000000Y-139420000D03*
X150000000Y-136880000D03*
X150000000Y-134340000D03*
X150000000Y-131800000D03*
X150000000Y-129260000D03*
X150000000Y-126720000D03*
X150000000Y-124180000D03*
D23*
X157152651Y-61750000D03*
D15*
X153652651Y-61750000D03*
D14*
X164750000Y-142000000D03*
X164750000Y-139460000D03*
X164750000Y-136920000D03*
X164750000Y-134380000D03*
X164750000Y-131840000D03*
X164750000Y-129300000D03*
X164750000Y-126760000D03*
X164750000Y-124220000D03*
X177250000Y-142000000D03*
X177250000Y-139460000D03*
X177250000Y-136920000D03*
X177250000Y-134380000D03*
X177250000Y-131840000D03*
X177250000Y-129300000D03*
X177250000Y-126760000D03*
X177250000Y-124220000D03*
D12*
X157225000Y-86250000D03*
D13*
X157225000Y-83750000D03*
X157225000Y-81250000D03*
X157225000Y-78750000D03*
D14*
X137250000Y-113000000D03*
X137250000Y-110460000D03*
X137250000Y-107920000D03*
X137250000Y-105380000D03*
X137250000Y-102840000D03*
X137250000Y-100300000D03*
X137250000Y-97760000D03*
X137250000Y-95220000D03*
X149750000Y-113000000D03*
X149750000Y-110460000D03*
X149750000Y-107920000D03*
X149750000Y-105380000D03*
X149750000Y-102840000D03*
X149750000Y-100300000D03*
X149750000Y-97760000D03*
X149750000Y-95220000D03*
D12*
X77250000Y-85500000D03*
D13*
X77250000Y-83000000D03*
X77250000Y-80500000D03*
X77250000Y-78000000D03*
D14*
X84350000Y-91000000D03*
X84350000Y-88460000D03*
X84350000Y-85920000D03*
X84350000Y-83380000D03*
X84350000Y-80840000D03*
X84350000Y-78300000D03*
X84350000Y-75760000D03*
X84350000Y-73220000D03*
X96850000Y-91000000D03*
X96850000Y-88460000D03*
X96850000Y-85920000D03*
X96850000Y-83380000D03*
X96850000Y-80840000D03*
X96850000Y-78300000D03*
X96850000Y-75760000D03*
X96850000Y-73220000D03*
X110350000Y-113000000D03*
X110350000Y-110460000D03*
X110350000Y-107920000D03*
X110350000Y-105380000D03*
X110350000Y-102840000D03*
X110350000Y-100300000D03*
X110350000Y-97760000D03*
X110350000Y-95220000D03*
X122850000Y-113000000D03*
X122850000Y-110460000D03*
X122850000Y-107920000D03*
X122850000Y-105380000D03*
X122850000Y-102840000D03*
X122850000Y-100300000D03*
X122850000Y-97760000D03*
X122850000Y-95220000D03*
D24*
X190960000Y-83920000D03*
D25*
X193500000Y-83920000D03*
X190960000Y-86460000D03*
X193500000Y-86460000D03*
X190960000Y-89000000D03*
X193500000Y-89000000D03*
X190960000Y-91540000D03*
X193500000Y-91540000D03*
X190960000Y-94080000D03*
X193500000Y-94080000D03*
X190960000Y-96620000D03*
X193500000Y-96620000D03*
X190960000Y-99160000D03*
X193500000Y-99160000D03*
X190960000Y-101700000D03*
X193500000Y-101700000D03*
X190960000Y-104240000D03*
X193500000Y-104240000D03*
X190960000Y-106780000D03*
X193500000Y-106780000D03*
X190960000Y-109320000D03*
X193500000Y-109320000D03*
X190960000Y-111860000D03*
X193500000Y-111860000D03*
X190960000Y-114400000D03*
X193500000Y-114400000D03*
X190960000Y-116940000D03*
X193500000Y-116940000D03*
X190960000Y-119480000D03*
X193500000Y-119480000D03*
X190960000Y-122020000D03*
X193500000Y-122020000D03*
X190960000Y-124560000D03*
X193500000Y-124560000D03*
X190960000Y-127100000D03*
X193500000Y-127100000D03*
X190960000Y-129640000D03*
X193500000Y-129640000D03*
X190960000Y-132180000D03*
X193500000Y-132180000D03*
D12*
X130250000Y-86500000D03*
D13*
X130250000Y-84000000D03*
X130250000Y-81500000D03*
X130250000Y-79000000D03*
%LPD*%
M02*
