M48
; DRILL file {KiCad 8.0.8-8.0.8-0~ubuntu24.04.1} date 2025-04-08T09:18:32-0500
; FORMAT={-:-/ absolute / inch / decimal}
; #@! TF.CreationDate,2025-04-08T09:18:32-05:00
; #@! TF.GenerationSoftware,Kicad,Pcbnew,8.0.8-8.0.8-0~ubuntu24.04.1
; #@! TF.FileFunction,Plated,1,2,PTH
FMAT,2
INCH
; #@! TA.AperFunction,Plated,PTH,ComponentDrill
T1C0.0315
; #@! TA.AperFunction,Plated,PTH,ComponentDrill
T2C0.0374
; #@! TA.AperFunction,Plated,PTH,ComponentDrill
T3C0.0394
; #@! TA.AperFunction,Plated,PTH,ComponentDrill
T4C0.0433
; #@! TA.AperFunction,Plated,PTH,ComponentDrill
T5C0.0630
%
G90
G05
T1
X3.3209Y-2.8827
X3.3209Y-2.9827
X3.3209Y-3.0827
X3.3209Y-3.1827
X3.3209Y-3.2827
X3.3209Y-3.3827
X3.3209Y-3.4827
X3.3209Y-3.5827
X3.3209Y-3.7488
X3.3209Y-3.8488
X3.3209Y-3.9488
X3.3209Y-4.0488
X3.3209Y-4.1488
X3.3209Y-4.2488
X3.3209Y-4.3488
X3.3209Y-4.4488
X3.3307Y-4.889
X3.3307Y-4.989
X3.3307Y-5.089
X3.3307Y-5.189
X3.3307Y-5.289
X3.3307Y-5.389
X3.3307Y-5.489
X3.3307Y-5.589
X3.813Y-2.8827
X3.813Y-2.9827
X3.813Y-3.0827
X3.813Y-3.1827
X3.813Y-3.2827
X3.813Y-3.3827
X3.813Y-3.4827
X3.813Y-3.5827
X3.813Y-3.7488
X3.813Y-3.8488
X3.813Y-3.9488
X3.813Y-4.0488
X3.813Y-4.1488
X3.813Y-4.2488
X3.813Y-4.3488
X3.813Y-4.4488
X3.8228Y-4.889
X3.8228Y-4.989
X3.8228Y-5.089
X3.8228Y-5.189
X3.8228Y-5.289
X3.8228Y-5.389
X3.8228Y-5.489
X3.8228Y-5.589
X4.3445Y-2.8827
X4.3445Y-2.9827
X4.3445Y-3.0827
X4.3445Y-3.1827
X4.3445Y-3.2827
X4.3445Y-3.3827
X4.3445Y-3.4827
X4.3445Y-3.5827
X4.3445Y-3.7488
X4.3445Y-3.8488
X4.3445Y-3.9488
X4.3445Y-4.0488
X4.3445Y-4.1488
X4.3445Y-4.2488
X4.3445Y-4.3488
X4.3445Y-4.4488
X4.3543Y-4.889
X4.3543Y-4.989
X4.3543Y-5.089
X4.3543Y-5.189
X4.3543Y-5.289
X4.3543Y-5.389
X4.3543Y-5.489
X4.3543Y-5.589
X4.8366Y-2.8827
X4.8366Y-2.9827
X4.8366Y-3.0827
X4.8366Y-3.1827
X4.8366Y-3.2827
X4.8366Y-3.3827
X4.8366Y-3.4827
X4.8366Y-3.5827
X4.8366Y-3.7488
X4.8366Y-3.8488
X4.8366Y-3.9488
X4.8366Y-4.0488
X4.8366Y-4.1488
X4.8366Y-4.2488
X4.8366Y-4.3488
X4.8366Y-4.4488
X4.8465Y-4.889
X4.8465Y-4.989
X4.8465Y-5.089
X4.8465Y-5.189
X4.8465Y-5.289
X4.8465Y-5.389
X4.8465Y-5.489
X4.8465Y-5.589
X5.0591Y-2.0846
X5.0591Y-2.2815
X5.4035Y-2.8827
X5.4035Y-2.9827
X5.4035Y-3.0827
X5.4035Y-3.1827
X5.4035Y-3.2827
X5.4035Y-3.3827
X5.4035Y-3.4827
X5.4035Y-3.5827
X5.4035Y-3.7488
X5.4035Y-3.8488
X5.4035Y-3.9488
X5.4035Y-4.0488
X5.4035Y-4.1488
X5.4035Y-4.2488
X5.4035Y-4.3488
X5.4035Y-4.4488
X5.4134Y-4.889
X5.4134Y-4.989
X5.4134Y-5.089
X5.4134Y-5.189
X5.4134Y-5.289
X5.4134Y-5.389
X5.4134Y-5.489
X5.4134Y-5.589
X5.8957Y-2.8827
X5.8957Y-2.9827
X5.8957Y-3.0827
X5.8957Y-3.1827
X5.8957Y-3.2827
X5.8957Y-3.3827
X5.8957Y-3.4827
X5.8957Y-3.5827
X5.8957Y-3.7488
X5.8957Y-3.8488
X5.8957Y-3.9488
X5.8957Y-4.0488
X5.8957Y-4.1488
X5.8957Y-4.2488
X5.8957Y-4.3488
X5.8957Y-4.4488
X5.9055Y-4.889
X5.9055Y-4.989
X5.9055Y-5.089
X5.9055Y-5.189
X5.9055Y-5.289
X5.9055Y-5.389
X5.9055Y-5.489
X5.9055Y-5.589
X6.0493Y-2.4311
X6.1871Y-2.4311
X6.4862Y-2.9039
X6.4862Y-3.0039
X6.4862Y-3.1039
X6.4862Y-3.2039
X6.4862Y-3.3039
X6.4862Y-3.4039
X6.4862Y-3.5039
X6.4862Y-3.6039
X6.4862Y-3.7701
X6.4862Y-3.8701
X6.4862Y-3.9701
X6.4862Y-4.0701
X6.4862Y-4.1701
X6.4862Y-4.2701
X6.4862Y-4.3701
X6.4862Y-4.4701
X6.4862Y-4.8906
X6.4862Y-4.9906
X6.4862Y-5.0906
X6.4862Y-5.1906
X6.4862Y-5.2906
X6.4862Y-5.3906
X6.4862Y-5.4906
X6.4862Y-5.5906
X6.9783Y-2.9039
X6.9783Y-3.0039
X6.9783Y-3.1039
X6.9783Y-3.2039
X6.9783Y-3.3039
X6.9783Y-3.4039
X6.9783Y-3.5039
X6.9783Y-3.6039
X6.9783Y-3.7701
X6.9783Y-3.8701
X6.9783Y-3.9701
X6.9783Y-4.0701
X6.9783Y-4.1701
X6.9783Y-4.2701
X6.9783Y-4.3701
X6.9783Y-4.4701
X6.9783Y-4.8906
X6.9783Y-4.9906
X6.9783Y-5.0906
X6.9783Y-5.1906
X6.9783Y-5.2906
X6.9783Y-5.3906
X6.9783Y-5.4906
X6.9783Y-5.5906
T2
X3.0413Y-3.0709
X3.0413Y-3.1693
X3.0413Y-3.2677
X3.0413Y-3.3661
X3.061Y-3.9783
X3.061Y-4.0768
X3.061Y-4.1752
X3.061Y-4.2736
X3.0709Y-5.1008
X3.0709Y-5.1992
X3.0709Y-5.2976
X3.0709Y-5.3961
X4.064Y-3.0807
X4.064Y-3.1791
X4.064Y-3.2776
X4.064Y-3.376
X4.065Y-3.9587
X4.065Y-4.0571
X4.065Y-4.1555
X4.065Y-4.2539
X4.0945Y-5.0614
X4.0945Y-5.1598
X4.0945Y-5.2583
X4.0945Y-5.3567
X5.1181Y-5.0811
X5.1181Y-5.1795
X5.1181Y-5.278
X5.1181Y-5.3764
X5.128Y-3.1102
X5.128Y-3.2087
X5.128Y-3.3071
X5.128Y-3.4055
X5.128Y-3.9587
X5.128Y-4.0571
X5.128Y-4.1555
X5.128Y-4.2539
X6.19Y-3.1004
X6.19Y-3.1988
X6.19Y-3.2972
X6.19Y-3.3957
X6.1909Y-3.9587
X6.1909Y-4.0571
X6.1909Y-4.1555
X6.1909Y-4.2539
X6.2008Y-5.1008
X6.2008Y-5.1992
X6.2008Y-5.2976
X6.2008Y-5.3961
T3
X4.2087Y-2.4813
X4.3071Y-2.4813
X7.5181Y-3.3039
X7.5181Y-3.4039
X7.5181Y-3.5039
X7.5181Y-3.6039
X7.5181Y-3.7039
X7.5181Y-3.8039
X7.5181Y-3.9039
X7.5181Y-4.0039
X7.5181Y-4.1039
X7.5181Y-4.2039
X7.5181Y-4.3039
X7.5181Y-4.4039
X7.5181Y-4.5039
X7.5181Y-4.6039
X7.5181Y-4.7039
X7.5181Y-4.8039
X7.5181Y-4.9039
X7.5181Y-5.0039
X7.5181Y-5.1039
X7.5181Y-5.2039
X7.6181Y-3.3039
X7.6181Y-3.4039
X7.6181Y-3.5039
X7.6181Y-3.6039
X7.6181Y-3.7039
X7.6181Y-3.8039
X7.6181Y-3.9039
X7.6181Y-4.0039
X7.6181Y-4.1039
X7.6181Y-4.2039
X7.6181Y-4.3039
X7.6181Y-4.4039
X7.6181Y-4.5039
X7.6181Y-4.6039
X7.6181Y-4.7039
X7.6181Y-4.8039
X7.6181Y-4.9039
X7.6181Y-5.0039
X7.6181Y-5.1039
X7.6181Y-5.2039
T4
X5.3465Y-1.9941
X5.4134Y-1.8484
X5.4803Y-1.9941
X5.5472Y-1.8484
X5.6142Y-1.9941
T5
X5.202Y-2.5295
X5.802Y-2.5295
M30
