G04 #@! TF.GenerationSoftware,KiCad,Pcbnew,8.0.8-8.0.8-0~ubuntu24.04.1*
G04 #@! TF.CreationDate,2025-04-08T09:18:08-05:00*
G04 #@! TF.ProjectId,wasabi,77617361-6269-42e6-9b69-6361645f7063,rev?*
G04 #@! TF.SameCoordinates,Original*
G04 #@! TF.FileFunction,OtherDrawing,Comment*
%FSLAX46Y46*%
G04 Gerber Fmt 4.6, Leading zero omitted, Abs format (unit mm)*
G04 Created by KiCad (PCBNEW 8.0.8-8.0.8-0~ubuntu24.04.1) date 2025-04-08 09:18:08*
%MOMM*%
%LPD*%
G01*
G04 APERTURE LIST*
%ADD10C,0.300000*%
G04 APERTURE END LIST*
D10*
X100054510Y-112300828D02*
X100054510Y-113800828D01*
X100054510Y-112372257D02*
X100197368Y-112300828D01*
X100197368Y-112300828D02*
X100483082Y-112300828D01*
X100483082Y-112300828D02*
X100625939Y-112372257D01*
X100625939Y-112372257D02*
X100697368Y-112443685D01*
X100697368Y-112443685D02*
X100768796Y-112586542D01*
X100768796Y-112586542D02*
X100768796Y-113015114D01*
X100768796Y-113015114D02*
X100697368Y-113157971D01*
X100697368Y-113157971D02*
X100625939Y-113229400D01*
X100625939Y-113229400D02*
X100483082Y-113300828D01*
X100483082Y-113300828D02*
X100197368Y-113300828D01*
X100197368Y-113300828D02*
X100054510Y-113229400D01*
X102054511Y-112300828D02*
X102054511Y-113300828D01*
X101411653Y-112300828D02*
X101411653Y-113086542D01*
X101411653Y-113086542D02*
X101483082Y-113229400D01*
X101483082Y-113229400D02*
X101625939Y-113300828D01*
X101625939Y-113300828D02*
X101840225Y-113300828D01*
X101840225Y-113300828D02*
X101983082Y-113229400D01*
X101983082Y-113229400D02*
X102054511Y-113157971D01*
X102768796Y-113300828D02*
X102768796Y-112300828D01*
X102768796Y-112443685D02*
X102840225Y-112372257D01*
X102840225Y-112372257D02*
X102983082Y-112300828D01*
X102983082Y-112300828D02*
X103197368Y-112300828D01*
X103197368Y-112300828D02*
X103340225Y-112372257D01*
X103340225Y-112372257D02*
X103411654Y-112515114D01*
X103411654Y-112515114D02*
X103411654Y-113300828D01*
X103411654Y-112515114D02*
X103483082Y-112372257D01*
X103483082Y-112372257D02*
X103625939Y-112300828D01*
X103625939Y-112300828D02*
X103840225Y-112300828D01*
X103840225Y-112300828D02*
X103983082Y-112372257D01*
X103983082Y-112372257D02*
X104054511Y-112515114D01*
X104054511Y-112515114D02*
X104054511Y-113300828D01*
X104768796Y-112300828D02*
X104768796Y-113800828D01*
X104768796Y-112372257D02*
X104911654Y-112300828D01*
X104911654Y-112300828D02*
X105197368Y-112300828D01*
X105197368Y-112300828D02*
X105340225Y-112372257D01*
X105340225Y-112372257D02*
X105411654Y-112443685D01*
X105411654Y-112443685D02*
X105483082Y-112586542D01*
X105483082Y-112586542D02*
X105483082Y-113015114D01*
X105483082Y-113015114D02*
X105411654Y-113157971D01*
X105411654Y-113157971D02*
X105340225Y-113229400D01*
X105340225Y-113229400D02*
X105197368Y-113300828D01*
X105197368Y-113300828D02*
X104911654Y-113300828D01*
X104911654Y-113300828D02*
X104768796Y-113229400D01*
X107983082Y-111800828D02*
X107268796Y-111800828D01*
X107268796Y-111800828D02*
X107197368Y-112515114D01*
X107197368Y-112515114D02*
X107268796Y-112443685D01*
X107268796Y-112443685D02*
X107411654Y-112372257D01*
X107411654Y-112372257D02*
X107768796Y-112372257D01*
X107768796Y-112372257D02*
X107911654Y-112443685D01*
X107911654Y-112443685D02*
X107983082Y-112515114D01*
X107983082Y-112515114D02*
X108054511Y-112657971D01*
X108054511Y-112657971D02*
X108054511Y-113015114D01*
X108054511Y-113015114D02*
X107983082Y-113157971D01*
X107983082Y-113157971D02*
X107911654Y-113229400D01*
X107911654Y-113229400D02*
X107768796Y-113300828D01*
X107768796Y-113300828D02*
X107411654Y-113300828D01*
X107411654Y-113300828D02*
X107268796Y-113229400D01*
X107268796Y-113229400D02*
X107197368Y-113157971D01*
X157197368Y-113300828D02*
X157197368Y-112515114D01*
X157197368Y-112515114D02*
X157125939Y-112372257D01*
X157125939Y-112372257D02*
X156983082Y-112300828D01*
X156983082Y-112300828D02*
X156697368Y-112300828D01*
X156697368Y-112300828D02*
X156554510Y-112372257D01*
X157197368Y-113229400D02*
X157054510Y-113300828D01*
X157054510Y-113300828D02*
X156697368Y-113300828D01*
X156697368Y-113300828D02*
X156554510Y-113229400D01*
X156554510Y-113229400D02*
X156483082Y-113086542D01*
X156483082Y-113086542D02*
X156483082Y-112943685D01*
X156483082Y-112943685D02*
X156554510Y-112800828D01*
X156554510Y-112800828D02*
X156697368Y-112729400D01*
X156697368Y-112729400D02*
X157054510Y-112729400D01*
X157054510Y-112729400D02*
X157197368Y-112657971D01*
X157840225Y-111943685D02*
X157911653Y-111872257D01*
X157911653Y-111872257D02*
X158054511Y-111800828D01*
X158054511Y-111800828D02*
X158411653Y-111800828D01*
X158411653Y-111800828D02*
X158554511Y-111872257D01*
X158554511Y-111872257D02*
X158625939Y-111943685D01*
X158625939Y-111943685D02*
X158697368Y-112086542D01*
X158697368Y-112086542D02*
X158697368Y-112229400D01*
X158697368Y-112229400D02*
X158625939Y-112443685D01*
X158625939Y-112443685D02*
X157768796Y-113300828D01*
X157768796Y-113300828D02*
X158697368Y-113300828D01*
X157911653Y-141300828D02*
X158697368Y-141300828D01*
X158697368Y-141300828D02*
X157911653Y-142300828D01*
X157911653Y-142300828D02*
X158697368Y-142300828D01*
X74554510Y-141800828D02*
X74554510Y-143300828D01*
X74554510Y-141872257D02*
X74697368Y-141800828D01*
X74697368Y-141800828D02*
X74983082Y-141800828D01*
X74983082Y-141800828D02*
X75125939Y-141872257D01*
X75125939Y-141872257D02*
X75197368Y-141943685D01*
X75197368Y-141943685D02*
X75268796Y-142086542D01*
X75268796Y-142086542D02*
X75268796Y-142515114D01*
X75268796Y-142515114D02*
X75197368Y-142657971D01*
X75197368Y-142657971D02*
X75125939Y-142729400D01*
X75125939Y-142729400D02*
X74983082Y-142800828D01*
X74983082Y-142800828D02*
X74697368Y-142800828D01*
X74697368Y-142800828D02*
X74554510Y-142729400D01*
X76554511Y-141800828D02*
X76554511Y-142800828D01*
X75911653Y-141800828D02*
X75911653Y-142586542D01*
X75911653Y-142586542D02*
X75983082Y-142729400D01*
X75983082Y-142729400D02*
X76125939Y-142800828D01*
X76125939Y-142800828D02*
X76340225Y-142800828D01*
X76340225Y-142800828D02*
X76483082Y-142729400D01*
X76483082Y-142729400D02*
X76554511Y-142657971D01*
X77268796Y-142800828D02*
X77268796Y-141800828D01*
X77268796Y-141943685D02*
X77340225Y-141872257D01*
X77340225Y-141872257D02*
X77483082Y-141800828D01*
X77483082Y-141800828D02*
X77697368Y-141800828D01*
X77697368Y-141800828D02*
X77840225Y-141872257D01*
X77840225Y-141872257D02*
X77911654Y-142015114D01*
X77911654Y-142015114D02*
X77911654Y-142800828D01*
X77911654Y-142015114D02*
X77983082Y-141872257D01*
X77983082Y-141872257D02*
X78125939Y-141800828D01*
X78125939Y-141800828D02*
X78340225Y-141800828D01*
X78340225Y-141800828D02*
X78483082Y-141872257D01*
X78483082Y-141872257D02*
X78554511Y-142015114D01*
X78554511Y-142015114D02*
X78554511Y-142800828D01*
X79268796Y-141800828D02*
X79268796Y-143300828D01*
X79268796Y-141872257D02*
X79411654Y-141800828D01*
X79411654Y-141800828D02*
X79697368Y-141800828D01*
X79697368Y-141800828D02*
X79840225Y-141872257D01*
X79840225Y-141872257D02*
X79911654Y-141943685D01*
X79911654Y-141943685D02*
X79983082Y-142086542D01*
X79983082Y-142086542D02*
X79983082Y-142515114D01*
X79983082Y-142515114D02*
X79911654Y-142657971D01*
X79911654Y-142657971D02*
X79840225Y-142729400D01*
X79840225Y-142729400D02*
X79697368Y-142800828D01*
X79697368Y-142800828D02*
X79411654Y-142800828D01*
X79411654Y-142800828D02*
X79268796Y-142729400D01*
X81840225Y-142800828D02*
X82125939Y-142800828D01*
X82125939Y-142800828D02*
X82268796Y-142729400D01*
X82268796Y-142729400D02*
X82340225Y-142657971D01*
X82340225Y-142657971D02*
X82483082Y-142443685D01*
X82483082Y-142443685D02*
X82554511Y-142157971D01*
X82554511Y-142157971D02*
X82554511Y-141586542D01*
X82554511Y-141586542D02*
X82483082Y-141443685D01*
X82483082Y-141443685D02*
X82411654Y-141372257D01*
X82411654Y-141372257D02*
X82268796Y-141300828D01*
X82268796Y-141300828D02*
X81983082Y-141300828D01*
X81983082Y-141300828D02*
X81840225Y-141372257D01*
X81840225Y-141372257D02*
X81768796Y-141443685D01*
X81768796Y-141443685D02*
X81697368Y-141586542D01*
X81697368Y-141586542D02*
X81697368Y-141943685D01*
X81697368Y-141943685D02*
X81768796Y-142086542D01*
X81768796Y-142086542D02*
X81840225Y-142157971D01*
X81840225Y-142157971D02*
X81983082Y-142229400D01*
X81983082Y-142229400D02*
X82268796Y-142229400D01*
X82268796Y-142229400D02*
X82411654Y-142157971D01*
X82411654Y-142157971D02*
X82483082Y-142086542D01*
X82483082Y-142086542D02*
X82554511Y-141943685D01*
X127554510Y-140800828D02*
X127554510Y-142300828D01*
X127554510Y-140872257D02*
X127697368Y-140800828D01*
X127697368Y-140800828D02*
X127983082Y-140800828D01*
X127983082Y-140800828D02*
X128125939Y-140872257D01*
X128125939Y-140872257D02*
X128197368Y-140943685D01*
X128197368Y-140943685D02*
X128268796Y-141086542D01*
X128268796Y-141086542D02*
X128268796Y-141515114D01*
X128268796Y-141515114D02*
X128197368Y-141657971D01*
X128197368Y-141657971D02*
X128125939Y-141729400D01*
X128125939Y-141729400D02*
X127983082Y-141800828D01*
X127983082Y-141800828D02*
X127697368Y-141800828D01*
X127697368Y-141800828D02*
X127554510Y-141729400D01*
X129554511Y-140800828D02*
X129554511Y-141800828D01*
X128911653Y-140800828D02*
X128911653Y-141586542D01*
X128911653Y-141586542D02*
X128983082Y-141729400D01*
X128983082Y-141729400D02*
X129125939Y-141800828D01*
X129125939Y-141800828D02*
X129340225Y-141800828D01*
X129340225Y-141800828D02*
X129483082Y-141729400D01*
X129483082Y-141729400D02*
X129554511Y-141657971D01*
X130268796Y-141800828D02*
X130268796Y-140800828D01*
X130268796Y-140943685D02*
X130340225Y-140872257D01*
X130340225Y-140872257D02*
X130483082Y-140800828D01*
X130483082Y-140800828D02*
X130697368Y-140800828D01*
X130697368Y-140800828D02*
X130840225Y-140872257D01*
X130840225Y-140872257D02*
X130911654Y-141015114D01*
X130911654Y-141015114D02*
X130911654Y-141800828D01*
X130911654Y-141015114D02*
X130983082Y-140872257D01*
X130983082Y-140872257D02*
X131125939Y-140800828D01*
X131125939Y-140800828D02*
X131340225Y-140800828D01*
X131340225Y-140800828D02*
X131483082Y-140872257D01*
X131483082Y-140872257D02*
X131554511Y-141015114D01*
X131554511Y-141015114D02*
X131554511Y-141800828D01*
X132268796Y-140800828D02*
X132268796Y-142300828D01*
X132268796Y-140872257D02*
X132411654Y-140800828D01*
X132411654Y-140800828D02*
X132697368Y-140800828D01*
X132697368Y-140800828D02*
X132840225Y-140872257D01*
X132840225Y-140872257D02*
X132911654Y-140943685D01*
X132911654Y-140943685D02*
X132983082Y-141086542D01*
X132983082Y-141086542D02*
X132983082Y-141515114D01*
X132983082Y-141515114D02*
X132911654Y-141657971D01*
X132911654Y-141657971D02*
X132840225Y-141729400D01*
X132840225Y-141729400D02*
X132697368Y-141800828D01*
X132697368Y-141800828D02*
X132411654Y-141800828D01*
X132411654Y-141800828D02*
X132268796Y-141729400D01*
X134625939Y-140300828D02*
X135625939Y-140300828D01*
X135625939Y-140300828D02*
X134983082Y-141800828D01*
X73554510Y-90300828D02*
X73554510Y-91800828D01*
X73554510Y-90372257D02*
X73697368Y-90300828D01*
X73697368Y-90300828D02*
X73983082Y-90300828D01*
X73983082Y-90300828D02*
X74125939Y-90372257D01*
X74125939Y-90372257D02*
X74197368Y-90443685D01*
X74197368Y-90443685D02*
X74268796Y-90586542D01*
X74268796Y-90586542D02*
X74268796Y-91015114D01*
X74268796Y-91015114D02*
X74197368Y-91157971D01*
X74197368Y-91157971D02*
X74125939Y-91229400D01*
X74125939Y-91229400D02*
X73983082Y-91300828D01*
X73983082Y-91300828D02*
X73697368Y-91300828D01*
X73697368Y-91300828D02*
X73554510Y-91229400D01*
X75554511Y-90300828D02*
X75554511Y-91300828D01*
X74911653Y-90300828D02*
X74911653Y-91086542D01*
X74911653Y-91086542D02*
X74983082Y-91229400D01*
X74983082Y-91229400D02*
X75125939Y-91300828D01*
X75125939Y-91300828D02*
X75340225Y-91300828D01*
X75340225Y-91300828D02*
X75483082Y-91229400D01*
X75483082Y-91229400D02*
X75554511Y-91157971D01*
X76268796Y-91300828D02*
X76268796Y-90300828D01*
X76268796Y-90443685D02*
X76340225Y-90372257D01*
X76340225Y-90372257D02*
X76483082Y-90300828D01*
X76483082Y-90300828D02*
X76697368Y-90300828D01*
X76697368Y-90300828D02*
X76840225Y-90372257D01*
X76840225Y-90372257D02*
X76911654Y-90515114D01*
X76911654Y-90515114D02*
X76911654Y-91300828D01*
X76911654Y-90515114D02*
X76983082Y-90372257D01*
X76983082Y-90372257D02*
X77125939Y-90300828D01*
X77125939Y-90300828D02*
X77340225Y-90300828D01*
X77340225Y-90300828D02*
X77483082Y-90372257D01*
X77483082Y-90372257D02*
X77554511Y-90515114D01*
X77554511Y-90515114D02*
X77554511Y-91300828D01*
X78268796Y-90300828D02*
X78268796Y-91800828D01*
X78268796Y-90372257D02*
X78411654Y-90300828D01*
X78411654Y-90300828D02*
X78697368Y-90300828D01*
X78697368Y-90300828D02*
X78840225Y-90372257D01*
X78840225Y-90372257D02*
X78911654Y-90443685D01*
X78911654Y-90443685D02*
X78983082Y-90586542D01*
X78983082Y-90586542D02*
X78983082Y-91015114D01*
X78983082Y-91015114D02*
X78911654Y-91157971D01*
X78911654Y-91157971D02*
X78840225Y-91229400D01*
X78840225Y-91229400D02*
X78697368Y-91300828D01*
X78697368Y-91300828D02*
X78411654Y-91300828D01*
X78411654Y-91300828D02*
X78268796Y-91229400D01*
X80625939Y-89800828D02*
X81554511Y-89800828D01*
X81554511Y-89800828D02*
X81054511Y-90372257D01*
X81054511Y-90372257D02*
X81268796Y-90372257D01*
X81268796Y-90372257D02*
X81411654Y-90443685D01*
X81411654Y-90443685D02*
X81483082Y-90515114D01*
X81483082Y-90515114D02*
X81554511Y-90657971D01*
X81554511Y-90657971D02*
X81554511Y-91015114D01*
X81554511Y-91015114D02*
X81483082Y-91157971D01*
X81483082Y-91157971D02*
X81411654Y-91229400D01*
X81411654Y-91229400D02*
X81268796Y-91300828D01*
X81268796Y-91300828D02*
X80840225Y-91300828D01*
X80840225Y-91300828D02*
X80697368Y-91229400D01*
X80697368Y-91229400D02*
X80625939Y-91157971D01*
X100054510Y-140800828D02*
X100054510Y-142300828D01*
X100054510Y-140872257D02*
X100197368Y-140800828D01*
X100197368Y-140800828D02*
X100483082Y-140800828D01*
X100483082Y-140800828D02*
X100625939Y-140872257D01*
X100625939Y-140872257D02*
X100697368Y-140943685D01*
X100697368Y-140943685D02*
X100768796Y-141086542D01*
X100768796Y-141086542D02*
X100768796Y-141515114D01*
X100768796Y-141515114D02*
X100697368Y-141657971D01*
X100697368Y-141657971D02*
X100625939Y-141729400D01*
X100625939Y-141729400D02*
X100483082Y-141800828D01*
X100483082Y-141800828D02*
X100197368Y-141800828D01*
X100197368Y-141800828D02*
X100054510Y-141729400D01*
X102054511Y-140800828D02*
X102054511Y-141800828D01*
X101411653Y-140800828D02*
X101411653Y-141586542D01*
X101411653Y-141586542D02*
X101483082Y-141729400D01*
X101483082Y-141729400D02*
X101625939Y-141800828D01*
X101625939Y-141800828D02*
X101840225Y-141800828D01*
X101840225Y-141800828D02*
X101983082Y-141729400D01*
X101983082Y-141729400D02*
X102054511Y-141657971D01*
X102768796Y-141800828D02*
X102768796Y-140800828D01*
X102768796Y-140943685D02*
X102840225Y-140872257D01*
X102840225Y-140872257D02*
X102983082Y-140800828D01*
X102983082Y-140800828D02*
X103197368Y-140800828D01*
X103197368Y-140800828D02*
X103340225Y-140872257D01*
X103340225Y-140872257D02*
X103411654Y-141015114D01*
X103411654Y-141015114D02*
X103411654Y-141800828D01*
X103411654Y-141015114D02*
X103483082Y-140872257D01*
X103483082Y-140872257D02*
X103625939Y-140800828D01*
X103625939Y-140800828D02*
X103840225Y-140800828D01*
X103840225Y-140800828D02*
X103983082Y-140872257D01*
X103983082Y-140872257D02*
X104054511Y-141015114D01*
X104054511Y-141015114D02*
X104054511Y-141800828D01*
X104768796Y-140800828D02*
X104768796Y-142300828D01*
X104768796Y-140872257D02*
X104911654Y-140800828D01*
X104911654Y-140800828D02*
X105197368Y-140800828D01*
X105197368Y-140800828D02*
X105340225Y-140872257D01*
X105340225Y-140872257D02*
X105411654Y-140943685D01*
X105411654Y-140943685D02*
X105483082Y-141086542D01*
X105483082Y-141086542D02*
X105483082Y-141515114D01*
X105483082Y-141515114D02*
X105411654Y-141657971D01*
X105411654Y-141657971D02*
X105340225Y-141729400D01*
X105340225Y-141729400D02*
X105197368Y-141800828D01*
X105197368Y-141800828D02*
X104911654Y-141800828D01*
X104911654Y-141800828D02*
X104768796Y-141729400D01*
X107483082Y-140943685D02*
X107340225Y-140872257D01*
X107340225Y-140872257D02*
X107268796Y-140800828D01*
X107268796Y-140800828D02*
X107197368Y-140657971D01*
X107197368Y-140657971D02*
X107197368Y-140586542D01*
X107197368Y-140586542D02*
X107268796Y-140443685D01*
X107268796Y-140443685D02*
X107340225Y-140372257D01*
X107340225Y-140372257D02*
X107483082Y-140300828D01*
X107483082Y-140300828D02*
X107768796Y-140300828D01*
X107768796Y-140300828D02*
X107911654Y-140372257D01*
X107911654Y-140372257D02*
X107983082Y-140443685D01*
X107983082Y-140443685D02*
X108054511Y-140586542D01*
X108054511Y-140586542D02*
X108054511Y-140657971D01*
X108054511Y-140657971D02*
X107983082Y-140800828D01*
X107983082Y-140800828D02*
X107911654Y-140872257D01*
X107911654Y-140872257D02*
X107768796Y-140943685D01*
X107768796Y-140943685D02*
X107483082Y-140943685D01*
X107483082Y-140943685D02*
X107340225Y-141015114D01*
X107340225Y-141015114D02*
X107268796Y-141086542D01*
X107268796Y-141086542D02*
X107197368Y-141229400D01*
X107197368Y-141229400D02*
X107197368Y-141515114D01*
X107197368Y-141515114D02*
X107268796Y-141657971D01*
X107268796Y-141657971D02*
X107340225Y-141729400D01*
X107340225Y-141729400D02*
X107483082Y-141800828D01*
X107483082Y-141800828D02*
X107768796Y-141800828D01*
X107768796Y-141800828D02*
X107911654Y-141729400D01*
X107911654Y-141729400D02*
X107983082Y-141657971D01*
X107983082Y-141657971D02*
X108054511Y-141515114D01*
X108054511Y-141515114D02*
X108054511Y-141229400D01*
X108054511Y-141229400D02*
X107983082Y-141086542D01*
X107983082Y-141086542D02*
X107911654Y-141015114D01*
X107911654Y-141015114D02*
X107768796Y-140943685D01*
X126554510Y-112300828D02*
X126554510Y-113800828D01*
X126554510Y-112372257D02*
X126697368Y-112300828D01*
X126697368Y-112300828D02*
X126983082Y-112300828D01*
X126983082Y-112300828D02*
X127125939Y-112372257D01*
X127125939Y-112372257D02*
X127197368Y-112443685D01*
X127197368Y-112443685D02*
X127268796Y-112586542D01*
X127268796Y-112586542D02*
X127268796Y-113015114D01*
X127268796Y-113015114D02*
X127197368Y-113157971D01*
X127197368Y-113157971D02*
X127125939Y-113229400D01*
X127125939Y-113229400D02*
X126983082Y-113300828D01*
X126983082Y-113300828D02*
X126697368Y-113300828D01*
X126697368Y-113300828D02*
X126554510Y-113229400D01*
X128554511Y-112300828D02*
X128554511Y-113300828D01*
X127911653Y-112300828D02*
X127911653Y-113086542D01*
X127911653Y-113086542D02*
X127983082Y-113229400D01*
X127983082Y-113229400D02*
X128125939Y-113300828D01*
X128125939Y-113300828D02*
X128340225Y-113300828D01*
X128340225Y-113300828D02*
X128483082Y-113229400D01*
X128483082Y-113229400D02*
X128554511Y-113157971D01*
X129268796Y-113300828D02*
X129268796Y-112300828D01*
X129268796Y-112443685D02*
X129340225Y-112372257D01*
X129340225Y-112372257D02*
X129483082Y-112300828D01*
X129483082Y-112300828D02*
X129697368Y-112300828D01*
X129697368Y-112300828D02*
X129840225Y-112372257D01*
X129840225Y-112372257D02*
X129911654Y-112515114D01*
X129911654Y-112515114D02*
X129911654Y-113300828D01*
X129911654Y-112515114D02*
X129983082Y-112372257D01*
X129983082Y-112372257D02*
X130125939Y-112300828D01*
X130125939Y-112300828D02*
X130340225Y-112300828D01*
X130340225Y-112300828D02*
X130483082Y-112372257D01*
X130483082Y-112372257D02*
X130554511Y-112515114D01*
X130554511Y-112515114D02*
X130554511Y-113300828D01*
X131268796Y-112300828D02*
X131268796Y-113800828D01*
X131268796Y-112372257D02*
X131411654Y-112300828D01*
X131411654Y-112300828D02*
X131697368Y-112300828D01*
X131697368Y-112300828D02*
X131840225Y-112372257D01*
X131840225Y-112372257D02*
X131911654Y-112443685D01*
X131911654Y-112443685D02*
X131983082Y-112586542D01*
X131983082Y-112586542D02*
X131983082Y-113015114D01*
X131983082Y-113015114D02*
X131911654Y-113157971D01*
X131911654Y-113157971D02*
X131840225Y-113229400D01*
X131840225Y-113229400D02*
X131697368Y-113300828D01*
X131697368Y-113300828D02*
X131411654Y-113300828D01*
X131411654Y-113300828D02*
X131268796Y-113229400D01*
X134411654Y-112300828D02*
X134411654Y-113300828D01*
X134054511Y-111729400D02*
X133697368Y-112800828D01*
X133697368Y-112800828D02*
X134625939Y-112800828D01*
X157197368Y-92300828D02*
X157197368Y-91515114D01*
X157197368Y-91515114D02*
X157125939Y-91372257D01*
X157125939Y-91372257D02*
X156983082Y-91300828D01*
X156983082Y-91300828D02*
X156697368Y-91300828D01*
X156697368Y-91300828D02*
X156554510Y-91372257D01*
X157197368Y-92229400D02*
X157054510Y-92300828D01*
X157054510Y-92300828D02*
X156697368Y-92300828D01*
X156697368Y-92300828D02*
X156554510Y-92229400D01*
X156554510Y-92229400D02*
X156483082Y-92086542D01*
X156483082Y-92086542D02*
X156483082Y-91943685D01*
X156483082Y-91943685D02*
X156554510Y-91800828D01*
X156554510Y-91800828D02*
X156697368Y-91729400D01*
X156697368Y-91729400D02*
X157054510Y-91729400D01*
X157054510Y-91729400D02*
X157197368Y-91657971D01*
X158697368Y-92300828D02*
X157840225Y-92300828D01*
X158268796Y-92300828D02*
X158268796Y-90800828D01*
X158268796Y-90800828D02*
X158125939Y-91015114D01*
X158125939Y-91015114D02*
X157983082Y-91157971D01*
X157983082Y-91157971D02*
X157840225Y-91229400D01*
X100054510Y-90300828D02*
X100054510Y-91800828D01*
X100054510Y-90372257D02*
X100197368Y-90300828D01*
X100197368Y-90300828D02*
X100483082Y-90300828D01*
X100483082Y-90300828D02*
X100625939Y-90372257D01*
X100625939Y-90372257D02*
X100697368Y-90443685D01*
X100697368Y-90443685D02*
X100768796Y-90586542D01*
X100768796Y-90586542D02*
X100768796Y-91015114D01*
X100768796Y-91015114D02*
X100697368Y-91157971D01*
X100697368Y-91157971D02*
X100625939Y-91229400D01*
X100625939Y-91229400D02*
X100483082Y-91300828D01*
X100483082Y-91300828D02*
X100197368Y-91300828D01*
X100197368Y-91300828D02*
X100054510Y-91229400D01*
X102054511Y-90300828D02*
X102054511Y-91300828D01*
X101411653Y-90300828D02*
X101411653Y-91086542D01*
X101411653Y-91086542D02*
X101483082Y-91229400D01*
X101483082Y-91229400D02*
X101625939Y-91300828D01*
X101625939Y-91300828D02*
X101840225Y-91300828D01*
X101840225Y-91300828D02*
X101983082Y-91229400D01*
X101983082Y-91229400D02*
X102054511Y-91157971D01*
X102768796Y-91300828D02*
X102768796Y-90300828D01*
X102768796Y-90443685D02*
X102840225Y-90372257D01*
X102840225Y-90372257D02*
X102983082Y-90300828D01*
X102983082Y-90300828D02*
X103197368Y-90300828D01*
X103197368Y-90300828D02*
X103340225Y-90372257D01*
X103340225Y-90372257D02*
X103411654Y-90515114D01*
X103411654Y-90515114D02*
X103411654Y-91300828D01*
X103411654Y-90515114D02*
X103483082Y-90372257D01*
X103483082Y-90372257D02*
X103625939Y-90300828D01*
X103625939Y-90300828D02*
X103840225Y-90300828D01*
X103840225Y-90300828D02*
X103983082Y-90372257D01*
X103983082Y-90372257D02*
X104054511Y-90515114D01*
X104054511Y-90515114D02*
X104054511Y-91300828D01*
X104768796Y-90300828D02*
X104768796Y-91800828D01*
X104768796Y-90372257D02*
X104911654Y-90300828D01*
X104911654Y-90300828D02*
X105197368Y-90300828D01*
X105197368Y-90300828D02*
X105340225Y-90372257D01*
X105340225Y-90372257D02*
X105411654Y-90443685D01*
X105411654Y-90443685D02*
X105483082Y-90586542D01*
X105483082Y-90586542D02*
X105483082Y-91015114D01*
X105483082Y-91015114D02*
X105411654Y-91157971D01*
X105411654Y-91157971D02*
X105340225Y-91229400D01*
X105340225Y-91229400D02*
X105197368Y-91300828D01*
X105197368Y-91300828D02*
X104911654Y-91300828D01*
X104911654Y-91300828D02*
X104768796Y-91229400D01*
X107197368Y-89943685D02*
X107268796Y-89872257D01*
X107268796Y-89872257D02*
X107411654Y-89800828D01*
X107411654Y-89800828D02*
X107768796Y-89800828D01*
X107768796Y-89800828D02*
X107911654Y-89872257D01*
X107911654Y-89872257D02*
X107983082Y-89943685D01*
X107983082Y-89943685D02*
X108054511Y-90086542D01*
X108054511Y-90086542D02*
X108054511Y-90229400D01*
X108054511Y-90229400D02*
X107983082Y-90443685D01*
X107983082Y-90443685D02*
X107125939Y-91300828D01*
X107125939Y-91300828D02*
X108054511Y-91300828D01*
X74054510Y-113300828D02*
X74054510Y-114800828D01*
X74054510Y-113372257D02*
X74197368Y-113300828D01*
X74197368Y-113300828D02*
X74483082Y-113300828D01*
X74483082Y-113300828D02*
X74625939Y-113372257D01*
X74625939Y-113372257D02*
X74697368Y-113443685D01*
X74697368Y-113443685D02*
X74768796Y-113586542D01*
X74768796Y-113586542D02*
X74768796Y-114015114D01*
X74768796Y-114015114D02*
X74697368Y-114157971D01*
X74697368Y-114157971D02*
X74625939Y-114229400D01*
X74625939Y-114229400D02*
X74483082Y-114300828D01*
X74483082Y-114300828D02*
X74197368Y-114300828D01*
X74197368Y-114300828D02*
X74054510Y-114229400D01*
X76054511Y-113300828D02*
X76054511Y-114300828D01*
X75411653Y-113300828D02*
X75411653Y-114086542D01*
X75411653Y-114086542D02*
X75483082Y-114229400D01*
X75483082Y-114229400D02*
X75625939Y-114300828D01*
X75625939Y-114300828D02*
X75840225Y-114300828D01*
X75840225Y-114300828D02*
X75983082Y-114229400D01*
X75983082Y-114229400D02*
X76054511Y-114157971D01*
X76768796Y-114300828D02*
X76768796Y-113300828D01*
X76768796Y-113443685D02*
X76840225Y-113372257D01*
X76840225Y-113372257D02*
X76983082Y-113300828D01*
X76983082Y-113300828D02*
X77197368Y-113300828D01*
X77197368Y-113300828D02*
X77340225Y-113372257D01*
X77340225Y-113372257D02*
X77411654Y-113515114D01*
X77411654Y-113515114D02*
X77411654Y-114300828D01*
X77411654Y-113515114D02*
X77483082Y-113372257D01*
X77483082Y-113372257D02*
X77625939Y-113300828D01*
X77625939Y-113300828D02*
X77840225Y-113300828D01*
X77840225Y-113300828D02*
X77983082Y-113372257D01*
X77983082Y-113372257D02*
X78054511Y-113515114D01*
X78054511Y-113515114D02*
X78054511Y-114300828D01*
X78768796Y-113300828D02*
X78768796Y-114800828D01*
X78768796Y-113372257D02*
X78911654Y-113300828D01*
X78911654Y-113300828D02*
X79197368Y-113300828D01*
X79197368Y-113300828D02*
X79340225Y-113372257D01*
X79340225Y-113372257D02*
X79411654Y-113443685D01*
X79411654Y-113443685D02*
X79483082Y-113586542D01*
X79483082Y-113586542D02*
X79483082Y-114015114D01*
X79483082Y-114015114D02*
X79411654Y-114157971D01*
X79411654Y-114157971D02*
X79340225Y-114229400D01*
X79340225Y-114229400D02*
X79197368Y-114300828D01*
X79197368Y-114300828D02*
X78911654Y-114300828D01*
X78911654Y-114300828D02*
X78768796Y-114229400D01*
X81911654Y-112800828D02*
X81625939Y-112800828D01*
X81625939Y-112800828D02*
X81483082Y-112872257D01*
X81483082Y-112872257D02*
X81411654Y-112943685D01*
X81411654Y-112943685D02*
X81268796Y-113157971D01*
X81268796Y-113157971D02*
X81197368Y-113443685D01*
X81197368Y-113443685D02*
X81197368Y-114015114D01*
X81197368Y-114015114D02*
X81268796Y-114157971D01*
X81268796Y-114157971D02*
X81340225Y-114229400D01*
X81340225Y-114229400D02*
X81483082Y-114300828D01*
X81483082Y-114300828D02*
X81768796Y-114300828D01*
X81768796Y-114300828D02*
X81911654Y-114229400D01*
X81911654Y-114229400D02*
X81983082Y-114157971D01*
X81983082Y-114157971D02*
X82054511Y-114015114D01*
X82054511Y-114015114D02*
X82054511Y-113657971D01*
X82054511Y-113657971D02*
X81983082Y-113515114D01*
X81983082Y-113515114D02*
X81911654Y-113443685D01*
X81911654Y-113443685D02*
X81768796Y-113372257D01*
X81768796Y-113372257D02*
X81483082Y-113372257D01*
X81483082Y-113372257D02*
X81340225Y-113443685D01*
X81340225Y-113443685D02*
X81268796Y-113515114D01*
X81268796Y-113515114D02*
X81197368Y-113657971D01*
X126554510Y-90800828D02*
X126554510Y-92300828D01*
X126554510Y-90872257D02*
X126697368Y-90800828D01*
X126697368Y-90800828D02*
X126983082Y-90800828D01*
X126983082Y-90800828D02*
X127125939Y-90872257D01*
X127125939Y-90872257D02*
X127197368Y-90943685D01*
X127197368Y-90943685D02*
X127268796Y-91086542D01*
X127268796Y-91086542D02*
X127268796Y-91515114D01*
X127268796Y-91515114D02*
X127197368Y-91657971D01*
X127197368Y-91657971D02*
X127125939Y-91729400D01*
X127125939Y-91729400D02*
X126983082Y-91800828D01*
X126983082Y-91800828D02*
X126697368Y-91800828D01*
X126697368Y-91800828D02*
X126554510Y-91729400D01*
X128554511Y-90800828D02*
X128554511Y-91800828D01*
X127911653Y-90800828D02*
X127911653Y-91586542D01*
X127911653Y-91586542D02*
X127983082Y-91729400D01*
X127983082Y-91729400D02*
X128125939Y-91800828D01*
X128125939Y-91800828D02*
X128340225Y-91800828D01*
X128340225Y-91800828D02*
X128483082Y-91729400D01*
X128483082Y-91729400D02*
X128554511Y-91657971D01*
X129268796Y-91800828D02*
X129268796Y-90800828D01*
X129268796Y-90943685D02*
X129340225Y-90872257D01*
X129340225Y-90872257D02*
X129483082Y-90800828D01*
X129483082Y-90800828D02*
X129697368Y-90800828D01*
X129697368Y-90800828D02*
X129840225Y-90872257D01*
X129840225Y-90872257D02*
X129911654Y-91015114D01*
X129911654Y-91015114D02*
X129911654Y-91800828D01*
X129911654Y-91015114D02*
X129983082Y-90872257D01*
X129983082Y-90872257D02*
X130125939Y-90800828D01*
X130125939Y-90800828D02*
X130340225Y-90800828D01*
X130340225Y-90800828D02*
X130483082Y-90872257D01*
X130483082Y-90872257D02*
X130554511Y-91015114D01*
X130554511Y-91015114D02*
X130554511Y-91800828D01*
X131268796Y-90800828D02*
X131268796Y-92300828D01*
X131268796Y-90872257D02*
X131411654Y-90800828D01*
X131411654Y-90800828D02*
X131697368Y-90800828D01*
X131697368Y-90800828D02*
X131840225Y-90872257D01*
X131840225Y-90872257D02*
X131911654Y-90943685D01*
X131911654Y-90943685D02*
X131983082Y-91086542D01*
X131983082Y-91086542D02*
X131983082Y-91515114D01*
X131983082Y-91515114D02*
X131911654Y-91657971D01*
X131911654Y-91657971D02*
X131840225Y-91729400D01*
X131840225Y-91729400D02*
X131697368Y-91800828D01*
X131697368Y-91800828D02*
X131411654Y-91800828D01*
X131411654Y-91800828D02*
X131268796Y-91729400D01*
X134554511Y-91800828D02*
X133697368Y-91800828D01*
X134125939Y-91800828D02*
X134125939Y-90300828D01*
X134125939Y-90300828D02*
X133983082Y-90515114D01*
X133983082Y-90515114D02*
X133840225Y-90657971D01*
X133840225Y-90657971D02*
X133697368Y-90729400D01*
M02*
